G04 #@! TF.FileFunction,Legend,Top*
%FSLAX46Y46*%
G04 Gerber Fmt 4.6, Leading zero omitted, Abs format (unit mm)*
G04 Created by KiCad (PCBNEW 4.0.1-stable) date 7/8/2016 1:21:39 PM*
%MOMM*%
G01*
G04 APERTURE LIST*
%ADD10C,0.100000*%
%ADD11C,0.300000*%
%ADD12C,0.254000*%
%ADD13C,0.150000*%
%ADD14C,0.203200*%
G04 APERTURE END LIST*
D10*
D11*
X-10922000Y-11902286D02*
X-10922000Y-12616571D01*
X-11422000Y-11116571D02*
X-10922000Y-11902286D01*
X-10422000Y-11116571D01*
X-4309999Y-11116571D02*
X-3309999Y-12616571D01*
X-3309999Y-11116571D02*
X-4309999Y-12616571D01*
D12*
X-18402904Y-8255000D02*
X-18499666Y-8194524D01*
X-18644809Y-8194524D01*
X-18789951Y-8255000D01*
X-18886713Y-8375952D01*
X-18935094Y-8496905D01*
X-18983475Y-8738810D01*
X-18983475Y-8920238D01*
X-18935094Y-9162143D01*
X-18886713Y-9283095D01*
X-18789951Y-9404048D01*
X-18644809Y-9464524D01*
X-18548047Y-9464524D01*
X-18402904Y-9404048D01*
X-18354523Y-9343571D01*
X-18354523Y-8920238D01*
X-18548047Y-8920238D01*
X-16419285Y-9404048D02*
X-16274142Y-9464524D01*
X-16032238Y-9464524D01*
X-15935476Y-9404048D01*
X-15887095Y-9343571D01*
X-15838714Y-9222619D01*
X-15838714Y-9101667D01*
X-15887095Y-8980714D01*
X-15935476Y-8920238D01*
X-16032238Y-8859762D01*
X-16225761Y-8799286D01*
X-16322523Y-8738810D01*
X-16370904Y-8678333D01*
X-16419285Y-8557381D01*
X-16419285Y-8436429D01*
X-16370904Y-8315476D01*
X-16322523Y-8255000D01*
X-16225761Y-8194524D01*
X-15983857Y-8194524D01*
X-15838714Y-8255000D01*
X-13855095Y-9464524D02*
X-13855095Y-8194524D01*
X-13613190Y-8194524D01*
X-13468048Y-8255000D01*
X-13371286Y-8375952D01*
X-13322905Y-8496905D01*
X-13274524Y-8738810D01*
X-13274524Y-8920238D01*
X-13322905Y-9162143D01*
X-13371286Y-9283095D01*
X-13468048Y-9404048D01*
X-13613190Y-9464524D01*
X-13855095Y-9464524D01*
X-18275904Y-16256000D02*
X-18372666Y-16195524D01*
X-18517809Y-16195524D01*
X-18662951Y-16256000D01*
X-18759713Y-16376952D01*
X-18808094Y-16497905D01*
X-18856475Y-16739810D01*
X-18856475Y-16921238D01*
X-18808094Y-17163143D01*
X-18759713Y-17284095D01*
X-18662951Y-17405048D01*
X-18517809Y-17465524D01*
X-18421047Y-17465524D01*
X-18275904Y-17405048D01*
X-18227523Y-17344571D01*
X-18227523Y-16921238D01*
X-18421047Y-16921238D01*
X-16243904Y-17465524D02*
X-16243904Y-16195524D01*
X-16001999Y-16195524D01*
X-15856857Y-16256000D01*
X-15760095Y-16376952D01*
X-15711714Y-16497905D01*
X-15663333Y-16739810D01*
X-15663333Y-16921238D01*
X-15711714Y-17163143D01*
X-15760095Y-17284095D01*
X-15856857Y-17405048D01*
X-16001999Y-17465524D01*
X-16243904Y-17465524D01*
X-13728095Y-17405048D02*
X-13582952Y-17465524D01*
X-13341048Y-17465524D01*
X-13244286Y-17405048D01*
X-13195905Y-17344571D01*
X-13147524Y-17223619D01*
X-13147524Y-17102667D01*
X-13195905Y-16981714D01*
X-13244286Y-16921238D01*
X-13341048Y-16860762D01*
X-13534571Y-16800286D01*
X-13631333Y-16739810D01*
X-13679714Y-16679333D01*
X-13728095Y-16558381D01*
X-13728095Y-16437429D01*
X-13679714Y-16316476D01*
X-13631333Y-16256000D01*
X-13534571Y-16195524D01*
X-13292667Y-16195524D01*
X-13147524Y-16256000D01*
X-1028095Y-13589000D02*
X-1124857Y-13528524D01*
X-1270000Y-13528524D01*
X-1415142Y-13589000D01*
X-1511904Y-13709952D01*
X-1560285Y-13830905D01*
X-1608666Y-14072810D01*
X-1608666Y-14254238D01*
X-1560285Y-14496143D01*
X-1511904Y-14617095D01*
X-1415142Y-14738048D01*
X-1270000Y-14798524D01*
X-1173238Y-14798524D01*
X-1028095Y-14738048D01*
X-979714Y-14677571D01*
X-979714Y-14254238D01*
X-1173238Y-14254238D01*
X-544285Y-14798524D02*
X-544285Y-13528524D01*
X36286Y-14798524D01*
X36286Y-13528524D01*
X520096Y-14798524D02*
X520096Y-13528524D01*
X762001Y-13528524D01*
X907143Y-13589000D01*
X1003905Y-13709952D01*
X1052286Y-13830905D01*
X1100667Y-14072810D01*
X1100667Y-14254238D01*
X1052286Y-14496143D01*
X1003905Y-14617095D01*
X907143Y-14738048D01*
X762001Y-14798524D01*
X520096Y-14798524D01*
X-5125357Y15004143D02*
X-4907643Y14157476D01*
X-4689929Y14762238D01*
X-4472214Y14157476D01*
X-4254500Y15004143D01*
X-3927928Y15004143D02*
X-3710214Y14157476D01*
X-3492500Y14762238D01*
X-3274785Y14157476D01*
X-3057071Y15004143D01*
X-2730499Y15004143D02*
X-2512785Y14157476D01*
X-2295071Y14762238D01*
X-2077356Y14157476D01*
X-1859642Y15004143D01*
X-1424213Y14278429D02*
X-1369785Y14217952D01*
X-1424213Y14157476D01*
X-1478642Y14217952D01*
X-1424213Y14278429D01*
X-1424213Y14157476D01*
X-1043213Y15004143D02*
X-607784Y15004143D01*
X-879927Y14157476D02*
X-879927Y15246048D01*
X-825499Y15367000D01*
X-716641Y15427476D01*
X-607784Y15427476D01*
X-63498Y14157476D02*
X-172356Y14217952D01*
X-226784Y14278429D01*
X-281213Y14399381D01*
X-281213Y14762238D01*
X-226784Y14883190D01*
X-172356Y14943667D01*
X-63498Y15004143D01*
X99787Y15004143D01*
X208644Y14943667D01*
X263073Y14883190D01*
X317502Y14762238D01*
X317502Y14399381D01*
X263073Y14278429D01*
X208644Y14217952D01*
X99787Y14157476D01*
X-63498Y14157476D01*
X807359Y14157476D02*
X807359Y15004143D01*
X807359Y14762238D02*
X861787Y14883190D01*
X916216Y14943667D01*
X1025073Y15004143D01*
X1133930Y15004143D01*
X1950358Y14217952D02*
X1841501Y14157476D01*
X1623787Y14157476D01*
X1514930Y14217952D01*
X1460501Y14338905D01*
X1460501Y14822714D01*
X1514930Y14943667D01*
X1623787Y15004143D01*
X1841501Y15004143D01*
X1950358Y14943667D01*
X2004787Y14822714D01*
X2004787Y14701762D01*
X1460501Y14580810D01*
X2494644Y14157476D02*
X2494644Y15004143D01*
X2494644Y14883190D02*
X2549072Y14943667D01*
X2657930Y15004143D01*
X2821215Y15004143D01*
X2930072Y14943667D01*
X2984501Y14822714D01*
X2984501Y14157476D01*
X2984501Y14822714D02*
X3038930Y14943667D01*
X3147787Y15004143D01*
X3311072Y15004143D01*
X3419930Y14943667D01*
X3474358Y14822714D01*
X3474358Y14157476D01*
X4018644Y14157476D02*
X4018644Y15427476D01*
X4018644Y14943667D02*
X4127501Y15004143D01*
X4345215Y15004143D01*
X4454072Y14943667D01*
X4508501Y14883190D01*
X4562930Y14762238D01*
X4562930Y14399381D01*
X4508501Y14278429D01*
X4454072Y14217952D01*
X4345215Y14157476D01*
X4127501Y14157476D01*
X4018644Y14217952D01*
X5488215Y14217952D02*
X5379358Y14157476D01*
X5161644Y14157476D01*
X5052787Y14217952D01*
X4998358Y14338905D01*
X4998358Y14822714D01*
X5052787Y14943667D01*
X5161644Y15004143D01*
X5379358Y15004143D01*
X5488215Y14943667D01*
X5542644Y14822714D01*
X5542644Y14701762D01*
X4998358Y14580810D01*
X6522358Y14157476D02*
X6522358Y15427476D01*
X6522358Y14217952D02*
X6413501Y14157476D01*
X6195787Y14157476D01*
X6086929Y14217952D01*
X6032501Y14278429D01*
X5978072Y14399381D01*
X5978072Y14762238D01*
X6032501Y14883190D01*
X6086929Y14943667D01*
X6195787Y15004143D01*
X6413501Y15004143D01*
X6522358Y14943667D01*
X7066644Y14278429D02*
X7121072Y14217952D01*
X7066644Y14157476D01*
X7012215Y14217952D01*
X7066644Y14278429D01*
X7066644Y14157476D01*
X8100787Y14217952D02*
X7991930Y14157476D01*
X7774216Y14157476D01*
X7665358Y14217952D01*
X7610930Y14278429D01*
X7556501Y14399381D01*
X7556501Y14762238D01*
X7610930Y14883190D01*
X7665358Y14943667D01*
X7774216Y15004143D01*
X7991930Y15004143D01*
X8100787Y14943667D01*
X8753930Y14157476D02*
X8645072Y14217952D01*
X8590644Y14278429D01*
X8536215Y14399381D01*
X8536215Y14762238D01*
X8590644Y14883190D01*
X8645072Y14943667D01*
X8753930Y15004143D01*
X8917215Y15004143D01*
X9026072Y14943667D01*
X9080501Y14883190D01*
X9134930Y14762238D01*
X9134930Y14399381D01*
X9080501Y14278429D01*
X9026072Y14217952D01*
X8917215Y14157476D01*
X8753930Y14157476D01*
X9624787Y14157476D02*
X9624787Y15004143D01*
X9624787Y14883190D02*
X9679215Y14943667D01*
X9788073Y15004143D01*
X9951358Y15004143D01*
X10060215Y14943667D01*
X10114644Y14822714D01*
X10114644Y14157476D01*
X10114644Y14822714D02*
X10169073Y14943667D01*
X10277930Y15004143D01*
X10441215Y15004143D01*
X10550073Y14943667D01*
X10604501Y14822714D01*
X10604501Y14157476D01*
X-4674808Y16225762D02*
X-4795761Y16177381D01*
X-5037665Y16177381D01*
X-5158618Y16225762D01*
X-5219094Y16274143D01*
X-5279570Y16370905D01*
X-5279570Y16661190D01*
X-5219094Y16757952D01*
X-5158618Y16806333D01*
X-5037665Y16854714D01*
X-4795761Y16854714D01*
X-4674808Y16806333D01*
X-3586237Y16854714D02*
X-3586237Y16177381D01*
X-4130523Y16854714D02*
X-4130523Y16322524D01*
X-4070047Y16225762D01*
X-3949094Y16177381D01*
X-3767666Y16177381D01*
X-3646714Y16225762D01*
X-3586237Y16274143D01*
X-2981475Y16177381D02*
X-2981475Y16854714D01*
X-2981475Y16661190D02*
X-2920999Y16757952D01*
X-2860523Y16806333D01*
X-2739570Y16854714D01*
X-2618618Y16854714D01*
X-2316237Y16854714D02*
X-2013856Y16177381D01*
X-1711476Y16854714D01*
X-743857Y16225762D02*
X-864809Y16177381D01*
X-1106714Y16177381D01*
X-1227666Y16225762D01*
X-1288142Y16322524D01*
X-1288142Y16709571D01*
X-1227666Y16806333D01*
X-1106714Y16854714D01*
X-864809Y16854714D01*
X-743857Y16806333D01*
X-683380Y16709571D01*
X-683380Y16612810D01*
X-1288142Y16516048D01*
X647095Y16854714D02*
X1130905Y16854714D01*
X828524Y17193381D02*
X828524Y16322524D01*
X889000Y16225762D01*
X1009953Y16177381D01*
X1130905Y16177381D01*
X1554238Y16177381D02*
X1554238Y16854714D01*
X1554238Y16661190D02*
X1614714Y16757952D01*
X1675190Y16806333D01*
X1796143Y16854714D01*
X1917095Y16854714D01*
X2884714Y16177381D02*
X2884714Y16709571D01*
X2824237Y16806333D01*
X2703285Y16854714D01*
X2461380Y16854714D01*
X2340428Y16806333D01*
X2884714Y16225762D02*
X2763761Y16177381D01*
X2461380Y16177381D01*
X2340428Y16225762D01*
X2279952Y16322524D01*
X2279952Y16419286D01*
X2340428Y16516048D01*
X2461380Y16564429D01*
X2763761Y16564429D01*
X2884714Y16612810D01*
X4033762Y16225762D02*
X3912809Y16177381D01*
X3670905Y16177381D01*
X3549952Y16225762D01*
X3489476Y16274143D01*
X3429000Y16370905D01*
X3429000Y16661190D01*
X3489476Y16757952D01*
X3549952Y16806333D01*
X3670905Y16854714D01*
X3912809Y16854714D01*
X4033762Y16806333D01*
X5061856Y16225762D02*
X4940904Y16177381D01*
X4698999Y16177381D01*
X4578047Y16225762D01*
X4517571Y16322524D01*
X4517571Y16709571D01*
X4578047Y16806333D01*
X4698999Y16854714D01*
X4940904Y16854714D01*
X5061856Y16806333D01*
X5122333Y16709571D01*
X5122333Y16612810D01*
X4517571Y16516048D01*
X5666618Y16177381D02*
X5666618Y16854714D01*
X5666618Y16661190D02*
X5727094Y16757952D01*
X5787570Y16806333D01*
X5908523Y16854714D01*
X6029475Y16854714D01*
X7299475Y16854714D02*
X7601856Y16177381D01*
X7904236Y16854714D01*
X9053284Y16177381D02*
X8327570Y16177381D01*
X8690427Y16177381D02*
X8690427Y17193381D01*
X8569475Y17048238D01*
X8448522Y16951476D01*
X8327570Y16903095D01*
X9597570Y16274143D02*
X9658046Y16225762D01*
X9597570Y16177381D01*
X9537094Y16225762D01*
X9597570Y16274143D01*
X9597570Y16177381D01*
X10141856Y17096619D02*
X10202332Y17145000D01*
X10323284Y17193381D01*
X10625665Y17193381D01*
X10746618Y17145000D01*
X10807094Y17096619D01*
X10867570Y16999857D01*
X10867570Y16903095D01*
X10807094Y16757952D01*
X10081380Y16177381D01*
X10867570Y16177381D01*
D13*
X12192000Y8001000D02*
G75*
G03X12192000Y8001000I-508000J0D01*
G01*
X17526000Y10795000D02*
X11938000Y10795000D01*
X11938000Y10795000D02*
X11938000Y8763000D01*
X11938000Y8763000D02*
X17526000Y8763000D01*
X17526000Y8763000D02*
X17526000Y10795000D01*
X20828000Y-5969000D02*
X22860000Y-5969000D01*
X20828000Y-4699000D02*
X22860000Y-4699000D01*
X-20000000Y-14500000D02*
G75*
G03X-26000000Y-8500000I-6000000J0D01*
G01*
X-26000000Y8500000D02*
G75*
G03X-20000000Y14500000I0J6000000D01*
G01*
X26000000Y-8500000D02*
G75*
G03X20000000Y-14500000I0J-6000000D01*
G01*
X20000000Y14500000D02*
G75*
G03X26000000Y8500000I6000000J0D01*
G01*
X-30000000Y-14500000D02*
X-30000000Y14500000D01*
X-30000000Y-14500000D02*
G75*
G03X-26000000Y-18500000I4000000J0D01*
G01*
X26000000Y18500000D02*
X-26000000Y18500000D01*
X30000000Y14500000D02*
X30000000Y-14500000D01*
X-26000000Y-18500000D02*
X26000000Y-18500000D01*
X-26000000Y18500000D02*
G75*
G03X-30000000Y14500000I0J-4000000D01*
G01*
X26000000Y-18500000D02*
G75*
G03X30000000Y-14500000I0J4000000D01*
G01*
X30000000Y14500000D02*
G75*
G03X26000000Y18500000I-4000000J0D01*
G01*
X-8001000Y5207000D02*
X-5969000Y5207000D01*
X-8001000Y6477000D02*
X-5969000Y6477000D01*
X22860000Y-2921000D02*
X20828000Y-2921000D01*
X22860000Y-4191000D02*
X20828000Y-4191000D01*
X-1143000Y2921000D02*
X-3175000Y2921000D01*
X-1143000Y1651000D02*
X-3175000Y1651000D01*
X22860000Y2413000D02*
X20828000Y2413000D01*
X22860000Y1143000D02*
X20828000Y1143000D01*
X-17272000Y-381000D02*
X-19304000Y-381000D01*
X-17272000Y-1651000D02*
X-19304000Y-1651000D01*
X15621000Y17018000D02*
X13589000Y17018000D01*
X15621000Y15748000D02*
X13589000Y15748000D01*
X-26797000Y6096000D02*
X-29337000Y6096000D01*
X-26797000Y8636000D02*
X-26797000Y-4064000D01*
X-26797000Y-4064000D02*
X-29337000Y-4064000D01*
X-29337000Y-4064000D02*
X-29337000Y8636000D01*
X-29337000Y8636000D02*
X-26797000Y8636000D01*
X-17399000Y-15748000D02*
X-17399000Y-13208000D01*
X-17399000Y-13208000D02*
X-19939000Y-13208000D01*
X-19939000Y-5588000D02*
X-12065000Y-5588000D01*
X-12065000Y-5588000D02*
X-12065000Y-15748000D01*
X-12065000Y-15748000D02*
X-19939000Y-15748000D01*
X-19939000Y-15748000D02*
X-19939000Y-5588000D01*
X-25654000Y7112000D02*
X-25654000Y5080000D01*
X-24384000Y7112000D02*
X-24384000Y5080000D01*
X-1143000Y-1651000D02*
X-3175000Y-1651000D01*
X-1143000Y-2921000D02*
X-3175000Y-2921000D01*
X-3175000Y-1397000D02*
X-1143000Y-1397000D01*
X-3175000Y-127000D02*
X-1143000Y-127000D01*
X5969000Y-3683000D02*
X3937000Y-3683000D01*
X5969000Y-4953000D02*
X3937000Y-4953000D01*
X1143000Y-4953000D02*
X3175000Y-4953000D01*
X1143000Y-3683000D02*
X3175000Y-3683000D01*
X-19304000Y-127000D02*
X-17272000Y-127000D01*
X-19304000Y1143000D02*
X-17272000Y1143000D01*
X-1143000Y1397000D02*
X-3175000Y1397000D01*
X-1143000Y127000D02*
X-3175000Y127000D01*
X12700000Y-3429000D02*
X14732000Y-3429000D01*
X12700000Y-2159000D02*
X14732000Y-2159000D01*
X20828000Y-2413000D02*
X22860000Y-2413000D01*
X20828000Y-1143000D02*
X22860000Y-1143000D01*
X20828000Y-635000D02*
X22860000Y-635000D01*
X20828000Y635000D02*
X22860000Y635000D01*
X9906000Y2667000D02*
X11938000Y2667000D01*
X9906000Y3937000D02*
X11938000Y3937000D01*
X3937000Y-6985000D02*
X5969000Y-6985000D01*
X3937000Y-5715000D02*
X5969000Y-5715000D01*
X-15751000Y11358000D02*
G75*
G03X-15751000Y11358000I-400000J0D01*
G01*
X-11951000Y11958000D02*
X-16751000Y11958000D01*
X-16751000Y11958000D02*
X-16751000Y1758000D01*
X-16751000Y1758000D02*
X-11951000Y1758000D01*
X-11951000Y1758000D02*
X-11951000Y11958000D01*
X29845000Y-2540000D02*
X29845000Y2540000D01*
X3937000Y2159000D02*
X5969000Y2159000D01*
X3937000Y3429000D02*
X5969000Y3429000D01*
X-8890000Y12954000D02*
X-8890000Y10922000D01*
X-7620000Y12954000D02*
X-7620000Y10922000D01*
X15621000Y15367000D02*
X13589000Y15367000D01*
X15621000Y14097000D02*
X13589000Y14097000D01*
X12700000Y-4953000D02*
X14732000Y-4953000D01*
X12700000Y-3683000D02*
X14732000Y-3683000D01*
X9906000Y1143000D02*
X11938000Y1143000D01*
X9906000Y2413000D02*
X11938000Y2413000D01*
X9906000Y-4953000D02*
X11938000Y-4953000D01*
X9906000Y-3683000D02*
X11938000Y-3683000D01*
X12700000Y1143000D02*
X14732000Y1143000D01*
X12700000Y2413000D02*
X14732000Y2413000D01*
X9906000Y-3429000D02*
X11938000Y-3429000D01*
X9906000Y-2159000D02*
X11938000Y-2159000D01*
X12700000Y2667000D02*
X14732000Y2667000D01*
X12700000Y3937000D02*
X14732000Y3937000D01*
X6731000Y1651000D02*
X6731000Y-3175000D01*
X6731000Y-3175000D02*
X3175000Y-3175000D01*
X3175000Y-3175000D02*
X3175000Y1651000D01*
X3175000Y1651000D02*
X6731000Y1651000D01*
X4191000Y1016000D02*
G75*
G03X4191000Y1016000I-381000J0D01*
G01*
X-19304000Y-4699000D02*
X-17272000Y-4699000D01*
X-19304000Y-3429000D02*
X-17272000Y-3429000D01*
X-19304000Y-3175000D02*
X-17272000Y-3175000D01*
X-19304000Y-1905000D02*
X-17272000Y-1905000D01*
X20574000Y5969000D02*
X22606000Y5969000D01*
X20574000Y7239000D02*
X22606000Y7239000D01*
X20574000Y4318000D02*
X22606000Y4318000D01*
X20574000Y5588000D02*
X22606000Y5588000D01*
X12573000Y-8001000D02*
X14605000Y-8001000D01*
X12573000Y-6731000D02*
X14605000Y-6731000D01*
X-12700000Y13970000D02*
X-12700000Y16002000D01*
X-13970000Y13970000D02*
X-13970000Y16002000D01*
X-11176000Y13970000D02*
X-11176000Y16002000D01*
X-12446000Y13970000D02*
X-12446000Y16002000D01*
X-9652000Y13970000D02*
X-9652000Y16002000D01*
X-10922000Y13970000D02*
X-10922000Y16002000D01*
X-21209000Y2413000D02*
X-23241000Y2413000D01*
X-21209000Y1143000D02*
X-23241000Y1143000D01*
X-4064000Y2921000D02*
X-6096000Y2921000D01*
X-4064000Y1651000D02*
X-6096000Y1651000D01*
X-4064000Y1397000D02*
X-6096000Y1397000D01*
X-4064000Y127000D02*
X-6096000Y127000D01*
X-12065000Y-381000D02*
X-14097000Y-381000D01*
X-12065000Y-1651000D02*
X-14097000Y-1651000D01*
X-11303000Y-1651000D02*
X-9271000Y-1651000D01*
X-11303000Y-381000D02*
X-9271000Y-381000D01*
X-12065000Y-3429000D02*
X-14097000Y-3429000D01*
X-12065000Y-4699000D02*
X-14097000Y-4699000D01*
X-11303000Y-4699000D02*
X-9271000Y-4699000D01*
X-11303000Y-3429000D02*
X-9271000Y-3429000D01*
X-12065000Y1143000D02*
X-14097000Y1143000D01*
X-12065000Y-127000D02*
X-14097000Y-127000D01*
X-9271000Y1143000D02*
X-11303000Y1143000D01*
X-9271000Y-127000D02*
X-11303000Y-127000D01*
X-12065000Y-1905000D02*
X-14097000Y-1905000D01*
X-12065000Y-3175000D02*
X-14097000Y-3175000D01*
X-11303000Y-3175000D02*
X-9271000Y-3175000D01*
X-11303000Y-1905000D02*
X-9271000Y-1905000D01*
X-19050000Y15113000D02*
X-19050000Y17653000D01*
X-19330000Y12293000D02*
X-19330000Y13843000D01*
X-19050000Y15113000D02*
X-16510000Y15113000D01*
X-16230000Y13843000D02*
X-16230000Y12293000D01*
X-16230000Y12293000D02*
X-19330000Y12293000D01*
X-16510000Y15113000D02*
X-16510000Y17653000D01*
X-16510000Y17653000D02*
X-19050000Y17653000D01*
X-15494000Y16002000D02*
X-15494000Y13970000D01*
X-14224000Y16002000D02*
X-14224000Y13970000D01*
X-9906000Y-13208000D02*
X-4826000Y-13208000D01*
X-4826000Y-13208000D02*
X-4826000Y-10668000D01*
X-4826000Y-10668000D02*
X-9906000Y-10668000D01*
X-9906000Y-10668000D02*
X-9906000Y-13208000D01*
X9626714Y10436143D02*
X9626714Y9464714D01*
X9683857Y9350429D01*
X9741000Y9293286D01*
X9855286Y9236143D01*
X10083857Y9236143D01*
X10198143Y9293286D01*
X10255286Y9350429D01*
X10312429Y9464714D01*
X10312429Y10436143D01*
X10769572Y10436143D02*
X11512429Y10436143D01*
X11112429Y9979000D01*
X11283857Y9979000D01*
X11398143Y9921857D01*
X11455286Y9864714D01*
X11512429Y9750429D01*
X11512429Y9464714D01*
X11455286Y9350429D01*
X11398143Y9293286D01*
X11283857Y9236143D01*
X10941000Y9236143D01*
X10826714Y9293286D01*
X10769572Y9350429D01*
D14*
X23981834Y-5950857D02*
X23939500Y-5999238D01*
X23812500Y-6047619D01*
X23727834Y-6047619D01*
X23600834Y-5999238D01*
X23516167Y-5902476D01*
X23473834Y-5805714D01*
X23431500Y-5612190D01*
X23431500Y-5467048D01*
X23473834Y-5273524D01*
X23516167Y-5176762D01*
X23600834Y-5080000D01*
X23727834Y-5031619D01*
X23812500Y-5031619D01*
X23939500Y-5080000D01*
X23981834Y-5128381D01*
X24828500Y-6047619D02*
X24320500Y-6047619D01*
X24574500Y-6047619D02*
X24574500Y-5031619D01*
X24489834Y-5176762D01*
X24405167Y-5273524D01*
X24320500Y-5321905D01*
D13*
X29011571Y9723572D02*
X29011571Y9390238D01*
X29535381Y9390238D02*
X28535381Y9390238D01*
X28535381Y9866429D01*
X29535381Y10247381D02*
X28535381Y10247381D01*
X29535381Y10723571D02*
X28535381Y10723571D01*
X28535381Y10961666D01*
X28583000Y11104524D01*
X28678238Y11199762D01*
X28773476Y11247381D01*
X28963952Y11295000D01*
X29106810Y11295000D01*
X29297286Y11247381D01*
X29392524Y11199762D01*
X29487762Y11104524D01*
X29535381Y10961666D01*
X29535381Y10723571D01*
X29535381Y12247381D02*
X29535381Y11675952D01*
X29535381Y11961666D02*
X28535381Y11961666D01*
X28678238Y11866428D01*
X28773476Y11771190D01*
X28821095Y11675952D01*
D14*
X-7514166Y3955143D02*
X-7556500Y3906762D01*
X-7683500Y3858381D01*
X-7768166Y3858381D01*
X-7895166Y3906762D01*
X-7979833Y4003524D01*
X-8022166Y4100286D01*
X-8064500Y4293810D01*
X-8064500Y4438952D01*
X-8022166Y4632476D01*
X-7979833Y4729238D01*
X-7895166Y4826000D01*
X-7768166Y4874381D01*
X-7683500Y4874381D01*
X-7556500Y4826000D01*
X-7514166Y4777619D01*
X-7175500Y4777619D02*
X-7133166Y4826000D01*
X-7048500Y4874381D01*
X-6836833Y4874381D01*
X-6752166Y4826000D01*
X-6709833Y4777619D01*
X-6667500Y4680857D01*
X-6667500Y4584095D01*
X-6709833Y4438952D01*
X-7217833Y3858381D01*
X-6667500Y3858381D01*
X23854834Y-4299857D02*
X23812500Y-4348238D01*
X23685500Y-4396619D01*
X23600834Y-4396619D01*
X23473834Y-4348238D01*
X23389167Y-4251476D01*
X23346834Y-4154714D01*
X23304500Y-3961190D01*
X23304500Y-3816048D01*
X23346834Y-3622524D01*
X23389167Y-3525762D01*
X23473834Y-3429000D01*
X23600834Y-3380619D01*
X23685500Y-3380619D01*
X23812500Y-3429000D01*
X23854834Y-3477381D01*
X24151167Y-3380619D02*
X24701500Y-3380619D01*
X24405167Y-3767667D01*
X24532167Y-3767667D01*
X24616834Y-3816048D01*
X24659167Y-3864429D01*
X24701500Y-3961190D01*
X24701500Y-4203095D01*
X24659167Y-4299857D01*
X24616834Y-4348238D01*
X24532167Y-4396619D01*
X24278167Y-4396619D01*
X24193500Y-4348238D01*
X24151167Y-4299857D01*
X-148166Y2304143D02*
X-190500Y2255762D01*
X-317500Y2207381D01*
X-402166Y2207381D01*
X-529166Y2255762D01*
X-613833Y2352524D01*
X-656166Y2449286D01*
X-698500Y2642810D01*
X-698500Y2787952D01*
X-656166Y2981476D01*
X-613833Y3078238D01*
X-529166Y3175000D01*
X-402166Y3223381D01*
X-317500Y3223381D01*
X-190500Y3175000D01*
X-148166Y3126619D01*
X613834Y2884714D02*
X613834Y2207381D01*
X402167Y3271762D02*
X190500Y2546048D01*
X740834Y2546048D01*
X19409834Y1415143D02*
X19367500Y1366762D01*
X19240500Y1318381D01*
X19155834Y1318381D01*
X19028834Y1366762D01*
X18944167Y1463524D01*
X18901834Y1560286D01*
X18859500Y1753810D01*
X18859500Y1898952D01*
X18901834Y2092476D01*
X18944167Y2189238D01*
X19028834Y2286000D01*
X19155834Y2334381D01*
X19240500Y2334381D01*
X19367500Y2286000D01*
X19409834Y2237619D01*
X20214167Y2334381D02*
X19790834Y2334381D01*
X19748500Y1850571D01*
X19790834Y1898952D01*
X19875500Y1947333D01*
X20087167Y1947333D01*
X20171834Y1898952D01*
X20214167Y1850571D01*
X20256500Y1753810D01*
X20256500Y1511905D01*
X20214167Y1415143D01*
X20171834Y1366762D01*
X20087167Y1318381D01*
X19875500Y1318381D01*
X19790834Y1366762D01*
X19748500Y1415143D01*
X-20595166Y-1505857D02*
X-20637500Y-1554238D01*
X-20764500Y-1602619D01*
X-20849166Y-1602619D01*
X-20976166Y-1554238D01*
X-21060833Y-1457476D01*
X-21103166Y-1360714D01*
X-21145500Y-1167190D01*
X-21145500Y-1022048D01*
X-21103166Y-828524D01*
X-21060833Y-731762D01*
X-20976166Y-635000D01*
X-20849166Y-586619D01*
X-20764500Y-586619D01*
X-20637500Y-635000D01*
X-20595166Y-683381D01*
X-19833166Y-586619D02*
X-20002500Y-586619D01*
X-20087166Y-635000D01*
X-20129500Y-683381D01*
X-20214166Y-828524D01*
X-20256500Y-1022048D01*
X-20256500Y-1409095D01*
X-20214166Y-1505857D01*
X-20171833Y-1554238D01*
X-20087166Y-1602619D01*
X-19917833Y-1602619D01*
X-19833166Y-1554238D01*
X-19790833Y-1505857D01*
X-19748500Y-1409095D01*
X-19748500Y-1167190D01*
X-19790833Y-1070429D01*
X-19833166Y-1022048D01*
X-19917833Y-973667D01*
X-20087166Y-973667D01*
X-20171833Y-1022048D01*
X-20214166Y-1070429D01*
X-20256500Y-1167190D01*
X16742834Y16020143D02*
X16700500Y15971762D01*
X16573500Y15923381D01*
X16488834Y15923381D01*
X16361834Y15971762D01*
X16277167Y16068524D01*
X16234834Y16165286D01*
X16192500Y16358810D01*
X16192500Y16503952D01*
X16234834Y16697476D01*
X16277167Y16794238D01*
X16361834Y16891000D01*
X16488834Y16939381D01*
X16573500Y16939381D01*
X16700500Y16891000D01*
X16742834Y16842619D01*
X17039167Y16939381D02*
X17631834Y16939381D01*
X17250834Y15923381D01*
D13*
X-28678095Y8818619D02*
X-28678095Y9818619D01*
X-28297142Y9818619D01*
X-28201904Y9771000D01*
X-28154285Y9723381D01*
X-28106666Y9628143D01*
X-28106666Y9485286D01*
X-28154285Y9390048D01*
X-28201904Y9342429D01*
X-28297142Y9294810D01*
X-28678095Y9294810D01*
X-27154285Y8818619D02*
X-27725714Y8818619D01*
X-27440000Y8818619D02*
X-27440000Y9818619D01*
X-27535238Y9675762D01*
X-27630476Y9580524D01*
X-27725714Y9532905D01*
X-21820095Y-6929381D02*
X-21820095Y-5929381D01*
X-21439142Y-5929381D01*
X-21343904Y-5977000D01*
X-21296285Y-6024619D01*
X-21248666Y-6119857D01*
X-21248666Y-6262714D01*
X-21296285Y-6357952D01*
X-21343904Y-6405571D01*
X-21439142Y-6453190D01*
X-21820095Y-6453190D01*
X-20391523Y-6262714D02*
X-20391523Y-6929381D01*
X-20629619Y-5881762D02*
X-20867714Y-6596048D01*
X-20248666Y-6596048D01*
D14*
X-24405166Y3477381D02*
X-24701500Y3961190D01*
X-24913166Y3477381D02*
X-24913166Y4493381D01*
X-24574500Y4493381D01*
X-24489833Y4445000D01*
X-24447500Y4396619D01*
X-24405166Y4299857D01*
X-24405166Y4154714D01*
X-24447500Y4057952D01*
X-24489833Y4009571D01*
X-24574500Y3961190D01*
X-24913166Y3961190D01*
X-23558500Y3477381D02*
X-24066500Y3477381D01*
X-23812500Y3477381D02*
X-23812500Y4493381D01*
X-23897166Y4348238D01*
X-23981833Y4251476D01*
X-24066500Y4203095D01*
X-1672166Y-4269619D02*
X-1968500Y-3785810D01*
X-2180166Y-4269619D02*
X-2180166Y-3253619D01*
X-1841500Y-3253619D01*
X-1756833Y-3302000D01*
X-1714500Y-3350381D01*
X-1672166Y-3447143D01*
X-1672166Y-3592286D01*
X-1714500Y-3689048D01*
X-1756833Y-3737429D01*
X-1841500Y-3785810D01*
X-2180166Y-3785810D01*
X-1333500Y-3350381D02*
X-1291166Y-3302000D01*
X-1206500Y-3253619D01*
X-994833Y-3253619D01*
X-910166Y-3302000D01*
X-867833Y-3350381D01*
X-825500Y-3447143D01*
X-825500Y-3543905D01*
X-867833Y-3689048D01*
X-1375833Y-4269619D01*
X-825500Y-4269619D01*
X-21166Y-1602619D02*
X-317500Y-1118810D01*
X-529166Y-1602619D02*
X-529166Y-586619D01*
X-190500Y-586619D01*
X-105833Y-635000D01*
X-63500Y-683381D01*
X-21166Y-780143D01*
X-21166Y-925286D01*
X-63500Y-1022048D01*
X-105833Y-1070429D01*
X-190500Y-1118810D01*
X-529166Y-1118810D01*
X275167Y-586619D02*
X825500Y-586619D01*
X529167Y-973667D01*
X656167Y-973667D01*
X740834Y-1022048D01*
X783167Y-1070429D01*
X825500Y-1167190D01*
X825500Y-1409095D01*
X783167Y-1505857D01*
X740834Y-1554238D01*
X656167Y-1602619D01*
X402167Y-1602619D01*
X317500Y-1554238D01*
X275167Y-1505857D01*
X7090834Y-4777619D02*
X6794500Y-4293810D01*
X6582834Y-4777619D02*
X6582834Y-3761619D01*
X6921500Y-3761619D01*
X7006167Y-3810000D01*
X7048500Y-3858381D01*
X7090834Y-3955143D01*
X7090834Y-4100286D01*
X7048500Y-4197048D01*
X7006167Y-4245429D01*
X6921500Y-4293810D01*
X6582834Y-4293810D01*
X7852834Y-4100286D02*
X7852834Y-4777619D01*
X7641167Y-3713238D02*
X7429500Y-4438952D01*
X7979834Y-4438952D01*
X2010834Y-6301619D02*
X1714500Y-5817810D01*
X1502834Y-6301619D02*
X1502834Y-5285619D01*
X1841500Y-5285619D01*
X1926167Y-5334000D01*
X1968500Y-5382381D01*
X2010834Y-5479143D01*
X2010834Y-5624286D01*
X1968500Y-5721048D01*
X1926167Y-5769429D01*
X1841500Y-5817810D01*
X1502834Y-5817810D01*
X2815167Y-5285619D02*
X2391834Y-5285619D01*
X2349500Y-5769429D01*
X2391834Y-5721048D01*
X2476500Y-5672667D01*
X2688167Y-5672667D01*
X2772834Y-5721048D01*
X2815167Y-5769429D01*
X2857500Y-5866190D01*
X2857500Y-6108095D01*
X2815167Y-6204857D01*
X2772834Y-6253238D01*
X2688167Y-6301619D01*
X2476500Y-6301619D01*
X2391834Y-6253238D01*
X2349500Y-6204857D01*
X-20595166Y-78619D02*
X-20891500Y405190D01*
X-21103166Y-78619D02*
X-21103166Y937381D01*
X-20764500Y937381D01*
X-20679833Y889000D01*
X-20637500Y840619D01*
X-20595166Y743857D01*
X-20595166Y598714D01*
X-20637500Y501952D01*
X-20679833Y453571D01*
X-20764500Y405190D01*
X-21103166Y405190D01*
X-19833166Y937381D02*
X-20002500Y937381D01*
X-20087166Y889000D01*
X-20129500Y840619D01*
X-20214166Y695476D01*
X-20256500Y501952D01*
X-20256500Y114905D01*
X-20214166Y18143D01*
X-20171833Y-30238D01*
X-20087166Y-78619D01*
X-19917833Y-78619D01*
X-19833166Y-30238D01*
X-19790833Y18143D01*
X-19748500Y114905D01*
X-19748500Y356810D01*
X-19790833Y453571D01*
X-19833166Y501952D01*
X-19917833Y550333D01*
X-20087166Y550333D01*
X-20171833Y501952D01*
X-20214166Y453571D01*
X-20256500Y356810D01*
X-148166Y302381D02*
X-444500Y786190D01*
X-656166Y302381D02*
X-656166Y1318381D01*
X-317500Y1318381D01*
X-232833Y1270000D01*
X-190500Y1221619D01*
X-148166Y1124857D01*
X-148166Y979714D01*
X-190500Y882952D01*
X-232833Y834571D01*
X-317500Y786190D01*
X-656166Y786190D01*
X148167Y1318381D02*
X740834Y1318381D01*
X359834Y302381D01*
X13567834Y-1729619D02*
X13271500Y-1245810D01*
X13059834Y-1729619D02*
X13059834Y-713619D01*
X13398500Y-713619D01*
X13483167Y-762000D01*
X13525500Y-810381D01*
X13567834Y-907143D01*
X13567834Y-1052286D01*
X13525500Y-1149048D01*
X13483167Y-1197429D01*
X13398500Y-1245810D01*
X13059834Y-1245810D01*
X14075834Y-1149048D02*
X13991167Y-1100667D01*
X13948834Y-1052286D01*
X13906500Y-955524D01*
X13906500Y-907143D01*
X13948834Y-810381D01*
X13991167Y-762000D01*
X14075834Y-713619D01*
X14245167Y-713619D01*
X14329834Y-762000D01*
X14372167Y-810381D01*
X14414500Y-907143D01*
X14414500Y-955524D01*
X14372167Y-1052286D01*
X14329834Y-1100667D01*
X14245167Y-1149048D01*
X14075834Y-1149048D01*
X13991167Y-1197429D01*
X13948834Y-1245810D01*
X13906500Y-1342571D01*
X13906500Y-1536095D01*
X13948834Y-1632857D01*
X13991167Y-1681238D01*
X14075834Y-1729619D01*
X14245167Y-1729619D01*
X14329834Y-1681238D01*
X14372167Y-1632857D01*
X14414500Y-1536095D01*
X14414500Y-1342571D01*
X14372167Y-1245810D01*
X14329834Y-1197429D01*
X14245167Y-1149048D01*
X19536834Y-2237619D02*
X19240500Y-1753810D01*
X19028834Y-2237619D02*
X19028834Y-1221619D01*
X19367500Y-1221619D01*
X19452167Y-1270000D01*
X19494500Y-1318381D01*
X19536834Y-1415143D01*
X19536834Y-1560286D01*
X19494500Y-1657048D01*
X19452167Y-1705429D01*
X19367500Y-1753810D01*
X19028834Y-1753810D01*
X19960167Y-2237619D02*
X20129500Y-2237619D01*
X20214167Y-2189238D01*
X20256500Y-2140857D01*
X20341167Y-1995714D01*
X20383500Y-1802190D01*
X20383500Y-1415143D01*
X20341167Y-1318381D01*
X20298834Y-1270000D01*
X20214167Y-1221619D01*
X20044834Y-1221619D01*
X19960167Y-1270000D01*
X19917834Y-1318381D01*
X19875500Y-1415143D01*
X19875500Y-1657048D01*
X19917834Y-1753810D01*
X19960167Y-1802190D01*
X20044834Y-1850571D01*
X20214167Y-1850571D01*
X20298834Y-1802190D01*
X20341167Y-1753810D01*
X20383500Y-1657048D01*
X18732500Y-459619D02*
X18436166Y24190D01*
X18224500Y-459619D02*
X18224500Y556381D01*
X18563166Y556381D01*
X18647833Y508000D01*
X18690166Y459619D01*
X18732500Y362857D01*
X18732500Y217714D01*
X18690166Y120952D01*
X18647833Y72571D01*
X18563166Y24190D01*
X18224500Y24190D01*
X19579166Y-459619D02*
X19071166Y-459619D01*
X19325166Y-459619D02*
X19325166Y556381D01*
X19240500Y411238D01*
X19155833Y314476D01*
X19071166Y266095D01*
X20129500Y556381D02*
X20214167Y556381D01*
X20298833Y508000D01*
X20341167Y459619D01*
X20383500Y362857D01*
X20425833Y169333D01*
X20425833Y-72571D01*
X20383500Y-266095D01*
X20341167Y-362857D01*
X20298833Y-411238D01*
X20214167Y-459619D01*
X20129500Y-459619D01*
X20044833Y-411238D01*
X20002500Y-362857D01*
X19960167Y-266095D01*
X19917833Y-72571D01*
X19917833Y169333D01*
X19960167Y362857D01*
X20002500Y459619D01*
X20044833Y508000D01*
X20129500Y556381D01*
X10350500Y4366381D02*
X10054166Y4850190D01*
X9842500Y4366381D02*
X9842500Y5382381D01*
X10181166Y5382381D01*
X10265833Y5334000D01*
X10308166Y5285619D01*
X10350500Y5188857D01*
X10350500Y5043714D01*
X10308166Y4946952D01*
X10265833Y4898571D01*
X10181166Y4850190D01*
X9842500Y4850190D01*
X11197166Y4366381D02*
X10689166Y4366381D01*
X10943166Y4366381D02*
X10943166Y5382381D01*
X10858500Y5237238D01*
X10773833Y5140476D01*
X10689166Y5092095D01*
X12043833Y4366381D02*
X11535833Y4366381D01*
X11789833Y4366381D02*
X11789833Y5382381D01*
X11705167Y5237238D01*
X11620500Y5140476D01*
X11535833Y5092095D01*
X6921500Y-6809619D02*
X6625166Y-6325810D01*
X6413500Y-6809619D02*
X6413500Y-5793619D01*
X6752166Y-5793619D01*
X6836833Y-5842000D01*
X6879166Y-5890381D01*
X6921500Y-5987143D01*
X6921500Y-6132286D01*
X6879166Y-6229048D01*
X6836833Y-6277429D01*
X6752166Y-6325810D01*
X6413500Y-6325810D01*
X7768166Y-6809619D02*
X7260166Y-6809619D01*
X7514166Y-6809619D02*
X7514166Y-5793619D01*
X7429500Y-5938762D01*
X7344833Y-6035524D01*
X7260166Y-6083905D01*
X8106833Y-5890381D02*
X8149167Y-5842000D01*
X8233833Y-5793619D01*
X8445500Y-5793619D01*
X8530167Y-5842000D01*
X8572500Y-5890381D01*
X8614833Y-5987143D01*
X8614833Y-6083905D01*
X8572500Y-6229048D01*
X8064500Y-6809619D01*
X8614833Y-6809619D01*
D13*
X-20827905Y10834619D02*
X-20827905Y10025095D01*
X-20780286Y9929857D01*
X-20732667Y9882238D01*
X-20637429Y9834619D01*
X-20446952Y9834619D01*
X-20351714Y9882238D01*
X-20304095Y9929857D01*
X-20256476Y10025095D01*
X-20256476Y10834619D01*
X-19827905Y10739381D02*
X-19780286Y10787000D01*
X-19685048Y10834619D01*
X-19446952Y10834619D01*
X-19351714Y10787000D01*
X-19304095Y10739381D01*
X-19256476Y10644143D01*
X-19256476Y10548905D01*
X-19304095Y10406048D01*
X-19875524Y9834619D01*
X-19256476Y9834619D01*
X27582905Y4627619D02*
X27582905Y5627619D01*
X27963858Y5627619D01*
X28059096Y5580000D01*
X28106715Y5532381D01*
X28154334Y5437143D01*
X28154334Y5294286D01*
X28106715Y5199048D01*
X28059096Y5151429D01*
X27963858Y5103810D01*
X27582905Y5103810D01*
X28535286Y5532381D02*
X28582905Y5580000D01*
X28678143Y5627619D01*
X28916239Y5627619D01*
X29011477Y5580000D01*
X29059096Y5532381D01*
X29106715Y5437143D01*
X29106715Y5341905D01*
X29059096Y5199048D01*
X28487667Y4627619D01*
X29106715Y4627619D01*
D14*
X4882834Y3863143D02*
X4840500Y3814762D01*
X4713500Y3766381D01*
X4628834Y3766381D01*
X4501834Y3814762D01*
X4417167Y3911524D01*
X4374834Y4008286D01*
X4332500Y4201810D01*
X4332500Y4346952D01*
X4374834Y4540476D01*
X4417167Y4637238D01*
X4501834Y4734000D01*
X4628834Y4782381D01*
X4713500Y4782381D01*
X4840500Y4734000D01*
X4882834Y4685619D01*
X5306167Y3766381D02*
X5475500Y3766381D01*
X5560167Y3814762D01*
X5602500Y3863143D01*
X5687167Y4008286D01*
X5729500Y4201810D01*
X5729500Y4588857D01*
X5687167Y4685619D01*
X5644834Y4734000D01*
X5560167Y4782381D01*
X5390834Y4782381D01*
X5306167Y4734000D01*
X5263834Y4685619D01*
X5221500Y4588857D01*
X5221500Y4346952D01*
X5263834Y4250190D01*
X5306167Y4201810D01*
X5390834Y4153429D01*
X5560167Y4153429D01*
X5644834Y4201810D01*
X5687167Y4250190D01*
X5729500Y4346952D01*
X-8445500Y13607143D02*
X-8487834Y13558762D01*
X-8614834Y13510381D01*
X-8699500Y13510381D01*
X-8826500Y13558762D01*
X-8911167Y13655524D01*
X-8953500Y13752286D01*
X-8995834Y13945810D01*
X-8995834Y14090952D01*
X-8953500Y14284476D01*
X-8911167Y14381238D01*
X-8826500Y14478000D01*
X-8699500Y14526381D01*
X-8614834Y14526381D01*
X-8487834Y14478000D01*
X-8445500Y14429619D01*
X-7598834Y13510381D02*
X-8106834Y13510381D01*
X-7852834Y13510381D02*
X-7852834Y14526381D01*
X-7937500Y14381238D01*
X-8022167Y14284476D01*
X-8106834Y14236095D01*
X-7048500Y14526381D02*
X-6963833Y14526381D01*
X-6879167Y14478000D01*
X-6836833Y14429619D01*
X-6794500Y14332857D01*
X-6752167Y14139333D01*
X-6752167Y13897429D01*
X-6794500Y13703905D01*
X-6836833Y13607143D01*
X-6879167Y13558762D01*
X-6963833Y13510381D01*
X-7048500Y13510381D01*
X-7133167Y13558762D01*
X-7175500Y13607143D01*
X-7217833Y13703905D01*
X-7260167Y13897429D01*
X-7260167Y14139333D01*
X-7217833Y14332857D01*
X-7175500Y14429619D01*
X-7133167Y14478000D01*
X-7048500Y14526381D01*
X16700500Y14369143D02*
X16658166Y14320762D01*
X16531166Y14272381D01*
X16446500Y14272381D01*
X16319500Y14320762D01*
X16234833Y14417524D01*
X16192500Y14514286D01*
X16150166Y14707810D01*
X16150166Y14852952D01*
X16192500Y15046476D01*
X16234833Y15143238D01*
X16319500Y15240000D01*
X16446500Y15288381D01*
X16531166Y15288381D01*
X16658166Y15240000D01*
X16700500Y15191619D01*
X17547166Y14272381D02*
X17039166Y14272381D01*
X17293166Y14272381D02*
X17293166Y15288381D01*
X17208500Y15143238D01*
X17123833Y15046476D01*
X17039166Y14998095D01*
X18393833Y14272381D02*
X17885833Y14272381D01*
X18139833Y14272381D02*
X18139833Y15288381D01*
X18055167Y15143238D01*
X17970500Y15046476D01*
X17885833Y14998095D01*
X13567834Y-6204857D02*
X13525500Y-6253238D01*
X13398500Y-6301619D01*
X13313834Y-6301619D01*
X13186834Y-6253238D01*
X13102167Y-6156476D01*
X13059834Y-6059714D01*
X13017500Y-5866190D01*
X13017500Y-5721048D01*
X13059834Y-5527524D01*
X13102167Y-5430762D01*
X13186834Y-5334000D01*
X13313834Y-5285619D01*
X13398500Y-5285619D01*
X13525500Y-5334000D01*
X13567834Y-5382381D01*
X14075834Y-5721048D02*
X13991167Y-5672667D01*
X13948834Y-5624286D01*
X13906500Y-5527524D01*
X13906500Y-5479143D01*
X13948834Y-5382381D01*
X13991167Y-5334000D01*
X14075834Y-5285619D01*
X14245167Y-5285619D01*
X14329834Y-5334000D01*
X14372167Y-5382381D01*
X14414500Y-5479143D01*
X14414500Y-5527524D01*
X14372167Y-5624286D01*
X14329834Y-5672667D01*
X14245167Y-5721048D01*
X14075834Y-5721048D01*
X13991167Y-5769429D01*
X13948834Y-5817810D01*
X13906500Y-5914571D01*
X13906500Y-6108095D01*
X13948834Y-6204857D01*
X13991167Y-6253238D01*
X14075834Y-6301619D01*
X14245167Y-6301619D01*
X14329834Y-6253238D01*
X14372167Y-6204857D01*
X14414500Y-6108095D01*
X14414500Y-5914571D01*
X14372167Y-5817810D01*
X14329834Y-5769429D01*
X14245167Y-5721048D01*
X10350500Y-108857D02*
X10308166Y-157238D01*
X10181166Y-205619D01*
X10096500Y-205619D01*
X9969500Y-157238D01*
X9884833Y-60476D01*
X9842500Y36286D01*
X9800166Y229810D01*
X9800166Y374952D01*
X9842500Y568476D01*
X9884833Y665238D01*
X9969500Y762000D01*
X10096500Y810381D01*
X10181166Y810381D01*
X10308166Y762000D01*
X10350500Y713619D01*
X11197166Y-205619D02*
X10689166Y-205619D01*
X10943166Y-205619D02*
X10943166Y810381D01*
X10858500Y665238D01*
X10773833Y568476D01*
X10689166Y520095D01*
X11535833Y713619D02*
X11578167Y762000D01*
X11662833Y810381D01*
X11874500Y810381D01*
X11959167Y762000D01*
X12001500Y713619D01*
X12043833Y616857D01*
X12043833Y520095D01*
X12001500Y374952D01*
X11493500Y-205619D01*
X12043833Y-205619D01*
X10350500Y-6204857D02*
X10308166Y-6253238D01*
X10181166Y-6301619D01*
X10096500Y-6301619D01*
X9969500Y-6253238D01*
X9884833Y-6156476D01*
X9842500Y-6059714D01*
X9800166Y-5866190D01*
X9800166Y-5721048D01*
X9842500Y-5527524D01*
X9884833Y-5430762D01*
X9969500Y-5334000D01*
X10096500Y-5285619D01*
X10181166Y-5285619D01*
X10308166Y-5334000D01*
X10350500Y-5382381D01*
X11197166Y-6301619D02*
X10689166Y-6301619D01*
X10943166Y-6301619D02*
X10943166Y-5285619D01*
X10858500Y-5430762D01*
X10773833Y-5527524D01*
X10689166Y-5575905D01*
X11493500Y-5285619D02*
X12043833Y-5285619D01*
X11747500Y-5672667D01*
X11874500Y-5672667D01*
X11959167Y-5721048D01*
X12001500Y-5769429D01*
X12043833Y-5866190D01*
X12043833Y-6108095D01*
X12001500Y-6204857D01*
X11959167Y-6253238D01*
X11874500Y-6301619D01*
X11620500Y-6301619D01*
X11535833Y-6253238D01*
X11493500Y-6204857D01*
X13144500Y-108857D02*
X13102166Y-157238D01*
X12975166Y-205619D01*
X12890500Y-205619D01*
X12763500Y-157238D01*
X12678833Y-60476D01*
X12636500Y36286D01*
X12594166Y229810D01*
X12594166Y374952D01*
X12636500Y568476D01*
X12678833Y665238D01*
X12763500Y762000D01*
X12890500Y810381D01*
X12975166Y810381D01*
X13102166Y762000D01*
X13144500Y713619D01*
X13991166Y-205619D02*
X13483166Y-205619D01*
X13737166Y-205619D02*
X13737166Y810381D01*
X13652500Y665238D01*
X13567833Y568476D01*
X13483166Y520095D01*
X14753167Y471714D02*
X14753167Y-205619D01*
X14541500Y858762D02*
X14329833Y133048D01*
X14880167Y133048D01*
X10350500Y-1729619D02*
X10054166Y-1245810D01*
X9842500Y-1729619D02*
X9842500Y-713619D01*
X10181166Y-713619D01*
X10265833Y-762000D01*
X10308166Y-810381D01*
X10350500Y-907143D01*
X10350500Y-1052286D01*
X10308166Y-1149048D01*
X10265833Y-1197429D01*
X10181166Y-1245810D01*
X9842500Y-1245810D01*
X11197166Y-1729619D02*
X10689166Y-1729619D01*
X10943166Y-1729619D02*
X10943166Y-713619D01*
X10858500Y-858762D01*
X10773833Y-955524D01*
X10689166Y-1003905D01*
X11493500Y-713619D02*
X12043833Y-713619D01*
X11747500Y-1100667D01*
X11874500Y-1100667D01*
X11959167Y-1149048D01*
X12001500Y-1197429D01*
X12043833Y-1294190D01*
X12043833Y-1536095D01*
X12001500Y-1632857D01*
X11959167Y-1681238D01*
X11874500Y-1729619D01*
X11620500Y-1729619D01*
X11535833Y-1681238D01*
X11493500Y-1632857D01*
X15820500Y2766381D02*
X15524166Y3250190D01*
X15312500Y2766381D02*
X15312500Y3782381D01*
X15651166Y3782381D01*
X15735833Y3734000D01*
X15778166Y3685619D01*
X15820500Y3588857D01*
X15820500Y3443714D01*
X15778166Y3346952D01*
X15735833Y3298571D01*
X15651166Y3250190D01*
X15312500Y3250190D01*
X16667166Y2766381D02*
X16159166Y2766381D01*
X16413166Y2766381D02*
X16413166Y3782381D01*
X16328500Y3637238D01*
X16243833Y3540476D01*
X16159166Y3492095D01*
X17429167Y3443714D02*
X17429167Y2766381D01*
X17217500Y3830762D02*
X17005833Y3105048D01*
X17556167Y3105048D01*
D13*
X-25161762Y-468381D02*
X-24923667Y-1468381D01*
X-24733190Y-754095D01*
X-24542714Y-1468381D01*
X-24304619Y-468381D01*
X-23399857Y-1468381D02*
X-23971286Y-1468381D01*
X-23685572Y-1468381D02*
X-23685572Y-468381D01*
X-23780810Y-611238D01*
X-23876048Y-706476D01*
X-23971286Y-754095D01*
X-21097762Y6770619D02*
X-20859667Y5770619D01*
X-20669190Y6484905D01*
X-20478714Y5770619D01*
X-20240619Y6770619D01*
X-19907286Y6675381D02*
X-19859667Y6723000D01*
X-19764429Y6770619D01*
X-19526333Y6770619D01*
X-19431095Y6723000D01*
X-19383476Y6675381D01*
X-19335857Y6580143D01*
X-19335857Y6484905D01*
X-19383476Y6342048D01*
X-19954905Y5770619D01*
X-19335857Y5770619D01*
X-21097762Y4738619D02*
X-20859667Y3738619D01*
X-20669190Y4452905D01*
X-20478714Y3738619D01*
X-20240619Y4738619D01*
X-19954905Y4738619D02*
X-19335857Y4738619D01*
X-19669191Y4357667D01*
X-19526333Y4357667D01*
X-19431095Y4310048D01*
X-19383476Y4262429D01*
X-19335857Y4167190D01*
X-19335857Y3929095D01*
X-19383476Y3833857D01*
X-19431095Y3786238D01*
X-19526333Y3738619D01*
X-19812048Y3738619D01*
X-19907286Y3786238D01*
X-19954905Y3833857D01*
X2651238Y8802619D02*
X2889333Y7802619D01*
X3079810Y8516905D01*
X3270286Y7802619D01*
X3508381Y8802619D01*
X4317905Y8469286D02*
X4317905Y7802619D01*
X4079809Y8850238D02*
X3841714Y8135952D01*
X4460762Y8135952D01*
X5191238Y7278619D02*
X5429333Y6278619D01*
X5619810Y6992905D01*
X5810286Y6278619D01*
X6048381Y7278619D01*
X6905524Y7278619D02*
X6429333Y7278619D01*
X6381714Y6802429D01*
X6429333Y6850048D01*
X6524571Y6897667D01*
X6762667Y6897667D01*
X6857905Y6850048D01*
X6905524Y6802429D01*
X6953143Y6707190D01*
X6953143Y6469095D01*
X6905524Y6373857D01*
X6857905Y6326238D01*
X6762667Y6278619D01*
X6524571Y6278619D01*
X6429333Y6326238D01*
X6381714Y6373857D01*
X-11572762Y-5548381D02*
X-11334667Y-6548381D01*
X-11144190Y-5834095D01*
X-10953714Y-6548381D01*
X-10715619Y-5548381D01*
X-10191810Y-5976952D02*
X-10287048Y-5929333D01*
X-10334667Y-5881714D01*
X-10382286Y-5786476D01*
X-10382286Y-5738857D01*
X-10334667Y-5643619D01*
X-10287048Y-5596000D01*
X-10191810Y-5548381D01*
X-10001333Y-5548381D01*
X-9906095Y-5596000D01*
X-9858476Y-5643619D01*
X-9810857Y-5738857D01*
X-9810857Y-5786476D01*
X-9858476Y-5881714D01*
X-9906095Y-5929333D01*
X-10001333Y-5976952D01*
X-10191810Y-5976952D01*
X-10287048Y-6024571D01*
X-10334667Y-6072190D01*
X-10382286Y-6167429D01*
X-10382286Y-6357905D01*
X-10334667Y-6453143D01*
X-10287048Y-6500762D01*
X-10191810Y-6548381D01*
X-10001333Y-6548381D01*
X-9906095Y-6500762D01*
X-9858476Y-6453143D01*
X-9810857Y-6357905D01*
X-9810857Y-6167429D01*
X-9858476Y-6072190D01*
X-9906095Y-6024571D01*
X-10001333Y-5976952D01*
X746238Y4865619D02*
X984333Y3865619D01*
X1174810Y4579905D01*
X1365286Y3865619D01*
X1603381Y4865619D01*
X2031952Y3865619D02*
X2222428Y3865619D01*
X2317667Y3913238D01*
X2365286Y3960857D01*
X2460524Y4103714D01*
X2508143Y4294190D01*
X2508143Y4675143D01*
X2460524Y4770381D01*
X2412905Y4818000D01*
X2317667Y4865619D01*
X2127190Y4865619D01*
X2031952Y4818000D01*
X1984333Y4770381D01*
X1936714Y4675143D01*
X1936714Y4437048D01*
X1984333Y4341810D01*
X2031952Y4294190D01*
X2127190Y4246571D01*
X2317667Y4246571D01*
X2412905Y4294190D01*
X2460524Y4341810D01*
X2508143Y4437048D01*
X7874095Y2706619D02*
X7874095Y1897095D01*
X7921714Y1801857D01*
X7969333Y1754238D01*
X8064571Y1706619D01*
X8255048Y1706619D01*
X8350286Y1754238D01*
X8397905Y1801857D01*
X8445524Y1897095D01*
X8445524Y2706619D01*
X9445524Y1706619D02*
X8874095Y1706619D01*
X9159809Y1706619D02*
X9159809Y2706619D01*
X9064571Y2563762D01*
X8969333Y2468524D01*
X8874095Y2420905D01*
D14*
X-21399500Y-4426857D02*
X-21441834Y-4475238D01*
X-21568834Y-4523619D01*
X-21653500Y-4523619D01*
X-21780500Y-4475238D01*
X-21865167Y-4378476D01*
X-21907500Y-4281714D01*
X-21949834Y-4088190D01*
X-21949834Y-3943048D01*
X-21907500Y-3749524D01*
X-21865167Y-3652762D01*
X-21780500Y-3556000D01*
X-21653500Y-3507619D01*
X-21568834Y-3507619D01*
X-21441834Y-3556000D01*
X-21399500Y-3604381D01*
X-20552834Y-4523619D02*
X-21060834Y-4523619D01*
X-20806834Y-4523619D02*
X-20806834Y-3507619D01*
X-20891500Y-3652762D01*
X-20976167Y-3749524D01*
X-21060834Y-3797905D01*
X-19748500Y-3507619D02*
X-20171833Y-3507619D01*
X-20214167Y-3991429D01*
X-20171833Y-3943048D01*
X-20087167Y-3894667D01*
X-19875500Y-3894667D01*
X-19790833Y-3943048D01*
X-19748500Y-3991429D01*
X-19706167Y-4088190D01*
X-19706167Y-4330095D01*
X-19748500Y-4426857D01*
X-19790833Y-4475238D01*
X-19875500Y-4523619D01*
X-20087167Y-4523619D01*
X-20171833Y-4475238D01*
X-20214167Y-4426857D01*
X-22415500Y-3126619D02*
X-22711834Y-2642810D01*
X-22923500Y-3126619D02*
X-22923500Y-2110619D01*
X-22584834Y-2110619D01*
X-22500167Y-2159000D01*
X-22457834Y-2207381D01*
X-22415500Y-2304143D01*
X-22415500Y-2449286D01*
X-22457834Y-2546048D01*
X-22500167Y-2594429D01*
X-22584834Y-2642810D01*
X-22923500Y-2642810D01*
X-21568834Y-3126619D02*
X-22076834Y-3126619D01*
X-21822834Y-3126619D02*
X-21822834Y-2110619D01*
X-21907500Y-2255762D01*
X-21992167Y-2352524D01*
X-22076834Y-2400905D01*
X-20764500Y-2110619D02*
X-21187833Y-2110619D01*
X-21230167Y-2594429D01*
X-21187833Y-2546048D01*
X-21103167Y-2497667D01*
X-20891500Y-2497667D01*
X-20806833Y-2546048D01*
X-20764500Y-2594429D01*
X-20722167Y-2691190D01*
X-20722167Y-2933095D01*
X-20764500Y-3029857D01*
X-20806833Y-3078238D01*
X-20891500Y-3126619D01*
X-21103167Y-3126619D01*
X-21187833Y-3078238D01*
X-21230167Y-3029857D01*
X23558500Y6114143D02*
X23516166Y6065762D01*
X23389166Y6017381D01*
X23304500Y6017381D01*
X23177500Y6065762D01*
X23092833Y6162524D01*
X23050500Y6259286D01*
X23008166Y6452810D01*
X23008166Y6597952D01*
X23050500Y6791476D01*
X23092833Y6888238D01*
X23177500Y6985000D01*
X23304500Y7033381D01*
X23389166Y7033381D01*
X23516166Y6985000D01*
X23558500Y6936619D01*
X24405166Y6017381D02*
X23897166Y6017381D01*
X24151166Y6017381D02*
X24151166Y7033381D01*
X24066500Y6888238D01*
X23981833Y6791476D01*
X23897166Y6743095D01*
X25167167Y7033381D02*
X24997833Y7033381D01*
X24913167Y6985000D01*
X24870833Y6936619D01*
X24786167Y6791476D01*
X24743833Y6597952D01*
X24743833Y6210905D01*
X24786167Y6114143D01*
X24828500Y6065762D01*
X24913167Y6017381D01*
X25082500Y6017381D01*
X25167167Y6065762D01*
X25209500Y6114143D01*
X25251833Y6210905D01*
X25251833Y6452810D01*
X25209500Y6549571D01*
X25167167Y6597952D01*
X25082500Y6646333D01*
X24913167Y6646333D01*
X24828500Y6597952D01*
X24786167Y6549571D01*
X24743833Y6452810D01*
X23558500Y4590143D02*
X23516166Y4541762D01*
X23389166Y4493381D01*
X23304500Y4493381D01*
X23177500Y4541762D01*
X23092833Y4638524D01*
X23050500Y4735286D01*
X23008166Y4928810D01*
X23008166Y5073952D01*
X23050500Y5267476D01*
X23092833Y5364238D01*
X23177500Y5461000D01*
X23304500Y5509381D01*
X23389166Y5509381D01*
X23516166Y5461000D01*
X23558500Y5412619D01*
X24405166Y4493381D02*
X23897166Y4493381D01*
X24151166Y4493381D02*
X24151166Y5509381D01*
X24066500Y5364238D01*
X23981833Y5267476D01*
X23897166Y5219095D01*
X24701500Y5509381D02*
X25294167Y5509381D01*
X24913167Y4493381D01*
X13017500Y-9252857D02*
X12975166Y-9301238D01*
X12848166Y-9349619D01*
X12763500Y-9349619D01*
X12636500Y-9301238D01*
X12551833Y-9204476D01*
X12509500Y-9107714D01*
X12467166Y-8914190D01*
X12467166Y-8769048D01*
X12509500Y-8575524D01*
X12551833Y-8478762D01*
X12636500Y-8382000D01*
X12763500Y-8333619D01*
X12848166Y-8333619D01*
X12975166Y-8382000D01*
X13017500Y-8430381D01*
X13864166Y-9349619D02*
X13356166Y-9349619D01*
X13610166Y-9349619D02*
X13610166Y-8333619D01*
X13525500Y-8478762D01*
X13440833Y-8575524D01*
X13356166Y-8623905D01*
X14372167Y-8769048D02*
X14287500Y-8720667D01*
X14245167Y-8672286D01*
X14202833Y-8575524D01*
X14202833Y-8527143D01*
X14245167Y-8430381D01*
X14287500Y-8382000D01*
X14372167Y-8333619D01*
X14541500Y-8333619D01*
X14626167Y-8382000D01*
X14668500Y-8430381D01*
X14710833Y-8527143D01*
X14710833Y-8575524D01*
X14668500Y-8672286D01*
X14626167Y-8720667D01*
X14541500Y-8769048D01*
X14372167Y-8769048D01*
X14287500Y-8817429D01*
X14245167Y-8865810D01*
X14202833Y-8962571D01*
X14202833Y-9156095D01*
X14245167Y-9252857D01*
X14287500Y-9301238D01*
X14372167Y-9349619D01*
X14541500Y-9349619D01*
X14626167Y-9301238D01*
X14668500Y-9252857D01*
X14710833Y-9156095D01*
X14710833Y-8962571D01*
X14668500Y-8865810D01*
X14626167Y-8817429D01*
X14541500Y-8769048D01*
X-13906500Y12591143D02*
X-13948834Y12542762D01*
X-14075834Y12494381D01*
X-14160500Y12494381D01*
X-14287500Y12542762D01*
X-14372167Y12639524D01*
X-14414500Y12736286D01*
X-14456834Y12929810D01*
X-14456834Y13074952D01*
X-14414500Y13268476D01*
X-14372167Y13365238D01*
X-14287500Y13462000D01*
X-14160500Y13510381D01*
X-14075834Y13510381D01*
X-13948834Y13462000D01*
X-13906500Y13413619D01*
X-13059834Y12494381D02*
X-13567834Y12494381D01*
X-13313834Y12494381D02*
X-13313834Y13510381D01*
X-13398500Y13365238D01*
X-13483167Y13268476D01*
X-13567834Y13220095D01*
X-12636500Y12494381D02*
X-12467167Y12494381D01*
X-12382500Y12542762D01*
X-12340167Y12591143D01*
X-12255500Y12736286D01*
X-12213167Y12929810D01*
X-12213167Y13316857D01*
X-12255500Y13413619D01*
X-12297833Y13462000D01*
X-12382500Y13510381D01*
X-12551833Y13510381D01*
X-12636500Y13462000D01*
X-12678833Y13413619D01*
X-12721167Y13316857D01*
X-12721167Y13074952D01*
X-12678833Y12978190D01*
X-12636500Y12929810D01*
X-12551833Y12881429D01*
X-12382500Y12881429D01*
X-12297833Y12929810D01*
X-12255500Y12978190D01*
X-12213167Y13074952D01*
X-12382500Y16528143D02*
X-12424834Y16479762D01*
X-12551834Y16431381D01*
X-12636500Y16431381D01*
X-12763500Y16479762D01*
X-12848167Y16576524D01*
X-12890500Y16673286D01*
X-12932834Y16866810D01*
X-12932834Y17011952D01*
X-12890500Y17205476D01*
X-12848167Y17302238D01*
X-12763500Y17399000D01*
X-12636500Y17447381D01*
X-12551834Y17447381D01*
X-12424834Y17399000D01*
X-12382500Y17350619D01*
X-12043834Y17350619D02*
X-12001500Y17399000D01*
X-11916834Y17447381D01*
X-11705167Y17447381D01*
X-11620500Y17399000D01*
X-11578167Y17350619D01*
X-11535834Y17253857D01*
X-11535834Y17157095D01*
X-11578167Y17011952D01*
X-12086167Y16431381D01*
X-11535834Y16431381D01*
X-10985500Y17447381D02*
X-10900833Y17447381D01*
X-10816167Y17399000D01*
X-10773833Y17350619D01*
X-10731500Y17253857D01*
X-10689167Y17060333D01*
X-10689167Y16818429D01*
X-10731500Y16624905D01*
X-10773833Y16528143D01*
X-10816167Y16479762D01*
X-10900833Y16431381D01*
X-10985500Y16431381D01*
X-11070167Y16479762D01*
X-11112500Y16528143D01*
X-11154833Y16624905D01*
X-11197167Y16818429D01*
X-11197167Y17060333D01*
X-11154833Y17253857D01*
X-11112500Y17350619D01*
X-11070167Y17399000D01*
X-10985500Y17447381D01*
X-8826500Y15385143D02*
X-8868834Y15336762D01*
X-8995834Y15288381D01*
X-9080500Y15288381D01*
X-9207500Y15336762D01*
X-9292167Y15433524D01*
X-9334500Y15530286D01*
X-9376834Y15723810D01*
X-9376834Y15868952D01*
X-9334500Y16062476D01*
X-9292167Y16159238D01*
X-9207500Y16256000D01*
X-9080500Y16304381D01*
X-8995834Y16304381D01*
X-8868834Y16256000D01*
X-8826500Y16207619D01*
X-8487834Y16207619D02*
X-8445500Y16256000D01*
X-8360834Y16304381D01*
X-8149167Y16304381D01*
X-8064500Y16256000D01*
X-8022167Y16207619D01*
X-7979834Y16110857D01*
X-7979834Y16014095D01*
X-8022167Y15868952D01*
X-8530167Y15288381D01*
X-7979834Y15288381D01*
X-7133167Y15288381D02*
X-7641167Y15288381D01*
X-7387167Y15288381D02*
X-7387167Y16304381D01*
X-7471833Y16159238D01*
X-7556500Y16062476D01*
X-7641167Y16014095D01*
X-25336500Y907143D02*
X-25378834Y858762D01*
X-25505834Y810381D01*
X-25590500Y810381D01*
X-25717500Y858762D01*
X-25802167Y955524D01*
X-25844500Y1052286D01*
X-25886834Y1245810D01*
X-25886834Y1390952D01*
X-25844500Y1584476D01*
X-25802167Y1681238D01*
X-25717500Y1778000D01*
X-25590500Y1826381D01*
X-25505834Y1826381D01*
X-25378834Y1778000D01*
X-25336500Y1729619D01*
X-24997834Y1729619D02*
X-24955500Y1778000D01*
X-24870834Y1826381D01*
X-24659167Y1826381D01*
X-24574500Y1778000D01*
X-24532167Y1729619D01*
X-24489834Y1632857D01*
X-24489834Y1536095D01*
X-24532167Y1390952D01*
X-25040167Y810381D01*
X-24489834Y810381D01*
X-24151167Y1729619D02*
X-24108833Y1778000D01*
X-24024167Y1826381D01*
X-23812500Y1826381D01*
X-23727833Y1778000D01*
X-23685500Y1729619D01*
X-23643167Y1632857D01*
X-23643167Y1536095D01*
X-23685500Y1390952D01*
X-24193500Y810381D01*
X-23643167Y810381D01*
X-5651500Y3320143D02*
X-5693834Y3271762D01*
X-5820834Y3223381D01*
X-5905500Y3223381D01*
X-6032500Y3271762D01*
X-6117167Y3368524D01*
X-6159500Y3465286D01*
X-6201834Y3658810D01*
X-6201834Y3803952D01*
X-6159500Y3997476D01*
X-6117167Y4094238D01*
X-6032500Y4191000D01*
X-5905500Y4239381D01*
X-5820834Y4239381D01*
X-5693834Y4191000D01*
X-5651500Y4142619D01*
X-5312834Y4142619D02*
X-5270500Y4191000D01*
X-5185834Y4239381D01*
X-4974167Y4239381D01*
X-4889500Y4191000D01*
X-4847167Y4142619D01*
X-4804834Y4045857D01*
X-4804834Y3949095D01*
X-4847167Y3803952D01*
X-5355167Y3223381D01*
X-4804834Y3223381D01*
X-4508500Y4239381D02*
X-3958167Y4239381D01*
X-4254500Y3852333D01*
X-4127500Y3852333D01*
X-4042833Y3803952D01*
X-4000500Y3755571D01*
X-3958167Y3658810D01*
X-3958167Y3416905D01*
X-4000500Y3320143D01*
X-4042833Y3271762D01*
X-4127500Y3223381D01*
X-4381500Y3223381D01*
X-4466167Y3271762D01*
X-4508500Y3320143D01*
X-5651500Y-1094619D02*
X-5947834Y-610810D01*
X-6159500Y-1094619D02*
X-6159500Y-78619D01*
X-5820834Y-78619D01*
X-5736167Y-127000D01*
X-5693834Y-175381D01*
X-5651500Y-272143D01*
X-5651500Y-417286D01*
X-5693834Y-514048D01*
X-5736167Y-562429D01*
X-5820834Y-610810D01*
X-6159500Y-610810D01*
X-4804834Y-1094619D02*
X-5312834Y-1094619D01*
X-5058834Y-1094619D02*
X-5058834Y-78619D01*
X-5143500Y-223762D01*
X-5228167Y-320524D01*
X-5312834Y-368905D01*
X-4042833Y-78619D02*
X-4212167Y-78619D01*
X-4296833Y-127000D01*
X-4339167Y-175381D01*
X-4423833Y-320524D01*
X-4466167Y-514048D01*
X-4466167Y-901095D01*
X-4423833Y-997857D01*
X-4381500Y-1046238D01*
X-4296833Y-1094619D01*
X-4127500Y-1094619D01*
X-4042833Y-1046238D01*
X-4000500Y-997857D01*
X-3958167Y-901095D01*
X-3958167Y-659190D01*
X-4000500Y-562429D01*
X-4042833Y-514048D01*
X-4127500Y-465667D01*
X-4296833Y-465667D01*
X-4381500Y-514048D01*
X-4423833Y-562429D01*
X-4466167Y-659190D01*
X-16192500Y-1378857D02*
X-16234834Y-1427238D01*
X-16361834Y-1475619D01*
X-16446500Y-1475619D01*
X-16573500Y-1427238D01*
X-16658167Y-1330476D01*
X-16700500Y-1233714D01*
X-16742834Y-1040190D01*
X-16742834Y-895048D01*
X-16700500Y-701524D01*
X-16658167Y-604762D01*
X-16573500Y-508000D01*
X-16446500Y-459619D01*
X-16361834Y-459619D01*
X-16234834Y-508000D01*
X-16192500Y-556381D01*
X-15853834Y-556381D02*
X-15811500Y-508000D01*
X-15726834Y-459619D01*
X-15515167Y-459619D01*
X-15430500Y-508000D01*
X-15388167Y-556381D01*
X-15345834Y-653143D01*
X-15345834Y-749905D01*
X-15388167Y-895048D01*
X-15896167Y-1475619D01*
X-15345834Y-1475619D01*
X-14583833Y-798286D02*
X-14583833Y-1475619D01*
X-14795500Y-411238D02*
X-15007167Y-1136952D01*
X-14456833Y-1136952D01*
X-8318500Y-1124857D02*
X-8360834Y-1173238D01*
X-8487834Y-1221619D01*
X-8572500Y-1221619D01*
X-8699500Y-1173238D01*
X-8784167Y-1076476D01*
X-8826500Y-979714D01*
X-8868834Y-786190D01*
X-8868834Y-641048D01*
X-8826500Y-447524D01*
X-8784167Y-350762D01*
X-8699500Y-254000D01*
X-8572500Y-205619D01*
X-8487834Y-205619D01*
X-8360834Y-254000D01*
X-8318500Y-302381D01*
X-7979834Y-302381D02*
X-7937500Y-254000D01*
X-7852834Y-205619D01*
X-7641167Y-205619D01*
X-7556500Y-254000D01*
X-7514167Y-302381D01*
X-7471834Y-399143D01*
X-7471834Y-495905D01*
X-7514167Y-641048D01*
X-8022167Y-1221619D01*
X-7471834Y-1221619D01*
X-6667500Y-205619D02*
X-7090833Y-205619D01*
X-7133167Y-689429D01*
X-7090833Y-641048D01*
X-7006167Y-592667D01*
X-6794500Y-592667D01*
X-6709833Y-641048D01*
X-6667500Y-689429D01*
X-6625167Y-786190D01*
X-6625167Y-1028095D01*
X-6667500Y-1124857D01*
X-6709833Y-1173238D01*
X-6794500Y-1221619D01*
X-7006167Y-1221619D01*
X-7090833Y-1173238D01*
X-7133167Y-1124857D01*
X-16192500Y-4553857D02*
X-16234834Y-4602238D01*
X-16361834Y-4650619D01*
X-16446500Y-4650619D01*
X-16573500Y-4602238D01*
X-16658167Y-4505476D01*
X-16700500Y-4408714D01*
X-16742834Y-4215190D01*
X-16742834Y-4070048D01*
X-16700500Y-3876524D01*
X-16658167Y-3779762D01*
X-16573500Y-3683000D01*
X-16446500Y-3634619D01*
X-16361834Y-3634619D01*
X-16234834Y-3683000D01*
X-16192500Y-3731381D01*
X-15853834Y-3731381D02*
X-15811500Y-3683000D01*
X-15726834Y-3634619D01*
X-15515167Y-3634619D01*
X-15430500Y-3683000D01*
X-15388167Y-3731381D01*
X-15345834Y-3828143D01*
X-15345834Y-3924905D01*
X-15388167Y-4070048D01*
X-15896167Y-4650619D01*
X-15345834Y-4650619D01*
X-14583833Y-3634619D02*
X-14753167Y-3634619D01*
X-14837833Y-3683000D01*
X-14880167Y-3731381D01*
X-14964833Y-3876524D01*
X-15007167Y-4070048D01*
X-15007167Y-4457095D01*
X-14964833Y-4553857D01*
X-14922500Y-4602238D01*
X-14837833Y-4650619D01*
X-14668500Y-4650619D01*
X-14583833Y-4602238D01*
X-14541500Y-4553857D01*
X-14499167Y-4457095D01*
X-14499167Y-4215190D01*
X-14541500Y-4118429D01*
X-14583833Y-4070048D01*
X-14668500Y-4021667D01*
X-14837833Y-4021667D01*
X-14922500Y-4070048D01*
X-14964833Y-4118429D01*
X-15007167Y-4215190D01*
X-8318500Y-4426857D02*
X-8360834Y-4475238D01*
X-8487834Y-4523619D01*
X-8572500Y-4523619D01*
X-8699500Y-4475238D01*
X-8784167Y-4378476D01*
X-8826500Y-4281714D01*
X-8868834Y-4088190D01*
X-8868834Y-3943048D01*
X-8826500Y-3749524D01*
X-8784167Y-3652762D01*
X-8699500Y-3556000D01*
X-8572500Y-3507619D01*
X-8487834Y-3507619D01*
X-8360834Y-3556000D01*
X-8318500Y-3604381D01*
X-7979834Y-3604381D02*
X-7937500Y-3556000D01*
X-7852834Y-3507619D01*
X-7641167Y-3507619D01*
X-7556500Y-3556000D01*
X-7514167Y-3604381D01*
X-7471834Y-3701143D01*
X-7471834Y-3797905D01*
X-7514167Y-3943048D01*
X-8022167Y-4523619D01*
X-7471834Y-4523619D01*
X-7175500Y-3507619D02*
X-6582833Y-3507619D01*
X-6963833Y-4523619D01*
X-16192500Y-78619D02*
X-16488834Y405190D01*
X-16700500Y-78619D02*
X-16700500Y937381D01*
X-16361834Y937381D01*
X-16277167Y889000D01*
X-16234834Y840619D01*
X-16192500Y743857D01*
X-16192500Y598714D01*
X-16234834Y501952D01*
X-16277167Y453571D01*
X-16361834Y405190D01*
X-16700500Y405190D01*
X-15345834Y-78619D02*
X-15853834Y-78619D01*
X-15599834Y-78619D02*
X-15599834Y937381D01*
X-15684500Y792238D01*
X-15769167Y695476D01*
X-15853834Y647095D01*
X-15049500Y937381D02*
X-14456833Y937381D01*
X-14837833Y-78619D01*
X-8318500Y48381D02*
X-8614834Y532190D01*
X-8826500Y48381D02*
X-8826500Y1064381D01*
X-8487834Y1064381D01*
X-8403167Y1016000D01*
X-8360834Y967619D01*
X-8318500Y870857D01*
X-8318500Y725714D01*
X-8360834Y628952D01*
X-8403167Y580571D01*
X-8487834Y532190D01*
X-8826500Y532190D01*
X-7471834Y48381D02*
X-7979834Y48381D01*
X-7725834Y48381D02*
X-7725834Y1064381D01*
X-7810500Y919238D01*
X-7895167Y822476D01*
X-7979834Y774095D01*
X-6963833Y628952D02*
X-7048500Y677333D01*
X-7090833Y725714D01*
X-7133167Y822476D01*
X-7133167Y870857D01*
X-7090833Y967619D01*
X-7048500Y1016000D01*
X-6963833Y1064381D01*
X-6794500Y1064381D01*
X-6709833Y1016000D01*
X-6667500Y967619D01*
X-6625167Y870857D01*
X-6625167Y822476D01*
X-6667500Y725714D01*
X-6709833Y677333D01*
X-6794500Y628952D01*
X-6963833Y628952D01*
X-7048500Y580571D01*
X-7090833Y532190D01*
X-7133167Y435429D01*
X-7133167Y241905D01*
X-7090833Y145143D01*
X-7048500Y96762D01*
X-6963833Y48381D01*
X-6794500Y48381D01*
X-6709833Y96762D01*
X-6667500Y145143D01*
X-6625167Y241905D01*
X-6625167Y435429D01*
X-6667500Y532190D01*
X-6709833Y580571D01*
X-6794500Y628952D01*
X-16192500Y-2999619D02*
X-16488834Y-2515810D01*
X-16700500Y-2999619D02*
X-16700500Y-1983619D01*
X-16361834Y-1983619D01*
X-16277167Y-2032000D01*
X-16234834Y-2080381D01*
X-16192500Y-2177143D01*
X-16192500Y-2322286D01*
X-16234834Y-2419048D01*
X-16277167Y-2467429D01*
X-16361834Y-2515810D01*
X-16700500Y-2515810D01*
X-15345834Y-2999619D02*
X-15853834Y-2999619D01*
X-15599834Y-2999619D02*
X-15599834Y-1983619D01*
X-15684500Y-2128762D01*
X-15769167Y-2225524D01*
X-15853834Y-2273905D01*
X-14922500Y-2999619D02*
X-14753167Y-2999619D01*
X-14668500Y-2951238D01*
X-14626167Y-2902857D01*
X-14541500Y-2757714D01*
X-14499167Y-2564190D01*
X-14499167Y-2177143D01*
X-14541500Y-2080381D01*
X-14583833Y-2032000D01*
X-14668500Y-1983619D01*
X-14837833Y-1983619D01*
X-14922500Y-2032000D01*
X-14964833Y-2080381D01*
X-15007167Y-2177143D01*
X-15007167Y-2419048D01*
X-14964833Y-2515810D01*
X-14922500Y-2564190D01*
X-14837833Y-2612571D01*
X-14668500Y-2612571D01*
X-14583833Y-2564190D01*
X-14541500Y-2515810D01*
X-14499167Y-2419048D01*
X-8318500Y-3253619D02*
X-8614834Y-2769810D01*
X-8826500Y-3253619D02*
X-8826500Y-2237619D01*
X-8487834Y-2237619D01*
X-8403167Y-2286000D01*
X-8360834Y-2334381D01*
X-8318500Y-2431143D01*
X-8318500Y-2576286D01*
X-8360834Y-2673048D01*
X-8403167Y-2721429D01*
X-8487834Y-2769810D01*
X-8826500Y-2769810D01*
X-7979834Y-2334381D02*
X-7937500Y-2286000D01*
X-7852834Y-2237619D01*
X-7641167Y-2237619D01*
X-7556500Y-2286000D01*
X-7514167Y-2334381D01*
X-7471834Y-2431143D01*
X-7471834Y-2527905D01*
X-7514167Y-2673048D01*
X-8022167Y-3253619D01*
X-7471834Y-3253619D01*
X-6921500Y-2237619D02*
X-6836833Y-2237619D01*
X-6752167Y-2286000D01*
X-6709833Y-2334381D01*
X-6667500Y-2431143D01*
X-6625167Y-2624667D01*
X-6625167Y-2866571D01*
X-6667500Y-3060095D01*
X-6709833Y-3156857D01*
X-6752167Y-3205238D01*
X-6836833Y-3253619D01*
X-6921500Y-3253619D01*
X-7006167Y-3205238D01*
X-7048500Y-3156857D01*
X-7090833Y-3060095D01*
X-7133167Y-2866571D01*
X-7133167Y-2624667D01*
X-7090833Y-2431143D01*
X-7048500Y-2334381D01*
X-7006167Y-2286000D01*
X-6921500Y-2237619D01*
D13*
X-18518095Y8290619D02*
X-18518095Y9290619D01*
X-18137142Y9290619D01*
X-18041904Y9243000D01*
X-17994285Y9195381D01*
X-17946666Y9100143D01*
X-17946666Y8957286D01*
X-17994285Y8862048D01*
X-18041904Y8814429D01*
X-18137142Y8766810D01*
X-18518095Y8766810D01*
X-17041904Y9290619D02*
X-17518095Y9290619D01*
X-17565714Y8814429D01*
X-17518095Y8862048D01*
X-17422857Y8909667D01*
X-17184761Y8909667D01*
X-17089523Y8862048D01*
X-17041904Y8814429D01*
X-16994285Y8719190D01*
X-16994285Y8481095D01*
X-17041904Y8385857D01*
X-17089523Y8338238D01*
X-17184761Y8290619D01*
X-17422857Y8290619D01*
X-17518095Y8338238D01*
X-17565714Y8385857D01*
D14*
X-15430500Y16812381D02*
X-15726834Y17296190D01*
X-15938500Y16812381D02*
X-15938500Y17828381D01*
X-15599834Y17828381D01*
X-15515167Y17780000D01*
X-15472834Y17731619D01*
X-15430500Y17634857D01*
X-15430500Y17489714D01*
X-15472834Y17392952D01*
X-15515167Y17344571D01*
X-15599834Y17296190D01*
X-15938500Y17296190D01*
X-15091834Y17731619D02*
X-15049500Y17780000D01*
X-14964834Y17828381D01*
X-14753167Y17828381D01*
X-14668500Y17780000D01*
X-14626167Y17731619D01*
X-14583834Y17634857D01*
X-14583834Y17538095D01*
X-14626167Y17392952D01*
X-15134167Y16812381D01*
X-14583834Y16812381D01*
X-13737167Y16812381D02*
X-14245167Y16812381D01*
X-13991167Y16812381D02*
X-13991167Y17828381D01*
X-14075833Y17683238D01*
X-14160500Y17586476D01*
X-14245167Y17538095D01*
D13*
X28884571Y-11739428D02*
X28884571Y-12072762D01*
X29408381Y-12072762D02*
X28408381Y-12072762D01*
X28408381Y-11596571D01*
X29408381Y-11215619D02*
X28408381Y-11215619D01*
X29408381Y-10739429D02*
X28408381Y-10739429D01*
X28408381Y-10501334D01*
X28456000Y-10358476D01*
X28551238Y-10263238D01*
X28646476Y-10215619D01*
X28836952Y-10168000D01*
X28979810Y-10168000D01*
X29170286Y-10215619D01*
X29265524Y-10263238D01*
X29360762Y-10358476D01*
X29408381Y-10501334D01*
X29408381Y-10739429D01*
X28503619Y-9787048D02*
X28456000Y-9739429D01*
X28408381Y-9644191D01*
X28408381Y-9406095D01*
X28456000Y-9310857D01*
X28503619Y-9263238D01*
X28598857Y-9215619D01*
X28694095Y-9215619D01*
X28836952Y-9263238D01*
X29408381Y-9834667D01*
X29408381Y-9215619D01*
X2563905Y-16962381D02*
X2563905Y-15962381D01*
X2944858Y-15962381D01*
X3040096Y-16010000D01*
X3087715Y-16057619D01*
X3135334Y-16152857D01*
X3135334Y-16295714D01*
X3087715Y-16390952D01*
X3040096Y-16438571D01*
X2944858Y-16486190D01*
X2563905Y-16486190D01*
X3706762Y-16390952D02*
X3611524Y-16343333D01*
X3563905Y-16295714D01*
X3516286Y-16200476D01*
X3516286Y-16152857D01*
X3563905Y-16057619D01*
X3611524Y-16010000D01*
X3706762Y-15962381D01*
X3897239Y-15962381D01*
X3992477Y-16010000D01*
X4040096Y-16057619D01*
X4087715Y-16152857D01*
X4087715Y-16200476D01*
X4040096Y-16295714D01*
X3992477Y-16343333D01*
X3897239Y-16390952D01*
X3706762Y-16390952D01*
X3611524Y-16438571D01*
X3563905Y-16486190D01*
X3516286Y-16581429D01*
X3516286Y-16771905D01*
X3563905Y-16867143D01*
X3611524Y-16914762D01*
X3706762Y-16962381D01*
X3897239Y-16962381D01*
X3992477Y-16914762D01*
X4040096Y-16867143D01*
X4087715Y-16771905D01*
X4087715Y-16581429D01*
X4040096Y-16486190D01*
X3992477Y-16438571D01*
X3897239Y-16390952D01*
X-5056095Y-16962381D02*
X-5056095Y-15962381D01*
X-4675142Y-15962381D01*
X-4579904Y-16010000D01*
X-4532285Y-16057619D01*
X-4484666Y-16152857D01*
X-4484666Y-16295714D01*
X-4532285Y-16390952D01*
X-4579904Y-16438571D01*
X-4675142Y-16486190D01*
X-5056095Y-16486190D01*
X-4008476Y-16962381D02*
X-3818000Y-16962381D01*
X-3722761Y-16914762D01*
X-3675142Y-16867143D01*
X-3579904Y-16724286D01*
X-3532285Y-16533810D01*
X-3532285Y-16152857D01*
X-3579904Y-16057619D01*
X-3627523Y-16010000D01*
X-3722761Y-15962381D01*
X-3913238Y-15962381D01*
X-4008476Y-16010000D01*
X-4056095Y-16057619D01*
X-4103714Y-16152857D01*
X-4103714Y-16390952D01*
X-4056095Y-16486190D01*
X-4008476Y-16533810D01*
X-3913238Y-16581429D01*
X-3722761Y-16581429D01*
X-3627523Y-16533810D01*
X-3579904Y-16486190D01*
X-3532285Y-16390952D01*
X-8104095Y-10358381D02*
X-8104095Y-9358381D01*
X-7723142Y-9358381D01*
X-7627904Y-9406000D01*
X-7580285Y-9453619D01*
X-7532666Y-9548857D01*
X-7532666Y-9691714D01*
X-7580285Y-9786952D01*
X-7627904Y-9834571D01*
X-7723142Y-9882190D01*
X-8104095Y-9882190D01*
X-7199333Y-9358381D02*
X-6580285Y-9358381D01*
X-6913619Y-9739333D01*
X-6770761Y-9739333D01*
X-6675523Y-9786952D01*
X-6627904Y-9834571D01*
X-6580285Y-9929810D01*
X-6580285Y-10167905D01*
X-6627904Y-10263143D01*
X-6675523Y-10310762D01*
X-6770761Y-10358381D01*
X-7056476Y-10358381D01*
X-7151714Y-10310762D01*
X-7199333Y-10263143D01*
M02*
