G04 #@! TF.FileFunction,Paste,Top*
%FSLAX46Y46*%
G04 Gerber Fmt 4.6, Leading zero omitted, Abs format (unit mm)*
G04 Created by KiCad (PCBNEW 4.0.1-stable) date 7/8/2016 12:08:03 PM*
%MOMM*%
G01*
G04 APERTURE LIST*
%ADD10C,0.100000*%
%ADD11R,0.254000X2.200000*%
%ADD12R,0.787400X0.863600*%
%ADD13R,0.863600X0.787400*%
%ADD14R,1.750000X0.400000*%
%ADD15R,1.350000X0.400000*%
%ADD16R,1.397000X0.431800*%
G04 APERTURE END LIST*
D10*
D11*
X12509500Y12319000D03*
X12509500Y7239000D03*
X13144500Y12319000D03*
X13144500Y7239000D03*
X13779500Y12319000D03*
X13779500Y7239000D03*
X14414500Y12319000D03*
X14414500Y7239000D03*
X15049500Y12319000D03*
X15049500Y7239000D03*
X15684500Y12319000D03*
X15684500Y7239000D03*
X16319500Y12319000D03*
X16319500Y7239000D03*
X16954500Y12319000D03*
X16954500Y7239000D03*
D12*
X21082000Y-5334000D03*
X22606000Y-5334000D03*
X-7747000Y5842000D03*
X-6223000Y5842000D03*
X22606000Y-3556000D03*
X21082000Y-3556000D03*
X-1397000Y2286000D03*
X-2921000Y2286000D03*
X22606000Y1778000D03*
X21082000Y1778000D03*
X-17526000Y-1016000D03*
X-19050000Y-1016000D03*
X15367000Y16383000D03*
X13843000Y16383000D03*
D13*
X-25019000Y6858000D03*
X-25019000Y5334000D03*
D12*
X-1397000Y-2286000D03*
X-2921000Y-2286000D03*
X-2921000Y-762000D03*
X-1397000Y-762000D03*
X5715000Y-4318000D03*
X4191000Y-4318000D03*
X1397000Y-4318000D03*
X2921000Y-4318000D03*
X-19050000Y508000D03*
X-17526000Y508000D03*
X-1397000Y762000D03*
X-2921000Y762000D03*
X12954000Y-2794000D03*
X14478000Y-2794000D03*
X21082000Y-1778000D03*
X22606000Y-1778000D03*
X21082000Y0D03*
X22606000Y0D03*
X10160000Y3302000D03*
X11684000Y3302000D03*
X4191000Y-6350000D03*
X5715000Y-6350000D03*
D14*
X-17951000Y11083000D03*
X-17951000Y10433000D03*
X-17951000Y9783000D03*
X-17951000Y9133000D03*
X-17951000Y8483000D03*
X-17951000Y7833000D03*
X-17951000Y7183000D03*
X-17951000Y6533000D03*
X-17951000Y5883000D03*
X-17951000Y5233000D03*
X-17951000Y4583000D03*
X-17951000Y3933000D03*
X-17951000Y3283000D03*
X-17951000Y2633000D03*
X-10751000Y2633000D03*
X-10751000Y3283000D03*
X-10751000Y3933000D03*
X-10751000Y4583000D03*
X-10751000Y5233000D03*
X-10751000Y5883000D03*
X-10751000Y6533000D03*
X-10751000Y7183000D03*
X-10751000Y7833000D03*
X-10751000Y8483000D03*
X-10751000Y9133000D03*
X-10751000Y9783000D03*
X-10751000Y10433000D03*
X-10751000Y11083000D03*
D15*
X25695000Y-1300000D03*
X25695000Y-650000D03*
X25695000Y0D03*
X25695000Y650000D03*
X25695000Y1300000D03*
D12*
X4191000Y2794000D03*
X5715000Y2794000D03*
D13*
X-8255000Y12700000D03*
X-8255000Y11176000D03*
D12*
X15367000Y14732000D03*
X13843000Y14732000D03*
X12954000Y-4318000D03*
X14478000Y-4318000D03*
X10160000Y1778000D03*
X11684000Y1778000D03*
X10160000Y-4318000D03*
X11684000Y-4318000D03*
X12954000Y1778000D03*
X14478000Y1778000D03*
X10160000Y-2794000D03*
X11684000Y-2794000D03*
X12954000Y3302000D03*
X14478000Y3302000D03*
D16*
X2159000Y1168400D03*
X2159000Y533400D03*
X2159000Y-127000D03*
X2159000Y-762000D03*
X2159000Y-1422400D03*
X2159000Y-2070100D03*
X2159000Y-2717800D03*
X7747000Y-2717800D03*
X7747000Y-2070100D03*
X7747000Y-1422400D03*
X7747000Y-762000D03*
X7747000Y-114300D03*
X7747000Y533400D03*
X7747000Y1181100D03*
D12*
X-19050000Y-4064000D03*
X-17526000Y-4064000D03*
X-19050000Y-2540000D03*
X-17526000Y-2540000D03*
X20828000Y6604000D03*
X22352000Y6604000D03*
X20828000Y4953000D03*
X22352000Y4953000D03*
X12827000Y-7366000D03*
X14351000Y-7366000D03*
D13*
X-13335000Y14224000D03*
X-13335000Y15748000D03*
X-11811000Y14224000D03*
X-11811000Y15748000D03*
X-10287000Y14224000D03*
X-10287000Y15748000D03*
D12*
X-21463000Y1778000D03*
X-22987000Y1778000D03*
X-4318000Y2286000D03*
X-5842000Y2286000D03*
X-4318000Y762000D03*
X-5842000Y762000D03*
X-12319000Y-1016000D03*
X-13843000Y-1016000D03*
X-11049000Y-1016000D03*
X-9525000Y-1016000D03*
X-12319000Y-4064000D03*
X-13843000Y-4064000D03*
X-11049000Y-4064000D03*
X-9525000Y-4064000D03*
X-12319000Y508000D03*
X-13843000Y508000D03*
X-9525000Y508000D03*
X-11049000Y508000D03*
X-12319000Y-2540000D03*
X-13843000Y-2540000D03*
X-11049000Y-2540000D03*
X-9525000Y-2540000D03*
D13*
X-14859000Y15748000D03*
X-14859000Y14224000D03*
M02*
