M48
;DRILL file {KiCad 4.0.1-stable} date 6/14/2016 11:23:30 AM
;FORMAT={-:-/ absolute / inch / decimal}
FMAT,2
INCH,TZ
T1C0.016
T2C0.030
T3C0.039
T4C0.040
T5C0.051
T6C0.126
%
G90
G05
M72
T1
X-1.015Y-0.04
X-0.945Y0.09
X-0.815Y0.28
X-0.805Y0.09
X-0.795Y-0.1
X-0.785Y0.365
X-0.785Y-0.39
X-0.775Y0.12
X-0.72Y-0.425
X-0.66Y-0.39
X-0.63Y0.235
X-0.605Y0.455
X-0.595Y0.31
X-0.55Y0.645
X-0.545Y0.365
X-0.525Y-0.41
X-0.515Y0.34
X-0.48Y-0.675
X-0.445Y0.52
X-0.43Y0.07
X-0.385Y0.66
X-0.385Y0.52
X-0.35Y0.085
X-0.345Y0.34
X-0.285Y0.395
X-0.27Y0.365
X-0.25Y-0.065
X-0.24Y0.48
X-0.225Y-0.105
X-0.205Y0.19
X-0.135Y0.31
X-0.085Y0.14
X-0.065Y0.56
X-0.04Y0.25
X-0.025Y0.15
X-0.01Y-0.105
X0.Y-0.215
X0.03Y-0.065
X0.065Y-0.28
X0.08Y0.595
X0.125Y0.09
X0.14Y0.02
X0.145Y0.62
X0.215Y0.05
X0.265Y-0.36
X0.285Y0.08
X0.29Y0.54
X0.315Y0.62
X0.43Y-0.36
X0.555Y0.32
X0.555Y0.26
X0.585Y-0.275
X0.595Y0.43
X0.655Y0.09
X0.655Y-0.15
X0.675Y0.2
X0.705Y0.33
X0.75Y-0.275
T4
X-1.105Y0.29
X-1.105Y0.19
X-1.105Y0.09
X-1.105Y-0.01
X-1.105Y-0.11
X-0.735Y-0.27
X-0.735Y-0.57
X-0.7Y0.645
X-0.7Y0.545
X-0.635Y-0.27
X-0.635Y-0.57
X-0.535Y-0.57
X-0.525Y-0.27
T5
X-0.335Y-0.485
X-0.135Y-0.485
X0.065Y-0.485
X0.265Y-0.485
X0.465Y-0.485
X0.665Y-0.485
T6
X-1.0236Y0.5709
X-1.0236Y-0.5709
X1.0236Y0.5709
X1.0236Y-0.5709
T2
X0.4265Y0.5616G85X0.4167Y0.5616
G05
X0.6233Y0.5616G85X0.6135Y0.5616
G05
T3
X0.3822Y0.6699G85X0.3822Y0.6817
G05
X0.6578Y0.6699G85X0.6578Y0.6817
G05
T0
M30
