G04 #@! TF.FileFunction,Soldermask,Bot*
%FSLAX46Y46*%
G04 Gerber Fmt 4.6, Leading zero omitted, Abs format (unit mm)*
G04 Created by KiCad (PCBNEW 4.0.1-stable) date 6/14/2016 11:23:26 AM*
%MOMM*%
G01*
G04 APERTURE LIST*
%ADD10C,0.100000*%
%ADD11C,3.301600*%
%ADD12R,1.879600X1.879600*%
%ADD13C,1.879600*%
%ADD14O,1.501600X1.251600*%
%ADD15O,1.426600X1.801600*%
%ADD16R,2.641600X2.641600*%
%ADD17C,2.641600*%
%ADD18R,2.133600X2.133600*%
%ADD19O,2.133600X2.133600*%
%ADD20C,0.701600*%
G04 APERTURE END LIST*
D10*
D11*
X-26000000Y14500000D03*
X26000000Y14500000D03*
X26000000Y-14500000D03*
X-26000000Y-14500000D03*
D12*
X-28067000Y7366000D03*
D13*
X-28067000Y4826000D03*
X-28067000Y2286000D03*
X-28067000Y-254000D03*
X-28067000Y-2794000D03*
X-18669000Y-14478000D03*
X-16129000Y-14478000D03*
X-13589000Y-14478000D03*
X-13335000Y-6858000D03*
X-16129000Y-6858000D03*
X-18669000Y-6858000D03*
D14*
X15708000Y14265000D03*
X10708000Y14265000D03*
D15*
X16708000Y17165000D03*
X9708000Y17165000D03*
D16*
X-8509000Y-12319000D03*
D17*
X-3429000Y-12319000D03*
X1651000Y-12319000D03*
X6731000Y-12319000D03*
X11811000Y-12319000D03*
X16891000Y-12319000D03*
D18*
X-17780000Y13843000D03*
D19*
X-17780000Y16383000D03*
D20*
X15113000Y10922000D03*
X14859000Y-6985000D03*
X-11303000Y13208000D03*
X-9779000Y13208000D03*
X-20447000Y2286000D03*
X14097000Y6604000D03*
X14097000Y8128000D03*
X-19685000Y3048000D03*
X-1651000Y14224000D03*
X3175000Y2286000D03*
X-6350000Y-1651000D03*
X-13335000Y-10414000D03*
X-9779000Y16764000D03*
X-13970000Y16383000D03*
X17907000Y8382000D03*
X8001000Y15748000D03*
X19050000Y-6985000D03*
X-5207000Y4826000D03*
X-24003000Y2286000D03*
X17145000Y5080000D03*
X-20701000Y7112000D03*
X-25781000Y-1016000D03*
X-635000Y3810000D03*
X3683000Y15748000D03*
X-2159000Y3556000D03*
X16637000Y-3810000D03*
X16637000Y2286000D03*
X-6096000Y12192000D03*
X-10922000Y1778000D03*
X-20193000Y-2540000D03*
X-254000Y-2667000D03*
X-5715000Y-2667000D03*
X2032000Y15113000D03*
X7366000Y13716000D03*
X-6858000Y9271000D03*
X-13843000Y9271000D03*
X-15113000Y7874000D03*
X-3429000Y7874000D03*
X-16002000Y5969000D03*
X-7239000Y10033000D03*
X-8890000Y2159000D03*
X-1016000Y6350000D03*
X-12192000Y-17145000D03*
X-16764000Y-9906000D03*
X-19939000Y9271000D03*
X-18288000Y-10795000D03*
X6731000Y-9144000D03*
X10922000Y-9144000D03*
X-19939000Y-9906000D03*
X-15367000Y11557000D03*
X762000Y-1651000D03*
X3556000Y508000D03*
X5461000Y1270000D03*
X7239000Y2032000D03*
X0Y-5461000D03*
X1651000Y-7112000D03*
X-8763000Y8636000D03*
X-13081000Y8636000D03*
M02*
