G04 #@! TF.FileFunction,Legend,Bot*
%FSLAX46Y46*%
G04 Gerber Fmt 4.6, Leading zero omitted, Abs format (unit mm)*
G04 Created by KiCad (PCBNEW 4.0.1-stable) date 6/20/2016 7:59:47 AM*
%MOMM*%
G01*
G04 APERTURE LIST*
%ADD10C,0.100000*%
%ADD11C,0.254000*%
%ADD12C,0.150000*%
G04 APERTURE END LIST*
D10*
D11*
X4904619Y-4003524D02*
X4565952Y-5273524D01*
X4227286Y-4003524D01*
X3888619Y-4789714D02*
X3114524Y-4789714D01*
X26621619Y-4003524D02*
X26282952Y-5273524D01*
X25944286Y-4003524D01*
X25605619Y-4789714D02*
X24831524Y-4789714D01*
X25218572Y-5273524D02*
X25218572Y-4305905D01*
D12*
X24384000Y-4699000D02*
G75*
G03X24384000Y-4699000I-6858000J0D01*
G01*
X2540000Y-4699000D02*
G75*
G03X2540000Y-4699000I-6858000J0D01*
G01*
X18264095Y2595619D02*
X18264095Y3595619D01*
X17883142Y3595619D01*
X17787904Y3548000D01*
X17740285Y3500381D01*
X17692666Y3405143D01*
X17692666Y3262286D01*
X17740285Y3167048D01*
X17787904Y3119429D01*
X17883142Y3071810D01*
X18264095Y3071810D01*
X16835523Y3595619D02*
X17026000Y3595619D01*
X17121238Y3548000D01*
X17168857Y3500381D01*
X17264095Y3357524D01*
X17311714Y3167048D01*
X17311714Y2786095D01*
X17264095Y2690857D01*
X17216476Y2643238D01*
X17121238Y2595619D01*
X16930761Y2595619D01*
X16835523Y2643238D01*
X16787904Y2690857D01*
X16740285Y2786095D01*
X16740285Y3024190D01*
X16787904Y3119429D01*
X16835523Y3167048D01*
X16930761Y3214667D01*
X17121238Y3214667D01*
X17216476Y3167048D01*
X17264095Y3119429D01*
X17311714Y3024190D01*
X-3579905Y2341619D02*
X-3579905Y3341619D01*
X-3960858Y3341619D01*
X-4056096Y3294000D01*
X-4103715Y3246381D01*
X-4151334Y3151143D01*
X-4151334Y3008286D01*
X-4103715Y2913048D01*
X-4056096Y2865429D01*
X-3960858Y2817810D01*
X-3579905Y2817810D01*
X-4484667Y3341619D02*
X-5151334Y3341619D01*
X-4722762Y2341619D01*
M02*
