M48
;DRILL file {KiCad 4.0.1-stable} date 7/8/2016 1:21:42 PM
;FORMAT={-:-/ absolute / inch / decimal}
FMAT,2
INCH,TZ
T1C0.016
T2C0.030
T3C0.035
T4C0.039
T5C0.040
T6C0.080
T7C0.126
%
G90
G05
M72
T1
X-1.015Y-0.04
X-0.945Y0.09
X-0.815Y0.28
X-0.805Y0.09
X-0.795Y-0.1
X-0.785Y0.365
X-0.785Y-0.39
X-0.775Y0.12
X-0.72Y-0.425
X-0.66Y-0.39
X-0.63Y0.235
X-0.605Y0.455
X-0.595Y0.31
X-0.55Y0.645
X-0.545Y0.365
X-0.525Y-0.41
X-0.515Y0.34
X-0.445Y0.52
X-0.43Y0.07
X-0.385Y0.66
X-0.385Y0.52
X-0.35Y0.085
X-0.345Y0.34
X-0.285Y0.395
X-0.27Y0.365
X-0.265Y0.465
X-0.25Y-0.065
X-0.205Y0.19
X-0.155Y-0.07
X-0.135Y0.31
X-0.085Y0.14
X-0.04Y0.25
X-0.025Y0.15
X-0.01Y-0.105
X0.Y0.
X0.Y-0.215
X0.005Y0.07
X0.065Y-0.28
X0.125Y0.09
X0.215Y0.05
X0.285Y0.08
X0.365Y-0.35
X0.45Y-0.385
X0.46Y-0.27
X0.51Y0.665
X0.59Y0.41
X0.655Y0.365
X0.775Y-0.115
X0.79Y0.225
X0.795Y0.285
X0.87Y-0.25
X0.895Y0.16
X0.905Y0.3
X0.93Y0.115
T3
X-0.34Y-0.47
X-0.24Y-0.47
T5
X-1.105Y0.29
X-1.105Y0.19
X-1.105Y0.09
X-1.105Y-0.01
X-1.105Y-0.11
X-0.735Y-0.27
X-0.735Y-0.57
X-0.7Y0.645
X-0.7Y0.545
X-0.635Y-0.27
X-0.635Y-0.57
X-0.535Y-0.57
X-0.525Y-0.27
X-0.31Y-0.65
X-0.01Y-0.65
T6
X-0.17Y-0.185
X0.69Y-0.185
T7
X-1.0236Y0.5709
X-1.0236Y-0.5709
X1.0236Y0.5709
X1.0236Y-0.5709
T2
X1.0116Y0.0935G85X1.0116Y0.1033
G05
X1.0116Y-0.1033G85X1.0116Y-0.0935
G05
T4
X1.1199Y0.1378G85X1.1317Y0.1378
G05
X1.1199Y-0.1378G85X1.1317Y-0.1378
G05
T0
M30
