G04 #@! TF.FileFunction,Legend,Top*
%FSLAX46Y46*%
G04 Gerber Fmt 4.6, Leading zero omitted, Abs format (unit mm)*
G04 Created by KiCad (PCBNEW 4.0.1-stable) date 6/14/2016 11:23:26 AM*
%MOMM*%
G01*
G04 APERTURE LIST*
%ADD10C,0.100000*%
%ADD11C,0.300000*%
%ADD12C,0.254000*%
%ADD13C,0.150000*%
%ADD14C,0.203200*%
G04 APERTURE END LIST*
D10*
D11*
X-8128000Y-16982286D02*
X-8128000Y-17696571D01*
X-8628000Y-16196571D02*
X-8128000Y-16982286D01*
X-7628000Y-16196571D01*
X-3420999Y-16196571D02*
X-2420999Y-17696571D01*
X-2420999Y-16196571D02*
X-3420999Y-17696571D01*
D12*
X-18402904Y-8255000D02*
X-18499666Y-8194524D01*
X-18644809Y-8194524D01*
X-18789951Y-8255000D01*
X-18886713Y-8375952D01*
X-18935094Y-8496905D01*
X-18983475Y-8738810D01*
X-18983475Y-8920238D01*
X-18935094Y-9162143D01*
X-18886713Y-9283095D01*
X-18789951Y-9404048D01*
X-18644809Y-9464524D01*
X-18548047Y-9464524D01*
X-18402904Y-9404048D01*
X-18354523Y-9343571D01*
X-18354523Y-8920238D01*
X-18548047Y-8920238D01*
X-16419285Y-9404048D02*
X-16274142Y-9464524D01*
X-16032238Y-9464524D01*
X-15935476Y-9404048D01*
X-15887095Y-9343571D01*
X-15838714Y-9222619D01*
X-15838714Y-9101667D01*
X-15887095Y-8980714D01*
X-15935476Y-8920238D01*
X-16032238Y-8859762D01*
X-16225761Y-8799286D01*
X-16322523Y-8738810D01*
X-16370904Y-8678333D01*
X-16419285Y-8557381D01*
X-16419285Y-8436429D01*
X-16370904Y-8315476D01*
X-16322523Y-8255000D01*
X-16225761Y-8194524D01*
X-15983857Y-8194524D01*
X-15838714Y-8255000D01*
X-13855095Y-9464524D02*
X-13855095Y-8194524D01*
X-13613190Y-8194524D01*
X-13468048Y-8255000D01*
X-13371286Y-8375952D01*
X-13322905Y-8496905D01*
X-13274524Y-8738810D01*
X-13274524Y-8920238D01*
X-13322905Y-9162143D01*
X-13371286Y-9283095D01*
X-13468048Y-9404048D01*
X-13613190Y-9464524D01*
X-13855095Y-9464524D01*
X-18275904Y-16256000D02*
X-18372666Y-16195524D01*
X-18517809Y-16195524D01*
X-18662951Y-16256000D01*
X-18759713Y-16376952D01*
X-18808094Y-16497905D01*
X-18856475Y-16739810D01*
X-18856475Y-16921238D01*
X-18808094Y-17163143D01*
X-18759713Y-17284095D01*
X-18662951Y-17405048D01*
X-18517809Y-17465524D01*
X-18421047Y-17465524D01*
X-18275904Y-17405048D01*
X-18227523Y-17344571D01*
X-18227523Y-16921238D01*
X-18421047Y-16921238D01*
X-16243904Y-17465524D02*
X-16243904Y-16195524D01*
X-16001999Y-16195524D01*
X-15856857Y-16256000D01*
X-15760095Y-16376952D01*
X-15711714Y-16497905D01*
X-15663333Y-16739810D01*
X-15663333Y-16921238D01*
X-15711714Y-17163143D01*
X-15760095Y-17284095D01*
X-15856857Y-17405048D01*
X-16001999Y-17465524D01*
X-16243904Y-17465524D01*
X-13728095Y-17405048D02*
X-13582952Y-17465524D01*
X-13341048Y-17465524D01*
X-13244286Y-17405048D01*
X-13195905Y-17344571D01*
X-13147524Y-17223619D01*
X-13147524Y-17102667D01*
X-13195905Y-16981714D01*
X-13244286Y-16921238D01*
X-13341048Y-16860762D01*
X-13534571Y-16800286D01*
X-13631333Y-16739810D01*
X-13679714Y-16679333D01*
X-13728095Y-16558381D01*
X-13728095Y-16437429D01*
X-13679714Y-16316476D01*
X-13631333Y-16256000D01*
X-13534571Y-16195524D01*
X-13292667Y-16195524D01*
X-13147524Y-16256000D01*
X1511905Y-16383000D02*
X1415143Y-16322524D01*
X1270000Y-16322524D01*
X1124858Y-16383000D01*
X1028096Y-16503952D01*
X979715Y-16624905D01*
X931334Y-16866810D01*
X931334Y-17048238D01*
X979715Y-17290143D01*
X1028096Y-17411095D01*
X1124858Y-17532048D01*
X1270000Y-17592524D01*
X1366762Y-17592524D01*
X1511905Y-17532048D01*
X1560286Y-17471571D01*
X1560286Y-17048238D01*
X1366762Y-17048238D01*
X1995715Y-17592524D02*
X1995715Y-16322524D01*
X2576286Y-17592524D01*
X2576286Y-16322524D01*
X3060096Y-17592524D02*
X3060096Y-16322524D01*
X3302001Y-16322524D01*
X3447143Y-16383000D01*
X3543905Y-16503952D01*
X3592286Y-16624905D01*
X3640667Y-16866810D01*
X3640667Y-17048238D01*
X3592286Y-17290143D01*
X3543905Y-17411095D01*
X3447143Y-17532048D01*
X3302001Y-17592524D01*
X3060096Y-17592524D01*
X6313715Y-16195524D02*
X6652382Y-17465524D01*
X6991048Y-16195524D01*
X7765143Y-16618857D02*
X7765143Y-17646952D01*
X7716762Y-17767905D01*
X7668381Y-17828381D01*
X7571620Y-17888857D01*
X7426477Y-17888857D01*
X7329715Y-17828381D01*
X7765143Y-17405048D02*
X7668381Y-17465524D01*
X7474858Y-17465524D01*
X7378096Y-17405048D01*
X7329715Y-17344571D01*
X7281334Y-17223619D01*
X7281334Y-16860762D01*
X7329715Y-16739810D01*
X7378096Y-16679333D01*
X7474858Y-16618857D01*
X7668381Y-16618857D01*
X7765143Y-16679333D01*
X16812381Y-16195524D02*
X17151048Y-17465524D01*
X17489714Y-16195524D01*
X17828381Y-16981714D02*
X18602476Y-16981714D01*
X11351381Y-16195524D02*
X11690048Y-17465524D01*
X12028714Y-16195524D01*
X12367381Y-16981714D02*
X13141476Y-16981714D01*
X12754428Y-17465524D02*
X12754428Y-16497905D01*
X23476857Y-7919357D02*
X24323524Y-7701643D01*
X23718762Y-7483929D01*
X24323524Y-7266214D01*
X23476857Y-7048500D01*
X23476857Y-6721928D02*
X24323524Y-6504214D01*
X23718762Y-6286500D01*
X24323524Y-6068785D01*
X23476857Y-5851071D01*
X23476857Y-5524499D02*
X24323524Y-5306785D01*
X23718762Y-5089071D01*
X24323524Y-4871356D01*
X23476857Y-4653642D01*
X24202571Y-4218213D02*
X24263048Y-4163785D01*
X24323524Y-4218213D01*
X24263048Y-4272642D01*
X24202571Y-4218213D01*
X24323524Y-4218213D01*
X23476857Y-3837213D02*
X23476857Y-3401784D01*
X24323524Y-3673927D02*
X23234952Y-3673927D01*
X23114000Y-3619499D01*
X23053524Y-3510641D01*
X23053524Y-3401784D01*
X24323524Y-2857498D02*
X24263048Y-2966356D01*
X24202571Y-3020784D01*
X24081619Y-3075213D01*
X23718762Y-3075213D01*
X23597810Y-3020784D01*
X23537333Y-2966356D01*
X23476857Y-2857498D01*
X23476857Y-2694213D01*
X23537333Y-2585356D01*
X23597810Y-2530927D01*
X23718762Y-2476498D01*
X24081619Y-2476498D01*
X24202571Y-2530927D01*
X24263048Y-2585356D01*
X24323524Y-2694213D01*
X24323524Y-2857498D01*
X24323524Y-1986641D02*
X23476857Y-1986641D01*
X23718762Y-1986641D02*
X23597810Y-1932213D01*
X23537333Y-1877784D01*
X23476857Y-1768927D01*
X23476857Y-1660070D01*
X24263048Y-843642D02*
X24323524Y-952499D01*
X24323524Y-1170213D01*
X24263048Y-1279070D01*
X24142095Y-1333499D01*
X23658286Y-1333499D01*
X23537333Y-1279070D01*
X23476857Y-1170213D01*
X23476857Y-952499D01*
X23537333Y-843642D01*
X23658286Y-789213D01*
X23779238Y-789213D01*
X23900190Y-1333499D01*
X24323524Y-299356D02*
X23476857Y-299356D01*
X23597810Y-299356D02*
X23537333Y-244928D01*
X23476857Y-136070D01*
X23476857Y27215D01*
X23537333Y136072D01*
X23658286Y190501D01*
X24323524Y190501D01*
X23658286Y190501D02*
X23537333Y244930D01*
X23476857Y353787D01*
X23476857Y517072D01*
X23537333Y625930D01*
X23658286Y680358D01*
X24323524Y680358D01*
X24323524Y1224644D02*
X23053524Y1224644D01*
X23537333Y1224644D02*
X23476857Y1333501D01*
X23476857Y1551215D01*
X23537333Y1660072D01*
X23597810Y1714501D01*
X23718762Y1768930D01*
X24081619Y1768930D01*
X24202571Y1714501D01*
X24263048Y1660072D01*
X24323524Y1551215D01*
X24323524Y1333501D01*
X24263048Y1224644D01*
X24263048Y2694215D02*
X24323524Y2585358D01*
X24323524Y2367644D01*
X24263048Y2258787D01*
X24142095Y2204358D01*
X23658286Y2204358D01*
X23537333Y2258787D01*
X23476857Y2367644D01*
X23476857Y2585358D01*
X23537333Y2694215D01*
X23658286Y2748644D01*
X23779238Y2748644D01*
X23900190Y2204358D01*
X24323524Y3728358D02*
X23053524Y3728358D01*
X24263048Y3728358D02*
X24323524Y3619501D01*
X24323524Y3401787D01*
X24263048Y3292929D01*
X24202571Y3238501D01*
X24081619Y3184072D01*
X23718762Y3184072D01*
X23597810Y3238501D01*
X23537333Y3292929D01*
X23476857Y3401787D01*
X23476857Y3619501D01*
X23537333Y3728358D01*
X24202571Y4272644D02*
X24263048Y4327072D01*
X24323524Y4272644D01*
X24263048Y4218215D01*
X24202571Y4272644D01*
X24323524Y4272644D01*
X24263048Y5306787D02*
X24323524Y5197930D01*
X24323524Y4980216D01*
X24263048Y4871358D01*
X24202571Y4816930D01*
X24081619Y4762501D01*
X23718762Y4762501D01*
X23597810Y4816930D01*
X23537333Y4871358D01*
X23476857Y4980216D01*
X23476857Y5197930D01*
X23537333Y5306787D01*
X24323524Y5959930D02*
X24263048Y5851072D01*
X24202571Y5796644D01*
X24081619Y5742215D01*
X23718762Y5742215D01*
X23597810Y5796644D01*
X23537333Y5851072D01*
X23476857Y5959930D01*
X23476857Y6123215D01*
X23537333Y6232072D01*
X23597810Y6286501D01*
X23718762Y6340930D01*
X24081619Y6340930D01*
X24202571Y6286501D01*
X24263048Y6232072D01*
X24323524Y6123215D01*
X24323524Y5959930D01*
X24323524Y6830787D02*
X23476857Y6830787D01*
X23597810Y6830787D02*
X23537333Y6885215D01*
X23476857Y6994073D01*
X23476857Y7157358D01*
X23537333Y7266215D01*
X23658286Y7320644D01*
X24323524Y7320644D01*
X23658286Y7320644D02*
X23537333Y7375073D01*
X23476857Y7483930D01*
X23476857Y7647215D01*
X23537333Y7756073D01*
X23658286Y7810501D01*
X24323524Y7810501D01*
X22763238Y-7468808D02*
X22811619Y-7589761D01*
X22811619Y-7831665D01*
X22763238Y-7952618D01*
X22714857Y-8013094D01*
X22618095Y-8073570D01*
X22327810Y-8073570D01*
X22231048Y-8013094D01*
X22182667Y-7952618D01*
X22134286Y-7831665D01*
X22134286Y-7589761D01*
X22182667Y-7468808D01*
X22134286Y-6380237D02*
X22811619Y-6380237D01*
X22134286Y-6924523D02*
X22666476Y-6924523D01*
X22763238Y-6864047D01*
X22811619Y-6743094D01*
X22811619Y-6561666D01*
X22763238Y-6440714D01*
X22714857Y-6380237D01*
X22811619Y-5775475D02*
X22134286Y-5775475D01*
X22327810Y-5775475D02*
X22231048Y-5714999D01*
X22182667Y-5654523D01*
X22134286Y-5533570D01*
X22134286Y-5412618D01*
X22134286Y-5110237D02*
X22811619Y-4807856D01*
X22134286Y-4505476D01*
X22763238Y-3537857D02*
X22811619Y-3658809D01*
X22811619Y-3900714D01*
X22763238Y-4021666D01*
X22666476Y-4082142D01*
X22279429Y-4082142D01*
X22182667Y-4021666D01*
X22134286Y-3900714D01*
X22134286Y-3658809D01*
X22182667Y-3537857D01*
X22279429Y-3477380D01*
X22376190Y-3477380D01*
X22472952Y-4082142D01*
X22134286Y-2146905D02*
X22134286Y-1663095D01*
X21795619Y-1965476D02*
X22666476Y-1965476D01*
X22763238Y-1905000D01*
X22811619Y-1784047D01*
X22811619Y-1663095D01*
X22811619Y-1239762D02*
X22134286Y-1239762D01*
X22327810Y-1239762D02*
X22231048Y-1179286D01*
X22182667Y-1118810D01*
X22134286Y-997857D01*
X22134286Y-876905D01*
X22811619Y90714D02*
X22279429Y90714D01*
X22182667Y30237D01*
X22134286Y-90715D01*
X22134286Y-332620D01*
X22182667Y-453572D01*
X22763238Y90714D02*
X22811619Y-30239D01*
X22811619Y-332620D01*
X22763238Y-453572D01*
X22666476Y-514048D01*
X22569714Y-514048D01*
X22472952Y-453572D01*
X22424571Y-332620D01*
X22424571Y-30239D01*
X22376190Y90714D01*
X22763238Y1239762D02*
X22811619Y1118809D01*
X22811619Y876905D01*
X22763238Y755952D01*
X22714857Y695476D01*
X22618095Y635000D01*
X22327810Y635000D01*
X22231048Y695476D01*
X22182667Y755952D01*
X22134286Y876905D01*
X22134286Y1118809D01*
X22182667Y1239762D01*
X22763238Y2267856D02*
X22811619Y2146904D01*
X22811619Y1904999D01*
X22763238Y1784047D01*
X22666476Y1723571D01*
X22279429Y1723571D01*
X22182667Y1784047D01*
X22134286Y1904999D01*
X22134286Y2146904D01*
X22182667Y2267856D01*
X22279429Y2328333D01*
X22376190Y2328333D01*
X22472952Y1723571D01*
X22811619Y2872618D02*
X22134286Y2872618D01*
X22327810Y2872618D02*
X22231048Y2933094D01*
X22182667Y2993570D01*
X22134286Y3114523D01*
X22134286Y3235475D01*
X22134286Y4505475D02*
X22811619Y4807856D01*
X22134286Y5110236D01*
X22811619Y6259284D02*
X22811619Y5533570D01*
X22811619Y5896427D02*
X21795619Y5896427D01*
X21940762Y5775475D01*
X22037524Y5654522D01*
X22085905Y5533570D01*
X22714857Y6803570D02*
X22763238Y6864046D01*
X22811619Y6803570D01*
X22763238Y6743094D01*
X22714857Y6803570D01*
X22811619Y6803570D01*
X21795619Y7650237D02*
X21795619Y7771189D01*
X21844000Y7892141D01*
X21892381Y7952618D01*
X21989143Y8013094D01*
X22182667Y8073570D01*
X22424571Y8073570D01*
X22618095Y8013094D01*
X22714857Y7952618D01*
X22763238Y7892141D01*
X22811619Y7771189D01*
X22811619Y7650237D01*
X22763238Y7529284D01*
X22714857Y7468808D01*
X22618095Y7408332D01*
X22424571Y7347856D01*
X22182667Y7347856D01*
X21989143Y7408332D01*
X21892381Y7468808D01*
X21844000Y7529284D01*
X21795619Y7650237D01*
D13*
X-20000000Y-14500000D02*
G75*
G03X-26000000Y-8500000I-6000000J0D01*
G01*
X-26000000Y8500000D02*
G75*
G03X-20000000Y14500000I0J6000000D01*
G01*
X26000000Y-8500000D02*
G75*
G03X20000000Y-14500000I0J-6000000D01*
G01*
X20000000Y14500000D02*
G75*
G03X26000000Y8500000I6000000J0D01*
G01*
X-30000000Y-14500000D02*
X-30000000Y14500000D01*
X-30000000Y-14500000D02*
G75*
G03X-26000000Y-18500000I4000000J0D01*
G01*
X26000000Y18500000D02*
X-26000000Y18500000D01*
X30000000Y14500000D02*
X30000000Y-14500000D01*
X-26000000Y-18500000D02*
X26000000Y-18500000D01*
X-26000000Y18500000D02*
G75*
G03X-30000000Y14500000I0J-4000000D01*
G01*
X26000000Y-18500000D02*
G75*
G03X30000000Y-14500000I0J4000000D01*
G01*
X30000000Y14500000D02*
G75*
G03X26000000Y18500000I-4000000J0D01*
G01*
X14859000Y11557000D02*
X16891000Y11557000D01*
X14859000Y12827000D02*
X16891000Y12827000D01*
X-8001000Y5207000D02*
X-5969000Y5207000D01*
X-8001000Y6477000D02*
X-5969000Y6477000D01*
X14859000Y8509000D02*
X16891000Y8509000D01*
X14859000Y9779000D02*
X16891000Y9779000D01*
X-1143000Y2921000D02*
X-3175000Y2921000D01*
X-1143000Y1651000D02*
X-3175000Y1651000D01*
X11684000Y12827000D02*
X9652000Y12827000D01*
X11684000Y11557000D02*
X9652000Y11557000D01*
X-17272000Y-381000D02*
X-19304000Y-381000D01*
X-17272000Y-1651000D02*
X-19304000Y-1651000D01*
X-4953000Y13970000D02*
X-4953000Y11938000D01*
X-3683000Y13970000D02*
X-3683000Y11938000D01*
X-26797000Y6096000D02*
X-29337000Y6096000D01*
X-26797000Y8636000D02*
X-26797000Y-4064000D01*
X-26797000Y-4064000D02*
X-29337000Y-4064000D01*
X-29337000Y-4064000D02*
X-29337000Y8636000D01*
X-29337000Y8636000D02*
X-26797000Y8636000D01*
X-17399000Y-15748000D02*
X-17399000Y-13208000D01*
X-17399000Y-13208000D02*
X-19939000Y-13208000D01*
X-19939000Y-5588000D02*
X-12065000Y-5588000D01*
X-12065000Y-5588000D02*
X-12065000Y-15748000D01*
X-12065000Y-15748000D02*
X-19939000Y-15748000D01*
X-19939000Y-15748000D02*
X-19939000Y-5588000D01*
X-25654000Y7112000D02*
X-25654000Y5080000D01*
X-24384000Y7112000D02*
X-24384000Y5080000D01*
X-1143000Y-3175000D02*
X-3175000Y-3175000D01*
X-1143000Y-4445000D02*
X-3175000Y-4445000D01*
X-3175000Y-2921000D02*
X-1143000Y-2921000D01*
X-3175000Y-1651000D02*
X-1143000Y-1651000D01*
X5969000Y-3683000D02*
X3937000Y-3683000D01*
X5969000Y-4953000D02*
X3937000Y-4953000D01*
X1143000Y-4953000D02*
X3175000Y-4953000D01*
X1143000Y-3683000D02*
X3175000Y-3683000D01*
X-19304000Y-127000D02*
X-17272000Y-127000D01*
X-19304000Y1143000D02*
X-17272000Y1143000D01*
X-1143000Y1397000D02*
X-3175000Y1397000D01*
X-1143000Y127000D02*
X-3175000Y127000D01*
X13589000Y-3429000D02*
X15621000Y-3429000D01*
X13589000Y-2159000D02*
X15621000Y-2159000D01*
X9652000Y8509000D02*
X11684000Y8509000D01*
X9652000Y9779000D02*
X11684000Y9779000D01*
X9652000Y10033000D02*
X11684000Y10033000D01*
X9652000Y11303000D02*
X11684000Y11303000D01*
X10795000Y2667000D02*
X12827000Y2667000D01*
X10795000Y3937000D02*
X12827000Y3937000D01*
X3937000Y-6985000D02*
X5969000Y-6985000D01*
X3937000Y-5715000D02*
X5969000Y-5715000D01*
X-15751000Y11358000D02*
G75*
G03X-15751000Y11358000I-400000J0D01*
G01*
X-11951000Y11958000D02*
X-16751000Y11958000D01*
X-16751000Y11958000D02*
X-16751000Y1758000D01*
X-16751000Y1758000D02*
X-11951000Y1758000D01*
X-11951000Y1758000D02*
X-11951000Y11958000D01*
X5080000Y9906000D02*
G75*
G03X5080000Y9906000I-508000J0D01*
G01*
X1778000Y15748000D02*
X1778000Y10160000D01*
X1778000Y10160000D02*
X3810000Y10160000D01*
X3810000Y10160000D02*
X3810000Y15748000D01*
X3810000Y15748000D02*
X1778000Y15748000D01*
X15748000Y18415000D02*
X10668000Y18415000D01*
X3937000Y2159000D02*
X5969000Y2159000D01*
X3937000Y3429000D02*
X5969000Y3429000D01*
X-8890000Y12954000D02*
X-8890000Y10922000D01*
X-7620000Y12954000D02*
X-7620000Y10922000D01*
X-3429000Y13970000D02*
X-3429000Y11938000D01*
X-2159000Y13970000D02*
X-2159000Y11938000D01*
X13589000Y-4953000D02*
X15621000Y-4953000D01*
X13589000Y-3683000D02*
X15621000Y-3683000D01*
X10795000Y1143000D02*
X12827000Y1143000D01*
X10795000Y2413000D02*
X12827000Y2413000D01*
X10795000Y-4953000D02*
X12827000Y-4953000D01*
X10795000Y-3683000D02*
X12827000Y-3683000D01*
X13589000Y1143000D02*
X15621000Y1143000D01*
X13589000Y2413000D02*
X15621000Y2413000D01*
X10795000Y-3429000D02*
X12827000Y-3429000D01*
X10795000Y-2159000D02*
X12827000Y-2159000D01*
X13589000Y2667000D02*
X15621000Y2667000D01*
X13589000Y3937000D02*
X15621000Y3937000D01*
X6731000Y1651000D02*
X6731000Y-3175000D01*
X6731000Y-3175000D02*
X3175000Y-3175000D01*
X3175000Y-3175000D02*
X3175000Y1651000D01*
X3175000Y1651000D02*
X6731000Y1651000D01*
X4191000Y1016000D02*
G75*
G03X4191000Y1016000I-381000J0D01*
G01*
X-19304000Y-4699000D02*
X-17272000Y-4699000D01*
X-19304000Y-3429000D02*
X-17272000Y-3429000D01*
X-19304000Y-3175000D02*
X-17272000Y-3175000D01*
X-19304000Y-1905000D02*
X-17272000Y-1905000D01*
X14859000Y6985000D02*
X16891000Y6985000D01*
X14859000Y8255000D02*
X16891000Y8255000D01*
X14859000Y5461000D02*
X16891000Y5461000D01*
X14859000Y6731000D02*
X16891000Y6731000D01*
X16510000Y-6858000D02*
X18542000Y-6858000D01*
X16510000Y-5588000D02*
X18542000Y-5588000D01*
X-12700000Y13970000D02*
X-12700000Y16002000D01*
X-13970000Y13970000D02*
X-13970000Y16002000D01*
X-11176000Y13970000D02*
X-11176000Y16002000D01*
X-12446000Y13970000D02*
X-12446000Y16002000D01*
X-9652000Y13970000D02*
X-9652000Y16002000D01*
X-10922000Y13970000D02*
X-10922000Y16002000D01*
X-21209000Y2413000D02*
X-23241000Y2413000D01*
X-21209000Y1143000D02*
X-23241000Y1143000D01*
X-4064000Y2921000D02*
X-6096000Y2921000D01*
X-4064000Y1651000D02*
X-6096000Y1651000D01*
X-4064000Y1397000D02*
X-6096000Y1397000D01*
X-4064000Y127000D02*
X-6096000Y127000D01*
X-12065000Y-381000D02*
X-14097000Y-381000D01*
X-12065000Y-1651000D02*
X-14097000Y-1651000D01*
X-11303000Y-1651000D02*
X-9271000Y-1651000D01*
X-11303000Y-381000D02*
X-9271000Y-381000D01*
X-12065000Y-3429000D02*
X-14097000Y-3429000D01*
X-12065000Y-4699000D02*
X-14097000Y-4699000D01*
X-11303000Y-4699000D02*
X-9271000Y-4699000D01*
X-11303000Y-3429000D02*
X-9271000Y-3429000D01*
X-6477000Y-7493000D02*
X-11557000Y-7493000D01*
X-11557000Y-7493000D02*
X-11557000Y-15875000D01*
X-11557000Y-15875000D02*
X-6477000Y-15875000D01*
X14859000Y-7493000D02*
X19939000Y-7493000D01*
X19939000Y-7493000D02*
X19939000Y-15875000D01*
X19939000Y-15875000D02*
X14859000Y-15875000D01*
X12319000Y-7493000D02*
X14859000Y-7493000D01*
X14859000Y-15875000D02*
X12319000Y-15875000D01*
X-3937000Y-7493000D02*
X-6477000Y-7493000D01*
X-6477000Y-15875000D02*
X-3937000Y-15875000D01*
X12319000Y-7493000D02*
X-3937000Y-7493000D01*
X4191000Y-15621000D02*
X3683000Y-15113000D01*
X4191000Y-15621000D02*
X4699000Y-15113000D01*
X4191000Y-15621000D02*
X4191000Y-13843000D01*
X12319000Y-15875000D02*
X-3937000Y-15875000D01*
X-12065000Y1143000D02*
X-14097000Y1143000D01*
X-12065000Y-127000D02*
X-14097000Y-127000D01*
X-9271000Y1143000D02*
X-11303000Y1143000D01*
X-9271000Y-127000D02*
X-11303000Y-127000D01*
X-12065000Y-1905000D02*
X-14097000Y-1905000D01*
X-12065000Y-3175000D02*
X-14097000Y-3175000D01*
X-11303000Y-3175000D02*
X-9271000Y-3175000D01*
X-11303000Y-1905000D02*
X-9271000Y-1905000D01*
X-19050000Y15113000D02*
X-19050000Y17653000D01*
X-19330000Y12293000D02*
X-19330000Y13843000D01*
X-19050000Y15113000D02*
X-16510000Y15113000D01*
X-16230000Y13843000D02*
X-16230000Y12293000D01*
X-16230000Y12293000D02*
X-19330000Y12293000D01*
X-16510000Y15113000D02*
X-16510000Y17653000D01*
X-16510000Y17653000D02*
X-19050000Y17653000D01*
X-15494000Y16002000D02*
X-15494000Y13970000D01*
X-14224000Y16002000D02*
X-14224000Y13970000D01*
X29011571Y9723572D02*
X29011571Y9390238D01*
X29535381Y9390238D02*
X28535381Y9390238D01*
X28535381Y9866429D01*
X29535381Y10247381D02*
X28535381Y10247381D01*
X29535381Y10723571D02*
X28535381Y10723571D01*
X28535381Y10961666D01*
X28583000Y11104524D01*
X28678238Y11199762D01*
X28773476Y11247381D01*
X28963952Y11295000D01*
X29106810Y11295000D01*
X29297286Y11247381D01*
X29392524Y11199762D01*
X29487762Y11104524D01*
X29535381Y10961666D01*
X29535381Y10723571D01*
X29535381Y12247381D02*
X29535381Y11675952D01*
X29535381Y11961666D02*
X28535381Y11961666D01*
X28678238Y11866428D01*
X28773476Y11771190D01*
X28821095Y11675952D01*
D14*
X17885834Y11829143D02*
X17843500Y11780762D01*
X17716500Y11732381D01*
X17631834Y11732381D01*
X17504834Y11780762D01*
X17420167Y11877524D01*
X17377834Y11974286D01*
X17335500Y12167810D01*
X17335500Y12312952D01*
X17377834Y12506476D01*
X17420167Y12603238D01*
X17504834Y12700000D01*
X17631834Y12748381D01*
X17716500Y12748381D01*
X17843500Y12700000D01*
X17885834Y12651619D01*
X18732500Y11732381D02*
X18224500Y11732381D01*
X18478500Y11732381D02*
X18478500Y12748381D01*
X18393834Y12603238D01*
X18309167Y12506476D01*
X18224500Y12458095D01*
X-7514166Y3955143D02*
X-7556500Y3906762D01*
X-7683500Y3858381D01*
X-7768166Y3858381D01*
X-7895166Y3906762D01*
X-7979833Y4003524D01*
X-8022166Y4100286D01*
X-8064500Y4293810D01*
X-8064500Y4438952D01*
X-8022166Y4632476D01*
X-7979833Y4729238D01*
X-7895166Y4826000D01*
X-7768166Y4874381D01*
X-7683500Y4874381D01*
X-7556500Y4826000D01*
X-7514166Y4777619D01*
X-7175500Y4777619D02*
X-7133166Y4826000D01*
X-7048500Y4874381D01*
X-6836833Y4874381D01*
X-6752166Y4826000D01*
X-6709833Y4777619D01*
X-6667500Y4680857D01*
X-6667500Y4584095D01*
X-6709833Y4438952D01*
X-7217833Y3858381D01*
X-6667500Y3858381D01*
X17885834Y9035143D02*
X17843500Y8986762D01*
X17716500Y8938381D01*
X17631834Y8938381D01*
X17504834Y8986762D01*
X17420167Y9083524D01*
X17377834Y9180286D01*
X17335500Y9373810D01*
X17335500Y9518952D01*
X17377834Y9712476D01*
X17420167Y9809238D01*
X17504834Y9906000D01*
X17631834Y9954381D01*
X17716500Y9954381D01*
X17843500Y9906000D01*
X17885834Y9857619D01*
X18182167Y9954381D02*
X18732500Y9954381D01*
X18436167Y9567333D01*
X18563167Y9567333D01*
X18647834Y9518952D01*
X18690167Y9470571D01*
X18732500Y9373810D01*
X18732500Y9131905D01*
X18690167Y9035143D01*
X18647834Y8986762D01*
X18563167Y8938381D01*
X18309167Y8938381D01*
X18224500Y8986762D01*
X18182167Y9035143D01*
X-148166Y1923143D02*
X-190500Y1874762D01*
X-317500Y1826381D01*
X-402166Y1826381D01*
X-529166Y1874762D01*
X-613833Y1971524D01*
X-656166Y2068286D01*
X-698500Y2261810D01*
X-698500Y2406952D01*
X-656166Y2600476D01*
X-613833Y2697238D01*
X-529166Y2794000D01*
X-402166Y2842381D01*
X-317500Y2842381D01*
X-190500Y2794000D01*
X-148166Y2745619D01*
X613834Y2503714D02*
X613834Y1826381D01*
X402167Y2890762D02*
X190500Y2165048D01*
X740834Y2165048D01*
X12678834Y11829143D02*
X12636500Y11780762D01*
X12509500Y11732381D01*
X12424834Y11732381D01*
X12297834Y11780762D01*
X12213167Y11877524D01*
X12170834Y11974286D01*
X12128500Y12167810D01*
X12128500Y12312952D01*
X12170834Y12506476D01*
X12213167Y12603238D01*
X12297834Y12700000D01*
X12424834Y12748381D01*
X12509500Y12748381D01*
X12636500Y12700000D01*
X12678834Y12651619D01*
X13483167Y12748381D02*
X13059834Y12748381D01*
X13017500Y12264571D01*
X13059834Y12312952D01*
X13144500Y12361333D01*
X13356167Y12361333D01*
X13440834Y12312952D01*
X13483167Y12264571D01*
X13525500Y12167810D01*
X13525500Y11925905D01*
X13483167Y11829143D01*
X13440834Y11780762D01*
X13356167Y11732381D01*
X13144500Y11732381D01*
X13059834Y11780762D01*
X13017500Y11829143D01*
X-20595166Y-1505857D02*
X-20637500Y-1554238D01*
X-20764500Y-1602619D01*
X-20849166Y-1602619D01*
X-20976166Y-1554238D01*
X-21060833Y-1457476D01*
X-21103166Y-1360714D01*
X-21145500Y-1167190D01*
X-21145500Y-1022048D01*
X-21103166Y-828524D01*
X-21060833Y-731762D01*
X-20976166Y-635000D01*
X-20849166Y-586619D01*
X-20764500Y-586619D01*
X-20637500Y-635000D01*
X-20595166Y-683381D01*
X-19833166Y-586619D02*
X-20002500Y-586619D01*
X-20087166Y-635000D01*
X-20129500Y-683381D01*
X-20214166Y-828524D01*
X-20256500Y-1022048D01*
X-20256500Y-1409095D01*
X-20214166Y-1505857D01*
X-20171833Y-1554238D01*
X-20087166Y-1602619D01*
X-19917833Y-1602619D01*
X-19833166Y-1554238D01*
X-19790833Y-1505857D01*
X-19748500Y-1409095D01*
X-19748500Y-1167190D01*
X-19790833Y-1070429D01*
X-19833166Y-1022048D01*
X-19917833Y-973667D01*
X-20087166Y-973667D01*
X-20171833Y-1022048D01*
X-20214166Y-1070429D01*
X-20256500Y-1167190D01*
X-4974166Y10559143D02*
X-5016500Y10510762D01*
X-5143500Y10462381D01*
X-5228166Y10462381D01*
X-5355166Y10510762D01*
X-5439833Y10607524D01*
X-5482166Y10704286D01*
X-5524500Y10897810D01*
X-5524500Y11042952D01*
X-5482166Y11236476D01*
X-5439833Y11333238D01*
X-5355166Y11430000D01*
X-5228166Y11478381D01*
X-5143500Y11478381D01*
X-5016500Y11430000D01*
X-4974166Y11381619D01*
X-4677833Y11478381D02*
X-4085166Y11478381D01*
X-4466166Y10462381D01*
D13*
X-28678095Y8818619D02*
X-28678095Y9818619D01*
X-28297142Y9818619D01*
X-28201904Y9771000D01*
X-28154285Y9723381D01*
X-28106666Y9628143D01*
X-28106666Y9485286D01*
X-28154285Y9390048D01*
X-28201904Y9342429D01*
X-28297142Y9294810D01*
X-28678095Y9294810D01*
X-27154285Y8818619D02*
X-27725714Y8818619D01*
X-27440000Y8818619D02*
X-27440000Y9818619D01*
X-27535238Y9675762D01*
X-27630476Y9580524D01*
X-27725714Y9532905D01*
X-21820095Y-6929381D02*
X-21820095Y-5929381D01*
X-21439142Y-5929381D01*
X-21343904Y-5977000D01*
X-21296285Y-6024619D01*
X-21248666Y-6119857D01*
X-21248666Y-6262714D01*
X-21296285Y-6357952D01*
X-21343904Y-6405571D01*
X-21439142Y-6453190D01*
X-21820095Y-6453190D01*
X-20391523Y-6262714D02*
X-20391523Y-6929381D01*
X-20629619Y-5881762D02*
X-20867714Y-6596048D01*
X-20248666Y-6596048D01*
D14*
X-24405166Y3477381D02*
X-24701500Y3961190D01*
X-24913166Y3477381D02*
X-24913166Y4493381D01*
X-24574500Y4493381D01*
X-24489833Y4445000D01*
X-24447500Y4396619D01*
X-24405166Y4299857D01*
X-24405166Y4154714D01*
X-24447500Y4057952D01*
X-24489833Y4009571D01*
X-24574500Y3961190D01*
X-24913166Y3961190D01*
X-23558500Y3477381D02*
X-24066500Y3477381D01*
X-23812500Y3477381D02*
X-23812500Y4493381D01*
X-23897166Y4348238D01*
X-23981833Y4251476D01*
X-24066500Y4203095D01*
X-2307166Y-5793619D02*
X-2603500Y-5309810D01*
X-2815166Y-5793619D02*
X-2815166Y-4777619D01*
X-2476500Y-4777619D01*
X-2391833Y-4826000D01*
X-2349500Y-4874381D01*
X-2307166Y-4971143D01*
X-2307166Y-5116286D01*
X-2349500Y-5213048D01*
X-2391833Y-5261429D01*
X-2476500Y-5309810D01*
X-2815166Y-5309810D01*
X-1968500Y-4874381D02*
X-1926166Y-4826000D01*
X-1841500Y-4777619D01*
X-1629833Y-4777619D01*
X-1545166Y-4826000D01*
X-1502833Y-4874381D01*
X-1460500Y-4971143D01*
X-1460500Y-5067905D01*
X-1502833Y-5213048D01*
X-2010833Y-5793619D01*
X-1460500Y-5793619D01*
X-2307166Y-1348619D02*
X-2603500Y-864810D01*
X-2815166Y-1348619D02*
X-2815166Y-332619D01*
X-2476500Y-332619D01*
X-2391833Y-381000D01*
X-2349500Y-429381D01*
X-2307166Y-526143D01*
X-2307166Y-671286D01*
X-2349500Y-768048D01*
X-2391833Y-816429D01*
X-2476500Y-864810D01*
X-2815166Y-864810D01*
X-2010833Y-332619D02*
X-1460500Y-332619D01*
X-1756833Y-719667D01*
X-1629833Y-719667D01*
X-1545166Y-768048D01*
X-1502833Y-816429D01*
X-1460500Y-913190D01*
X-1460500Y-1155095D01*
X-1502833Y-1251857D01*
X-1545166Y-1300238D01*
X-1629833Y-1348619D01*
X-1883833Y-1348619D01*
X-1968500Y-1300238D01*
X-2010833Y-1251857D01*
X7090834Y-4777619D02*
X6794500Y-4293810D01*
X6582834Y-4777619D02*
X6582834Y-3761619D01*
X6921500Y-3761619D01*
X7006167Y-3810000D01*
X7048500Y-3858381D01*
X7090834Y-3955143D01*
X7090834Y-4100286D01*
X7048500Y-4197048D01*
X7006167Y-4245429D01*
X6921500Y-4293810D01*
X6582834Y-4293810D01*
X7852834Y-4100286D02*
X7852834Y-4777619D01*
X7641167Y-3713238D02*
X7429500Y-4438952D01*
X7979834Y-4438952D01*
X2010834Y-6301619D02*
X1714500Y-5817810D01*
X1502834Y-6301619D02*
X1502834Y-5285619D01*
X1841500Y-5285619D01*
X1926167Y-5334000D01*
X1968500Y-5382381D01*
X2010834Y-5479143D01*
X2010834Y-5624286D01*
X1968500Y-5721048D01*
X1926167Y-5769429D01*
X1841500Y-5817810D01*
X1502834Y-5817810D01*
X2815167Y-5285619D02*
X2391834Y-5285619D01*
X2349500Y-5769429D01*
X2391834Y-5721048D01*
X2476500Y-5672667D01*
X2688167Y-5672667D01*
X2772834Y-5721048D01*
X2815167Y-5769429D01*
X2857500Y-5866190D01*
X2857500Y-6108095D01*
X2815167Y-6204857D01*
X2772834Y-6253238D01*
X2688167Y-6301619D01*
X2476500Y-6301619D01*
X2391834Y-6253238D01*
X2349500Y-6204857D01*
X-20595166Y-78619D02*
X-20891500Y405190D01*
X-21103166Y-78619D02*
X-21103166Y937381D01*
X-20764500Y937381D01*
X-20679833Y889000D01*
X-20637500Y840619D01*
X-20595166Y743857D01*
X-20595166Y598714D01*
X-20637500Y501952D01*
X-20679833Y453571D01*
X-20764500Y405190D01*
X-21103166Y405190D01*
X-19833166Y937381D02*
X-20002500Y937381D01*
X-20087166Y889000D01*
X-20129500Y840619D01*
X-20214166Y695476D01*
X-20256500Y501952D01*
X-20256500Y114905D01*
X-20214166Y18143D01*
X-20171833Y-30238D01*
X-20087166Y-78619D01*
X-19917833Y-78619D01*
X-19833166Y-30238D01*
X-19790833Y18143D01*
X-19748500Y114905D01*
X-19748500Y356810D01*
X-19790833Y453571D01*
X-19833166Y501952D01*
X-19917833Y550333D01*
X-20087166Y550333D01*
X-20171833Y501952D01*
X-20214166Y453571D01*
X-20256500Y356810D01*
X-148166Y302381D02*
X-444500Y786190D01*
X-656166Y302381D02*
X-656166Y1318381D01*
X-317500Y1318381D01*
X-232833Y1270000D01*
X-190500Y1221619D01*
X-148166Y1124857D01*
X-148166Y979714D01*
X-190500Y882952D01*
X-232833Y834571D01*
X-317500Y786190D01*
X-656166Y786190D01*
X148167Y1318381D02*
X740834Y1318381D01*
X359834Y302381D01*
X14456834Y-1729619D02*
X14160500Y-1245810D01*
X13948834Y-1729619D02*
X13948834Y-713619D01*
X14287500Y-713619D01*
X14372167Y-762000D01*
X14414500Y-810381D01*
X14456834Y-907143D01*
X14456834Y-1052286D01*
X14414500Y-1149048D01*
X14372167Y-1197429D01*
X14287500Y-1245810D01*
X13948834Y-1245810D01*
X14964834Y-1149048D02*
X14880167Y-1100667D01*
X14837834Y-1052286D01*
X14795500Y-955524D01*
X14795500Y-907143D01*
X14837834Y-810381D01*
X14880167Y-762000D01*
X14964834Y-713619D01*
X15134167Y-713619D01*
X15218834Y-762000D01*
X15261167Y-810381D01*
X15303500Y-907143D01*
X15303500Y-955524D01*
X15261167Y-1052286D01*
X15218834Y-1100667D01*
X15134167Y-1149048D01*
X14964834Y-1149048D01*
X14880167Y-1197429D01*
X14837834Y-1245810D01*
X14795500Y-1342571D01*
X14795500Y-1536095D01*
X14837834Y-1632857D01*
X14880167Y-1681238D01*
X14964834Y-1729619D01*
X15134167Y-1729619D01*
X15218834Y-1681238D01*
X15261167Y-1632857D01*
X15303500Y-1536095D01*
X15303500Y-1342571D01*
X15261167Y-1245810D01*
X15218834Y-1197429D01*
X15134167Y-1149048D01*
X12678834Y8684381D02*
X12382500Y9168190D01*
X12170834Y8684381D02*
X12170834Y9700381D01*
X12509500Y9700381D01*
X12594167Y9652000D01*
X12636500Y9603619D01*
X12678834Y9506857D01*
X12678834Y9361714D01*
X12636500Y9264952D01*
X12594167Y9216571D01*
X12509500Y9168190D01*
X12170834Y9168190D01*
X13102167Y8684381D02*
X13271500Y8684381D01*
X13356167Y8732762D01*
X13398500Y8781143D01*
X13483167Y8926286D01*
X13525500Y9119810D01*
X13525500Y9506857D01*
X13483167Y9603619D01*
X13440834Y9652000D01*
X13356167Y9700381D01*
X13186834Y9700381D01*
X13102167Y9652000D01*
X13059834Y9603619D01*
X13017500Y9506857D01*
X13017500Y9264952D01*
X13059834Y9168190D01*
X13102167Y9119810D01*
X13186834Y9071429D01*
X13356167Y9071429D01*
X13440834Y9119810D01*
X13483167Y9168190D01*
X13525500Y9264952D01*
X12636500Y10208381D02*
X12340166Y10692190D01*
X12128500Y10208381D02*
X12128500Y11224381D01*
X12467166Y11224381D01*
X12551833Y11176000D01*
X12594166Y11127619D01*
X12636500Y11030857D01*
X12636500Y10885714D01*
X12594166Y10788952D01*
X12551833Y10740571D01*
X12467166Y10692190D01*
X12128500Y10692190D01*
X13483166Y10208381D02*
X12975166Y10208381D01*
X13229166Y10208381D02*
X13229166Y11224381D01*
X13144500Y11079238D01*
X13059833Y10982476D01*
X12975166Y10934095D01*
X14033500Y11224381D02*
X14118167Y11224381D01*
X14202833Y11176000D01*
X14245167Y11127619D01*
X14287500Y11030857D01*
X14329833Y10837333D01*
X14329833Y10595429D01*
X14287500Y10401905D01*
X14245167Y10305143D01*
X14202833Y10256762D01*
X14118167Y10208381D01*
X14033500Y10208381D01*
X13948833Y10256762D01*
X13906500Y10305143D01*
X13864167Y10401905D01*
X13821833Y10595429D01*
X13821833Y10837333D01*
X13864167Y11030857D01*
X13906500Y11127619D01*
X13948833Y11176000D01*
X14033500Y11224381D01*
X11239500Y4366381D02*
X10943166Y4850190D01*
X10731500Y4366381D02*
X10731500Y5382381D01*
X11070166Y5382381D01*
X11154833Y5334000D01*
X11197166Y5285619D01*
X11239500Y5188857D01*
X11239500Y5043714D01*
X11197166Y4946952D01*
X11154833Y4898571D01*
X11070166Y4850190D01*
X10731500Y4850190D01*
X12086166Y4366381D02*
X11578166Y4366381D01*
X11832166Y4366381D02*
X11832166Y5382381D01*
X11747500Y5237238D01*
X11662833Y5140476D01*
X11578166Y5092095D01*
X12932833Y4366381D02*
X12424833Y4366381D01*
X12678833Y4366381D02*
X12678833Y5382381D01*
X12594167Y5237238D01*
X12509500Y5140476D01*
X12424833Y5092095D01*
X6921500Y-6809619D02*
X6625166Y-6325810D01*
X6413500Y-6809619D02*
X6413500Y-5793619D01*
X6752166Y-5793619D01*
X6836833Y-5842000D01*
X6879166Y-5890381D01*
X6921500Y-5987143D01*
X6921500Y-6132286D01*
X6879166Y-6229048D01*
X6836833Y-6277429D01*
X6752166Y-6325810D01*
X6413500Y-6325810D01*
X7768166Y-6809619D02*
X7260166Y-6809619D01*
X7514166Y-6809619D02*
X7514166Y-5793619D01*
X7429500Y-5938762D01*
X7344833Y-6035524D01*
X7260166Y-6083905D01*
X8106833Y-5890381D02*
X8149167Y-5842000D01*
X8233833Y-5793619D01*
X8445500Y-5793619D01*
X8530167Y-5842000D01*
X8572500Y-5890381D01*
X8614833Y-5987143D01*
X8614833Y-6083905D01*
X8572500Y-6229048D01*
X8064500Y-6809619D01*
X8614833Y-6809619D01*
D13*
X-20827905Y10834619D02*
X-20827905Y10025095D01*
X-20780286Y9929857D01*
X-20732667Y9882238D01*
X-20637429Y9834619D01*
X-20446952Y9834619D01*
X-20351714Y9882238D01*
X-20304095Y9929857D01*
X-20256476Y10025095D01*
X-20256476Y10834619D01*
X-19827905Y10739381D02*
X-19780286Y10787000D01*
X-19685048Y10834619D01*
X-19446952Y10834619D01*
X-19351714Y10787000D01*
X-19304095Y10739381D01*
X-19256476Y10644143D01*
X-19256476Y10548905D01*
X-19304095Y10406048D01*
X-19875524Y9834619D01*
X-19256476Y9834619D01*
X5435714Y10182143D02*
X5435714Y9210714D01*
X5492857Y9096429D01*
X5550000Y9039286D01*
X5664286Y8982143D01*
X5892857Y8982143D01*
X6007143Y9039286D01*
X6064286Y9096429D01*
X6121429Y9210714D01*
X6121429Y10182143D01*
X6578572Y10182143D02*
X7321429Y10182143D01*
X6921429Y9725000D01*
X7092857Y9725000D01*
X7207143Y9667857D01*
X7264286Y9610714D01*
X7321429Y9496429D01*
X7321429Y9210714D01*
X7264286Y9096429D01*
X7207143Y9039286D01*
X7092857Y8982143D01*
X6750000Y8982143D01*
X6635714Y9039286D01*
X6578572Y9096429D01*
X7135905Y16438619D02*
X7135905Y17438619D01*
X7516858Y17438619D01*
X7612096Y17391000D01*
X7659715Y17343381D01*
X7707334Y17248143D01*
X7707334Y17105286D01*
X7659715Y17010048D01*
X7612096Y16962429D01*
X7516858Y16914810D01*
X7135905Y16914810D01*
X8088286Y17343381D02*
X8135905Y17391000D01*
X8231143Y17438619D01*
X8469239Y17438619D01*
X8564477Y17391000D01*
X8612096Y17343381D01*
X8659715Y17248143D01*
X8659715Y17152905D01*
X8612096Y17010048D01*
X8040667Y16438619D01*
X8659715Y16438619D01*
D14*
X4882834Y3863143D02*
X4840500Y3814762D01*
X4713500Y3766381D01*
X4628834Y3766381D01*
X4501834Y3814762D01*
X4417167Y3911524D01*
X4374834Y4008286D01*
X4332500Y4201810D01*
X4332500Y4346952D01*
X4374834Y4540476D01*
X4417167Y4637238D01*
X4501834Y4734000D01*
X4628834Y4782381D01*
X4713500Y4782381D01*
X4840500Y4734000D01*
X4882834Y4685619D01*
X5306167Y3766381D02*
X5475500Y3766381D01*
X5560167Y3814762D01*
X5602500Y3863143D01*
X5687167Y4008286D01*
X5729500Y4201810D01*
X5729500Y4588857D01*
X5687167Y4685619D01*
X5644834Y4734000D01*
X5560167Y4782381D01*
X5390834Y4782381D01*
X5306167Y4734000D01*
X5263834Y4685619D01*
X5221500Y4588857D01*
X5221500Y4346952D01*
X5263834Y4250190D01*
X5306167Y4201810D01*
X5390834Y4153429D01*
X5560167Y4153429D01*
X5644834Y4201810D01*
X5687167Y4250190D01*
X5729500Y4346952D01*
X-8445500Y13607143D02*
X-8487834Y13558762D01*
X-8614834Y13510381D01*
X-8699500Y13510381D01*
X-8826500Y13558762D01*
X-8911167Y13655524D01*
X-8953500Y13752286D01*
X-8995834Y13945810D01*
X-8995834Y14090952D01*
X-8953500Y14284476D01*
X-8911167Y14381238D01*
X-8826500Y14478000D01*
X-8699500Y14526381D01*
X-8614834Y14526381D01*
X-8487834Y14478000D01*
X-8445500Y14429619D01*
X-7598834Y13510381D02*
X-8106834Y13510381D01*
X-7852834Y13510381D02*
X-7852834Y14526381D01*
X-7937500Y14381238D01*
X-8022167Y14284476D01*
X-8106834Y14236095D01*
X-7048500Y14526381D02*
X-6963833Y14526381D01*
X-6879167Y14478000D01*
X-6836833Y14429619D01*
X-6794500Y14332857D01*
X-6752167Y14139333D01*
X-6752167Y13897429D01*
X-6794500Y13703905D01*
X-6836833Y13607143D01*
X-6879167Y13558762D01*
X-6963833Y13510381D01*
X-7048500Y13510381D01*
X-7133167Y13558762D01*
X-7175500Y13607143D01*
X-7217833Y13703905D01*
X-7260167Y13897429D01*
X-7260167Y14139333D01*
X-7217833Y14332857D01*
X-7175500Y14429619D01*
X-7133167Y14478000D01*
X-7048500Y14526381D01*
X-3111500Y10559143D02*
X-3153834Y10510762D01*
X-3280834Y10462381D01*
X-3365500Y10462381D01*
X-3492500Y10510762D01*
X-3577167Y10607524D01*
X-3619500Y10704286D01*
X-3661834Y10897810D01*
X-3661834Y11042952D01*
X-3619500Y11236476D01*
X-3577167Y11333238D01*
X-3492500Y11430000D01*
X-3365500Y11478381D01*
X-3280834Y11478381D01*
X-3153834Y11430000D01*
X-3111500Y11381619D01*
X-2264834Y10462381D02*
X-2772834Y10462381D01*
X-2518834Y10462381D02*
X-2518834Y11478381D01*
X-2603500Y11333238D01*
X-2688167Y11236476D01*
X-2772834Y11188095D01*
X-1418167Y10462381D02*
X-1926167Y10462381D01*
X-1672167Y10462381D02*
X-1672167Y11478381D01*
X-1756833Y11333238D01*
X-1841500Y11236476D01*
X-1926167Y11188095D01*
X14456834Y-6204857D02*
X14414500Y-6253238D01*
X14287500Y-6301619D01*
X14202834Y-6301619D01*
X14075834Y-6253238D01*
X13991167Y-6156476D01*
X13948834Y-6059714D01*
X13906500Y-5866190D01*
X13906500Y-5721048D01*
X13948834Y-5527524D01*
X13991167Y-5430762D01*
X14075834Y-5334000D01*
X14202834Y-5285619D01*
X14287500Y-5285619D01*
X14414500Y-5334000D01*
X14456834Y-5382381D01*
X14964834Y-5721048D02*
X14880167Y-5672667D01*
X14837834Y-5624286D01*
X14795500Y-5527524D01*
X14795500Y-5479143D01*
X14837834Y-5382381D01*
X14880167Y-5334000D01*
X14964834Y-5285619D01*
X15134167Y-5285619D01*
X15218834Y-5334000D01*
X15261167Y-5382381D01*
X15303500Y-5479143D01*
X15303500Y-5527524D01*
X15261167Y-5624286D01*
X15218834Y-5672667D01*
X15134167Y-5721048D01*
X14964834Y-5721048D01*
X14880167Y-5769429D01*
X14837834Y-5817810D01*
X14795500Y-5914571D01*
X14795500Y-6108095D01*
X14837834Y-6204857D01*
X14880167Y-6253238D01*
X14964834Y-6301619D01*
X15134167Y-6301619D01*
X15218834Y-6253238D01*
X15261167Y-6204857D01*
X15303500Y-6108095D01*
X15303500Y-5914571D01*
X15261167Y-5817810D01*
X15218834Y-5769429D01*
X15134167Y-5721048D01*
X11239500Y-108857D02*
X11197166Y-157238D01*
X11070166Y-205619D01*
X10985500Y-205619D01*
X10858500Y-157238D01*
X10773833Y-60476D01*
X10731500Y36286D01*
X10689166Y229810D01*
X10689166Y374952D01*
X10731500Y568476D01*
X10773833Y665238D01*
X10858500Y762000D01*
X10985500Y810381D01*
X11070166Y810381D01*
X11197166Y762000D01*
X11239500Y713619D01*
X12086166Y-205619D02*
X11578166Y-205619D01*
X11832166Y-205619D02*
X11832166Y810381D01*
X11747500Y665238D01*
X11662833Y568476D01*
X11578166Y520095D01*
X12424833Y713619D02*
X12467167Y762000D01*
X12551833Y810381D01*
X12763500Y810381D01*
X12848167Y762000D01*
X12890500Y713619D01*
X12932833Y616857D01*
X12932833Y520095D01*
X12890500Y374952D01*
X12382500Y-205619D01*
X12932833Y-205619D01*
X11239500Y-6204857D02*
X11197166Y-6253238D01*
X11070166Y-6301619D01*
X10985500Y-6301619D01*
X10858500Y-6253238D01*
X10773833Y-6156476D01*
X10731500Y-6059714D01*
X10689166Y-5866190D01*
X10689166Y-5721048D01*
X10731500Y-5527524D01*
X10773833Y-5430762D01*
X10858500Y-5334000D01*
X10985500Y-5285619D01*
X11070166Y-5285619D01*
X11197166Y-5334000D01*
X11239500Y-5382381D01*
X12086166Y-6301619D02*
X11578166Y-6301619D01*
X11832166Y-6301619D02*
X11832166Y-5285619D01*
X11747500Y-5430762D01*
X11662833Y-5527524D01*
X11578166Y-5575905D01*
X12382500Y-5285619D02*
X12932833Y-5285619D01*
X12636500Y-5672667D01*
X12763500Y-5672667D01*
X12848167Y-5721048D01*
X12890500Y-5769429D01*
X12932833Y-5866190D01*
X12932833Y-6108095D01*
X12890500Y-6204857D01*
X12848167Y-6253238D01*
X12763500Y-6301619D01*
X12509500Y-6301619D01*
X12424833Y-6253238D01*
X12382500Y-6204857D01*
X14033500Y-108857D02*
X13991166Y-157238D01*
X13864166Y-205619D01*
X13779500Y-205619D01*
X13652500Y-157238D01*
X13567833Y-60476D01*
X13525500Y36286D01*
X13483166Y229810D01*
X13483166Y374952D01*
X13525500Y568476D01*
X13567833Y665238D01*
X13652500Y762000D01*
X13779500Y810381D01*
X13864166Y810381D01*
X13991166Y762000D01*
X14033500Y713619D01*
X14880166Y-205619D02*
X14372166Y-205619D01*
X14626166Y-205619D02*
X14626166Y810381D01*
X14541500Y665238D01*
X14456833Y568476D01*
X14372166Y520095D01*
X15642167Y471714D02*
X15642167Y-205619D01*
X15430500Y858762D02*
X15218833Y133048D01*
X15769167Y133048D01*
X11239500Y-1729619D02*
X10943166Y-1245810D01*
X10731500Y-1729619D02*
X10731500Y-713619D01*
X11070166Y-713619D01*
X11154833Y-762000D01*
X11197166Y-810381D01*
X11239500Y-907143D01*
X11239500Y-1052286D01*
X11197166Y-1149048D01*
X11154833Y-1197429D01*
X11070166Y-1245810D01*
X10731500Y-1245810D01*
X12086166Y-1729619D02*
X11578166Y-1729619D01*
X11832166Y-1729619D02*
X11832166Y-713619D01*
X11747500Y-858762D01*
X11662833Y-955524D01*
X11578166Y-1003905D01*
X12382500Y-713619D02*
X12932833Y-713619D01*
X12636500Y-1100667D01*
X12763500Y-1100667D01*
X12848167Y-1149048D01*
X12890500Y-1197429D01*
X12932833Y-1294190D01*
X12932833Y-1536095D01*
X12890500Y-1632857D01*
X12848167Y-1681238D01*
X12763500Y-1729619D01*
X12509500Y-1729619D01*
X12424833Y-1681238D01*
X12382500Y-1632857D01*
X16709500Y2766381D02*
X16413166Y3250190D01*
X16201500Y2766381D02*
X16201500Y3782381D01*
X16540166Y3782381D01*
X16624833Y3734000D01*
X16667166Y3685619D01*
X16709500Y3588857D01*
X16709500Y3443714D01*
X16667166Y3346952D01*
X16624833Y3298571D01*
X16540166Y3250190D01*
X16201500Y3250190D01*
X17556166Y2766381D02*
X17048166Y2766381D01*
X17302166Y2766381D02*
X17302166Y3782381D01*
X17217500Y3637238D01*
X17132833Y3540476D01*
X17048166Y3492095D01*
X18318167Y3443714D02*
X18318167Y2766381D01*
X18106500Y3830762D02*
X17894833Y3105048D01*
X18445167Y3105048D01*
D13*
X-25161762Y-468381D02*
X-24923667Y-1468381D01*
X-24733190Y-754095D01*
X-24542714Y-1468381D01*
X-24304619Y-468381D01*
X-23399857Y-1468381D02*
X-23971286Y-1468381D01*
X-23685572Y-1468381D02*
X-23685572Y-468381D01*
X-23780810Y-611238D01*
X-23876048Y-706476D01*
X-23971286Y-754095D01*
X-21097762Y6770619D02*
X-20859667Y5770619D01*
X-20669190Y6484905D01*
X-20478714Y5770619D01*
X-20240619Y6770619D01*
X-19907286Y6675381D02*
X-19859667Y6723000D01*
X-19764429Y6770619D01*
X-19526333Y6770619D01*
X-19431095Y6723000D01*
X-19383476Y6675381D01*
X-19335857Y6580143D01*
X-19335857Y6484905D01*
X-19383476Y6342048D01*
X-19954905Y5770619D01*
X-19335857Y5770619D01*
X-21097762Y4738619D02*
X-20859667Y3738619D01*
X-20669190Y4452905D01*
X-20478714Y3738619D01*
X-20240619Y4738619D01*
X-19954905Y4738619D02*
X-19335857Y4738619D01*
X-19669191Y4357667D01*
X-19526333Y4357667D01*
X-19431095Y4310048D01*
X-19383476Y4262429D01*
X-19335857Y4167190D01*
X-19335857Y3929095D01*
X-19383476Y3833857D01*
X-19431095Y3786238D01*
X-19526333Y3738619D01*
X-19812048Y3738619D01*
X-19907286Y3786238D01*
X-19954905Y3833857D01*
X2651238Y8802619D02*
X2889333Y7802619D01*
X3079810Y8516905D01*
X3270286Y7802619D01*
X3508381Y8802619D01*
X4317905Y8469286D02*
X4317905Y7802619D01*
X4079809Y8850238D02*
X3841714Y8135952D01*
X4460762Y8135952D01*
X5191238Y7278619D02*
X5429333Y6278619D01*
X5619810Y6992905D01*
X5810286Y6278619D01*
X6048381Y7278619D01*
X6905524Y7278619D02*
X6429333Y7278619D01*
X6381714Y6802429D01*
X6429333Y6850048D01*
X6524571Y6897667D01*
X6762667Y6897667D01*
X6857905Y6850048D01*
X6905524Y6802429D01*
X6953143Y6707190D01*
X6953143Y6469095D01*
X6905524Y6373857D01*
X6857905Y6326238D01*
X6762667Y6278619D01*
X6524571Y6278619D01*
X6429333Y6326238D01*
X6381714Y6373857D01*
X-11572762Y-5548381D02*
X-11334667Y-6548381D01*
X-11144190Y-5834095D01*
X-10953714Y-6548381D01*
X-10715619Y-5548381D01*
X-10191810Y-5976952D02*
X-10287048Y-5929333D01*
X-10334667Y-5881714D01*
X-10382286Y-5786476D01*
X-10382286Y-5738857D01*
X-10334667Y-5643619D01*
X-10287048Y-5596000D01*
X-10191810Y-5548381D01*
X-10001333Y-5548381D01*
X-9906095Y-5596000D01*
X-9858476Y-5643619D01*
X-9810857Y-5738857D01*
X-9810857Y-5786476D01*
X-9858476Y-5881714D01*
X-9906095Y-5929333D01*
X-10001333Y-5976952D01*
X-10191810Y-5976952D01*
X-10287048Y-6024571D01*
X-10334667Y-6072190D01*
X-10382286Y-6167429D01*
X-10382286Y-6357905D01*
X-10334667Y-6453143D01*
X-10287048Y-6500762D01*
X-10191810Y-6548381D01*
X-10001333Y-6548381D01*
X-9906095Y-6500762D01*
X-9858476Y-6453143D01*
X-9810857Y-6357905D01*
X-9810857Y-6167429D01*
X-9858476Y-6072190D01*
X-9906095Y-6024571D01*
X-10001333Y-5976952D01*
X-6135619Y-4968762D02*
X-5135619Y-4730667D01*
X-5849905Y-4540190D01*
X-5135619Y-4349714D01*
X-6135619Y-4111619D01*
X-5135619Y-3683048D02*
X-5135619Y-3492572D01*
X-5183238Y-3397333D01*
X-5230857Y-3349714D01*
X-5373714Y-3254476D01*
X-5564190Y-3206857D01*
X-5945143Y-3206857D01*
X-6040381Y-3254476D01*
X-6088000Y-3302095D01*
X-6135619Y-3397333D01*
X-6135619Y-3587810D01*
X-6088000Y-3683048D01*
X-6040381Y-3730667D01*
X-5945143Y-3778286D01*
X-5707048Y-3778286D01*
X-5611810Y-3730667D01*
X-5564190Y-3683048D01*
X-5516571Y-3587810D01*
X-5516571Y-3397333D01*
X-5564190Y-3302095D01*
X-5611810Y-3254476D01*
X-5707048Y-3206857D01*
X-4738619Y-4682952D02*
X-3738619Y-4444857D01*
X-4452905Y-4254380D01*
X-3738619Y-4063904D01*
X-4738619Y-3825809D01*
X-3738619Y-2921047D02*
X-3738619Y-3492476D01*
X-3738619Y-3206762D02*
X-4738619Y-3206762D01*
X-4595762Y-3302000D01*
X-4500524Y-3397238D01*
X-4452905Y-3492476D01*
X-4738619Y-2302000D02*
X-4738619Y-2206761D01*
X-4691000Y-2111523D01*
X-4643381Y-2063904D01*
X-4548143Y-2016285D01*
X-4357667Y-1968666D01*
X-4119571Y-1968666D01*
X-3929095Y-2016285D01*
X-3833857Y-2063904D01*
X-3786238Y-2111523D01*
X-3738619Y-2206761D01*
X-3738619Y-2302000D01*
X-3786238Y-2397238D01*
X-3833857Y-2444857D01*
X-3929095Y-2492476D01*
X-4119571Y-2540095D01*
X-4357667Y-2540095D01*
X-4548143Y-2492476D01*
X-4643381Y-2444857D01*
X-4691000Y-2397238D01*
X-4738619Y-2302000D01*
X7874095Y2706619D02*
X7874095Y1897095D01*
X7921714Y1801857D01*
X7969333Y1754238D01*
X8064571Y1706619D01*
X8255048Y1706619D01*
X8350286Y1754238D01*
X8397905Y1801857D01*
X8445524Y1897095D01*
X8445524Y2706619D01*
X9445524Y1706619D02*
X8874095Y1706619D01*
X9159809Y1706619D02*
X9159809Y2706619D01*
X9064571Y2563762D01*
X8969333Y2468524D01*
X8874095Y2420905D01*
D14*
X-21399500Y-4426857D02*
X-21441834Y-4475238D01*
X-21568834Y-4523619D01*
X-21653500Y-4523619D01*
X-21780500Y-4475238D01*
X-21865167Y-4378476D01*
X-21907500Y-4281714D01*
X-21949834Y-4088190D01*
X-21949834Y-3943048D01*
X-21907500Y-3749524D01*
X-21865167Y-3652762D01*
X-21780500Y-3556000D01*
X-21653500Y-3507619D01*
X-21568834Y-3507619D01*
X-21441834Y-3556000D01*
X-21399500Y-3604381D01*
X-20552834Y-4523619D02*
X-21060834Y-4523619D01*
X-20806834Y-4523619D02*
X-20806834Y-3507619D01*
X-20891500Y-3652762D01*
X-20976167Y-3749524D01*
X-21060834Y-3797905D01*
X-19748500Y-3507619D02*
X-20171833Y-3507619D01*
X-20214167Y-3991429D01*
X-20171833Y-3943048D01*
X-20087167Y-3894667D01*
X-19875500Y-3894667D01*
X-19790833Y-3943048D01*
X-19748500Y-3991429D01*
X-19706167Y-4088190D01*
X-19706167Y-4330095D01*
X-19748500Y-4426857D01*
X-19790833Y-4475238D01*
X-19875500Y-4523619D01*
X-20087167Y-4523619D01*
X-20171833Y-4475238D01*
X-20214167Y-4426857D01*
X-22415500Y-3126619D02*
X-22711834Y-2642810D01*
X-22923500Y-3126619D02*
X-22923500Y-2110619D01*
X-22584834Y-2110619D01*
X-22500167Y-2159000D01*
X-22457834Y-2207381D01*
X-22415500Y-2304143D01*
X-22415500Y-2449286D01*
X-22457834Y-2546048D01*
X-22500167Y-2594429D01*
X-22584834Y-2642810D01*
X-22923500Y-2642810D01*
X-21568834Y-3126619D02*
X-22076834Y-3126619D01*
X-21822834Y-3126619D02*
X-21822834Y-2110619D01*
X-21907500Y-2255762D01*
X-21992167Y-2352524D01*
X-22076834Y-2400905D01*
X-20764500Y-2110619D02*
X-21187833Y-2110619D01*
X-21230167Y-2594429D01*
X-21187833Y-2546048D01*
X-21103167Y-2497667D01*
X-20891500Y-2497667D01*
X-20806833Y-2546048D01*
X-20764500Y-2594429D01*
X-20722167Y-2691190D01*
X-20722167Y-2933095D01*
X-20764500Y-3029857D01*
X-20806833Y-3078238D01*
X-20891500Y-3126619D01*
X-21103167Y-3126619D01*
X-21187833Y-3078238D01*
X-21230167Y-3029857D01*
X17843500Y7003143D02*
X17801166Y6954762D01*
X17674166Y6906381D01*
X17589500Y6906381D01*
X17462500Y6954762D01*
X17377833Y7051524D01*
X17335500Y7148286D01*
X17293166Y7341810D01*
X17293166Y7486952D01*
X17335500Y7680476D01*
X17377833Y7777238D01*
X17462500Y7874000D01*
X17589500Y7922381D01*
X17674166Y7922381D01*
X17801166Y7874000D01*
X17843500Y7825619D01*
X18690166Y6906381D02*
X18182166Y6906381D01*
X18436166Y6906381D02*
X18436166Y7922381D01*
X18351500Y7777238D01*
X18266833Y7680476D01*
X18182166Y7632095D01*
X19452167Y7922381D02*
X19282833Y7922381D01*
X19198167Y7874000D01*
X19155833Y7825619D01*
X19071167Y7680476D01*
X19028833Y7486952D01*
X19028833Y7099905D01*
X19071167Y7003143D01*
X19113500Y6954762D01*
X19198167Y6906381D01*
X19367500Y6906381D01*
X19452167Y6954762D01*
X19494500Y7003143D01*
X19536833Y7099905D01*
X19536833Y7341810D01*
X19494500Y7438571D01*
X19452167Y7486952D01*
X19367500Y7535333D01*
X19198167Y7535333D01*
X19113500Y7486952D01*
X19071167Y7438571D01*
X19028833Y7341810D01*
X17843500Y5606143D02*
X17801166Y5557762D01*
X17674166Y5509381D01*
X17589500Y5509381D01*
X17462500Y5557762D01*
X17377833Y5654524D01*
X17335500Y5751286D01*
X17293166Y5944810D01*
X17293166Y6089952D01*
X17335500Y6283476D01*
X17377833Y6380238D01*
X17462500Y6477000D01*
X17589500Y6525381D01*
X17674166Y6525381D01*
X17801166Y6477000D01*
X17843500Y6428619D01*
X18690166Y5509381D02*
X18182166Y5509381D01*
X18436166Y5509381D02*
X18436166Y6525381D01*
X18351500Y6380238D01*
X18266833Y6283476D01*
X18182166Y6235095D01*
X18986500Y6525381D02*
X19579167Y6525381D01*
X19198167Y5509381D01*
X17081500Y-5188857D02*
X17039166Y-5237238D01*
X16912166Y-5285619D01*
X16827500Y-5285619D01*
X16700500Y-5237238D01*
X16615833Y-5140476D01*
X16573500Y-5043714D01*
X16531166Y-4850190D01*
X16531166Y-4705048D01*
X16573500Y-4511524D01*
X16615833Y-4414762D01*
X16700500Y-4318000D01*
X16827500Y-4269619D01*
X16912166Y-4269619D01*
X17039166Y-4318000D01*
X17081500Y-4366381D01*
X17928166Y-5285619D02*
X17420166Y-5285619D01*
X17674166Y-5285619D02*
X17674166Y-4269619D01*
X17589500Y-4414762D01*
X17504833Y-4511524D01*
X17420166Y-4559905D01*
X18436167Y-4705048D02*
X18351500Y-4656667D01*
X18309167Y-4608286D01*
X18266833Y-4511524D01*
X18266833Y-4463143D01*
X18309167Y-4366381D01*
X18351500Y-4318000D01*
X18436167Y-4269619D01*
X18605500Y-4269619D01*
X18690167Y-4318000D01*
X18732500Y-4366381D01*
X18774833Y-4463143D01*
X18774833Y-4511524D01*
X18732500Y-4608286D01*
X18690167Y-4656667D01*
X18605500Y-4705048D01*
X18436167Y-4705048D01*
X18351500Y-4753429D01*
X18309167Y-4801810D01*
X18266833Y-4898571D01*
X18266833Y-5092095D01*
X18309167Y-5188857D01*
X18351500Y-5237238D01*
X18436167Y-5285619D01*
X18605500Y-5285619D01*
X18690167Y-5237238D01*
X18732500Y-5188857D01*
X18774833Y-5092095D01*
X18774833Y-4898571D01*
X18732500Y-4801810D01*
X18690167Y-4753429D01*
X18605500Y-4705048D01*
X-13906500Y12591143D02*
X-13948834Y12542762D01*
X-14075834Y12494381D01*
X-14160500Y12494381D01*
X-14287500Y12542762D01*
X-14372167Y12639524D01*
X-14414500Y12736286D01*
X-14456834Y12929810D01*
X-14456834Y13074952D01*
X-14414500Y13268476D01*
X-14372167Y13365238D01*
X-14287500Y13462000D01*
X-14160500Y13510381D01*
X-14075834Y13510381D01*
X-13948834Y13462000D01*
X-13906500Y13413619D01*
X-13059834Y12494381D02*
X-13567834Y12494381D01*
X-13313834Y12494381D02*
X-13313834Y13510381D01*
X-13398500Y13365238D01*
X-13483167Y13268476D01*
X-13567834Y13220095D01*
X-12636500Y12494381D02*
X-12467167Y12494381D01*
X-12382500Y12542762D01*
X-12340167Y12591143D01*
X-12255500Y12736286D01*
X-12213167Y12929810D01*
X-12213167Y13316857D01*
X-12255500Y13413619D01*
X-12297833Y13462000D01*
X-12382500Y13510381D01*
X-12551833Y13510381D01*
X-12636500Y13462000D01*
X-12678833Y13413619D01*
X-12721167Y13316857D01*
X-12721167Y13074952D01*
X-12678833Y12978190D01*
X-12636500Y12929810D01*
X-12551833Y12881429D01*
X-12382500Y12881429D01*
X-12297833Y12929810D01*
X-12255500Y12978190D01*
X-12213167Y13074952D01*
X-12382500Y16528143D02*
X-12424834Y16479762D01*
X-12551834Y16431381D01*
X-12636500Y16431381D01*
X-12763500Y16479762D01*
X-12848167Y16576524D01*
X-12890500Y16673286D01*
X-12932834Y16866810D01*
X-12932834Y17011952D01*
X-12890500Y17205476D01*
X-12848167Y17302238D01*
X-12763500Y17399000D01*
X-12636500Y17447381D01*
X-12551834Y17447381D01*
X-12424834Y17399000D01*
X-12382500Y17350619D01*
X-12043834Y17350619D02*
X-12001500Y17399000D01*
X-11916834Y17447381D01*
X-11705167Y17447381D01*
X-11620500Y17399000D01*
X-11578167Y17350619D01*
X-11535834Y17253857D01*
X-11535834Y17157095D01*
X-11578167Y17011952D01*
X-12086167Y16431381D01*
X-11535834Y16431381D01*
X-10985500Y17447381D02*
X-10900833Y17447381D01*
X-10816167Y17399000D01*
X-10773833Y17350619D01*
X-10731500Y17253857D01*
X-10689167Y17060333D01*
X-10689167Y16818429D01*
X-10731500Y16624905D01*
X-10773833Y16528143D01*
X-10816167Y16479762D01*
X-10900833Y16431381D01*
X-10985500Y16431381D01*
X-11070167Y16479762D01*
X-11112500Y16528143D01*
X-11154833Y16624905D01*
X-11197167Y16818429D01*
X-11197167Y17060333D01*
X-11154833Y17253857D01*
X-11112500Y17350619D01*
X-11070167Y17399000D01*
X-10985500Y17447381D01*
X-8826500Y15385143D02*
X-8868834Y15336762D01*
X-8995834Y15288381D01*
X-9080500Y15288381D01*
X-9207500Y15336762D01*
X-9292167Y15433524D01*
X-9334500Y15530286D01*
X-9376834Y15723810D01*
X-9376834Y15868952D01*
X-9334500Y16062476D01*
X-9292167Y16159238D01*
X-9207500Y16256000D01*
X-9080500Y16304381D01*
X-8995834Y16304381D01*
X-8868834Y16256000D01*
X-8826500Y16207619D01*
X-8487834Y16207619D02*
X-8445500Y16256000D01*
X-8360834Y16304381D01*
X-8149167Y16304381D01*
X-8064500Y16256000D01*
X-8022167Y16207619D01*
X-7979834Y16110857D01*
X-7979834Y16014095D01*
X-8022167Y15868952D01*
X-8530167Y15288381D01*
X-7979834Y15288381D01*
X-7133167Y15288381D02*
X-7641167Y15288381D01*
X-7387167Y15288381D02*
X-7387167Y16304381D01*
X-7471833Y16159238D01*
X-7556500Y16062476D01*
X-7641167Y16014095D01*
X-25336500Y907143D02*
X-25378834Y858762D01*
X-25505834Y810381D01*
X-25590500Y810381D01*
X-25717500Y858762D01*
X-25802167Y955524D01*
X-25844500Y1052286D01*
X-25886834Y1245810D01*
X-25886834Y1390952D01*
X-25844500Y1584476D01*
X-25802167Y1681238D01*
X-25717500Y1778000D01*
X-25590500Y1826381D01*
X-25505834Y1826381D01*
X-25378834Y1778000D01*
X-25336500Y1729619D01*
X-24997834Y1729619D02*
X-24955500Y1778000D01*
X-24870834Y1826381D01*
X-24659167Y1826381D01*
X-24574500Y1778000D01*
X-24532167Y1729619D01*
X-24489834Y1632857D01*
X-24489834Y1536095D01*
X-24532167Y1390952D01*
X-25040167Y810381D01*
X-24489834Y810381D01*
X-24151167Y1729619D02*
X-24108833Y1778000D01*
X-24024167Y1826381D01*
X-23812500Y1826381D01*
X-23727833Y1778000D01*
X-23685500Y1729619D01*
X-23643167Y1632857D01*
X-23643167Y1536095D01*
X-23685500Y1390952D01*
X-24193500Y810381D01*
X-23643167Y810381D01*
X-5651500Y3320143D02*
X-5693834Y3271762D01*
X-5820834Y3223381D01*
X-5905500Y3223381D01*
X-6032500Y3271762D01*
X-6117167Y3368524D01*
X-6159500Y3465286D01*
X-6201834Y3658810D01*
X-6201834Y3803952D01*
X-6159500Y3997476D01*
X-6117167Y4094238D01*
X-6032500Y4191000D01*
X-5905500Y4239381D01*
X-5820834Y4239381D01*
X-5693834Y4191000D01*
X-5651500Y4142619D01*
X-5312834Y4142619D02*
X-5270500Y4191000D01*
X-5185834Y4239381D01*
X-4974167Y4239381D01*
X-4889500Y4191000D01*
X-4847167Y4142619D01*
X-4804834Y4045857D01*
X-4804834Y3949095D01*
X-4847167Y3803952D01*
X-5355167Y3223381D01*
X-4804834Y3223381D01*
X-4508500Y4239381D02*
X-3958167Y4239381D01*
X-4254500Y3852333D01*
X-4127500Y3852333D01*
X-4042833Y3803952D01*
X-4000500Y3755571D01*
X-3958167Y3658810D01*
X-3958167Y3416905D01*
X-4000500Y3320143D01*
X-4042833Y3271762D01*
X-4127500Y3223381D01*
X-4381500Y3223381D01*
X-4466167Y3271762D01*
X-4508500Y3320143D01*
X-5397500Y-1221619D02*
X-5693834Y-737810D01*
X-5905500Y-1221619D02*
X-5905500Y-205619D01*
X-5566834Y-205619D01*
X-5482167Y-254000D01*
X-5439834Y-302381D01*
X-5397500Y-399143D01*
X-5397500Y-544286D01*
X-5439834Y-641048D01*
X-5482167Y-689429D01*
X-5566834Y-737810D01*
X-5905500Y-737810D01*
X-4550834Y-1221619D02*
X-5058834Y-1221619D01*
X-4804834Y-1221619D02*
X-4804834Y-205619D01*
X-4889500Y-350762D01*
X-4974167Y-447524D01*
X-5058834Y-495905D01*
X-3788833Y-205619D02*
X-3958167Y-205619D01*
X-4042833Y-254000D01*
X-4085167Y-302381D01*
X-4169833Y-447524D01*
X-4212167Y-641048D01*
X-4212167Y-1028095D01*
X-4169833Y-1124857D01*
X-4127500Y-1173238D01*
X-4042833Y-1221619D01*
X-3873500Y-1221619D01*
X-3788833Y-1173238D01*
X-3746500Y-1124857D01*
X-3704167Y-1028095D01*
X-3704167Y-786190D01*
X-3746500Y-689429D01*
X-3788833Y-641048D01*
X-3873500Y-592667D01*
X-4042833Y-592667D01*
X-4127500Y-641048D01*
X-4169833Y-689429D01*
X-4212167Y-786190D01*
X-16192500Y-1378857D02*
X-16234834Y-1427238D01*
X-16361834Y-1475619D01*
X-16446500Y-1475619D01*
X-16573500Y-1427238D01*
X-16658167Y-1330476D01*
X-16700500Y-1233714D01*
X-16742834Y-1040190D01*
X-16742834Y-895048D01*
X-16700500Y-701524D01*
X-16658167Y-604762D01*
X-16573500Y-508000D01*
X-16446500Y-459619D01*
X-16361834Y-459619D01*
X-16234834Y-508000D01*
X-16192500Y-556381D01*
X-15853834Y-556381D02*
X-15811500Y-508000D01*
X-15726834Y-459619D01*
X-15515167Y-459619D01*
X-15430500Y-508000D01*
X-15388167Y-556381D01*
X-15345834Y-653143D01*
X-15345834Y-749905D01*
X-15388167Y-895048D01*
X-15896167Y-1475619D01*
X-15345834Y-1475619D01*
X-14583833Y-798286D02*
X-14583833Y-1475619D01*
X-14795500Y-411238D02*
X-15007167Y-1136952D01*
X-14456833Y-1136952D01*
X-8318500Y-1124857D02*
X-8360834Y-1173238D01*
X-8487834Y-1221619D01*
X-8572500Y-1221619D01*
X-8699500Y-1173238D01*
X-8784167Y-1076476D01*
X-8826500Y-979714D01*
X-8868834Y-786190D01*
X-8868834Y-641048D01*
X-8826500Y-447524D01*
X-8784167Y-350762D01*
X-8699500Y-254000D01*
X-8572500Y-205619D01*
X-8487834Y-205619D01*
X-8360834Y-254000D01*
X-8318500Y-302381D01*
X-7979834Y-302381D02*
X-7937500Y-254000D01*
X-7852834Y-205619D01*
X-7641167Y-205619D01*
X-7556500Y-254000D01*
X-7514167Y-302381D01*
X-7471834Y-399143D01*
X-7471834Y-495905D01*
X-7514167Y-641048D01*
X-8022167Y-1221619D01*
X-7471834Y-1221619D01*
X-6667500Y-205619D02*
X-7090833Y-205619D01*
X-7133167Y-689429D01*
X-7090833Y-641048D01*
X-7006167Y-592667D01*
X-6794500Y-592667D01*
X-6709833Y-641048D01*
X-6667500Y-689429D01*
X-6625167Y-786190D01*
X-6625167Y-1028095D01*
X-6667500Y-1124857D01*
X-6709833Y-1173238D01*
X-6794500Y-1221619D01*
X-7006167Y-1221619D01*
X-7090833Y-1173238D01*
X-7133167Y-1124857D01*
X-16192500Y-4553857D02*
X-16234834Y-4602238D01*
X-16361834Y-4650619D01*
X-16446500Y-4650619D01*
X-16573500Y-4602238D01*
X-16658167Y-4505476D01*
X-16700500Y-4408714D01*
X-16742834Y-4215190D01*
X-16742834Y-4070048D01*
X-16700500Y-3876524D01*
X-16658167Y-3779762D01*
X-16573500Y-3683000D01*
X-16446500Y-3634619D01*
X-16361834Y-3634619D01*
X-16234834Y-3683000D01*
X-16192500Y-3731381D01*
X-15853834Y-3731381D02*
X-15811500Y-3683000D01*
X-15726834Y-3634619D01*
X-15515167Y-3634619D01*
X-15430500Y-3683000D01*
X-15388167Y-3731381D01*
X-15345834Y-3828143D01*
X-15345834Y-3924905D01*
X-15388167Y-4070048D01*
X-15896167Y-4650619D01*
X-15345834Y-4650619D01*
X-14583833Y-3634619D02*
X-14753167Y-3634619D01*
X-14837833Y-3683000D01*
X-14880167Y-3731381D01*
X-14964833Y-3876524D01*
X-15007167Y-4070048D01*
X-15007167Y-4457095D01*
X-14964833Y-4553857D01*
X-14922500Y-4602238D01*
X-14837833Y-4650619D01*
X-14668500Y-4650619D01*
X-14583833Y-4602238D01*
X-14541500Y-4553857D01*
X-14499167Y-4457095D01*
X-14499167Y-4215190D01*
X-14541500Y-4118429D01*
X-14583833Y-4070048D01*
X-14668500Y-4021667D01*
X-14837833Y-4021667D01*
X-14922500Y-4070048D01*
X-14964833Y-4118429D01*
X-15007167Y-4215190D01*
X-8318500Y-4426857D02*
X-8360834Y-4475238D01*
X-8487834Y-4523619D01*
X-8572500Y-4523619D01*
X-8699500Y-4475238D01*
X-8784167Y-4378476D01*
X-8826500Y-4281714D01*
X-8868834Y-4088190D01*
X-8868834Y-3943048D01*
X-8826500Y-3749524D01*
X-8784167Y-3652762D01*
X-8699500Y-3556000D01*
X-8572500Y-3507619D01*
X-8487834Y-3507619D01*
X-8360834Y-3556000D01*
X-8318500Y-3604381D01*
X-7979834Y-3604381D02*
X-7937500Y-3556000D01*
X-7852834Y-3507619D01*
X-7641167Y-3507619D01*
X-7556500Y-3556000D01*
X-7514167Y-3604381D01*
X-7471834Y-3701143D01*
X-7471834Y-3797905D01*
X-7514167Y-3943048D01*
X-8022167Y-4523619D01*
X-7471834Y-4523619D01*
X-7175500Y-3507619D02*
X-6582833Y-3507619D01*
X-6963833Y-4523619D01*
D13*
X-1373095Y-7183381D02*
X-1373095Y-6183381D01*
X-992142Y-6183381D01*
X-896904Y-6231000D01*
X-849285Y-6278619D01*
X-801666Y-6373857D01*
X-801666Y-6516714D01*
X-849285Y-6611952D01*
X-896904Y-6659571D01*
X-992142Y-6707190D01*
X-1373095Y-6707190D01*
X-468333Y-6183381D02*
X150715Y-6183381D01*
X-182619Y-6564333D01*
X-39761Y-6564333D01*
X55477Y-6611952D01*
X103096Y-6659571D01*
X150715Y-6754810D01*
X150715Y-6992905D01*
X103096Y-7088143D01*
X55477Y-7135762D01*
X-39761Y-7183381D01*
X-325476Y-7183381D01*
X-420714Y-7135762D01*
X-468333Y-7088143D01*
D14*
X-16192500Y-78619D02*
X-16488834Y405190D01*
X-16700500Y-78619D02*
X-16700500Y937381D01*
X-16361834Y937381D01*
X-16277167Y889000D01*
X-16234834Y840619D01*
X-16192500Y743857D01*
X-16192500Y598714D01*
X-16234834Y501952D01*
X-16277167Y453571D01*
X-16361834Y405190D01*
X-16700500Y405190D01*
X-15345834Y-78619D02*
X-15853834Y-78619D01*
X-15599834Y-78619D02*
X-15599834Y937381D01*
X-15684500Y792238D01*
X-15769167Y695476D01*
X-15853834Y647095D01*
X-15049500Y937381D02*
X-14456833Y937381D01*
X-14837833Y-78619D01*
X-8318500Y48381D02*
X-8614834Y532190D01*
X-8826500Y48381D02*
X-8826500Y1064381D01*
X-8487834Y1064381D01*
X-8403167Y1016000D01*
X-8360834Y967619D01*
X-8318500Y870857D01*
X-8318500Y725714D01*
X-8360834Y628952D01*
X-8403167Y580571D01*
X-8487834Y532190D01*
X-8826500Y532190D01*
X-7471834Y48381D02*
X-7979834Y48381D01*
X-7725834Y48381D02*
X-7725834Y1064381D01*
X-7810500Y919238D01*
X-7895167Y822476D01*
X-7979834Y774095D01*
X-6963833Y628952D02*
X-7048500Y677333D01*
X-7090833Y725714D01*
X-7133167Y822476D01*
X-7133167Y870857D01*
X-7090833Y967619D01*
X-7048500Y1016000D01*
X-6963833Y1064381D01*
X-6794500Y1064381D01*
X-6709833Y1016000D01*
X-6667500Y967619D01*
X-6625167Y870857D01*
X-6625167Y822476D01*
X-6667500Y725714D01*
X-6709833Y677333D01*
X-6794500Y628952D01*
X-6963833Y628952D01*
X-7048500Y580571D01*
X-7090833Y532190D01*
X-7133167Y435429D01*
X-7133167Y241905D01*
X-7090833Y145143D01*
X-7048500Y96762D01*
X-6963833Y48381D01*
X-6794500Y48381D01*
X-6709833Y96762D01*
X-6667500Y145143D01*
X-6625167Y241905D01*
X-6625167Y435429D01*
X-6667500Y532190D01*
X-6709833Y580571D01*
X-6794500Y628952D01*
X-16192500Y-2999619D02*
X-16488834Y-2515810D01*
X-16700500Y-2999619D02*
X-16700500Y-1983619D01*
X-16361834Y-1983619D01*
X-16277167Y-2032000D01*
X-16234834Y-2080381D01*
X-16192500Y-2177143D01*
X-16192500Y-2322286D01*
X-16234834Y-2419048D01*
X-16277167Y-2467429D01*
X-16361834Y-2515810D01*
X-16700500Y-2515810D01*
X-15345834Y-2999619D02*
X-15853834Y-2999619D01*
X-15599834Y-2999619D02*
X-15599834Y-1983619D01*
X-15684500Y-2128762D01*
X-15769167Y-2225524D01*
X-15853834Y-2273905D01*
X-14922500Y-2999619D02*
X-14753167Y-2999619D01*
X-14668500Y-2951238D01*
X-14626167Y-2902857D01*
X-14541500Y-2757714D01*
X-14499167Y-2564190D01*
X-14499167Y-2177143D01*
X-14541500Y-2080381D01*
X-14583833Y-2032000D01*
X-14668500Y-1983619D01*
X-14837833Y-1983619D01*
X-14922500Y-2032000D01*
X-14964833Y-2080381D01*
X-15007167Y-2177143D01*
X-15007167Y-2419048D01*
X-14964833Y-2515810D01*
X-14922500Y-2564190D01*
X-14837833Y-2612571D01*
X-14668500Y-2612571D01*
X-14583833Y-2564190D01*
X-14541500Y-2515810D01*
X-14499167Y-2419048D01*
X-8318500Y-3253619D02*
X-8614834Y-2769810D01*
X-8826500Y-3253619D02*
X-8826500Y-2237619D01*
X-8487834Y-2237619D01*
X-8403167Y-2286000D01*
X-8360834Y-2334381D01*
X-8318500Y-2431143D01*
X-8318500Y-2576286D01*
X-8360834Y-2673048D01*
X-8403167Y-2721429D01*
X-8487834Y-2769810D01*
X-8826500Y-2769810D01*
X-7979834Y-2334381D02*
X-7937500Y-2286000D01*
X-7852834Y-2237619D01*
X-7641167Y-2237619D01*
X-7556500Y-2286000D01*
X-7514167Y-2334381D01*
X-7471834Y-2431143D01*
X-7471834Y-2527905D01*
X-7514167Y-2673048D01*
X-8022167Y-3253619D01*
X-7471834Y-3253619D01*
X-6921500Y-2237619D02*
X-6836833Y-2237619D01*
X-6752167Y-2286000D01*
X-6709833Y-2334381D01*
X-6667500Y-2431143D01*
X-6625167Y-2624667D01*
X-6625167Y-2866571D01*
X-6667500Y-3060095D01*
X-6709833Y-3156857D01*
X-6752167Y-3205238D01*
X-6836833Y-3253619D01*
X-6921500Y-3253619D01*
X-7006167Y-3205238D01*
X-7048500Y-3156857D01*
X-7090833Y-3060095D01*
X-7133167Y-2866571D01*
X-7133167Y-2624667D01*
X-7090833Y-2431143D01*
X-7048500Y-2334381D01*
X-7006167Y-2286000D01*
X-6921500Y-2237619D01*
D13*
X-18518095Y8290619D02*
X-18518095Y9290619D01*
X-18137142Y9290619D01*
X-18041904Y9243000D01*
X-17994285Y9195381D01*
X-17946666Y9100143D01*
X-17946666Y8957286D01*
X-17994285Y8862048D01*
X-18041904Y8814429D01*
X-18137142Y8766810D01*
X-18518095Y8766810D01*
X-17041904Y9290619D02*
X-17518095Y9290619D01*
X-17565714Y8814429D01*
X-17518095Y8862048D01*
X-17422857Y8909667D01*
X-17184761Y8909667D01*
X-17089523Y8862048D01*
X-17041904Y8814429D01*
X-16994285Y8719190D01*
X-16994285Y8481095D01*
X-17041904Y8385857D01*
X-17089523Y8338238D01*
X-17184761Y8290619D01*
X-17422857Y8290619D01*
X-17518095Y8338238D01*
X-17565714Y8385857D01*
D14*
X-15430500Y16812381D02*
X-15726834Y17296190D01*
X-15938500Y16812381D02*
X-15938500Y17828381D01*
X-15599834Y17828381D01*
X-15515167Y17780000D01*
X-15472834Y17731619D01*
X-15430500Y17634857D01*
X-15430500Y17489714D01*
X-15472834Y17392952D01*
X-15515167Y17344571D01*
X-15599834Y17296190D01*
X-15938500Y17296190D01*
X-15091834Y17731619D02*
X-15049500Y17780000D01*
X-14964834Y17828381D01*
X-14753167Y17828381D01*
X-14668500Y17780000D01*
X-14626167Y17731619D01*
X-14583834Y17634857D01*
X-14583834Y17538095D01*
X-14626167Y17392952D01*
X-15134167Y16812381D01*
X-14583834Y16812381D01*
X-13737167Y16812381D02*
X-14245167Y16812381D01*
X-13991167Y16812381D02*
X-13991167Y17828381D01*
X-14075833Y17683238D01*
X-14160500Y17586476D01*
X-14245167Y17538095D01*
D13*
X28884571Y-11739428D02*
X28884571Y-12072762D01*
X29408381Y-12072762D02*
X28408381Y-12072762D01*
X28408381Y-11596571D01*
X29408381Y-11215619D02*
X28408381Y-11215619D01*
X29408381Y-10739429D02*
X28408381Y-10739429D01*
X28408381Y-10501334D01*
X28456000Y-10358476D01*
X28551238Y-10263238D01*
X28646476Y-10215619D01*
X28836952Y-10168000D01*
X28979810Y-10168000D01*
X29170286Y-10215619D01*
X29265524Y-10263238D01*
X29360762Y-10358476D01*
X29408381Y-10501334D01*
X29408381Y-10739429D01*
X28503619Y-9787048D02*
X28456000Y-9739429D01*
X28408381Y-9644191D01*
X28408381Y-9406095D01*
X28456000Y-9310857D01*
X28503619Y-9263238D01*
X28598857Y-9215619D01*
X28694095Y-9215619D01*
X28836952Y-9263238D01*
X29408381Y-9834667D01*
X29408381Y-9215619D01*
X-28900429Y-11993428D02*
X-28900429Y-12326762D01*
X-28376619Y-12326762D02*
X-29376619Y-12326762D01*
X-29376619Y-11850571D01*
X-28376619Y-11469619D02*
X-29376619Y-11469619D01*
X-28376619Y-10993429D02*
X-29376619Y-10993429D01*
X-29376619Y-10755334D01*
X-29329000Y-10612476D01*
X-29233762Y-10517238D01*
X-29138524Y-10469619D01*
X-28948048Y-10422000D01*
X-28805190Y-10422000D01*
X-28614714Y-10469619D01*
X-28519476Y-10517238D01*
X-28424238Y-10612476D01*
X-28376619Y-10755334D01*
X-28376619Y-10993429D01*
X-29376619Y-10088667D02*
X-29376619Y-9469619D01*
X-28995667Y-9802953D01*
X-28995667Y-9660095D01*
X-28948048Y-9564857D01*
X-28900429Y-9517238D01*
X-28805190Y-9469619D01*
X-28567095Y-9469619D01*
X-28471857Y-9517238D01*
X-28424238Y-9564857D01*
X-28376619Y-9660095D01*
X-28376619Y-9945810D01*
X-28424238Y-10041048D01*
X-28471857Y-10088667D01*
M02*
