G04 #@! TF.FileFunction,Copper,L2,Bot,Signal*
%FSLAX46Y46*%
G04 Gerber Fmt 4.6, Leading zero omitted, Abs format (unit mm)*
G04 Created by KiCad (PCBNEW 4.0.1-stable) date 7/8/2016 1:21:39 PM*
%MOMM*%
G01*
G04 APERTURE LIST*
%ADD10C,0.100000*%
%ADD11C,3.556000*%
%ADD12R,1.778000X1.778000*%
%ADD13C,1.778000*%
%ADD14O,1.150000X1.400000*%
%ADD15O,1.700000X1.325000*%
%ADD16R,2.032000X2.032000*%
%ADD17O,2.032000X2.032000*%
%ADD18R,5.080000X2.540000*%
%ADD19R,1.524000X1.524000*%
%ADD20C,1.524000*%
%ADD21C,0.600000*%
%ADD22C,0.250000*%
%ADD23C,0.203200*%
G04 APERTURE END LIST*
D10*
D11*
X17526000Y-4699000D03*
D12*
X-28067000Y7366000D03*
D13*
X-28067000Y4826000D03*
X-28067000Y2286000D03*
X-28067000Y-254000D03*
X-28067000Y-2794000D03*
X-18669000Y-14478000D03*
X-16129000Y-14478000D03*
X-13589000Y-14478000D03*
X-13335000Y-6858000D03*
X-16129000Y-6858000D03*
X-18669000Y-6858000D03*
D14*
X25695000Y-2500000D03*
X25695000Y2500000D03*
D15*
X28595000Y-3500000D03*
X28595000Y3500000D03*
D16*
X-17780000Y13843000D03*
D17*
X-17780000Y16383000D03*
D11*
X-4318000Y-4699000D03*
D18*
X-254000Y-16510000D03*
X-7874000Y-16510000D03*
D19*
X-8636000Y-11938000D03*
D20*
X-6096000Y-11938000D03*
D21*
X19685000Y-2921000D03*
X14986000Y10414000D03*
X20193000Y7239000D03*
X20066000Y5715000D03*
X11684000Y-6858000D03*
X-11303000Y13208000D03*
X-9779000Y13208000D03*
X-20447000Y2286000D03*
X-19685000Y3048000D03*
X3175000Y2286000D03*
X-6731000Y11811000D03*
X11430000Y-9779000D03*
X22098000Y-6350000D03*
X16637000Y9271000D03*
X12954000Y16891000D03*
X22987000Y7620000D03*
X22733000Y4064000D03*
X23622000Y2921000D03*
X-6350000Y-1651000D03*
X-13335000Y-10414000D03*
X-9779000Y16764000D03*
X-13970000Y16383000D03*
X-5207000Y4826000D03*
X-24003000Y2286000D03*
X-20701000Y7112000D03*
X-25781000Y-1016000D03*
X-635000Y3810000D03*
X-2159000Y3556000D03*
X-10922000Y1778000D03*
X-20193000Y-2540000D03*
X-254000Y-2667000D03*
X-3937000Y-1778000D03*
X-13843000Y9271000D03*
X-6858000Y9271000D03*
X-15113000Y7874000D03*
X-3429000Y7874000D03*
X-7239000Y10033000D03*
X-16002000Y5969000D03*
X-8890000Y2159000D03*
X-1016000Y6350000D03*
X9271000Y-8890000D03*
X-16764000Y-9906000D03*
X-19939000Y9271000D03*
X-18288000Y-10795000D03*
X-19939000Y-9906000D03*
X-15367000Y11557000D03*
X127000Y1778000D03*
X0Y0D03*
X5461000Y1270000D03*
X7239000Y2032000D03*
X0Y-5461000D03*
X1651000Y-7112000D03*
X-8763000Y8636000D03*
X-13081000Y8636000D03*
D22*
X-16637000Y1778000D02*
X-20193000Y-1778000D01*
X-16637000Y1778000D02*
X-10922000Y1778000D01*
X-20193000Y-2540000D02*
X-20193000Y-1778000D01*
X-1143000Y-1778000D02*
X-254000Y-2667000D01*
X-3937000Y-1778000D02*
X-1143000Y-1778000D01*
X-6858000Y9271000D02*
X-13843000Y9271000D01*
X-3429000Y7874000D02*
X-15113000Y7874000D01*
X-14097000Y10033000D02*
X-16002000Y8128000D01*
X-16002000Y8128000D02*
X-16002000Y5969000D01*
X-7239000Y10033000D02*
X-14097000Y10033000D01*
X-8890000Y1143000D02*
X-8890000Y2159000D01*
X-6477000Y889000D02*
X-8636000Y889000D01*
X-1016000Y6350000D02*
X-6477000Y889000D01*
X-8636000Y889000D02*
X-8890000Y1143000D01*
X15875000Y-6350000D02*
X17526000Y-4699000D01*
X9271000Y-8890000D02*
X14605000Y-8890000D01*
X14605000Y-8890000D02*
X15875000Y-7620000D01*
X15875000Y-7620000D02*
X15875000Y-6350000D01*
X-18288000Y-10795000D02*
X-17399000Y-9906000D01*
X-17399000Y-9906000D02*
X-16764000Y-9906000D01*
X-22479000Y6731000D02*
X-22479000Y-8255000D01*
X-22479000Y6731000D02*
X-19939000Y9271000D01*
X-19939000Y-10795000D02*
X-18288000Y-10795000D01*
X-22479000Y-8255000D02*
X-19939000Y-10795000D01*
X-21844000Y-8001000D02*
X-19939000Y-9906000D01*
X-21844000Y5080000D02*
X-15367000Y11557000D01*
X-21844000Y5080000D02*
X-21844000Y-8001000D01*
X127000Y127000D02*
X127000Y1778000D01*
X0Y0D02*
X127000Y127000D01*
X5461000Y1270000D02*
X6477000Y1270000D01*
X6477000Y1270000D02*
X7239000Y2032000D01*
X1651000Y-7112000D02*
X0Y-5461000D01*
X-13081000Y8636000D02*
X-8763000Y8636000D01*
D23*
G36*
X17043400Y14224000D02*
X17051405Y14184472D01*
X17073158Y14152158D01*
X26695400Y4529916D01*
X26695400Y-3640916D01*
X16438158Y-13898158D01*
X16415868Y-13931769D01*
X16408400Y-13970000D01*
X16408400Y-17424400D01*
X2641600Y-17424400D01*
X2641600Y-16751300D01*
X2552700Y-16662400D01*
X-101600Y-16662400D01*
X-101600Y-16682400D01*
X-406400Y-16682400D01*
X-406400Y-16662400D01*
X-3060700Y-16662400D01*
X-3149600Y-16751300D01*
X-3149600Y-17424400D01*
X-4978400Y-17424400D01*
X-4978400Y-16751300D01*
X-5067300Y-16662400D01*
X-7721600Y-16662400D01*
X-7721600Y-16682400D01*
X-8026400Y-16682400D01*
X-8026400Y-16662400D01*
X-10680700Y-16662400D01*
X-10769600Y-16751300D01*
X-10769600Y-17424400D01*
X-11133916Y-17424400D01*
X-12983744Y-15574572D01*
X-12884912Y-15533736D01*
X-12534495Y-15183930D01*
X-12528407Y-15169267D01*
X-10769600Y-15169267D01*
X-10769600Y-16268700D01*
X-10680700Y-16357600D01*
X-8026400Y-16357600D01*
X-8026400Y-14973300D01*
X-7721600Y-14973300D01*
X-7721600Y-16357600D01*
X-5067300Y-16357600D01*
X-4978400Y-16268700D01*
X-4978400Y-15169267D01*
X-3149600Y-15169267D01*
X-3149600Y-16268700D01*
X-3060700Y-16357600D01*
X-406400Y-16357600D01*
X-406400Y-14973300D01*
X-101600Y-14973300D01*
X-101600Y-16357600D01*
X2552700Y-16357600D01*
X2641600Y-16268700D01*
X2641600Y-15169267D01*
X2587463Y-15038569D01*
X2487431Y-14938537D01*
X2356733Y-14884400D01*
X-12700Y-14884400D01*
X-101600Y-14973300D01*
X-406400Y-14973300D01*
X-495300Y-14884400D01*
X-2864733Y-14884400D01*
X-2995431Y-14938537D01*
X-3095463Y-15038569D01*
X-3149600Y-15169267D01*
X-4978400Y-15169267D01*
X-5032537Y-15038569D01*
X-5132569Y-14938537D01*
X-5263267Y-14884400D01*
X-7632700Y-14884400D01*
X-7721600Y-14973300D01*
X-8026400Y-14973300D01*
X-8115300Y-14884400D01*
X-10484733Y-14884400D01*
X-10615431Y-14938537D01*
X-10715463Y-15038569D01*
X-10769600Y-15169267D01*
X-12528407Y-15169267D01*
X-12344617Y-14726652D01*
X-12344185Y-14231520D01*
X-12533264Y-13773912D01*
X-12883070Y-13423495D01*
X-13340348Y-13233617D01*
X-13835480Y-13233185D01*
X-14293088Y-13422264D01*
X-14643505Y-13772070D01*
X-14685386Y-13872930D01*
X-17382316Y-11176000D01*
X-9760566Y-11176000D01*
X-9760566Y-12700000D01*
X-9735770Y-12831777D01*
X-9657890Y-12952807D01*
X-9539058Y-13034001D01*
X-9398000Y-13062566D01*
X-7874000Y-13062566D01*
X-7742223Y-13037770D01*
X-7621193Y-12959890D01*
X-7539999Y-12841058D01*
X-7511434Y-12700000D01*
X-7511434Y-12159329D01*
X-7213793Y-12159329D01*
X-7044008Y-12570242D01*
X-6729896Y-12884903D01*
X-6319280Y-13055406D01*
X-5874671Y-13055793D01*
X-5463758Y-12886008D01*
X-5149097Y-12571896D01*
X-4978594Y-12161280D01*
X-4978207Y-11716671D01*
X-5147992Y-11305758D01*
X-5462104Y-10991097D01*
X-5872720Y-10820594D01*
X-6317329Y-10820207D01*
X-6728242Y-10989992D01*
X-7042903Y-11304104D01*
X-7213406Y-11714720D01*
X-7213793Y-12159329D01*
X-7511434Y-12159329D01*
X-7511434Y-11176000D01*
X-7536230Y-11044223D01*
X-7614110Y-10923193D01*
X-7732942Y-10841999D01*
X-7874000Y-10813434D01*
X-9398000Y-10813434D01*
X-9529777Y-10838230D01*
X-9650807Y-10916110D01*
X-9732001Y-11034942D01*
X-9760566Y-11176000D01*
X-17382316Y-11176000D01*
X-17632514Y-10925802D01*
X-17632421Y-10819092D01*
X-17205263Y-10391934D01*
X-17135852Y-10461467D01*
X-16894979Y-10561486D01*
X-16634165Y-10561714D01*
X-16393118Y-10462115D01*
X-16208533Y-10277852D01*
X-16108514Y-10036979D01*
X-16108286Y-9776165D01*
X-16207885Y-9535118D01*
X-16392148Y-9350533D01*
X-16633021Y-9250514D01*
X-16893835Y-9250286D01*
X-17134882Y-9349885D01*
X-17210529Y-9425400D01*
X-17398995Y-9425400D01*
X-17399000Y-9425399D01*
X-17582918Y-9461983D01*
X-17738836Y-9566164D01*
X-17738838Y-9566167D01*
X-18312050Y-10139378D01*
X-18417835Y-10139286D01*
X-18418681Y-10139635D01*
X-20980400Y-7577916D01*
X-20980400Y-4690284D01*
X-19620970Y-6049714D01*
X-19723505Y-6152070D01*
X-19913383Y-6609348D01*
X-19913815Y-7104480D01*
X-19724736Y-7562088D01*
X-19374930Y-7912505D01*
X-18917652Y-8102383D01*
X-18422520Y-8102815D01*
X-17964912Y-7913736D01*
X-17614495Y-7563930D01*
X-17424617Y-7106652D01*
X-17424185Y-6611520D01*
X-17490262Y-6451600D01*
X-17307880Y-6451600D01*
X-17373383Y-6609348D01*
X-17373815Y-7104480D01*
X-17184736Y-7562088D01*
X-16834930Y-7912505D01*
X-16377652Y-8102383D01*
X-15882520Y-8102815D01*
X-15424912Y-7913736D01*
X-15074495Y-7563930D01*
X-14884617Y-7106652D01*
X-14884185Y-6611520D01*
X-14950262Y-6451600D01*
X-14513880Y-6451600D01*
X-14579383Y-6609348D01*
X-14579815Y-7104480D01*
X-14390736Y-7562088D01*
X-14040930Y-7912505D01*
X-13583652Y-8102383D01*
X-13088520Y-8102815D01*
X-12928600Y-8036738D01*
X-12928600Y-9144000D01*
X-12920595Y-9183528D01*
X-12897843Y-9216828D01*
X-12863927Y-9238652D01*
X-12827000Y-9245600D01*
X8708571Y-9245600D01*
X8714885Y-9260882D01*
X8899148Y-9445467D01*
X9140021Y-9545486D01*
X9400835Y-9545714D01*
X9641882Y-9446115D01*
X9717529Y-9370600D01*
X14604995Y-9370600D01*
X14605000Y-9370601D01*
X14788918Y-9334017D01*
X14921243Y-9245600D01*
X17526000Y-9245600D01*
X17565528Y-9237595D01*
X17597842Y-9215842D01*
X21026842Y-5786842D01*
X21049132Y-5753231D01*
X21056600Y-5715000D01*
X21056600Y-2797290D01*
X24782359Y-2797290D01*
X24917762Y-3133428D01*
X25171493Y-3392162D01*
X25400864Y-3507893D01*
X25542600Y-3452788D01*
X25542600Y-2652400D01*
X25847400Y-2652400D01*
X25847400Y-3452788D01*
X25989136Y-3507893D01*
X26218507Y-3392162D01*
X26472238Y-3133428D01*
X26607641Y-2797290D01*
X26534457Y-2652400D01*
X25847400Y-2652400D01*
X25542600Y-2652400D01*
X24855543Y-2652400D01*
X24782359Y-2797290D01*
X21056600Y-2797290D01*
X21056600Y-2202710D01*
X24782359Y-2202710D01*
X24855543Y-2347600D01*
X25542600Y-2347600D01*
X25542600Y-1547212D01*
X25847400Y-1547212D01*
X25847400Y-2347600D01*
X26534457Y-2347600D01*
X26607641Y-2202710D01*
X26472238Y-1866572D01*
X26218507Y-1607838D01*
X25989136Y-1492107D01*
X25847400Y-1547212D01*
X25542600Y-1547212D01*
X25400864Y-1492107D01*
X25171493Y-1607838D01*
X24917762Y-1866572D01*
X24782359Y-2202710D01*
X21056600Y-2202710D01*
X21056600Y2645680D01*
X24764400Y2645680D01*
X24764400Y2354320D01*
X24835238Y1998195D01*
X25036966Y1696286D01*
X25338875Y1494558D01*
X25695000Y1423720D01*
X26051125Y1494558D01*
X26353034Y1696286D01*
X26554762Y1998195D01*
X26625600Y2354320D01*
X26625600Y2645680D01*
X26554762Y3001805D01*
X26353034Y3303714D01*
X26051125Y3505442D01*
X25695000Y3576280D01*
X25338875Y3505442D01*
X25036966Y3303714D01*
X24835238Y3001805D01*
X24764400Y2645680D01*
X21056600Y2645680D01*
X21056600Y7620000D01*
X21048595Y7659528D01*
X21026842Y7691842D01*
X19883842Y8834842D01*
X19850231Y8857132D01*
X19812000Y8864600D01*
X16552084Y8864600D01*
X16103600Y9313084D01*
X16103600Y12573000D01*
X16095595Y12612528D01*
X16073842Y12644842D01*
X13406842Y15311842D01*
X13373231Y15334132D01*
X13335000Y15341600D01*
X-2921000Y15341600D01*
X-2960528Y15333595D01*
X-2993828Y15310843D01*
X-3015652Y15276927D01*
X-3022600Y15240000D01*
X-3022600Y13208000D01*
X-3014595Y13168472D01*
X-2991843Y13135172D01*
X-2957927Y13113348D01*
X-2921000Y13106400D01*
X-228600Y13106400D01*
X-228600Y11176000D01*
X-220595Y11136472D01*
X-198842Y11104158D01*
X2819400Y8085916D01*
X2819400Y5376084D01*
X-198842Y2357842D01*
X-203516Y2350794D01*
X-243882Y2334115D01*
X-428467Y2149852D01*
X-528486Y1908979D01*
X-528714Y1648165D01*
X-429115Y1407118D01*
X-353600Y1331471D01*
X-353600Y563256D01*
X-370882Y556115D01*
X-555467Y371852D01*
X-655486Y130979D01*
X-655714Y-129835D01*
X-556115Y-370882D01*
X-371852Y-555467D01*
X-228600Y-614950D01*
X-228600Y-2011422D01*
X-229908Y-2011421D01*
X-803164Y-1438164D01*
X-959082Y-1333983D01*
X-1143000Y-1297399D01*
X-1143005Y-1297400D01*
X-3490412Y-1297400D01*
X-3565148Y-1222533D01*
X-3806021Y-1122514D01*
X-4066835Y-1122286D01*
X-4307882Y-1221885D01*
X-4492467Y-1406148D01*
X-4592486Y-1647021D01*
X-4592714Y-1907835D01*
X-4493115Y-2148882D01*
X-4308852Y-2333467D01*
X-4067979Y-2433486D01*
X-3807165Y-2433714D01*
X-3566118Y-2334115D01*
X-3490471Y-2258600D01*
X-1342072Y-2258600D01*
X-909622Y-2691050D01*
X-909714Y-2796835D01*
X-810115Y-3037882D01*
X-625852Y-3222467D01*
X-384979Y-3322486D01*
X-228600Y-3322623D01*
X-228600Y-4846095D01*
X-370882Y-4904885D01*
X-555467Y-5089148D01*
X-655486Y-5330021D01*
X-655714Y-5590835D01*
X-593915Y-5740400D01*
X-2440199Y-5740400D01*
X-2184771Y-5125261D01*
X-2184030Y-4276463D01*
X-2508167Y-3491991D01*
X-3107835Y-2891276D01*
X-3891739Y-2565771D01*
X-4740537Y-2565030D01*
X-5525009Y-2889167D01*
X-6125724Y-3488835D01*
X-6451229Y-4272739D01*
X-6451970Y-5121537D01*
X-6196261Y-5740400D01*
X-7137400Y-5740400D01*
X-7137400Y408400D01*
X-6477005Y408400D01*
X-6477000Y408399D01*
X-6293082Y444983D01*
X-6137164Y549164D01*
X-991950Y5694378D01*
X-886165Y5694286D01*
X-645118Y5793885D01*
X-460533Y5978148D01*
X-360514Y6219021D01*
X-360286Y6479835D01*
X-459885Y6720882D01*
X-644148Y6905467D01*
X-885021Y7005486D01*
X-1145835Y7005714D01*
X-1386882Y6906115D01*
X-1571467Y6721852D01*
X-1671486Y6480979D01*
X-1671579Y6374092D01*
X-6676072Y1369600D01*
X-7137400Y1369600D01*
X-7137400Y7393400D01*
X-3875588Y7393400D01*
X-3800852Y7318533D01*
X-3559979Y7218514D01*
X-3299165Y7218286D01*
X-3058118Y7317885D01*
X-2873533Y7502148D01*
X-2773514Y7743021D01*
X-2773286Y8003835D01*
X-2872885Y8244882D01*
X-3057148Y8429467D01*
X-3298021Y8529486D01*
X-3558835Y8529714D01*
X-3799882Y8430115D01*
X-3875529Y8354600D01*
X-7137400Y8354600D01*
X-7137400Y8677144D01*
X-6988979Y8615514D01*
X-6728165Y8615286D01*
X-6487118Y8714885D01*
X-6302533Y8899148D01*
X-6202514Y9140021D01*
X-6202286Y9400835D01*
X-6301885Y9641882D01*
X-6486148Y9826467D01*
X-6595954Y9872062D01*
X-6583514Y9902021D01*
X-6583286Y10162835D01*
X-6682885Y10403882D01*
X-6867148Y10588467D01*
X-7108021Y10688486D01*
X-7137400Y10688512D01*
X-7137400Y15240000D01*
X-7145405Y15279528D01*
X-7168157Y15312828D01*
X-7202073Y15334652D01*
X-7239000Y15341600D01*
X-15113000Y15341600D01*
X-15152528Y15333595D01*
X-15185828Y15310843D01*
X-15207652Y15276927D01*
X-15214600Y15240000D01*
X-15214600Y12234084D01*
X-15236198Y12212486D01*
X-15496835Y12212714D01*
X-15737882Y12113115D01*
X-15922467Y11928852D01*
X-16022486Y11687979D01*
X-16022579Y11581092D01*
X-21998400Y5605272D01*
X-21998400Y6531928D01*
X-19914950Y8615378D01*
X-19809165Y8615286D01*
X-19568118Y8714885D01*
X-19383533Y8899148D01*
X-19283514Y9140021D01*
X-19283286Y9400835D01*
X-19382885Y9641882D01*
X-19567148Y9826467D01*
X-19808021Y9926486D01*
X-20068835Y9926714D01*
X-20309882Y9827115D01*
X-20494467Y9642852D01*
X-20594486Y9401979D01*
X-20594579Y9295092D01*
X-22818836Y7070836D01*
X-22923017Y6914918D01*
X-22959601Y6731000D01*
X-22959600Y6730995D01*
X-22959600Y4489084D01*
X-23058842Y4389842D01*
X-23081132Y4356231D01*
X-23088600Y4318000D01*
X-23088600Y-5232400D01*
X-29235400Y-5232400D01*
X-29235400Y-3225419D01*
X-29122736Y-3498088D01*
X-28772930Y-3848505D01*
X-28315652Y-4038383D01*
X-27820520Y-4038815D01*
X-27362912Y-3849736D01*
X-27012495Y-3499930D01*
X-26822617Y-3042652D01*
X-26822185Y-2547520D01*
X-27011264Y-2089912D01*
X-27361070Y-1739495D01*
X-27818348Y-1549617D01*
X-28313480Y-1549185D01*
X-28771088Y-1738264D01*
X-29121505Y-2088070D01*
X-29235400Y-2362360D01*
X-29235400Y-685419D01*
X-29122736Y-958088D01*
X-28772930Y-1308505D01*
X-28315652Y-1498383D01*
X-27820520Y-1498815D01*
X-27362912Y-1309736D01*
X-27012495Y-959930D01*
X-26822617Y-502652D01*
X-26822185Y-7520D01*
X-27011264Y450088D01*
X-27361070Y800505D01*
X-27818348Y990383D01*
X-28313480Y990815D01*
X-28771088Y801736D01*
X-29121505Y451930D01*
X-29235400Y177640D01*
X-29235400Y1350780D01*
X-28786694Y1350780D01*
X-28684196Y1177223D01*
X-28212904Y1025434D01*
X-27719400Y1065553D01*
X-27449804Y1177223D01*
X-27347306Y1350780D01*
X-28067000Y2070474D01*
X-28786694Y1350780D01*
X-29235400Y1350780D01*
X-29235400Y1812747D01*
X-29175777Y1668804D01*
X-29002220Y1566306D01*
X-28282526Y2286000D01*
X-27851474Y2286000D01*
X-27131780Y1566306D01*
X-26958223Y1668804D01*
X-26806434Y2140096D01*
X-26846553Y2633600D01*
X-26958223Y2903196D01*
X-27131780Y3005694D01*
X-27851474Y2286000D01*
X-28282526Y2286000D01*
X-28296668Y2300142D01*
X-28081142Y2515668D01*
X-28067000Y2501526D01*
X-27347306Y3221220D01*
X-27449804Y3394777D01*
X-27921096Y3546566D01*
X-28414600Y3506447D01*
X-28527728Y3459588D01*
X-28379279Y3608037D01*
X-28315652Y3581617D01*
X-27820520Y3581185D01*
X-27362912Y3770264D01*
X-27012495Y4120070D01*
X-26822617Y4577348D01*
X-26822185Y5072480D01*
X-26849274Y5138042D01*
X-19158566Y12828750D01*
X-19158566Y12827000D01*
X-19133770Y12695223D01*
X-19055890Y12574193D01*
X-18937058Y12492999D01*
X-18796000Y12464434D01*
X-16764000Y12464434D01*
X-16632223Y12489230D01*
X-16511193Y12567110D01*
X-16429999Y12685942D01*
X-16401434Y12827000D01*
X-16401434Y14859000D01*
X-16426230Y14990777D01*
X-16504110Y15111807D01*
X-16622942Y15193001D01*
X-16764000Y15221566D01*
X-17095012Y15221566D01*
X-16937829Y15300378D01*
X-16587634Y15705073D01*
X-16457516Y16019239D01*
X-16506386Y16230600D01*
X-17627600Y16230600D01*
X-17627600Y16210600D01*
X-17932400Y16210600D01*
X-17932400Y16230600D01*
X-17952400Y16230600D01*
X-17952400Y16535400D01*
X-17932400Y16535400D01*
X-17932400Y16555400D01*
X-17627600Y16555400D01*
X-17627600Y16535400D01*
X-16506386Y16535400D01*
X-16457516Y16746761D01*
X-16587634Y17060927D01*
X-16902158Y17424400D01*
X17043400Y17424400D01*
X17043400Y14224000D01*
X17043400Y14224000D01*
G37*
X17043400Y14224000D02*
X17051405Y14184472D01*
X17073158Y14152158D01*
X26695400Y4529916D01*
X26695400Y-3640916D01*
X16438158Y-13898158D01*
X16415868Y-13931769D01*
X16408400Y-13970000D01*
X16408400Y-17424400D01*
X2641600Y-17424400D01*
X2641600Y-16751300D01*
X2552700Y-16662400D01*
X-101600Y-16662400D01*
X-101600Y-16682400D01*
X-406400Y-16682400D01*
X-406400Y-16662400D01*
X-3060700Y-16662400D01*
X-3149600Y-16751300D01*
X-3149600Y-17424400D01*
X-4978400Y-17424400D01*
X-4978400Y-16751300D01*
X-5067300Y-16662400D01*
X-7721600Y-16662400D01*
X-7721600Y-16682400D01*
X-8026400Y-16682400D01*
X-8026400Y-16662400D01*
X-10680700Y-16662400D01*
X-10769600Y-16751300D01*
X-10769600Y-17424400D01*
X-11133916Y-17424400D01*
X-12983744Y-15574572D01*
X-12884912Y-15533736D01*
X-12534495Y-15183930D01*
X-12528407Y-15169267D01*
X-10769600Y-15169267D01*
X-10769600Y-16268700D01*
X-10680700Y-16357600D01*
X-8026400Y-16357600D01*
X-8026400Y-14973300D01*
X-7721600Y-14973300D01*
X-7721600Y-16357600D01*
X-5067300Y-16357600D01*
X-4978400Y-16268700D01*
X-4978400Y-15169267D01*
X-3149600Y-15169267D01*
X-3149600Y-16268700D01*
X-3060700Y-16357600D01*
X-406400Y-16357600D01*
X-406400Y-14973300D01*
X-101600Y-14973300D01*
X-101600Y-16357600D01*
X2552700Y-16357600D01*
X2641600Y-16268700D01*
X2641600Y-15169267D01*
X2587463Y-15038569D01*
X2487431Y-14938537D01*
X2356733Y-14884400D01*
X-12700Y-14884400D01*
X-101600Y-14973300D01*
X-406400Y-14973300D01*
X-495300Y-14884400D01*
X-2864733Y-14884400D01*
X-2995431Y-14938537D01*
X-3095463Y-15038569D01*
X-3149600Y-15169267D01*
X-4978400Y-15169267D01*
X-5032537Y-15038569D01*
X-5132569Y-14938537D01*
X-5263267Y-14884400D01*
X-7632700Y-14884400D01*
X-7721600Y-14973300D01*
X-8026400Y-14973300D01*
X-8115300Y-14884400D01*
X-10484733Y-14884400D01*
X-10615431Y-14938537D01*
X-10715463Y-15038569D01*
X-10769600Y-15169267D01*
X-12528407Y-15169267D01*
X-12344617Y-14726652D01*
X-12344185Y-14231520D01*
X-12533264Y-13773912D01*
X-12883070Y-13423495D01*
X-13340348Y-13233617D01*
X-13835480Y-13233185D01*
X-14293088Y-13422264D01*
X-14643505Y-13772070D01*
X-14685386Y-13872930D01*
X-17382316Y-11176000D01*
X-9760566Y-11176000D01*
X-9760566Y-12700000D01*
X-9735770Y-12831777D01*
X-9657890Y-12952807D01*
X-9539058Y-13034001D01*
X-9398000Y-13062566D01*
X-7874000Y-13062566D01*
X-7742223Y-13037770D01*
X-7621193Y-12959890D01*
X-7539999Y-12841058D01*
X-7511434Y-12700000D01*
X-7511434Y-12159329D01*
X-7213793Y-12159329D01*
X-7044008Y-12570242D01*
X-6729896Y-12884903D01*
X-6319280Y-13055406D01*
X-5874671Y-13055793D01*
X-5463758Y-12886008D01*
X-5149097Y-12571896D01*
X-4978594Y-12161280D01*
X-4978207Y-11716671D01*
X-5147992Y-11305758D01*
X-5462104Y-10991097D01*
X-5872720Y-10820594D01*
X-6317329Y-10820207D01*
X-6728242Y-10989992D01*
X-7042903Y-11304104D01*
X-7213406Y-11714720D01*
X-7213793Y-12159329D01*
X-7511434Y-12159329D01*
X-7511434Y-11176000D01*
X-7536230Y-11044223D01*
X-7614110Y-10923193D01*
X-7732942Y-10841999D01*
X-7874000Y-10813434D01*
X-9398000Y-10813434D01*
X-9529777Y-10838230D01*
X-9650807Y-10916110D01*
X-9732001Y-11034942D01*
X-9760566Y-11176000D01*
X-17382316Y-11176000D01*
X-17632514Y-10925802D01*
X-17632421Y-10819092D01*
X-17205263Y-10391934D01*
X-17135852Y-10461467D01*
X-16894979Y-10561486D01*
X-16634165Y-10561714D01*
X-16393118Y-10462115D01*
X-16208533Y-10277852D01*
X-16108514Y-10036979D01*
X-16108286Y-9776165D01*
X-16207885Y-9535118D01*
X-16392148Y-9350533D01*
X-16633021Y-9250514D01*
X-16893835Y-9250286D01*
X-17134882Y-9349885D01*
X-17210529Y-9425400D01*
X-17398995Y-9425400D01*
X-17399000Y-9425399D01*
X-17582918Y-9461983D01*
X-17738836Y-9566164D01*
X-17738838Y-9566167D01*
X-18312050Y-10139378D01*
X-18417835Y-10139286D01*
X-18418681Y-10139635D01*
X-20980400Y-7577916D01*
X-20980400Y-4690284D01*
X-19620970Y-6049714D01*
X-19723505Y-6152070D01*
X-19913383Y-6609348D01*
X-19913815Y-7104480D01*
X-19724736Y-7562088D01*
X-19374930Y-7912505D01*
X-18917652Y-8102383D01*
X-18422520Y-8102815D01*
X-17964912Y-7913736D01*
X-17614495Y-7563930D01*
X-17424617Y-7106652D01*
X-17424185Y-6611520D01*
X-17490262Y-6451600D01*
X-17307880Y-6451600D01*
X-17373383Y-6609348D01*
X-17373815Y-7104480D01*
X-17184736Y-7562088D01*
X-16834930Y-7912505D01*
X-16377652Y-8102383D01*
X-15882520Y-8102815D01*
X-15424912Y-7913736D01*
X-15074495Y-7563930D01*
X-14884617Y-7106652D01*
X-14884185Y-6611520D01*
X-14950262Y-6451600D01*
X-14513880Y-6451600D01*
X-14579383Y-6609348D01*
X-14579815Y-7104480D01*
X-14390736Y-7562088D01*
X-14040930Y-7912505D01*
X-13583652Y-8102383D01*
X-13088520Y-8102815D01*
X-12928600Y-8036738D01*
X-12928600Y-9144000D01*
X-12920595Y-9183528D01*
X-12897843Y-9216828D01*
X-12863927Y-9238652D01*
X-12827000Y-9245600D01*
X8708571Y-9245600D01*
X8714885Y-9260882D01*
X8899148Y-9445467D01*
X9140021Y-9545486D01*
X9400835Y-9545714D01*
X9641882Y-9446115D01*
X9717529Y-9370600D01*
X14604995Y-9370600D01*
X14605000Y-9370601D01*
X14788918Y-9334017D01*
X14921243Y-9245600D01*
X17526000Y-9245600D01*
X17565528Y-9237595D01*
X17597842Y-9215842D01*
X21026842Y-5786842D01*
X21049132Y-5753231D01*
X21056600Y-5715000D01*
X21056600Y-2797290D01*
X24782359Y-2797290D01*
X24917762Y-3133428D01*
X25171493Y-3392162D01*
X25400864Y-3507893D01*
X25542600Y-3452788D01*
X25542600Y-2652400D01*
X25847400Y-2652400D01*
X25847400Y-3452788D01*
X25989136Y-3507893D01*
X26218507Y-3392162D01*
X26472238Y-3133428D01*
X26607641Y-2797290D01*
X26534457Y-2652400D01*
X25847400Y-2652400D01*
X25542600Y-2652400D01*
X24855543Y-2652400D01*
X24782359Y-2797290D01*
X21056600Y-2797290D01*
X21056600Y-2202710D01*
X24782359Y-2202710D01*
X24855543Y-2347600D01*
X25542600Y-2347600D01*
X25542600Y-1547212D01*
X25847400Y-1547212D01*
X25847400Y-2347600D01*
X26534457Y-2347600D01*
X26607641Y-2202710D01*
X26472238Y-1866572D01*
X26218507Y-1607838D01*
X25989136Y-1492107D01*
X25847400Y-1547212D01*
X25542600Y-1547212D01*
X25400864Y-1492107D01*
X25171493Y-1607838D01*
X24917762Y-1866572D01*
X24782359Y-2202710D01*
X21056600Y-2202710D01*
X21056600Y2645680D01*
X24764400Y2645680D01*
X24764400Y2354320D01*
X24835238Y1998195D01*
X25036966Y1696286D01*
X25338875Y1494558D01*
X25695000Y1423720D01*
X26051125Y1494558D01*
X26353034Y1696286D01*
X26554762Y1998195D01*
X26625600Y2354320D01*
X26625600Y2645680D01*
X26554762Y3001805D01*
X26353034Y3303714D01*
X26051125Y3505442D01*
X25695000Y3576280D01*
X25338875Y3505442D01*
X25036966Y3303714D01*
X24835238Y3001805D01*
X24764400Y2645680D01*
X21056600Y2645680D01*
X21056600Y7620000D01*
X21048595Y7659528D01*
X21026842Y7691842D01*
X19883842Y8834842D01*
X19850231Y8857132D01*
X19812000Y8864600D01*
X16552084Y8864600D01*
X16103600Y9313084D01*
X16103600Y12573000D01*
X16095595Y12612528D01*
X16073842Y12644842D01*
X13406842Y15311842D01*
X13373231Y15334132D01*
X13335000Y15341600D01*
X-2921000Y15341600D01*
X-2960528Y15333595D01*
X-2993828Y15310843D01*
X-3015652Y15276927D01*
X-3022600Y15240000D01*
X-3022600Y13208000D01*
X-3014595Y13168472D01*
X-2991843Y13135172D01*
X-2957927Y13113348D01*
X-2921000Y13106400D01*
X-228600Y13106400D01*
X-228600Y11176000D01*
X-220595Y11136472D01*
X-198842Y11104158D01*
X2819400Y8085916D01*
X2819400Y5376084D01*
X-198842Y2357842D01*
X-203516Y2350794D01*
X-243882Y2334115D01*
X-428467Y2149852D01*
X-528486Y1908979D01*
X-528714Y1648165D01*
X-429115Y1407118D01*
X-353600Y1331471D01*
X-353600Y563256D01*
X-370882Y556115D01*
X-555467Y371852D01*
X-655486Y130979D01*
X-655714Y-129835D01*
X-556115Y-370882D01*
X-371852Y-555467D01*
X-228600Y-614950D01*
X-228600Y-2011422D01*
X-229908Y-2011421D01*
X-803164Y-1438164D01*
X-959082Y-1333983D01*
X-1143000Y-1297399D01*
X-1143005Y-1297400D01*
X-3490412Y-1297400D01*
X-3565148Y-1222533D01*
X-3806021Y-1122514D01*
X-4066835Y-1122286D01*
X-4307882Y-1221885D01*
X-4492467Y-1406148D01*
X-4592486Y-1647021D01*
X-4592714Y-1907835D01*
X-4493115Y-2148882D01*
X-4308852Y-2333467D01*
X-4067979Y-2433486D01*
X-3807165Y-2433714D01*
X-3566118Y-2334115D01*
X-3490471Y-2258600D01*
X-1342072Y-2258600D01*
X-909622Y-2691050D01*
X-909714Y-2796835D01*
X-810115Y-3037882D01*
X-625852Y-3222467D01*
X-384979Y-3322486D01*
X-228600Y-3322623D01*
X-228600Y-4846095D01*
X-370882Y-4904885D01*
X-555467Y-5089148D01*
X-655486Y-5330021D01*
X-655714Y-5590835D01*
X-593915Y-5740400D01*
X-2440199Y-5740400D01*
X-2184771Y-5125261D01*
X-2184030Y-4276463D01*
X-2508167Y-3491991D01*
X-3107835Y-2891276D01*
X-3891739Y-2565771D01*
X-4740537Y-2565030D01*
X-5525009Y-2889167D01*
X-6125724Y-3488835D01*
X-6451229Y-4272739D01*
X-6451970Y-5121537D01*
X-6196261Y-5740400D01*
X-7137400Y-5740400D01*
X-7137400Y408400D01*
X-6477005Y408400D01*
X-6477000Y408399D01*
X-6293082Y444983D01*
X-6137164Y549164D01*
X-991950Y5694378D01*
X-886165Y5694286D01*
X-645118Y5793885D01*
X-460533Y5978148D01*
X-360514Y6219021D01*
X-360286Y6479835D01*
X-459885Y6720882D01*
X-644148Y6905467D01*
X-885021Y7005486D01*
X-1145835Y7005714D01*
X-1386882Y6906115D01*
X-1571467Y6721852D01*
X-1671486Y6480979D01*
X-1671579Y6374092D01*
X-6676072Y1369600D01*
X-7137400Y1369600D01*
X-7137400Y7393400D01*
X-3875588Y7393400D01*
X-3800852Y7318533D01*
X-3559979Y7218514D01*
X-3299165Y7218286D01*
X-3058118Y7317885D01*
X-2873533Y7502148D01*
X-2773514Y7743021D01*
X-2773286Y8003835D01*
X-2872885Y8244882D01*
X-3057148Y8429467D01*
X-3298021Y8529486D01*
X-3558835Y8529714D01*
X-3799882Y8430115D01*
X-3875529Y8354600D01*
X-7137400Y8354600D01*
X-7137400Y8677144D01*
X-6988979Y8615514D01*
X-6728165Y8615286D01*
X-6487118Y8714885D01*
X-6302533Y8899148D01*
X-6202514Y9140021D01*
X-6202286Y9400835D01*
X-6301885Y9641882D01*
X-6486148Y9826467D01*
X-6595954Y9872062D01*
X-6583514Y9902021D01*
X-6583286Y10162835D01*
X-6682885Y10403882D01*
X-6867148Y10588467D01*
X-7108021Y10688486D01*
X-7137400Y10688512D01*
X-7137400Y15240000D01*
X-7145405Y15279528D01*
X-7168157Y15312828D01*
X-7202073Y15334652D01*
X-7239000Y15341600D01*
X-15113000Y15341600D01*
X-15152528Y15333595D01*
X-15185828Y15310843D01*
X-15207652Y15276927D01*
X-15214600Y15240000D01*
X-15214600Y12234084D01*
X-15236198Y12212486D01*
X-15496835Y12212714D01*
X-15737882Y12113115D01*
X-15922467Y11928852D01*
X-16022486Y11687979D01*
X-16022579Y11581092D01*
X-21998400Y5605272D01*
X-21998400Y6531928D01*
X-19914950Y8615378D01*
X-19809165Y8615286D01*
X-19568118Y8714885D01*
X-19383533Y8899148D01*
X-19283514Y9140021D01*
X-19283286Y9400835D01*
X-19382885Y9641882D01*
X-19567148Y9826467D01*
X-19808021Y9926486D01*
X-20068835Y9926714D01*
X-20309882Y9827115D01*
X-20494467Y9642852D01*
X-20594486Y9401979D01*
X-20594579Y9295092D01*
X-22818836Y7070836D01*
X-22923017Y6914918D01*
X-22959601Y6731000D01*
X-22959600Y6730995D01*
X-22959600Y4489084D01*
X-23058842Y4389842D01*
X-23081132Y4356231D01*
X-23088600Y4318000D01*
X-23088600Y-5232400D01*
X-29235400Y-5232400D01*
X-29235400Y-3225419D01*
X-29122736Y-3498088D01*
X-28772930Y-3848505D01*
X-28315652Y-4038383D01*
X-27820520Y-4038815D01*
X-27362912Y-3849736D01*
X-27012495Y-3499930D01*
X-26822617Y-3042652D01*
X-26822185Y-2547520D01*
X-27011264Y-2089912D01*
X-27361070Y-1739495D01*
X-27818348Y-1549617D01*
X-28313480Y-1549185D01*
X-28771088Y-1738264D01*
X-29121505Y-2088070D01*
X-29235400Y-2362360D01*
X-29235400Y-685419D01*
X-29122736Y-958088D01*
X-28772930Y-1308505D01*
X-28315652Y-1498383D01*
X-27820520Y-1498815D01*
X-27362912Y-1309736D01*
X-27012495Y-959930D01*
X-26822617Y-502652D01*
X-26822185Y-7520D01*
X-27011264Y450088D01*
X-27361070Y800505D01*
X-27818348Y990383D01*
X-28313480Y990815D01*
X-28771088Y801736D01*
X-29121505Y451930D01*
X-29235400Y177640D01*
X-29235400Y1350780D01*
X-28786694Y1350780D01*
X-28684196Y1177223D01*
X-28212904Y1025434D01*
X-27719400Y1065553D01*
X-27449804Y1177223D01*
X-27347306Y1350780D01*
X-28067000Y2070474D01*
X-28786694Y1350780D01*
X-29235400Y1350780D01*
X-29235400Y1812747D01*
X-29175777Y1668804D01*
X-29002220Y1566306D01*
X-28282526Y2286000D01*
X-27851474Y2286000D01*
X-27131780Y1566306D01*
X-26958223Y1668804D01*
X-26806434Y2140096D01*
X-26846553Y2633600D01*
X-26958223Y2903196D01*
X-27131780Y3005694D01*
X-27851474Y2286000D01*
X-28282526Y2286000D01*
X-28296668Y2300142D01*
X-28081142Y2515668D01*
X-28067000Y2501526D01*
X-27347306Y3221220D01*
X-27449804Y3394777D01*
X-27921096Y3546566D01*
X-28414600Y3506447D01*
X-28527728Y3459588D01*
X-28379279Y3608037D01*
X-28315652Y3581617D01*
X-27820520Y3581185D01*
X-27362912Y3770264D01*
X-27012495Y4120070D01*
X-26822617Y4577348D01*
X-26822185Y5072480D01*
X-26849274Y5138042D01*
X-19158566Y12828750D01*
X-19158566Y12827000D01*
X-19133770Y12695223D01*
X-19055890Y12574193D01*
X-18937058Y12492999D01*
X-18796000Y12464434D01*
X-16764000Y12464434D01*
X-16632223Y12489230D01*
X-16511193Y12567110D01*
X-16429999Y12685942D01*
X-16401434Y12827000D01*
X-16401434Y14859000D01*
X-16426230Y14990777D01*
X-16504110Y15111807D01*
X-16622942Y15193001D01*
X-16764000Y15221566D01*
X-17095012Y15221566D01*
X-16937829Y15300378D01*
X-16587634Y15705073D01*
X-16457516Y16019239D01*
X-16506386Y16230600D01*
X-17627600Y16230600D01*
X-17627600Y16210600D01*
X-17932400Y16210600D01*
X-17932400Y16230600D01*
X-17952400Y16230600D01*
X-17952400Y16535400D01*
X-17932400Y16535400D01*
X-17932400Y16555400D01*
X-17627600Y16555400D01*
X-17627600Y16535400D01*
X-16506386Y16535400D01*
X-16457516Y16746761D01*
X-16587634Y17060927D01*
X-16902158Y17424400D01*
X17043400Y17424400D01*
X17043400Y14224000D01*
G36*
X-7848600Y10513600D02*
X-14096995Y10513600D01*
X-14097000Y10513601D01*
X-14280918Y10477017D01*
X-14436836Y10372836D01*
X-14436838Y10372833D01*
X-16341836Y8467836D01*
X-16446017Y8311918D01*
X-16482601Y8128000D01*
X-16482600Y8127995D01*
X-16482600Y6415588D01*
X-16557467Y6340852D01*
X-16657486Y6099979D01*
X-16657714Y5839165D01*
X-16558115Y5598118D01*
X-16373852Y5413533D01*
X-16132979Y5313514D01*
X-15872165Y5313286D01*
X-15631118Y5412885D01*
X-15446533Y5597148D01*
X-15346514Y5838021D01*
X-15346286Y6098835D01*
X-15445885Y6339882D01*
X-15521400Y6415529D01*
X-15521400Y7355145D01*
X-15484852Y7318533D01*
X-15243979Y7218514D01*
X-14983165Y7218286D01*
X-14742118Y7317885D01*
X-14666471Y7393400D01*
X-7848600Y7393400D01*
X-7848600Y1369600D01*
X-8409400Y1369600D01*
X-8409400Y1712412D01*
X-8334533Y1787148D01*
X-8234514Y2028021D01*
X-8234286Y2288835D01*
X-8333885Y2529882D01*
X-8518148Y2714467D01*
X-8759021Y2814486D01*
X-9019835Y2814714D01*
X-9260882Y2715115D01*
X-9445467Y2530852D01*
X-9545486Y2289979D01*
X-9545714Y2029165D01*
X-9446115Y1788118D01*
X-9370600Y1712471D01*
X-9370600Y1143005D01*
X-9370601Y1143000D01*
X-9334017Y959082D01*
X-9229836Y803164D01*
X-8975838Y549167D01*
X-8975836Y549164D01*
X-8852622Y466835D01*
X-8819918Y444983D01*
X-8636000Y408399D01*
X-8635995Y408400D01*
X-7848600Y408400D01*
X-7848600Y-6350000D01*
X-7840595Y-6389528D01*
X-7817843Y-6422828D01*
X-7783927Y-6444652D01*
X-7747000Y-6451600D01*
X-5583193Y-6451600D01*
X-5528165Y-6506724D01*
X-4744261Y-6832229D01*
X-3895463Y-6832970D01*
X-3110991Y-6508833D01*
X-3053658Y-6451600D01*
X310929Y-6451600D01*
X995378Y-7136050D01*
X995286Y-7241835D01*
X1094885Y-7482882D01*
X1279148Y-7667467D01*
X1520021Y-7767486D01*
X1780835Y-7767714D01*
X2021882Y-7668115D01*
X2206467Y-7483852D01*
X2306486Y-7242979D01*
X2306714Y-6982165D01*
X2207115Y-6741118D01*
X2022852Y-6556533D01*
X1781979Y-6456514D01*
X1675092Y-6456421D01*
X736600Y-5517928D01*
X736600Y1140165D01*
X4805286Y1140165D01*
X4904885Y899118D01*
X5089148Y714533D01*
X5330021Y614514D01*
X5590835Y614286D01*
X5831882Y713885D01*
X5907529Y789400D01*
X6476995Y789400D01*
X6477000Y789399D01*
X6660918Y825983D01*
X6816836Y930164D01*
X7263050Y1376378D01*
X7368835Y1376286D01*
X7609882Y1475885D01*
X7794467Y1660148D01*
X7894486Y1901021D01*
X7894714Y2161835D01*
X7795115Y2402882D01*
X7610852Y2587467D01*
X7369979Y2687486D01*
X7109165Y2687714D01*
X6868118Y2588115D01*
X6683533Y2403852D01*
X6583514Y2162979D01*
X6583421Y2056092D01*
X6277928Y1750600D01*
X5907588Y1750600D01*
X5832852Y1825467D01*
X5591979Y1925486D01*
X5331165Y1925714D01*
X5090118Y1826115D01*
X4905533Y1641852D01*
X4805514Y1400979D01*
X4805286Y1140165D01*
X736600Y1140165D01*
X736600Y1536515D01*
X782486Y1647021D01*
X782714Y1907835D01*
X736600Y2019439D01*
X736600Y2243916D01*
X3500842Y5008158D01*
X3523132Y5041769D01*
X3530600Y5080000D01*
X3530600Y8382000D01*
X3522595Y8421528D01*
X3500842Y8453842D01*
X736600Y11218084D01*
X736600Y13716000D01*
X728595Y13755528D01*
X705843Y13788828D01*
X671927Y13810652D01*
X635000Y13817600D01*
X-2311400Y13817600D01*
X-2311400Y14630400D01*
X13038916Y14630400D01*
X15519400Y12149916D01*
X15519400Y9144000D01*
X15527405Y9104472D01*
X15549158Y9072158D01*
X16311158Y8310158D01*
X16344769Y8287868D01*
X16383000Y8280400D01*
X19388916Y8280400D01*
X20218400Y7450916D01*
X20218400Y-5672916D01*
X17356916Y-8534400D01*
X15640271Y-8534400D01*
X16214833Y-7959838D01*
X16214836Y-7959836D01*
X16319017Y-7803918D01*
X16324889Y-7774399D01*
X16355601Y-7620000D01*
X16355600Y-7619995D01*
X16355600Y-6549072D01*
X16373856Y-6530816D01*
X17099739Y-6832229D01*
X17948537Y-6832970D01*
X18733009Y-6508833D01*
X19333724Y-5909165D01*
X19659229Y-5125261D01*
X19659970Y-4276463D01*
X19335833Y-3491991D01*
X18736165Y-2891276D01*
X17952261Y-2565771D01*
X17103463Y-2565030D01*
X16318991Y-2889167D01*
X15718276Y-3488835D01*
X15392771Y-4272739D01*
X15392030Y-5121537D01*
X15693698Y-5851630D01*
X15535164Y-6010164D01*
X15430983Y-6166082D01*
X15394399Y-6350000D01*
X15394400Y-6350005D01*
X15394400Y-7420929D01*
X14405928Y-8409400D01*
X9717588Y-8409400D01*
X9642852Y-8334533D01*
X9401979Y-8234514D01*
X9141165Y-8234286D01*
X8900118Y-8333885D01*
X8715533Y-8518148D01*
X8708785Y-8534400D01*
X-12217400Y-8534400D01*
X-12217400Y-7411980D01*
X-12090617Y-7106652D01*
X-12090185Y-6611520D01*
X-12217400Y-6303635D01*
X-12217400Y-5842000D01*
X-12225405Y-5802472D01*
X-12248157Y-5769172D01*
X-12282073Y-5747348D01*
X-12319000Y-5740400D01*
X-12781020Y-5740400D01*
X-13086348Y-5613617D01*
X-13581480Y-5613185D01*
X-13889365Y-5740400D01*
X-15575020Y-5740400D01*
X-15880348Y-5613617D01*
X-16375480Y-5613185D01*
X-16683365Y-5740400D01*
X-18115020Y-5740400D01*
X-18420348Y-5613617D01*
X-18915480Y-5613185D01*
X-18981042Y-5640274D01*
X-21107400Y-3513916D01*
X-21107400Y-2669835D01*
X-20848714Y-2669835D01*
X-20749115Y-2910882D01*
X-20564852Y-3095467D01*
X-20323979Y-3195486D01*
X-20063165Y-3195714D01*
X-19822118Y-3096115D01*
X-19637533Y-2911852D01*
X-19537514Y-2670979D01*
X-19537286Y-2410165D01*
X-19636885Y-2169118D01*
X-19712400Y-2093471D01*
X-19712400Y-1977072D01*
X-16437929Y1297400D01*
X-11368588Y1297400D01*
X-11293852Y1222533D01*
X-11052979Y1122514D01*
X-10792165Y1122286D01*
X-10551118Y1221885D01*
X-10366533Y1406148D01*
X-10266514Y1647021D01*
X-10266286Y1907835D01*
X-10365885Y2148882D01*
X-10550148Y2333467D01*
X-10791021Y2433486D01*
X-11051835Y2433714D01*
X-11292882Y2334115D01*
X-11368529Y2258600D01*
X-16637000Y2258600D01*
X-16820918Y2222017D01*
X-16976836Y2117836D01*
X-16976838Y2117833D01*
X-20532836Y-1438164D01*
X-20637017Y-1594082D01*
X-20673601Y-1778000D01*
X-20673600Y-1778005D01*
X-20673600Y-2093412D01*
X-20748467Y-2168148D01*
X-20848486Y-2409021D01*
X-20848714Y-2669835D01*
X-21107400Y-2669835D01*
X-21107400Y5136928D01*
X-15342950Y10901378D01*
X-15237165Y10901286D01*
X-14996118Y11000885D01*
X-14811533Y11185148D01*
X-14711514Y11426021D01*
X-14711286Y11686835D01*
X-14711635Y11687681D01*
X-14533158Y11866158D01*
X-14510868Y11899769D01*
X-14503400Y11938000D01*
X-14503400Y14630400D01*
X-7848600Y14630400D01*
X-7848600Y10513600D01*
X-7848600Y10513600D01*
G37*
X-7848600Y10513600D02*
X-14096995Y10513600D01*
X-14097000Y10513601D01*
X-14280918Y10477017D01*
X-14436836Y10372836D01*
X-14436838Y10372833D01*
X-16341836Y8467836D01*
X-16446017Y8311918D01*
X-16482601Y8128000D01*
X-16482600Y8127995D01*
X-16482600Y6415588D01*
X-16557467Y6340852D01*
X-16657486Y6099979D01*
X-16657714Y5839165D01*
X-16558115Y5598118D01*
X-16373852Y5413533D01*
X-16132979Y5313514D01*
X-15872165Y5313286D01*
X-15631118Y5412885D01*
X-15446533Y5597148D01*
X-15346514Y5838021D01*
X-15346286Y6098835D01*
X-15445885Y6339882D01*
X-15521400Y6415529D01*
X-15521400Y7355145D01*
X-15484852Y7318533D01*
X-15243979Y7218514D01*
X-14983165Y7218286D01*
X-14742118Y7317885D01*
X-14666471Y7393400D01*
X-7848600Y7393400D01*
X-7848600Y1369600D01*
X-8409400Y1369600D01*
X-8409400Y1712412D01*
X-8334533Y1787148D01*
X-8234514Y2028021D01*
X-8234286Y2288835D01*
X-8333885Y2529882D01*
X-8518148Y2714467D01*
X-8759021Y2814486D01*
X-9019835Y2814714D01*
X-9260882Y2715115D01*
X-9445467Y2530852D01*
X-9545486Y2289979D01*
X-9545714Y2029165D01*
X-9446115Y1788118D01*
X-9370600Y1712471D01*
X-9370600Y1143005D01*
X-9370601Y1143000D01*
X-9334017Y959082D01*
X-9229836Y803164D01*
X-8975838Y549167D01*
X-8975836Y549164D01*
X-8852622Y466835D01*
X-8819918Y444983D01*
X-8636000Y408399D01*
X-8635995Y408400D01*
X-7848600Y408400D01*
X-7848600Y-6350000D01*
X-7840595Y-6389528D01*
X-7817843Y-6422828D01*
X-7783927Y-6444652D01*
X-7747000Y-6451600D01*
X-5583193Y-6451600D01*
X-5528165Y-6506724D01*
X-4744261Y-6832229D01*
X-3895463Y-6832970D01*
X-3110991Y-6508833D01*
X-3053658Y-6451600D01*
X310929Y-6451600D01*
X995378Y-7136050D01*
X995286Y-7241835D01*
X1094885Y-7482882D01*
X1279148Y-7667467D01*
X1520021Y-7767486D01*
X1780835Y-7767714D01*
X2021882Y-7668115D01*
X2206467Y-7483852D01*
X2306486Y-7242979D01*
X2306714Y-6982165D01*
X2207115Y-6741118D01*
X2022852Y-6556533D01*
X1781979Y-6456514D01*
X1675092Y-6456421D01*
X736600Y-5517928D01*
X736600Y1140165D01*
X4805286Y1140165D01*
X4904885Y899118D01*
X5089148Y714533D01*
X5330021Y614514D01*
X5590835Y614286D01*
X5831882Y713885D01*
X5907529Y789400D01*
X6476995Y789400D01*
X6477000Y789399D01*
X6660918Y825983D01*
X6816836Y930164D01*
X7263050Y1376378D01*
X7368835Y1376286D01*
X7609882Y1475885D01*
X7794467Y1660148D01*
X7894486Y1901021D01*
X7894714Y2161835D01*
X7795115Y2402882D01*
X7610852Y2587467D01*
X7369979Y2687486D01*
X7109165Y2687714D01*
X6868118Y2588115D01*
X6683533Y2403852D01*
X6583514Y2162979D01*
X6583421Y2056092D01*
X6277928Y1750600D01*
X5907588Y1750600D01*
X5832852Y1825467D01*
X5591979Y1925486D01*
X5331165Y1925714D01*
X5090118Y1826115D01*
X4905533Y1641852D01*
X4805514Y1400979D01*
X4805286Y1140165D01*
X736600Y1140165D01*
X736600Y1536515D01*
X782486Y1647021D01*
X782714Y1907835D01*
X736600Y2019439D01*
X736600Y2243916D01*
X3500842Y5008158D01*
X3523132Y5041769D01*
X3530600Y5080000D01*
X3530600Y8382000D01*
X3522595Y8421528D01*
X3500842Y8453842D01*
X736600Y11218084D01*
X736600Y13716000D01*
X728595Y13755528D01*
X705843Y13788828D01*
X671927Y13810652D01*
X635000Y13817600D01*
X-2311400Y13817600D01*
X-2311400Y14630400D01*
X13038916Y14630400D01*
X15519400Y12149916D01*
X15519400Y9144000D01*
X15527405Y9104472D01*
X15549158Y9072158D01*
X16311158Y8310158D01*
X16344769Y8287868D01*
X16383000Y8280400D01*
X19388916Y8280400D01*
X20218400Y7450916D01*
X20218400Y-5672916D01*
X17356916Y-8534400D01*
X15640271Y-8534400D01*
X16214833Y-7959838D01*
X16214836Y-7959836D01*
X16319017Y-7803918D01*
X16324889Y-7774399D01*
X16355601Y-7620000D01*
X16355600Y-7619995D01*
X16355600Y-6549072D01*
X16373856Y-6530816D01*
X17099739Y-6832229D01*
X17948537Y-6832970D01*
X18733009Y-6508833D01*
X19333724Y-5909165D01*
X19659229Y-5125261D01*
X19659970Y-4276463D01*
X19335833Y-3491991D01*
X18736165Y-2891276D01*
X17952261Y-2565771D01*
X17103463Y-2565030D01*
X16318991Y-2889167D01*
X15718276Y-3488835D01*
X15392771Y-4272739D01*
X15392030Y-5121537D01*
X15693698Y-5851630D01*
X15535164Y-6010164D01*
X15430983Y-6166082D01*
X15394399Y-6350000D01*
X15394400Y-6350005D01*
X15394400Y-7420929D01*
X14405928Y-8409400D01*
X9717588Y-8409400D01*
X9642852Y-8334533D01*
X9401979Y-8234514D01*
X9141165Y-8234286D01*
X8900118Y-8333885D01*
X8715533Y-8518148D01*
X8708785Y-8534400D01*
X-12217400Y-8534400D01*
X-12217400Y-7411980D01*
X-12090617Y-7106652D01*
X-12090185Y-6611520D01*
X-12217400Y-6303635D01*
X-12217400Y-5842000D01*
X-12225405Y-5802472D01*
X-12248157Y-5769172D01*
X-12282073Y-5747348D01*
X-12319000Y-5740400D01*
X-12781020Y-5740400D01*
X-13086348Y-5613617D01*
X-13581480Y-5613185D01*
X-13889365Y-5740400D01*
X-15575020Y-5740400D01*
X-15880348Y-5613617D01*
X-16375480Y-5613185D01*
X-16683365Y-5740400D01*
X-18115020Y-5740400D01*
X-18420348Y-5613617D01*
X-18915480Y-5613185D01*
X-18981042Y-5640274D01*
X-21107400Y-3513916D01*
X-21107400Y-2669835D01*
X-20848714Y-2669835D01*
X-20749115Y-2910882D01*
X-20564852Y-3095467D01*
X-20323979Y-3195486D01*
X-20063165Y-3195714D01*
X-19822118Y-3096115D01*
X-19637533Y-2911852D01*
X-19537514Y-2670979D01*
X-19537286Y-2410165D01*
X-19636885Y-2169118D01*
X-19712400Y-2093471D01*
X-19712400Y-1977072D01*
X-16437929Y1297400D01*
X-11368588Y1297400D01*
X-11293852Y1222533D01*
X-11052979Y1122514D01*
X-10792165Y1122286D01*
X-10551118Y1221885D01*
X-10366533Y1406148D01*
X-10266514Y1647021D01*
X-10266286Y1907835D01*
X-10365885Y2148882D01*
X-10550148Y2333467D01*
X-10791021Y2433486D01*
X-11051835Y2433714D01*
X-11292882Y2334115D01*
X-11368529Y2258600D01*
X-16637000Y2258600D01*
X-16820918Y2222017D01*
X-16976836Y2117836D01*
X-16976838Y2117833D01*
X-20532836Y-1438164D01*
X-20637017Y-1594082D01*
X-20673601Y-1778000D01*
X-20673600Y-1778005D01*
X-20673600Y-2093412D01*
X-20748467Y-2168148D01*
X-20848486Y-2409021D01*
X-20848714Y-2669835D01*
X-21107400Y-2669835D01*
X-21107400Y5136928D01*
X-15342950Y10901378D01*
X-15237165Y10901286D01*
X-14996118Y11000885D01*
X-14811533Y11185148D01*
X-14711514Y11426021D01*
X-14711286Y11686835D01*
X-14711635Y11687681D01*
X-14533158Y11866158D01*
X-14510868Y11899769D01*
X-14503400Y11938000D01*
X-14503400Y14630400D01*
X-7848600Y14630400D01*
X-7848600Y10513600D01*
M02*
