G04 #@! TF.FileFunction,Copper,L2,Bot,Signal*
%FSLAX46Y46*%
G04 Gerber Fmt 4.6, Leading zero omitted, Abs format (unit mm)*
G04 Created by KiCad (PCBNEW 4.0.1-stable) date 2/4/2016 12:26:45 PM*
%MOMM*%
G01*
G04 APERTURE LIST*
%ADD10C,0.100000*%
%ADD11R,1.778000X1.778000*%
%ADD12C,1.778000*%
%ADD13R,2.540000X2.540000*%
%ADD14C,2.540000*%
%ADD15O,1.400000X1.150000*%
%ADD16O,1.325000X1.700000*%
%ADD17R,0.400000X1.350000*%
%ADD18C,0.600000*%
%ADD19C,0.250000*%
%ADD20C,0.203200*%
G04 APERTURE END LIST*
D10*
D11*
X150622000Y-89789000D03*
D12*
X148082000Y-89789000D03*
X145542000Y-89789000D03*
X143002000Y-89789000D03*
X140462000Y-89789000D03*
D13*
X139192000Y-120396000D03*
D14*
X144272000Y-120396000D03*
X149352000Y-120396000D03*
D12*
X129032000Y-122428000D03*
X131572000Y-122428000D03*
X134112000Y-122428000D03*
X134366000Y-114808000D03*
X131572000Y-114808000D03*
X129032000Y-114808000D03*
D15*
X130850000Y-90764000D03*
X135850000Y-90764000D03*
D16*
X129850000Y-87864000D03*
X136850000Y-87864000D03*
D17*
X132050000Y-90764000D03*
X132700000Y-90764000D03*
X133350000Y-90764000D03*
X134000000Y-90764000D03*
X134650000Y-90764000D03*
D18*
X131318000Y-89281000D03*
X146558000Y-91694000D03*
X138684000Y-92075000D03*
X131699000Y-104267000D03*
X150114000Y-107442000D03*
X137668000Y-98044000D03*
X130937000Y-95631000D03*
X136652000Y-95250000D03*
X131826000Y-99568000D03*
X139954000Y-105029000D03*
X131572000Y-109220000D03*
X146939000Y-97409000D03*
X137287000Y-107696000D03*
X145796000Y-97790000D03*
X142240000Y-106172000D03*
X132715000Y-92329000D03*
X144780000Y-97790000D03*
X142240000Y-107696000D03*
X133604000Y-92329000D03*
X143764000Y-97790000D03*
X142240000Y-109220000D03*
X142240000Y-101854000D03*
X141732000Y-98171000D03*
X147447000Y-93980000D03*
X130556000Y-108966000D03*
X140208000Y-114046000D03*
X141732000Y-114046000D03*
X137414000Y-103124000D03*
X148717000Y-94107000D03*
X139573000Y-98933000D03*
X136779000Y-101727000D03*
X131953000Y-100838000D03*
X137287000Y-93345000D03*
X140970000Y-93345000D03*
X143764000Y-93345000D03*
X143256000Y-101727000D03*
X143129000Y-99822000D03*
X149098000Y-98298000D03*
X151130000Y-99187000D03*
X137160000Y-110363000D03*
D19*
X132050000Y-90764000D02*
X132050000Y-90013000D01*
X132050000Y-90013000D02*
X131318000Y-89281000D01*
X142240000Y-106172000D02*
X142240000Y-106680000D01*
X139573000Y-107696000D02*
X137287000Y-107696000D01*
X141859000Y-109982000D02*
X139573000Y-107696000D01*
X142621000Y-109982000D02*
X141859000Y-109982000D01*
X143002000Y-109601000D02*
X142621000Y-109982000D01*
X143002000Y-107442000D02*
X143002000Y-109601000D01*
X142240000Y-106680000D02*
X143002000Y-107442000D01*
X145230002Y-98355998D02*
X145230002Y-102802396D01*
X145230002Y-98355998D02*
X145796000Y-97790000D01*
X142304199Y-106107801D02*
X142240000Y-106172000D01*
X142304199Y-105728199D02*
X142304199Y-106107801D01*
X145230002Y-102802396D02*
X142304199Y-105728199D01*
X132700000Y-92314000D02*
X132700000Y-90764000D01*
X132715000Y-92329000D02*
X132700000Y-92314000D01*
X144780000Y-102616000D02*
X144780000Y-97790000D01*
X141478000Y-105918000D02*
X144780000Y-102616000D01*
X141478000Y-106934000D02*
X141478000Y-105918000D01*
X142240000Y-107696000D02*
X141478000Y-106934000D01*
X133350000Y-92075000D02*
X133350000Y-90764000D01*
X133604000Y-92329000D02*
X133350000Y-92075000D01*
X144272000Y-98298000D02*
X143764000Y-97790000D01*
X144272000Y-102362000D02*
X144272000Y-98298000D01*
X141027998Y-105606002D02*
X144272000Y-102362000D01*
X141027998Y-108007998D02*
X141027998Y-105606002D01*
X142240000Y-109220000D02*
X141027998Y-108007998D01*
X142240000Y-101854000D02*
X141732000Y-101346000D01*
X141732000Y-101346000D02*
X141732000Y-98171000D01*
X147447000Y-94996000D02*
X147447000Y-93980000D01*
X146685000Y-95758000D02*
X147447000Y-94996000D01*
X143129000Y-95758000D02*
X146685000Y-95758000D01*
X141097000Y-97790000D02*
X143129000Y-95758000D01*
X141097000Y-101092000D02*
X141097000Y-97790000D01*
X137541000Y-104648000D02*
X141097000Y-101092000D01*
X134874000Y-104648000D02*
X137541000Y-104648000D01*
X130556000Y-108966000D02*
X134874000Y-104648000D01*
X141732000Y-114046000D02*
X140208000Y-114046000D01*
X138303000Y-103124000D02*
X137414000Y-103124000D01*
X140462000Y-100965000D02*
X138303000Y-103124000D01*
X140462000Y-97663000D02*
X140462000Y-100965000D01*
X140716000Y-97409000D02*
X140462000Y-97663000D01*
X141351000Y-96774000D02*
X140716000Y-97409000D01*
X142875000Y-95250000D02*
X141351000Y-96774000D01*
X146304000Y-95250000D02*
X142875000Y-95250000D01*
X146685000Y-94869000D02*
X146304000Y-95250000D01*
X146685000Y-93726000D02*
X146685000Y-94869000D01*
X147193000Y-93218000D02*
X146685000Y-93726000D01*
X147828000Y-93218000D02*
X147193000Y-93218000D01*
X148717000Y-94107000D02*
X147828000Y-93218000D01*
X136779000Y-101727000D02*
X139573000Y-98933000D01*
X132715000Y-97917000D02*
X132715000Y-100076000D01*
X132715000Y-97917000D02*
X137033000Y-93599000D01*
X132715000Y-100076000D02*
X131953000Y-100838000D01*
X137287000Y-93345000D02*
X137033000Y-93599000D01*
X143764000Y-93345000D02*
X140970000Y-93345000D01*
X143256000Y-99949000D02*
X143256000Y-101727000D01*
X143129000Y-99822000D02*
X143256000Y-99949000D01*
X144272000Y-120396000D02*
X149098000Y-115570000D01*
X149098000Y-115570000D02*
X149098000Y-98298000D01*
X150368000Y-119380000D02*
X151130000Y-118618000D01*
X151130000Y-118618000D02*
X151130000Y-99187000D01*
X150368000Y-119380000D02*
X149352000Y-120396000D01*
X134112000Y-122428000D02*
X134112000Y-119507000D01*
X137160000Y-116459000D02*
X137160000Y-110363000D01*
X134112000Y-119507000D02*
X137160000Y-116459000D01*
D20*
G36*
X139217185Y-90035480D02*
X139406264Y-90493088D01*
X139756070Y-90843505D01*
X140213348Y-91033383D01*
X140708480Y-91033815D01*
X141166088Y-90844736D01*
X141516505Y-90494930D01*
X141706383Y-90037652D01*
X141706400Y-90017600D01*
X141757201Y-90017600D01*
X141757185Y-90035480D01*
X141946264Y-90493088D01*
X142296070Y-90843505D01*
X142753348Y-91033383D01*
X143248480Y-91033815D01*
X143706088Y-90844736D01*
X144056505Y-90494930D01*
X144246383Y-90037652D01*
X144246400Y-90017600D01*
X144311879Y-90017600D01*
X144321553Y-90136600D01*
X144433223Y-90406196D01*
X144606780Y-90508694D01*
X145097874Y-90017600D01*
X145528926Y-90017600D01*
X144822306Y-90724220D01*
X144924804Y-90897777D01*
X145396096Y-91049566D01*
X145889600Y-91009447D01*
X146159196Y-90897777D01*
X146261694Y-90724220D01*
X145555074Y-90017600D01*
X145986126Y-90017600D01*
X146477220Y-90508694D01*
X146650777Y-90406196D01*
X146775932Y-90017600D01*
X146837201Y-90017600D01*
X146837185Y-90035480D01*
X147026264Y-90493088D01*
X147376070Y-90843505D01*
X147833348Y-91033383D01*
X148328480Y-91033815D01*
X148786088Y-90844736D01*
X149136505Y-90494930D01*
X149326383Y-90037652D01*
X149326400Y-90017600D01*
X149370434Y-90017600D01*
X149370434Y-90678000D01*
X149395230Y-90809777D01*
X149473110Y-90930807D01*
X149591942Y-91012001D01*
X149733000Y-91040566D01*
X151511000Y-91040566D01*
X151642777Y-91015770D01*
X151763807Y-90937890D01*
X151845001Y-90819058D01*
X151873566Y-90678000D01*
X151873566Y-90017600D01*
X152044400Y-90017600D01*
X152044400Y-120294400D01*
X150977689Y-120294400D01*
X150977881Y-120074067D01*
X150795354Y-119632318D01*
X151469833Y-118957838D01*
X151469836Y-118957836D01*
X151574017Y-118801918D01*
X151581672Y-118763434D01*
X151610601Y-118618000D01*
X151610600Y-118617995D01*
X151610600Y-99633588D01*
X151685467Y-99558852D01*
X151785486Y-99317979D01*
X151785714Y-99057165D01*
X151686115Y-98816118D01*
X151501852Y-98631533D01*
X151260979Y-98531514D01*
X151000165Y-98531286D01*
X150759118Y-98630885D01*
X150574533Y-98815148D01*
X150474514Y-99056021D01*
X150474286Y-99316835D01*
X150573885Y-99557882D01*
X150649400Y-99633529D01*
X150649400Y-118418929D01*
X150115478Y-118952850D01*
X149676770Y-118770683D01*
X149030067Y-118770119D01*
X148432375Y-119017080D01*
X147974687Y-119473970D01*
X147726683Y-120071230D01*
X147726488Y-120294400D01*
X145897689Y-120294400D01*
X145897881Y-120074067D01*
X145715354Y-119632318D01*
X149437833Y-115909838D01*
X149437836Y-115909836D01*
X149542017Y-115753918D01*
X149578601Y-115570000D01*
X149578600Y-115569995D01*
X149578600Y-98744588D01*
X149653467Y-98669852D01*
X149753486Y-98428979D01*
X149753714Y-98168165D01*
X149654115Y-97927118D01*
X149469852Y-97742533D01*
X149228979Y-97642514D01*
X148968165Y-97642286D01*
X148727118Y-97741885D01*
X148542533Y-97926148D01*
X148442514Y-98167021D01*
X148442286Y-98427835D01*
X148541885Y-98668882D01*
X148617400Y-98744529D01*
X148617400Y-115370929D01*
X145035478Y-118952850D01*
X144596770Y-118770683D01*
X143950067Y-118770119D01*
X143352375Y-119017080D01*
X142894687Y-119473970D01*
X142646683Y-120071230D01*
X142646488Y-120294400D01*
X140824566Y-120294400D01*
X140824566Y-119126000D01*
X140799770Y-118994223D01*
X140721890Y-118873193D01*
X140603058Y-118791999D01*
X140462000Y-118763434D01*
X137922000Y-118763434D01*
X137790223Y-118788230D01*
X137669193Y-118866110D01*
X137587999Y-118984942D01*
X137559434Y-119126000D01*
X137559434Y-120294400D01*
X134592600Y-120294400D01*
X134592600Y-119706072D01*
X137499833Y-116798838D01*
X137499836Y-116798836D01*
X137604017Y-116642918D01*
X137640601Y-116459000D01*
X137640600Y-116458995D01*
X137640600Y-114175835D01*
X139552286Y-114175835D01*
X139651885Y-114416882D01*
X139836148Y-114601467D01*
X140077021Y-114701486D01*
X140337835Y-114701714D01*
X140578882Y-114602115D01*
X140654529Y-114526600D01*
X141285412Y-114526600D01*
X141360148Y-114601467D01*
X141601021Y-114701486D01*
X141861835Y-114701714D01*
X142102882Y-114602115D01*
X142287467Y-114417852D01*
X142387486Y-114176979D01*
X142387714Y-113916165D01*
X142288115Y-113675118D01*
X142103852Y-113490533D01*
X141862979Y-113390514D01*
X141602165Y-113390286D01*
X141361118Y-113489885D01*
X141285471Y-113565400D01*
X140654588Y-113565400D01*
X140579852Y-113490533D01*
X140338979Y-113390514D01*
X140078165Y-113390286D01*
X139837118Y-113489885D01*
X139652533Y-113674148D01*
X139552514Y-113915021D01*
X139552286Y-114175835D01*
X137640600Y-114175835D01*
X137640600Y-110809588D01*
X137715467Y-110734852D01*
X137815486Y-110493979D01*
X137815714Y-110233165D01*
X137716115Y-109992118D01*
X137531852Y-109807533D01*
X137290979Y-109707514D01*
X137030165Y-109707286D01*
X136789118Y-109806885D01*
X136604533Y-109991148D01*
X136504514Y-110232021D01*
X136504286Y-110492835D01*
X136603885Y-110733882D01*
X136679400Y-110809529D01*
X136679400Y-116259929D01*
X133772164Y-119167164D01*
X133667983Y-119323082D01*
X133631399Y-119507000D01*
X133631400Y-119507005D01*
X133631400Y-120294400D01*
X127863600Y-120294400D01*
X127863600Y-115239419D01*
X127976264Y-115512088D01*
X128326070Y-115862505D01*
X128783348Y-116052383D01*
X129278480Y-116052815D01*
X129736088Y-115863736D01*
X130086505Y-115513930D01*
X130276383Y-115056652D01*
X130276384Y-115054480D01*
X130327185Y-115054480D01*
X130516264Y-115512088D01*
X130866070Y-115862505D01*
X131323348Y-116052383D01*
X131818480Y-116052815D01*
X132276088Y-115863736D01*
X132626505Y-115513930D01*
X132816383Y-115056652D01*
X132816384Y-115054480D01*
X133121185Y-115054480D01*
X133310264Y-115512088D01*
X133660070Y-115862505D01*
X134117348Y-116052383D01*
X134612480Y-116052815D01*
X135070088Y-115863736D01*
X135420505Y-115513930D01*
X135610383Y-115056652D01*
X135610815Y-114561520D01*
X135421736Y-114103912D01*
X135071930Y-113753495D01*
X134614652Y-113563617D01*
X134119520Y-113563185D01*
X133661912Y-113752264D01*
X133311495Y-114102070D01*
X133121617Y-114559348D01*
X133121185Y-115054480D01*
X132816384Y-115054480D01*
X132816815Y-114561520D01*
X132627736Y-114103912D01*
X132277930Y-113753495D01*
X131820652Y-113563617D01*
X131325520Y-113563185D01*
X130867912Y-113752264D01*
X130517495Y-114102070D01*
X130327617Y-114559348D01*
X130327185Y-115054480D01*
X130276384Y-115054480D01*
X130276815Y-114561520D01*
X130087736Y-114103912D01*
X129737930Y-113753495D01*
X129280652Y-113563617D01*
X128785520Y-113563185D01*
X128327912Y-113752264D01*
X127977495Y-114102070D01*
X127863600Y-114376360D01*
X127863600Y-109095835D01*
X129900286Y-109095835D01*
X129999885Y-109336882D01*
X130184148Y-109521467D01*
X130425021Y-109621486D01*
X130685835Y-109621714D01*
X130926882Y-109522115D01*
X131111467Y-109337852D01*
X131211486Y-109096979D01*
X131211579Y-108990092D01*
X135073071Y-105128600D01*
X137540995Y-105128600D01*
X137541000Y-105128601D01*
X137724918Y-105092017D01*
X137880836Y-104987836D01*
X141308319Y-101560352D01*
X141392164Y-101685836D01*
X141584378Y-101878050D01*
X141584286Y-101983835D01*
X141683885Y-102224882D01*
X141868148Y-102409467D01*
X142109021Y-102509486D01*
X142369835Y-102509714D01*
X142610882Y-102410115D01*
X142795467Y-102225852D01*
X142804916Y-102203096D01*
X142884148Y-102282467D01*
X143125021Y-102382486D01*
X143385835Y-102382714D01*
X143626882Y-102283115D01*
X143791400Y-102118884D01*
X143791400Y-102162929D01*
X140688162Y-105266166D01*
X140583981Y-105422084D01*
X140547397Y-105606002D01*
X140547398Y-105606007D01*
X140547398Y-107990726D01*
X139912836Y-107356164D01*
X139756918Y-107251983D01*
X139573000Y-107215399D01*
X139572995Y-107215400D01*
X137733588Y-107215400D01*
X137658852Y-107140533D01*
X137417979Y-107040514D01*
X137157165Y-107040286D01*
X136916118Y-107139885D01*
X136731533Y-107324148D01*
X136631514Y-107565021D01*
X136631286Y-107825835D01*
X136730885Y-108066882D01*
X136915148Y-108251467D01*
X137156021Y-108351486D01*
X137416835Y-108351714D01*
X137657882Y-108252115D01*
X137733529Y-108176600D01*
X139373928Y-108176600D01*
X141519162Y-110321833D01*
X141519164Y-110321836D01*
X141675082Y-110426017D01*
X141859000Y-110462601D01*
X141859005Y-110462600D01*
X142620995Y-110462600D01*
X142621000Y-110462601D01*
X142804918Y-110426017D01*
X142960836Y-110321836D01*
X143341833Y-109940838D01*
X143341836Y-109940836D01*
X143446017Y-109784918D01*
X143482600Y-109601000D01*
X143482600Y-107442005D01*
X143482601Y-107442000D01*
X143446017Y-107258082D01*
X143417497Y-107215399D01*
X143341836Y-107102164D01*
X143341833Y-107102162D01*
X142789490Y-106549818D01*
X142795467Y-106543852D01*
X142895486Y-106302979D01*
X142895714Y-106042165D01*
X142829691Y-105882379D01*
X145569835Y-103142234D01*
X145569838Y-103142232D01*
X145674019Y-102986314D01*
X145710602Y-102802396D01*
X145710602Y-98555070D01*
X145820050Y-98445622D01*
X145925835Y-98445714D01*
X146166882Y-98346115D01*
X146351467Y-98161852D01*
X146451486Y-97920979D01*
X146451714Y-97660165D01*
X146352115Y-97419118D01*
X146167852Y-97234533D01*
X145926979Y-97134514D01*
X145666165Y-97134286D01*
X145425118Y-97233885D01*
X145287922Y-97370841D01*
X145151852Y-97234533D01*
X144910979Y-97134514D01*
X144650165Y-97134286D01*
X144409118Y-97233885D01*
X144271922Y-97370841D01*
X144135852Y-97234533D01*
X143894979Y-97134514D01*
X143634165Y-97134286D01*
X143393118Y-97233885D01*
X143208533Y-97418148D01*
X143108514Y-97659021D01*
X143108286Y-97919835D01*
X143207885Y-98160882D01*
X143392148Y-98345467D01*
X143633021Y-98445486D01*
X143739908Y-98445579D01*
X143791400Y-98497071D01*
X143791400Y-101335367D01*
X143736600Y-101280471D01*
X143736600Y-100068302D01*
X143784486Y-99952979D01*
X143784714Y-99692165D01*
X143685115Y-99451118D01*
X143500852Y-99266533D01*
X143259979Y-99166514D01*
X142999165Y-99166286D01*
X142758118Y-99265885D01*
X142573533Y-99450148D01*
X142473514Y-99691021D01*
X142473286Y-99951835D01*
X142572885Y-100192882D01*
X142757148Y-100377467D01*
X142775400Y-100385046D01*
X142775400Y-101280412D01*
X142700533Y-101355148D01*
X142691084Y-101377904D01*
X142611852Y-101298533D01*
X142370979Y-101198514D01*
X142264092Y-101198421D01*
X142212600Y-101146928D01*
X142212600Y-98617588D01*
X142287467Y-98542852D01*
X142387486Y-98301979D01*
X142387714Y-98041165D01*
X142288115Y-97800118D01*
X142103852Y-97615533D01*
X141995945Y-97570726D01*
X143328071Y-96238600D01*
X146684995Y-96238600D01*
X146685000Y-96238601D01*
X146868918Y-96202017D01*
X147024836Y-96097836D01*
X147786833Y-95335838D01*
X147786836Y-95335836D01*
X147891017Y-95179918D01*
X147913660Y-95066083D01*
X147927601Y-94996000D01*
X147927600Y-94995995D01*
X147927600Y-94426588D01*
X148002467Y-94351852D01*
X148061309Y-94210144D01*
X148061286Y-94236835D01*
X148160885Y-94477882D01*
X148345148Y-94662467D01*
X148586021Y-94762486D01*
X148846835Y-94762714D01*
X149087882Y-94663115D01*
X149272467Y-94478852D01*
X149372486Y-94237979D01*
X149372714Y-93977165D01*
X149273115Y-93736118D01*
X149088852Y-93551533D01*
X148847979Y-93451514D01*
X148741092Y-93451421D01*
X148167836Y-92878164D01*
X148011918Y-92773983D01*
X147828000Y-92737399D01*
X147827995Y-92737400D01*
X147193000Y-92737400D01*
X147009082Y-92773983D01*
X146853164Y-92878164D01*
X146853162Y-92878167D01*
X146345164Y-93386164D01*
X146240983Y-93542082D01*
X146204399Y-93726000D01*
X146204400Y-93726005D01*
X146204400Y-94669929D01*
X146104928Y-94769400D01*
X142875000Y-94769400D01*
X142691082Y-94805983D01*
X142535164Y-94910164D01*
X142535162Y-94910167D01*
X141011164Y-96434164D01*
X141011162Y-96434167D01*
X140376164Y-97069164D01*
X140376162Y-97069167D01*
X140122164Y-97323164D01*
X140017983Y-97479082D01*
X139981399Y-97663000D01*
X139981400Y-97663005D01*
X139981400Y-98414145D01*
X139944852Y-98377533D01*
X139703979Y-98277514D01*
X139443165Y-98277286D01*
X139202118Y-98376885D01*
X139017533Y-98561148D01*
X138917514Y-98802021D01*
X138917421Y-98908908D01*
X136754950Y-101071378D01*
X136649165Y-101071286D01*
X136408118Y-101170885D01*
X136223533Y-101355148D01*
X136123514Y-101596021D01*
X136123286Y-101856835D01*
X136222885Y-102097882D01*
X136407148Y-102282467D01*
X136648021Y-102382486D01*
X136908835Y-102382714D01*
X137149882Y-102283115D01*
X137334467Y-102098852D01*
X137434486Y-101857979D01*
X137434579Y-101751092D01*
X139597050Y-99588622D01*
X139702835Y-99588714D01*
X139943882Y-99489115D01*
X139981400Y-99451662D01*
X139981400Y-100765929D01*
X138103928Y-102643400D01*
X137860588Y-102643400D01*
X137785852Y-102568533D01*
X137544979Y-102468514D01*
X137284165Y-102468286D01*
X137043118Y-102567885D01*
X136858533Y-102752148D01*
X136758514Y-102993021D01*
X136758286Y-103253835D01*
X136857885Y-103494882D01*
X137042148Y-103679467D01*
X137283021Y-103779486D01*
X137543835Y-103779714D01*
X137784882Y-103680115D01*
X137860529Y-103604600D01*
X137904728Y-103604600D01*
X137341928Y-104167400D01*
X134874005Y-104167400D01*
X134874000Y-104167399D01*
X134690082Y-104203983D01*
X134534164Y-104308164D01*
X134534162Y-104308167D01*
X130531950Y-108310378D01*
X130426165Y-108310286D01*
X130185118Y-108409885D01*
X130000533Y-108594148D01*
X129900514Y-108835021D01*
X129900286Y-109095835D01*
X127863600Y-109095835D01*
X127863600Y-105892600D01*
X130302000Y-105892600D01*
X130341528Y-105884595D01*
X130374828Y-105861843D01*
X130396652Y-105827927D01*
X130403600Y-105791000D01*
X130403600Y-100967835D01*
X131297286Y-100967835D01*
X131396885Y-101208882D01*
X131581148Y-101393467D01*
X131822021Y-101493486D01*
X132082835Y-101493714D01*
X132323882Y-101394115D01*
X132508467Y-101209852D01*
X132608486Y-100968979D01*
X132608579Y-100862092D01*
X133054833Y-100415838D01*
X133054836Y-100415836D01*
X133159017Y-100259918D01*
X133195601Y-100076000D01*
X133195600Y-100075995D01*
X133195600Y-98116072D01*
X137311049Y-94000622D01*
X137416835Y-94000714D01*
X137657882Y-93901115D01*
X137842467Y-93716852D01*
X137942486Y-93475979D01*
X137942487Y-93474835D01*
X140314286Y-93474835D01*
X140413885Y-93715882D01*
X140598148Y-93900467D01*
X140839021Y-94000486D01*
X141099835Y-94000714D01*
X141340882Y-93901115D01*
X141416529Y-93825600D01*
X143317412Y-93825600D01*
X143392148Y-93900467D01*
X143633021Y-94000486D01*
X143893835Y-94000714D01*
X144134882Y-93901115D01*
X144319467Y-93716852D01*
X144419486Y-93475979D01*
X144419714Y-93215165D01*
X144320115Y-92974118D01*
X144135852Y-92789533D01*
X143894979Y-92689514D01*
X143634165Y-92689286D01*
X143393118Y-92788885D01*
X143317471Y-92864400D01*
X141416588Y-92864400D01*
X141341852Y-92789533D01*
X141100979Y-92689514D01*
X140840165Y-92689286D01*
X140599118Y-92788885D01*
X140414533Y-92973148D01*
X140314514Y-93214021D01*
X140314286Y-93474835D01*
X137942487Y-93474835D01*
X137942714Y-93215165D01*
X137843115Y-92974118D01*
X137658852Y-92789533D01*
X137417979Y-92689514D01*
X137157165Y-92689286D01*
X136916118Y-92788885D01*
X136731533Y-92973148D01*
X136631514Y-93214021D01*
X136631421Y-93320908D01*
X132375164Y-97577164D01*
X132270983Y-97733082D01*
X132234399Y-97917000D01*
X132234400Y-97917005D01*
X132234400Y-99876929D01*
X131928950Y-100182378D01*
X131823165Y-100182286D01*
X131582118Y-100281885D01*
X131397533Y-100466148D01*
X131297514Y-100707021D01*
X131297286Y-100967835D01*
X130403600Y-100967835D01*
X130403600Y-91616577D01*
X130552710Y-91676641D01*
X130697600Y-91603457D01*
X130697600Y-90916400D01*
X130677600Y-90916400D01*
X130677600Y-90611600D01*
X130697600Y-90611600D01*
X130697600Y-90591600D01*
X131002400Y-90591600D01*
X131002400Y-90611600D01*
X131022400Y-90611600D01*
X131022400Y-90916400D01*
X131002400Y-90916400D01*
X131002400Y-91603457D01*
X131147290Y-91676641D01*
X131483428Y-91541238D01*
X131503051Y-91521995D01*
X131512230Y-91570777D01*
X131590110Y-91691807D01*
X131708942Y-91773001D01*
X131850000Y-91801566D01*
X132219400Y-91801566D01*
X132219400Y-91897385D01*
X132159533Y-91957148D01*
X132059514Y-92198021D01*
X132059286Y-92458835D01*
X132158885Y-92699882D01*
X132343148Y-92884467D01*
X132584021Y-92984486D01*
X132844835Y-92984714D01*
X133085882Y-92885115D01*
X133159467Y-92811659D01*
X133232148Y-92884467D01*
X133473021Y-92984486D01*
X133733835Y-92984714D01*
X133974882Y-92885115D01*
X134159467Y-92700852D01*
X134259486Y-92459979D01*
X134259714Y-92199165D01*
X134160115Y-91958118D01*
X134003836Y-91801566D01*
X134200000Y-91801566D01*
X134331777Y-91776770D01*
X134333518Y-91775650D01*
X134379267Y-91794600D01*
X134461100Y-91794600D01*
X134550000Y-91705700D01*
X134550000Y-91501053D01*
X134562566Y-91439000D01*
X134562566Y-90591600D01*
X134750000Y-90591600D01*
X134750000Y-90611600D01*
X134804034Y-90611600D01*
X134773720Y-90764000D01*
X134804034Y-90916400D01*
X134750000Y-90916400D01*
X134750000Y-91705700D01*
X134838900Y-91794600D01*
X134920733Y-91794600D01*
X135051431Y-91740463D01*
X135151463Y-91640431D01*
X135199517Y-91524419D01*
X135348195Y-91623762D01*
X135704320Y-91694600D01*
X135995680Y-91694600D01*
X136351805Y-91623762D01*
X136653714Y-91422034D01*
X136855442Y-91120125D01*
X136926280Y-90764000D01*
X136855442Y-90407875D01*
X136653714Y-90105966D01*
X136521464Y-90017600D01*
X139217201Y-90017600D01*
X139217185Y-90035480D01*
X139217185Y-90035480D01*
G37*
X139217185Y-90035480D02*
X139406264Y-90493088D01*
X139756070Y-90843505D01*
X140213348Y-91033383D01*
X140708480Y-91033815D01*
X141166088Y-90844736D01*
X141516505Y-90494930D01*
X141706383Y-90037652D01*
X141706400Y-90017600D01*
X141757201Y-90017600D01*
X141757185Y-90035480D01*
X141946264Y-90493088D01*
X142296070Y-90843505D01*
X142753348Y-91033383D01*
X143248480Y-91033815D01*
X143706088Y-90844736D01*
X144056505Y-90494930D01*
X144246383Y-90037652D01*
X144246400Y-90017600D01*
X144311879Y-90017600D01*
X144321553Y-90136600D01*
X144433223Y-90406196D01*
X144606780Y-90508694D01*
X145097874Y-90017600D01*
X145528926Y-90017600D01*
X144822306Y-90724220D01*
X144924804Y-90897777D01*
X145396096Y-91049566D01*
X145889600Y-91009447D01*
X146159196Y-90897777D01*
X146261694Y-90724220D01*
X145555074Y-90017600D01*
X145986126Y-90017600D01*
X146477220Y-90508694D01*
X146650777Y-90406196D01*
X146775932Y-90017600D01*
X146837201Y-90017600D01*
X146837185Y-90035480D01*
X147026264Y-90493088D01*
X147376070Y-90843505D01*
X147833348Y-91033383D01*
X148328480Y-91033815D01*
X148786088Y-90844736D01*
X149136505Y-90494930D01*
X149326383Y-90037652D01*
X149326400Y-90017600D01*
X149370434Y-90017600D01*
X149370434Y-90678000D01*
X149395230Y-90809777D01*
X149473110Y-90930807D01*
X149591942Y-91012001D01*
X149733000Y-91040566D01*
X151511000Y-91040566D01*
X151642777Y-91015770D01*
X151763807Y-90937890D01*
X151845001Y-90819058D01*
X151873566Y-90678000D01*
X151873566Y-90017600D01*
X152044400Y-90017600D01*
X152044400Y-120294400D01*
X150977689Y-120294400D01*
X150977881Y-120074067D01*
X150795354Y-119632318D01*
X151469833Y-118957838D01*
X151469836Y-118957836D01*
X151574017Y-118801918D01*
X151581672Y-118763434D01*
X151610601Y-118618000D01*
X151610600Y-118617995D01*
X151610600Y-99633588D01*
X151685467Y-99558852D01*
X151785486Y-99317979D01*
X151785714Y-99057165D01*
X151686115Y-98816118D01*
X151501852Y-98631533D01*
X151260979Y-98531514D01*
X151000165Y-98531286D01*
X150759118Y-98630885D01*
X150574533Y-98815148D01*
X150474514Y-99056021D01*
X150474286Y-99316835D01*
X150573885Y-99557882D01*
X150649400Y-99633529D01*
X150649400Y-118418929D01*
X150115478Y-118952850D01*
X149676770Y-118770683D01*
X149030067Y-118770119D01*
X148432375Y-119017080D01*
X147974687Y-119473970D01*
X147726683Y-120071230D01*
X147726488Y-120294400D01*
X145897689Y-120294400D01*
X145897881Y-120074067D01*
X145715354Y-119632318D01*
X149437833Y-115909838D01*
X149437836Y-115909836D01*
X149542017Y-115753918D01*
X149578601Y-115570000D01*
X149578600Y-115569995D01*
X149578600Y-98744588D01*
X149653467Y-98669852D01*
X149753486Y-98428979D01*
X149753714Y-98168165D01*
X149654115Y-97927118D01*
X149469852Y-97742533D01*
X149228979Y-97642514D01*
X148968165Y-97642286D01*
X148727118Y-97741885D01*
X148542533Y-97926148D01*
X148442514Y-98167021D01*
X148442286Y-98427835D01*
X148541885Y-98668882D01*
X148617400Y-98744529D01*
X148617400Y-115370929D01*
X145035478Y-118952850D01*
X144596770Y-118770683D01*
X143950067Y-118770119D01*
X143352375Y-119017080D01*
X142894687Y-119473970D01*
X142646683Y-120071230D01*
X142646488Y-120294400D01*
X140824566Y-120294400D01*
X140824566Y-119126000D01*
X140799770Y-118994223D01*
X140721890Y-118873193D01*
X140603058Y-118791999D01*
X140462000Y-118763434D01*
X137922000Y-118763434D01*
X137790223Y-118788230D01*
X137669193Y-118866110D01*
X137587999Y-118984942D01*
X137559434Y-119126000D01*
X137559434Y-120294400D01*
X134592600Y-120294400D01*
X134592600Y-119706072D01*
X137499833Y-116798838D01*
X137499836Y-116798836D01*
X137604017Y-116642918D01*
X137640601Y-116459000D01*
X137640600Y-116458995D01*
X137640600Y-114175835D01*
X139552286Y-114175835D01*
X139651885Y-114416882D01*
X139836148Y-114601467D01*
X140077021Y-114701486D01*
X140337835Y-114701714D01*
X140578882Y-114602115D01*
X140654529Y-114526600D01*
X141285412Y-114526600D01*
X141360148Y-114601467D01*
X141601021Y-114701486D01*
X141861835Y-114701714D01*
X142102882Y-114602115D01*
X142287467Y-114417852D01*
X142387486Y-114176979D01*
X142387714Y-113916165D01*
X142288115Y-113675118D01*
X142103852Y-113490533D01*
X141862979Y-113390514D01*
X141602165Y-113390286D01*
X141361118Y-113489885D01*
X141285471Y-113565400D01*
X140654588Y-113565400D01*
X140579852Y-113490533D01*
X140338979Y-113390514D01*
X140078165Y-113390286D01*
X139837118Y-113489885D01*
X139652533Y-113674148D01*
X139552514Y-113915021D01*
X139552286Y-114175835D01*
X137640600Y-114175835D01*
X137640600Y-110809588D01*
X137715467Y-110734852D01*
X137815486Y-110493979D01*
X137815714Y-110233165D01*
X137716115Y-109992118D01*
X137531852Y-109807533D01*
X137290979Y-109707514D01*
X137030165Y-109707286D01*
X136789118Y-109806885D01*
X136604533Y-109991148D01*
X136504514Y-110232021D01*
X136504286Y-110492835D01*
X136603885Y-110733882D01*
X136679400Y-110809529D01*
X136679400Y-116259929D01*
X133772164Y-119167164D01*
X133667983Y-119323082D01*
X133631399Y-119507000D01*
X133631400Y-119507005D01*
X133631400Y-120294400D01*
X127863600Y-120294400D01*
X127863600Y-115239419D01*
X127976264Y-115512088D01*
X128326070Y-115862505D01*
X128783348Y-116052383D01*
X129278480Y-116052815D01*
X129736088Y-115863736D01*
X130086505Y-115513930D01*
X130276383Y-115056652D01*
X130276384Y-115054480D01*
X130327185Y-115054480D01*
X130516264Y-115512088D01*
X130866070Y-115862505D01*
X131323348Y-116052383D01*
X131818480Y-116052815D01*
X132276088Y-115863736D01*
X132626505Y-115513930D01*
X132816383Y-115056652D01*
X132816384Y-115054480D01*
X133121185Y-115054480D01*
X133310264Y-115512088D01*
X133660070Y-115862505D01*
X134117348Y-116052383D01*
X134612480Y-116052815D01*
X135070088Y-115863736D01*
X135420505Y-115513930D01*
X135610383Y-115056652D01*
X135610815Y-114561520D01*
X135421736Y-114103912D01*
X135071930Y-113753495D01*
X134614652Y-113563617D01*
X134119520Y-113563185D01*
X133661912Y-113752264D01*
X133311495Y-114102070D01*
X133121617Y-114559348D01*
X133121185Y-115054480D01*
X132816384Y-115054480D01*
X132816815Y-114561520D01*
X132627736Y-114103912D01*
X132277930Y-113753495D01*
X131820652Y-113563617D01*
X131325520Y-113563185D01*
X130867912Y-113752264D01*
X130517495Y-114102070D01*
X130327617Y-114559348D01*
X130327185Y-115054480D01*
X130276384Y-115054480D01*
X130276815Y-114561520D01*
X130087736Y-114103912D01*
X129737930Y-113753495D01*
X129280652Y-113563617D01*
X128785520Y-113563185D01*
X128327912Y-113752264D01*
X127977495Y-114102070D01*
X127863600Y-114376360D01*
X127863600Y-109095835D01*
X129900286Y-109095835D01*
X129999885Y-109336882D01*
X130184148Y-109521467D01*
X130425021Y-109621486D01*
X130685835Y-109621714D01*
X130926882Y-109522115D01*
X131111467Y-109337852D01*
X131211486Y-109096979D01*
X131211579Y-108990092D01*
X135073071Y-105128600D01*
X137540995Y-105128600D01*
X137541000Y-105128601D01*
X137724918Y-105092017D01*
X137880836Y-104987836D01*
X141308319Y-101560352D01*
X141392164Y-101685836D01*
X141584378Y-101878050D01*
X141584286Y-101983835D01*
X141683885Y-102224882D01*
X141868148Y-102409467D01*
X142109021Y-102509486D01*
X142369835Y-102509714D01*
X142610882Y-102410115D01*
X142795467Y-102225852D01*
X142804916Y-102203096D01*
X142884148Y-102282467D01*
X143125021Y-102382486D01*
X143385835Y-102382714D01*
X143626882Y-102283115D01*
X143791400Y-102118884D01*
X143791400Y-102162929D01*
X140688162Y-105266166D01*
X140583981Y-105422084D01*
X140547397Y-105606002D01*
X140547398Y-105606007D01*
X140547398Y-107990726D01*
X139912836Y-107356164D01*
X139756918Y-107251983D01*
X139573000Y-107215399D01*
X139572995Y-107215400D01*
X137733588Y-107215400D01*
X137658852Y-107140533D01*
X137417979Y-107040514D01*
X137157165Y-107040286D01*
X136916118Y-107139885D01*
X136731533Y-107324148D01*
X136631514Y-107565021D01*
X136631286Y-107825835D01*
X136730885Y-108066882D01*
X136915148Y-108251467D01*
X137156021Y-108351486D01*
X137416835Y-108351714D01*
X137657882Y-108252115D01*
X137733529Y-108176600D01*
X139373928Y-108176600D01*
X141519162Y-110321833D01*
X141519164Y-110321836D01*
X141675082Y-110426017D01*
X141859000Y-110462601D01*
X141859005Y-110462600D01*
X142620995Y-110462600D01*
X142621000Y-110462601D01*
X142804918Y-110426017D01*
X142960836Y-110321836D01*
X143341833Y-109940838D01*
X143341836Y-109940836D01*
X143446017Y-109784918D01*
X143482600Y-109601000D01*
X143482600Y-107442005D01*
X143482601Y-107442000D01*
X143446017Y-107258082D01*
X143417497Y-107215399D01*
X143341836Y-107102164D01*
X143341833Y-107102162D01*
X142789490Y-106549818D01*
X142795467Y-106543852D01*
X142895486Y-106302979D01*
X142895714Y-106042165D01*
X142829691Y-105882379D01*
X145569835Y-103142234D01*
X145569838Y-103142232D01*
X145674019Y-102986314D01*
X145710602Y-102802396D01*
X145710602Y-98555070D01*
X145820050Y-98445622D01*
X145925835Y-98445714D01*
X146166882Y-98346115D01*
X146351467Y-98161852D01*
X146451486Y-97920979D01*
X146451714Y-97660165D01*
X146352115Y-97419118D01*
X146167852Y-97234533D01*
X145926979Y-97134514D01*
X145666165Y-97134286D01*
X145425118Y-97233885D01*
X145287922Y-97370841D01*
X145151852Y-97234533D01*
X144910979Y-97134514D01*
X144650165Y-97134286D01*
X144409118Y-97233885D01*
X144271922Y-97370841D01*
X144135852Y-97234533D01*
X143894979Y-97134514D01*
X143634165Y-97134286D01*
X143393118Y-97233885D01*
X143208533Y-97418148D01*
X143108514Y-97659021D01*
X143108286Y-97919835D01*
X143207885Y-98160882D01*
X143392148Y-98345467D01*
X143633021Y-98445486D01*
X143739908Y-98445579D01*
X143791400Y-98497071D01*
X143791400Y-101335367D01*
X143736600Y-101280471D01*
X143736600Y-100068302D01*
X143784486Y-99952979D01*
X143784714Y-99692165D01*
X143685115Y-99451118D01*
X143500852Y-99266533D01*
X143259979Y-99166514D01*
X142999165Y-99166286D01*
X142758118Y-99265885D01*
X142573533Y-99450148D01*
X142473514Y-99691021D01*
X142473286Y-99951835D01*
X142572885Y-100192882D01*
X142757148Y-100377467D01*
X142775400Y-100385046D01*
X142775400Y-101280412D01*
X142700533Y-101355148D01*
X142691084Y-101377904D01*
X142611852Y-101298533D01*
X142370979Y-101198514D01*
X142264092Y-101198421D01*
X142212600Y-101146928D01*
X142212600Y-98617588D01*
X142287467Y-98542852D01*
X142387486Y-98301979D01*
X142387714Y-98041165D01*
X142288115Y-97800118D01*
X142103852Y-97615533D01*
X141995945Y-97570726D01*
X143328071Y-96238600D01*
X146684995Y-96238600D01*
X146685000Y-96238601D01*
X146868918Y-96202017D01*
X147024836Y-96097836D01*
X147786833Y-95335838D01*
X147786836Y-95335836D01*
X147891017Y-95179918D01*
X147913660Y-95066083D01*
X147927601Y-94996000D01*
X147927600Y-94995995D01*
X147927600Y-94426588D01*
X148002467Y-94351852D01*
X148061309Y-94210144D01*
X148061286Y-94236835D01*
X148160885Y-94477882D01*
X148345148Y-94662467D01*
X148586021Y-94762486D01*
X148846835Y-94762714D01*
X149087882Y-94663115D01*
X149272467Y-94478852D01*
X149372486Y-94237979D01*
X149372714Y-93977165D01*
X149273115Y-93736118D01*
X149088852Y-93551533D01*
X148847979Y-93451514D01*
X148741092Y-93451421D01*
X148167836Y-92878164D01*
X148011918Y-92773983D01*
X147828000Y-92737399D01*
X147827995Y-92737400D01*
X147193000Y-92737400D01*
X147009082Y-92773983D01*
X146853164Y-92878164D01*
X146853162Y-92878167D01*
X146345164Y-93386164D01*
X146240983Y-93542082D01*
X146204399Y-93726000D01*
X146204400Y-93726005D01*
X146204400Y-94669929D01*
X146104928Y-94769400D01*
X142875000Y-94769400D01*
X142691082Y-94805983D01*
X142535164Y-94910164D01*
X142535162Y-94910167D01*
X141011164Y-96434164D01*
X141011162Y-96434167D01*
X140376164Y-97069164D01*
X140376162Y-97069167D01*
X140122164Y-97323164D01*
X140017983Y-97479082D01*
X139981399Y-97663000D01*
X139981400Y-97663005D01*
X139981400Y-98414145D01*
X139944852Y-98377533D01*
X139703979Y-98277514D01*
X139443165Y-98277286D01*
X139202118Y-98376885D01*
X139017533Y-98561148D01*
X138917514Y-98802021D01*
X138917421Y-98908908D01*
X136754950Y-101071378D01*
X136649165Y-101071286D01*
X136408118Y-101170885D01*
X136223533Y-101355148D01*
X136123514Y-101596021D01*
X136123286Y-101856835D01*
X136222885Y-102097882D01*
X136407148Y-102282467D01*
X136648021Y-102382486D01*
X136908835Y-102382714D01*
X137149882Y-102283115D01*
X137334467Y-102098852D01*
X137434486Y-101857979D01*
X137434579Y-101751092D01*
X139597050Y-99588622D01*
X139702835Y-99588714D01*
X139943882Y-99489115D01*
X139981400Y-99451662D01*
X139981400Y-100765929D01*
X138103928Y-102643400D01*
X137860588Y-102643400D01*
X137785852Y-102568533D01*
X137544979Y-102468514D01*
X137284165Y-102468286D01*
X137043118Y-102567885D01*
X136858533Y-102752148D01*
X136758514Y-102993021D01*
X136758286Y-103253835D01*
X136857885Y-103494882D01*
X137042148Y-103679467D01*
X137283021Y-103779486D01*
X137543835Y-103779714D01*
X137784882Y-103680115D01*
X137860529Y-103604600D01*
X137904728Y-103604600D01*
X137341928Y-104167400D01*
X134874005Y-104167400D01*
X134874000Y-104167399D01*
X134690082Y-104203983D01*
X134534164Y-104308164D01*
X134534162Y-104308167D01*
X130531950Y-108310378D01*
X130426165Y-108310286D01*
X130185118Y-108409885D01*
X130000533Y-108594148D01*
X129900514Y-108835021D01*
X129900286Y-109095835D01*
X127863600Y-109095835D01*
X127863600Y-105892600D01*
X130302000Y-105892600D01*
X130341528Y-105884595D01*
X130374828Y-105861843D01*
X130396652Y-105827927D01*
X130403600Y-105791000D01*
X130403600Y-100967835D01*
X131297286Y-100967835D01*
X131396885Y-101208882D01*
X131581148Y-101393467D01*
X131822021Y-101493486D01*
X132082835Y-101493714D01*
X132323882Y-101394115D01*
X132508467Y-101209852D01*
X132608486Y-100968979D01*
X132608579Y-100862092D01*
X133054833Y-100415838D01*
X133054836Y-100415836D01*
X133159017Y-100259918D01*
X133195601Y-100076000D01*
X133195600Y-100075995D01*
X133195600Y-98116072D01*
X137311049Y-94000622D01*
X137416835Y-94000714D01*
X137657882Y-93901115D01*
X137842467Y-93716852D01*
X137942486Y-93475979D01*
X137942487Y-93474835D01*
X140314286Y-93474835D01*
X140413885Y-93715882D01*
X140598148Y-93900467D01*
X140839021Y-94000486D01*
X141099835Y-94000714D01*
X141340882Y-93901115D01*
X141416529Y-93825600D01*
X143317412Y-93825600D01*
X143392148Y-93900467D01*
X143633021Y-94000486D01*
X143893835Y-94000714D01*
X144134882Y-93901115D01*
X144319467Y-93716852D01*
X144419486Y-93475979D01*
X144419714Y-93215165D01*
X144320115Y-92974118D01*
X144135852Y-92789533D01*
X143894979Y-92689514D01*
X143634165Y-92689286D01*
X143393118Y-92788885D01*
X143317471Y-92864400D01*
X141416588Y-92864400D01*
X141341852Y-92789533D01*
X141100979Y-92689514D01*
X140840165Y-92689286D01*
X140599118Y-92788885D01*
X140414533Y-92973148D01*
X140314514Y-93214021D01*
X140314286Y-93474835D01*
X137942487Y-93474835D01*
X137942714Y-93215165D01*
X137843115Y-92974118D01*
X137658852Y-92789533D01*
X137417979Y-92689514D01*
X137157165Y-92689286D01*
X136916118Y-92788885D01*
X136731533Y-92973148D01*
X136631514Y-93214021D01*
X136631421Y-93320908D01*
X132375164Y-97577164D01*
X132270983Y-97733082D01*
X132234399Y-97917000D01*
X132234400Y-97917005D01*
X132234400Y-99876929D01*
X131928950Y-100182378D01*
X131823165Y-100182286D01*
X131582118Y-100281885D01*
X131397533Y-100466148D01*
X131297514Y-100707021D01*
X131297286Y-100967835D01*
X130403600Y-100967835D01*
X130403600Y-91616577D01*
X130552710Y-91676641D01*
X130697600Y-91603457D01*
X130697600Y-90916400D01*
X130677600Y-90916400D01*
X130677600Y-90611600D01*
X130697600Y-90611600D01*
X130697600Y-90591600D01*
X131002400Y-90591600D01*
X131002400Y-90611600D01*
X131022400Y-90611600D01*
X131022400Y-90916400D01*
X131002400Y-90916400D01*
X131002400Y-91603457D01*
X131147290Y-91676641D01*
X131483428Y-91541238D01*
X131503051Y-91521995D01*
X131512230Y-91570777D01*
X131590110Y-91691807D01*
X131708942Y-91773001D01*
X131850000Y-91801566D01*
X132219400Y-91801566D01*
X132219400Y-91897385D01*
X132159533Y-91957148D01*
X132059514Y-92198021D01*
X132059286Y-92458835D01*
X132158885Y-92699882D01*
X132343148Y-92884467D01*
X132584021Y-92984486D01*
X132844835Y-92984714D01*
X133085882Y-92885115D01*
X133159467Y-92811659D01*
X133232148Y-92884467D01*
X133473021Y-92984486D01*
X133733835Y-92984714D01*
X133974882Y-92885115D01*
X134159467Y-92700852D01*
X134259486Y-92459979D01*
X134259714Y-92199165D01*
X134160115Y-91958118D01*
X134003836Y-91801566D01*
X134200000Y-91801566D01*
X134331777Y-91776770D01*
X134333518Y-91775650D01*
X134379267Y-91794600D01*
X134461100Y-91794600D01*
X134550000Y-91705700D01*
X134550000Y-91501053D01*
X134562566Y-91439000D01*
X134562566Y-90591600D01*
X134750000Y-90591600D01*
X134750000Y-90611600D01*
X134804034Y-90611600D01*
X134773720Y-90764000D01*
X134804034Y-90916400D01*
X134750000Y-90916400D01*
X134750000Y-91705700D01*
X134838900Y-91794600D01*
X134920733Y-91794600D01*
X135051431Y-91740463D01*
X135151463Y-91640431D01*
X135199517Y-91524419D01*
X135348195Y-91623762D01*
X135704320Y-91694600D01*
X135995680Y-91694600D01*
X136351805Y-91623762D01*
X136653714Y-91422034D01*
X136855442Y-91120125D01*
X136926280Y-90764000D01*
X136855442Y-90407875D01*
X136653714Y-90105966D01*
X136521464Y-90017600D01*
X139217201Y-90017600D01*
X139217185Y-90035480D01*
M02*
