G04 #@! TF.FileFunction,Soldermask,Top*
%FSLAX46Y46*%
G04 Gerber Fmt 4.6, Leading zero omitted, Abs format (unit mm)*
G04 Created by KiCad (PCBNEW 4.0.1-stable) date 2/4/2016 12:26:45 PM*
%MOMM*%
G01*
G04 APERTURE LIST*
%ADD10C,0.100000*%
%ADD11R,0.889000X0.965200*%
%ADD12R,0.965200X0.889000*%
%ADD13R,1.879600X1.879600*%
%ADD14C,1.879600*%
%ADD15R,2.641600X2.641600*%
%ADD16C,2.641600*%
%ADD17R,0.609600X0.863600*%
%ADD18R,0.501600X1.851600*%
%ADD19R,2.301600X0.355600*%
%ADD20O,1.501600X1.251600*%
%ADD21O,1.426600X1.801600*%
G04 APERTURE END LIST*
D10*
D11*
X144018000Y-92202000D03*
X145542000Y-92202000D03*
X140970000Y-106172000D03*
X139446000Y-106172000D03*
D12*
X130048000Y-93218000D03*
X130048000Y-94742000D03*
D11*
X140970000Y-107696000D03*
X139446000Y-107696000D03*
D12*
X135382000Y-93218000D03*
X135382000Y-94742000D03*
D11*
X140970000Y-109220000D03*
X139446000Y-109220000D03*
D12*
X138176000Y-100584000D03*
X138176000Y-99060000D03*
D13*
X150622000Y-89789000D03*
D14*
X148082000Y-89789000D03*
X145542000Y-89789000D03*
X143002000Y-89789000D03*
X140462000Y-89789000D03*
D15*
X139192000Y-120396000D03*
D16*
X144272000Y-120396000D03*
X149352000Y-120396000D03*
D14*
X129032000Y-122428000D03*
X131572000Y-122428000D03*
X134112000Y-122428000D03*
X134366000Y-114808000D03*
X131572000Y-114808000D03*
X129032000Y-114808000D03*
D11*
X149225000Y-92202000D03*
X150749000Y-92202000D03*
D12*
X129032000Y-108204000D03*
X129032000Y-106680000D03*
D11*
X134620000Y-107696000D03*
X136144000Y-107696000D03*
X136144000Y-109220000D03*
X134620000Y-109220000D03*
X136144000Y-106172000D03*
X134620000Y-106172000D03*
X143256000Y-109220000D03*
X144780000Y-109220000D03*
X143256000Y-107696000D03*
X144780000Y-107696000D03*
X143256000Y-106172000D03*
X144780000Y-106172000D03*
D12*
X131826000Y-94742000D03*
X131826000Y-93218000D03*
X133604000Y-94742000D03*
X133604000Y-93218000D03*
X144272000Y-114808000D03*
X144272000Y-113284000D03*
X149352000Y-113284000D03*
X149352000Y-114808000D03*
D17*
X130619500Y-107950000D03*
X132524500Y-107950000D03*
X130619500Y-105410000D03*
X131572000Y-107950000D03*
X132524500Y-105410000D03*
D18*
X151291000Y-95968000D03*
X150641000Y-95968000D03*
X149991000Y-95968000D03*
X149341000Y-95968000D03*
X148691000Y-95968000D03*
X148041000Y-95968000D03*
X147391000Y-95968000D03*
X146741000Y-95968000D03*
X146091000Y-95968000D03*
X145441000Y-95968000D03*
X144791000Y-95968000D03*
X144141000Y-95968000D03*
X143491000Y-95968000D03*
X142841000Y-95968000D03*
X142841000Y-103168000D03*
X143491000Y-103168000D03*
X144141000Y-103168000D03*
X144791000Y-103168000D03*
X145441000Y-103168000D03*
X146091000Y-103168000D03*
X146741000Y-103168000D03*
X147391000Y-103168000D03*
X148041000Y-103168000D03*
X148691000Y-103168000D03*
X149341000Y-103168000D03*
X149991000Y-103168000D03*
X150641000Y-103168000D03*
X151291000Y-103168000D03*
D19*
X130048000Y-101536500D03*
X135128000Y-101536500D03*
X130048000Y-100901500D03*
X135128000Y-100901500D03*
X130048000Y-100266500D03*
X135128000Y-100266500D03*
X130048000Y-99631500D03*
X135128000Y-99631500D03*
X130048000Y-98996500D03*
X135128000Y-98996500D03*
X130048000Y-98361500D03*
X135128000Y-98361500D03*
X130048000Y-97726500D03*
X135128000Y-97726500D03*
X130048000Y-97091500D03*
X135128000Y-97091500D03*
D20*
X130850000Y-90764000D03*
X135850000Y-90764000D03*
D21*
X129850000Y-87864000D03*
X136850000Y-87864000D03*
D11*
X129413000Y-103505000D03*
X130937000Y-103505000D03*
X151638000Y-105791000D03*
X150114000Y-105791000D03*
D12*
X138049000Y-89916000D03*
X138049000Y-91440000D03*
M02*
