M48
;DRILL file {KiCad 4.0.1-stable} date 2/4/2016 12:27:48 PM
;FORMAT={-:-/ absolute / inch / decimal}
FMAT,2
INCH,TZ
T1C0.016
T2C0.030
T3C0.039
T4C0.040
T5C0.051
%
G90
G05
M72
T1
X5.14Y-4.29
X5.155Y-3.765
X5.17Y-3.515
X5.18Y-4.3
X5.185Y-4.105
X5.19Y-3.92
X5.195Y-3.97
X5.225Y-3.635
X5.26Y-3.635
X5.38Y-3.75
X5.385Y-4.005
X5.4Y-4.345
X5.405Y-3.675
X5.405Y-4.24
X5.41Y-4.06
X5.42Y-3.86
X5.46Y-3.625
X5.495Y-3.895
X5.51Y-4.135
X5.52Y-4.49
X5.55Y-3.675
X5.58Y-3.865
X5.58Y-4.49
X5.6Y-4.01
X5.6Y-4.18
X5.6Y-4.24
X5.6Y-4.3
X5.635Y-3.93
X5.64Y-4.005
X5.66Y-3.675
X5.66Y-3.85
X5.7Y-3.85
X5.74Y-3.85
X5.77Y-3.61
X5.785Y-3.835
X5.805Y-3.7
X5.855Y-3.705
X5.87Y-3.87
X5.91Y-4.23
X5.95Y-3.905
T4
X5.08Y-4.52
X5.08Y-4.82
X5.18Y-4.52
X5.18Y-4.82
X5.28Y-4.82
X5.29Y-4.52
X5.53Y-3.535
X5.63Y-3.535
X5.73Y-3.535
X5.83Y-3.535
X5.93Y-3.535
T5
X5.48Y-4.74
X5.68Y-4.74
X5.88Y-4.74
T2
X5.1467Y-3.5734G85X5.1565Y-3.5734
G05
X5.3435Y-3.5734G85X5.3533Y-3.5734
G05
T3
X5.1122Y-3.4533G85X5.1122Y-3.4651
G05
X5.3878Y-3.4533G85X5.3878Y-3.4651
G05
T0
M30
