G04 #@! TF.FileFunction,Legend,Top*
%FSLAX46Y46*%
G04 Gerber Fmt 4.6, Leading zero omitted, Abs format (unit mm)*
G04 Created by KiCad (PCBNEW 4.0.1-stable) date 2/4/2016 12:26:45 PM*
%MOMM*%
G01*
G04 APERTURE LIST*
%ADD10C,0.100000*%
%ADD11C,0.150000*%
%ADD12C,0.203200*%
G04 APERTURE END LIST*
D10*
D11*
X143764000Y-92837000D02*
X145796000Y-92837000D01*
X143764000Y-91567000D02*
X145796000Y-91567000D01*
X141224000Y-105537000D02*
X139192000Y-105537000D01*
X141224000Y-106807000D02*
X139192000Y-106807000D01*
X129413000Y-92964000D02*
X129413000Y-94996000D01*
X130683000Y-92964000D02*
X130683000Y-94996000D01*
X141224000Y-107061000D02*
X139192000Y-107061000D01*
X141224000Y-108331000D02*
X139192000Y-108331000D01*
X134747000Y-92964000D02*
X134747000Y-94996000D01*
X136017000Y-92964000D02*
X136017000Y-94996000D01*
X141224000Y-108585000D02*
X139192000Y-108585000D01*
X141224000Y-109855000D02*
X139192000Y-109855000D01*
X138811000Y-100838000D02*
X138811000Y-98806000D01*
X137541000Y-100838000D02*
X137541000Y-98806000D01*
X149352000Y-91059000D02*
X149352000Y-88519000D01*
X151892000Y-91059000D02*
X139192000Y-91059000D01*
X139192000Y-91059000D02*
X139192000Y-88519000D01*
X139192000Y-88519000D02*
X151892000Y-88519000D01*
X151892000Y-88519000D02*
X151892000Y-91059000D01*
X136144000Y-116332000D02*
X152400000Y-116332000D01*
X152400000Y-116332000D02*
X152400000Y-123952000D01*
X152400000Y-123952000D02*
X136144000Y-123952000D01*
X136144000Y-116332000D02*
X136144000Y-123952000D01*
X130302000Y-123698000D02*
X130302000Y-121158000D01*
X130302000Y-121158000D02*
X127762000Y-121158000D01*
X127762000Y-113538000D02*
X135636000Y-113538000D01*
X135636000Y-113538000D02*
X135636000Y-123698000D01*
X135636000Y-123698000D02*
X127762000Y-123698000D01*
X127762000Y-123698000D02*
X127762000Y-113538000D01*
X148971000Y-92837000D02*
X151003000Y-92837000D01*
X148971000Y-91567000D02*
X151003000Y-91567000D01*
X129667000Y-108458000D02*
X129667000Y-106426000D01*
X128397000Y-108458000D02*
X128397000Y-106426000D01*
X134366000Y-108331000D02*
X136398000Y-108331000D01*
X134366000Y-107061000D02*
X136398000Y-107061000D01*
X136398000Y-108585000D02*
X134366000Y-108585000D01*
X136398000Y-109855000D02*
X134366000Y-109855000D01*
X136398000Y-105537000D02*
X134366000Y-105537000D01*
X136398000Y-106807000D02*
X134366000Y-106807000D01*
X143002000Y-109855000D02*
X145034000Y-109855000D01*
X143002000Y-108585000D02*
X145034000Y-108585000D01*
X143002000Y-108331000D02*
X145034000Y-108331000D01*
X143002000Y-107061000D02*
X145034000Y-107061000D01*
X143002000Y-106807000D02*
X145034000Y-106807000D01*
X143002000Y-105537000D02*
X145034000Y-105537000D01*
X132461000Y-94996000D02*
X132461000Y-92964000D01*
X131191000Y-94996000D02*
X131191000Y-92964000D01*
X134239000Y-94996000D02*
X134239000Y-92964000D01*
X132969000Y-94996000D02*
X132969000Y-92964000D01*
X144907000Y-115062000D02*
X144907000Y-113030000D01*
X143637000Y-115062000D02*
X143637000Y-113030000D01*
X148717000Y-113030000D02*
X148717000Y-115062000D01*
X149987000Y-113030000D02*
X149987000Y-115062000D01*
X133096000Y-105791000D02*
X133096000Y-107569000D01*
X133096000Y-107569000D02*
X130048000Y-107569000D01*
X130048000Y-107569000D02*
X130048000Y-105791000D01*
X130048000Y-105791000D02*
X133096000Y-105791000D01*
X151966000Y-97768000D02*
G75*
G03X151966000Y-97768000I-400000J0D01*
G01*
X152166000Y-101968000D02*
X152166000Y-97168000D01*
X152166000Y-97168000D02*
X141966000Y-97168000D01*
X141966000Y-97168000D02*
X141966000Y-101968000D01*
X141966000Y-101968000D02*
X152166000Y-101968000D01*
X134874000Y-102362000D02*
G75*
G03X134874000Y-102362000I-508000J0D01*
G01*
X131572000Y-96520000D02*
X131572000Y-102108000D01*
X131572000Y-102108000D02*
X133604000Y-102108000D01*
X133604000Y-102108000D02*
X133604000Y-96520000D01*
X133604000Y-96520000D02*
X131572000Y-96520000D01*
X129159000Y-104140000D02*
X131191000Y-104140000D01*
X129159000Y-102870000D02*
X131191000Y-102870000D01*
X151892000Y-105156000D02*
X149860000Y-105156000D01*
X151892000Y-106426000D02*
X149860000Y-106426000D01*
X137414000Y-89662000D02*
X137414000Y-91694000D01*
X138684000Y-89662000D02*
X138684000Y-91694000D01*
D12*
X144885834Y-94088857D02*
X144843500Y-94137238D01*
X144716500Y-94185619D01*
X144631834Y-94185619D01*
X144504834Y-94137238D01*
X144420167Y-94040476D01*
X144377834Y-93943714D01*
X144335500Y-93750190D01*
X144335500Y-93605048D01*
X144377834Y-93411524D01*
X144420167Y-93314762D01*
X144504834Y-93218000D01*
X144631834Y-93169619D01*
X144716500Y-93169619D01*
X144843500Y-93218000D01*
X144885834Y-93266381D01*
X145732500Y-94185619D02*
X145224500Y-94185619D01*
X145478500Y-94185619D02*
X145478500Y-93169619D01*
X145393834Y-93314762D01*
X145309167Y-93411524D01*
X145224500Y-93459905D01*
X138535834Y-105137857D02*
X138493500Y-105186238D01*
X138366500Y-105234619D01*
X138281834Y-105234619D01*
X138154834Y-105186238D01*
X138070167Y-105089476D01*
X138027834Y-104992714D01*
X137985500Y-104799190D01*
X137985500Y-104654048D01*
X138027834Y-104460524D01*
X138070167Y-104363762D01*
X138154834Y-104267000D01*
X138281834Y-104218619D01*
X138366500Y-104218619D01*
X138493500Y-104267000D01*
X138535834Y-104315381D01*
X138874500Y-104315381D02*
X138916834Y-104267000D01*
X139001500Y-104218619D01*
X139213167Y-104218619D01*
X139297834Y-104267000D01*
X139340167Y-104315381D01*
X139382500Y-104412143D01*
X139382500Y-104508905D01*
X139340167Y-104654048D01*
X138832167Y-105234619D01*
X139382500Y-105234619D01*
X128883834Y-92310857D02*
X128841500Y-92359238D01*
X128714500Y-92407619D01*
X128629834Y-92407619D01*
X128502834Y-92359238D01*
X128418167Y-92262476D01*
X128375834Y-92165714D01*
X128333500Y-91972190D01*
X128333500Y-91827048D01*
X128375834Y-91633524D01*
X128418167Y-91536762D01*
X128502834Y-91440000D01*
X128629834Y-91391619D01*
X128714500Y-91391619D01*
X128841500Y-91440000D01*
X128883834Y-91488381D01*
X129180167Y-91391619D02*
X129730500Y-91391619D01*
X129434167Y-91778667D01*
X129561167Y-91778667D01*
X129645834Y-91827048D01*
X129688167Y-91875429D01*
X129730500Y-91972190D01*
X129730500Y-92214095D01*
X129688167Y-92310857D01*
X129645834Y-92359238D01*
X129561167Y-92407619D01*
X129307167Y-92407619D01*
X129222500Y-92359238D01*
X129180167Y-92310857D01*
X137900834Y-107042857D02*
X137858500Y-107091238D01*
X137731500Y-107139619D01*
X137646834Y-107139619D01*
X137519834Y-107091238D01*
X137435167Y-106994476D01*
X137392834Y-106897714D01*
X137350500Y-106704190D01*
X137350500Y-106559048D01*
X137392834Y-106365524D01*
X137435167Y-106268762D01*
X137519834Y-106172000D01*
X137646834Y-106123619D01*
X137731500Y-106123619D01*
X137858500Y-106172000D01*
X137900834Y-106220381D01*
X138662834Y-106462286D02*
X138662834Y-107139619D01*
X138451167Y-106075238D02*
X138239500Y-106800952D01*
X138789834Y-106800952D01*
X136884834Y-94596857D02*
X136842500Y-94645238D01*
X136715500Y-94693619D01*
X136630834Y-94693619D01*
X136503834Y-94645238D01*
X136419167Y-94548476D01*
X136376834Y-94451714D01*
X136334500Y-94258190D01*
X136334500Y-94113048D01*
X136376834Y-93919524D01*
X136419167Y-93822762D01*
X136503834Y-93726000D01*
X136630834Y-93677619D01*
X136715500Y-93677619D01*
X136842500Y-93726000D01*
X136884834Y-93774381D01*
X137689167Y-93677619D02*
X137265834Y-93677619D01*
X137223500Y-94161429D01*
X137265834Y-94113048D01*
X137350500Y-94064667D01*
X137562167Y-94064667D01*
X137646834Y-94113048D01*
X137689167Y-94161429D01*
X137731500Y-94258190D01*
X137731500Y-94500095D01*
X137689167Y-94596857D01*
X137646834Y-94645238D01*
X137562167Y-94693619D01*
X137350500Y-94693619D01*
X137265834Y-94645238D01*
X137223500Y-94596857D01*
X140059834Y-111106857D02*
X140017500Y-111155238D01*
X139890500Y-111203619D01*
X139805834Y-111203619D01*
X139678834Y-111155238D01*
X139594167Y-111058476D01*
X139551834Y-110961714D01*
X139509500Y-110768190D01*
X139509500Y-110623048D01*
X139551834Y-110429524D01*
X139594167Y-110332762D01*
X139678834Y-110236000D01*
X139805834Y-110187619D01*
X139890500Y-110187619D01*
X140017500Y-110236000D01*
X140059834Y-110284381D01*
X140821834Y-110187619D02*
X140652500Y-110187619D01*
X140567834Y-110236000D01*
X140525500Y-110284381D01*
X140440834Y-110429524D01*
X140398500Y-110623048D01*
X140398500Y-111010095D01*
X140440834Y-111106857D01*
X140483167Y-111155238D01*
X140567834Y-111203619D01*
X140737167Y-111203619D01*
X140821834Y-111155238D01*
X140864167Y-111106857D01*
X140906500Y-111010095D01*
X140906500Y-110768190D01*
X140864167Y-110671429D01*
X140821834Y-110623048D01*
X140737167Y-110574667D01*
X140567834Y-110574667D01*
X140483167Y-110623048D01*
X140440834Y-110671429D01*
X140398500Y-110768190D01*
X139678834Y-100438857D02*
X139636500Y-100487238D01*
X139509500Y-100535619D01*
X139424834Y-100535619D01*
X139297834Y-100487238D01*
X139213167Y-100390476D01*
X139170834Y-100293714D01*
X139128500Y-100100190D01*
X139128500Y-99955048D01*
X139170834Y-99761524D01*
X139213167Y-99664762D01*
X139297834Y-99568000D01*
X139424834Y-99519619D01*
X139509500Y-99519619D01*
X139636500Y-99568000D01*
X139678834Y-99616381D01*
X139975167Y-99519619D02*
X140567834Y-99519619D01*
X140186834Y-100535619D01*
D11*
X152296905Y-90241381D02*
X152296905Y-89241381D01*
X152677858Y-89241381D01*
X152773096Y-89289000D01*
X152820715Y-89336619D01*
X152868334Y-89431857D01*
X152868334Y-89574714D01*
X152820715Y-89669952D01*
X152773096Y-89717571D01*
X152677858Y-89765190D01*
X152296905Y-89765190D01*
X153820715Y-90241381D02*
X153249286Y-90241381D01*
X153535000Y-90241381D02*
X153535000Y-89241381D01*
X153439762Y-89384238D01*
X153344524Y-89479476D01*
X153249286Y-89527095D01*
X141374905Y-115895381D02*
X141374905Y-114895381D01*
X141755858Y-114895381D01*
X141851096Y-114943000D01*
X141898715Y-114990619D01*
X141946334Y-115085857D01*
X141946334Y-115228714D01*
X141898715Y-115323952D01*
X141851096Y-115371571D01*
X141755858Y-115419190D01*
X141374905Y-115419190D01*
X142279667Y-114895381D02*
X142898715Y-114895381D01*
X142565381Y-115276333D01*
X142708239Y-115276333D01*
X142803477Y-115323952D01*
X142851096Y-115371571D01*
X142898715Y-115466810D01*
X142898715Y-115704905D01*
X142851096Y-115800143D01*
X142803477Y-115847762D01*
X142708239Y-115895381D01*
X142422524Y-115895381D01*
X142327286Y-115847762D01*
X142279667Y-115800143D01*
X130833905Y-113228381D02*
X130833905Y-112228381D01*
X131214858Y-112228381D01*
X131310096Y-112276000D01*
X131357715Y-112323619D01*
X131405334Y-112418857D01*
X131405334Y-112561714D01*
X131357715Y-112656952D01*
X131310096Y-112704571D01*
X131214858Y-112752190D01*
X130833905Y-112752190D01*
X132262477Y-112561714D02*
X132262477Y-113228381D01*
X132024381Y-112180762D02*
X131786286Y-112895048D01*
X132405334Y-112895048D01*
D12*
X149838834Y-94185619D02*
X149542500Y-93701810D01*
X149330834Y-94185619D02*
X149330834Y-93169619D01*
X149669500Y-93169619D01*
X149754167Y-93218000D01*
X149796500Y-93266381D01*
X149838834Y-93363143D01*
X149838834Y-93508286D01*
X149796500Y-93605048D01*
X149754167Y-93653429D01*
X149669500Y-93701810D01*
X149330834Y-93701810D01*
X150685500Y-94185619D02*
X150177500Y-94185619D01*
X150431500Y-94185619D02*
X150431500Y-93169619D01*
X150346834Y-93314762D01*
X150262167Y-93411524D01*
X150177500Y-93459905D01*
X128883834Y-110060619D02*
X128587500Y-109576810D01*
X128375834Y-110060619D02*
X128375834Y-109044619D01*
X128714500Y-109044619D01*
X128799167Y-109093000D01*
X128841500Y-109141381D01*
X128883834Y-109238143D01*
X128883834Y-109383286D01*
X128841500Y-109480048D01*
X128799167Y-109528429D01*
X128714500Y-109576810D01*
X128375834Y-109576810D01*
X129222500Y-109141381D02*
X129264834Y-109093000D01*
X129349500Y-109044619D01*
X129561167Y-109044619D01*
X129645834Y-109093000D01*
X129688167Y-109141381D01*
X129730500Y-109238143D01*
X129730500Y-109334905D01*
X129688167Y-109480048D01*
X129180167Y-110060619D01*
X129730500Y-110060619D01*
X137392834Y-109171619D02*
X137096500Y-108687810D01*
X136884834Y-109171619D02*
X136884834Y-108155619D01*
X137223500Y-108155619D01*
X137308167Y-108204000D01*
X137350500Y-108252381D01*
X137392834Y-108349143D01*
X137392834Y-108494286D01*
X137350500Y-108591048D01*
X137308167Y-108639429D01*
X137223500Y-108687810D01*
X136884834Y-108687810D01*
X137689167Y-108155619D02*
X138239500Y-108155619D01*
X137943167Y-108542667D01*
X138070167Y-108542667D01*
X138154834Y-108591048D01*
X138197167Y-108639429D01*
X138239500Y-108736190D01*
X138239500Y-108978095D01*
X138197167Y-109074857D01*
X138154834Y-109123238D01*
X138070167Y-109171619D01*
X137816167Y-109171619D01*
X137731500Y-109123238D01*
X137689167Y-109074857D01*
X135360834Y-111076619D02*
X135064500Y-110592810D01*
X134852834Y-111076619D02*
X134852834Y-110060619D01*
X135191500Y-110060619D01*
X135276167Y-110109000D01*
X135318500Y-110157381D01*
X135360834Y-110254143D01*
X135360834Y-110399286D01*
X135318500Y-110496048D01*
X135276167Y-110544429D01*
X135191500Y-110592810D01*
X134852834Y-110592810D01*
X136122834Y-110399286D02*
X136122834Y-111076619D01*
X135911167Y-110012238D02*
X135699500Y-110737952D01*
X136249834Y-110737952D01*
X135233834Y-105234619D02*
X134937500Y-104750810D01*
X134725834Y-105234619D02*
X134725834Y-104218619D01*
X135064500Y-104218619D01*
X135149167Y-104267000D01*
X135191500Y-104315381D01*
X135233834Y-104412143D01*
X135233834Y-104557286D01*
X135191500Y-104654048D01*
X135149167Y-104702429D01*
X135064500Y-104750810D01*
X134725834Y-104750810D01*
X136038167Y-104218619D02*
X135614834Y-104218619D01*
X135572500Y-104702429D01*
X135614834Y-104654048D01*
X135699500Y-104605667D01*
X135911167Y-104605667D01*
X135995834Y-104654048D01*
X136038167Y-104702429D01*
X136080500Y-104799190D01*
X136080500Y-105041095D01*
X136038167Y-105137857D01*
X135995834Y-105186238D01*
X135911167Y-105234619D01*
X135699500Y-105234619D01*
X135614834Y-105186238D01*
X135572500Y-105137857D01*
X146155834Y-109679619D02*
X145859500Y-109195810D01*
X145647834Y-109679619D02*
X145647834Y-108663619D01*
X145986500Y-108663619D01*
X146071167Y-108712000D01*
X146113500Y-108760381D01*
X146155834Y-108857143D01*
X146155834Y-109002286D01*
X146113500Y-109099048D01*
X146071167Y-109147429D01*
X145986500Y-109195810D01*
X145647834Y-109195810D01*
X146917834Y-108663619D02*
X146748500Y-108663619D01*
X146663834Y-108712000D01*
X146621500Y-108760381D01*
X146536834Y-108905524D01*
X146494500Y-109099048D01*
X146494500Y-109486095D01*
X146536834Y-109582857D01*
X146579167Y-109631238D01*
X146663834Y-109679619D01*
X146833167Y-109679619D01*
X146917834Y-109631238D01*
X146960167Y-109582857D01*
X147002500Y-109486095D01*
X147002500Y-109244190D01*
X146960167Y-109147429D01*
X146917834Y-109099048D01*
X146833167Y-109050667D01*
X146663834Y-109050667D01*
X146579167Y-109099048D01*
X146536834Y-109147429D01*
X146494500Y-109244190D01*
X146155834Y-108155619D02*
X145859500Y-107671810D01*
X145647834Y-108155619D02*
X145647834Y-107139619D01*
X145986500Y-107139619D01*
X146071167Y-107188000D01*
X146113500Y-107236381D01*
X146155834Y-107333143D01*
X146155834Y-107478286D01*
X146113500Y-107575048D01*
X146071167Y-107623429D01*
X145986500Y-107671810D01*
X145647834Y-107671810D01*
X146452167Y-107139619D02*
X147044834Y-107139619D01*
X146663834Y-108155619D01*
X146155834Y-106631619D02*
X145859500Y-106147810D01*
X145647834Y-106631619D02*
X145647834Y-105615619D01*
X145986500Y-105615619D01*
X146071167Y-105664000D01*
X146113500Y-105712381D01*
X146155834Y-105809143D01*
X146155834Y-105954286D01*
X146113500Y-106051048D01*
X146071167Y-106099429D01*
X145986500Y-106147810D01*
X145647834Y-106147810D01*
X146663834Y-106051048D02*
X146579167Y-106002667D01*
X146536834Y-105954286D01*
X146494500Y-105857524D01*
X146494500Y-105809143D01*
X146536834Y-105712381D01*
X146579167Y-105664000D01*
X146663834Y-105615619D01*
X146833167Y-105615619D01*
X146917834Y-105664000D01*
X146960167Y-105712381D01*
X147002500Y-105809143D01*
X147002500Y-105857524D01*
X146960167Y-105954286D01*
X146917834Y-106002667D01*
X146833167Y-106051048D01*
X146663834Y-106051048D01*
X146579167Y-106099429D01*
X146536834Y-106147810D01*
X146494500Y-106244571D01*
X146494500Y-106438095D01*
X146536834Y-106534857D01*
X146579167Y-106583238D01*
X146663834Y-106631619D01*
X146833167Y-106631619D01*
X146917834Y-106583238D01*
X146960167Y-106534857D01*
X147002500Y-106438095D01*
X147002500Y-106244571D01*
X146960167Y-106147810D01*
X146917834Y-106099429D01*
X146833167Y-106051048D01*
X132185834Y-92407619D02*
X131889500Y-91923810D01*
X131677834Y-92407619D02*
X131677834Y-91391619D01*
X132016500Y-91391619D01*
X132101167Y-91440000D01*
X132143500Y-91488381D01*
X132185834Y-91585143D01*
X132185834Y-91730286D01*
X132143500Y-91827048D01*
X132101167Y-91875429D01*
X132016500Y-91923810D01*
X131677834Y-91923810D01*
X132609167Y-92407619D02*
X132778500Y-92407619D01*
X132863167Y-92359238D01*
X132905500Y-92310857D01*
X132990167Y-92165714D01*
X133032500Y-91972190D01*
X133032500Y-91585143D01*
X132990167Y-91488381D01*
X132947834Y-91440000D01*
X132863167Y-91391619D01*
X132693834Y-91391619D01*
X132609167Y-91440000D01*
X132566834Y-91488381D01*
X132524500Y-91585143D01*
X132524500Y-91827048D01*
X132566834Y-91923810D01*
X132609167Y-91972190D01*
X132693834Y-92020571D01*
X132863167Y-92020571D01*
X132947834Y-91972190D01*
X132990167Y-91923810D01*
X133032500Y-91827048D01*
X134048500Y-92407619D02*
X133752166Y-91923810D01*
X133540500Y-92407619D02*
X133540500Y-91391619D01*
X133879166Y-91391619D01*
X133963833Y-91440000D01*
X134006166Y-91488381D01*
X134048500Y-91585143D01*
X134048500Y-91730286D01*
X134006166Y-91827048D01*
X133963833Y-91875429D01*
X133879166Y-91923810D01*
X133540500Y-91923810D01*
X134895166Y-92407619D02*
X134387166Y-92407619D01*
X134641166Y-92407619D02*
X134641166Y-91391619D01*
X134556500Y-91536762D01*
X134471833Y-91633524D01*
X134387166Y-91681905D01*
X135445500Y-91391619D02*
X135530167Y-91391619D01*
X135614833Y-91440000D01*
X135657167Y-91488381D01*
X135699500Y-91585143D01*
X135741833Y-91778667D01*
X135741833Y-92020571D01*
X135699500Y-92214095D01*
X135657167Y-92310857D01*
X135614833Y-92359238D01*
X135530167Y-92407619D01*
X135445500Y-92407619D01*
X135360833Y-92359238D01*
X135318500Y-92310857D01*
X135276167Y-92214095D01*
X135233833Y-92020571D01*
X135233833Y-91778667D01*
X135276167Y-91585143D01*
X135318500Y-91488381D01*
X135360833Y-91440000D01*
X135445500Y-91391619D01*
X143700500Y-112473619D02*
X143404166Y-111989810D01*
X143192500Y-112473619D02*
X143192500Y-111457619D01*
X143531166Y-111457619D01*
X143615833Y-111506000D01*
X143658166Y-111554381D01*
X143700500Y-111651143D01*
X143700500Y-111796286D01*
X143658166Y-111893048D01*
X143615833Y-111941429D01*
X143531166Y-111989810D01*
X143192500Y-111989810D01*
X144547166Y-112473619D02*
X144039166Y-112473619D01*
X144293166Y-112473619D02*
X144293166Y-111457619D01*
X144208500Y-111602762D01*
X144123833Y-111699524D01*
X144039166Y-111747905D01*
X145393833Y-112473619D02*
X144885833Y-112473619D01*
X145139833Y-112473619D02*
X145139833Y-111457619D01*
X145055167Y-111602762D01*
X144970500Y-111699524D01*
X144885833Y-111747905D01*
X148780500Y-112473619D02*
X148484166Y-111989810D01*
X148272500Y-112473619D02*
X148272500Y-111457619D01*
X148611166Y-111457619D01*
X148695833Y-111506000D01*
X148738166Y-111554381D01*
X148780500Y-111651143D01*
X148780500Y-111796286D01*
X148738166Y-111893048D01*
X148695833Y-111941429D01*
X148611166Y-111989810D01*
X148272500Y-111989810D01*
X149627166Y-112473619D02*
X149119166Y-112473619D01*
X149373166Y-112473619D02*
X149373166Y-111457619D01*
X149288500Y-111602762D01*
X149203833Y-111699524D01*
X149119166Y-111747905D01*
X149965833Y-111554381D02*
X150008167Y-111506000D01*
X150092833Y-111457619D01*
X150304500Y-111457619D01*
X150389167Y-111506000D01*
X150431500Y-111554381D01*
X150473833Y-111651143D01*
X150473833Y-111747905D01*
X150431500Y-111893048D01*
X149923500Y-112473619D01*
X150473833Y-112473619D01*
D11*
X132207095Y-108799381D02*
X132207095Y-109608905D01*
X132254714Y-109704143D01*
X132302333Y-109751762D01*
X132397571Y-109799381D01*
X132588048Y-109799381D01*
X132683286Y-109751762D01*
X132730905Y-109704143D01*
X132778524Y-109608905D01*
X132778524Y-108799381D01*
X133778524Y-109799381D02*
X133207095Y-109799381D01*
X133492809Y-109799381D02*
X133492809Y-108799381D01*
X133397571Y-108942238D01*
X133302333Y-109037476D01*
X133207095Y-109085095D01*
X152487381Y-100329905D02*
X153296905Y-100329905D01*
X153392143Y-100282286D01*
X153439762Y-100234667D01*
X153487381Y-100139429D01*
X153487381Y-99948952D01*
X153439762Y-99853714D01*
X153392143Y-99806095D01*
X153296905Y-99758476D01*
X152487381Y-99758476D01*
X152582619Y-99329905D02*
X152535000Y-99282286D01*
X152487381Y-99187048D01*
X152487381Y-98948952D01*
X152535000Y-98853714D01*
X152582619Y-98806095D01*
X152677857Y-98758476D01*
X152773095Y-98758476D01*
X152915952Y-98806095D01*
X153487381Y-99377524D01*
X153487381Y-98758476D01*
X136626714Y-96497857D02*
X136626714Y-97469286D01*
X136683857Y-97583571D01*
X136741000Y-97640714D01*
X136855286Y-97697857D01*
X137083857Y-97697857D01*
X137198143Y-97640714D01*
X137255286Y-97583571D01*
X137312429Y-97469286D01*
X137312429Y-96497857D01*
X137769572Y-96497857D02*
X138512429Y-96497857D01*
X138112429Y-96955000D01*
X138283857Y-96955000D01*
X138398143Y-97012143D01*
X138455286Y-97069286D01*
X138512429Y-97183571D01*
X138512429Y-97469286D01*
X138455286Y-97583571D01*
X138398143Y-97640714D01*
X138283857Y-97697857D01*
X137941000Y-97697857D01*
X137826714Y-97640714D01*
X137769572Y-97583571D01*
D12*
X132312834Y-103613857D02*
X132270500Y-103662238D01*
X132143500Y-103710619D01*
X132058834Y-103710619D01*
X131931834Y-103662238D01*
X131847167Y-103565476D01*
X131804834Y-103468714D01*
X131762500Y-103275190D01*
X131762500Y-103130048D01*
X131804834Y-102936524D01*
X131847167Y-102839762D01*
X131931834Y-102743000D01*
X132058834Y-102694619D01*
X132143500Y-102694619D01*
X132270500Y-102743000D01*
X132312834Y-102791381D01*
X132736167Y-103710619D02*
X132905500Y-103710619D01*
X132990167Y-103662238D01*
X133032500Y-103613857D01*
X133117167Y-103468714D01*
X133159500Y-103275190D01*
X133159500Y-102888143D01*
X133117167Y-102791381D01*
X133074834Y-102743000D01*
X132990167Y-102694619D01*
X132820834Y-102694619D01*
X132736167Y-102743000D01*
X132693834Y-102791381D01*
X132651500Y-102888143D01*
X132651500Y-103130048D01*
X132693834Y-103226810D01*
X132736167Y-103275190D01*
X132820834Y-103323571D01*
X132990167Y-103323571D01*
X133074834Y-103275190D01*
X133117167Y-103226810D01*
X133159500Y-103130048D01*
X151193500Y-107677857D02*
X151151166Y-107726238D01*
X151024166Y-107774619D01*
X150939500Y-107774619D01*
X150812500Y-107726238D01*
X150727833Y-107629476D01*
X150685500Y-107532714D01*
X150643166Y-107339190D01*
X150643166Y-107194048D01*
X150685500Y-107000524D01*
X150727833Y-106903762D01*
X150812500Y-106807000D01*
X150939500Y-106758619D01*
X151024166Y-106758619D01*
X151151166Y-106807000D01*
X151193500Y-106855381D01*
X152040166Y-107774619D02*
X151532166Y-107774619D01*
X151786166Y-107774619D02*
X151786166Y-106758619D01*
X151701500Y-106903762D01*
X151616833Y-107000524D01*
X151532166Y-107048905D01*
X152590500Y-106758619D02*
X152675167Y-106758619D01*
X152759833Y-106807000D01*
X152802167Y-106855381D01*
X152844500Y-106952143D01*
X152886833Y-107145667D01*
X152886833Y-107387571D01*
X152844500Y-107581095D01*
X152802167Y-107677857D01*
X152759833Y-107726238D01*
X152675167Y-107774619D01*
X152590500Y-107774619D01*
X152505833Y-107726238D01*
X152463500Y-107677857D01*
X152421167Y-107581095D01*
X152378833Y-107387571D01*
X152378833Y-107145667D01*
X152421167Y-106952143D01*
X152463500Y-106855381D01*
X152505833Y-106807000D01*
X152590500Y-106758619D01*
X139763500Y-92310857D02*
X139721166Y-92359238D01*
X139594166Y-92407619D01*
X139509500Y-92407619D01*
X139382500Y-92359238D01*
X139297833Y-92262476D01*
X139255500Y-92165714D01*
X139213166Y-91972190D01*
X139213166Y-91827048D01*
X139255500Y-91633524D01*
X139297833Y-91536762D01*
X139382500Y-91440000D01*
X139509500Y-91391619D01*
X139594166Y-91391619D01*
X139721166Y-91440000D01*
X139763500Y-91488381D01*
X140610166Y-92407619D02*
X140102166Y-92407619D01*
X140356166Y-92407619D02*
X140356166Y-91391619D01*
X140271500Y-91536762D01*
X140186833Y-91633524D01*
X140102166Y-91681905D01*
X141456833Y-92407619D02*
X140948833Y-92407619D01*
X141202833Y-92407619D02*
X141202833Y-91391619D01*
X141118167Y-91536762D01*
X141033500Y-91633524D01*
X140948833Y-91681905D01*
M02*
