G04 #@! TF.FileFunction,Copper,L1,Top,Signal*
%FSLAX46Y46*%
G04 Gerber Fmt 4.6, Leading zero omitted, Abs format (unit mm)*
G04 Created by KiCad (PCBNEW 4.0.1-stable) date 2/4/2016 12:26:45 PM*
%MOMM*%
G01*
G04 APERTURE LIST*
%ADD10C,0.100000*%
%ADD11R,0.787400X0.863600*%
%ADD12R,0.863600X0.787400*%
%ADD13R,1.778000X1.778000*%
%ADD14C,1.778000*%
%ADD15R,2.540000X2.540000*%
%ADD16C,2.540000*%
%ADD17R,0.508000X0.762000*%
%ADD18R,0.400000X1.750000*%
%ADD19R,2.200000X0.254000*%
%ADD20O,1.400000X1.150000*%
%ADD21O,1.325000X1.700000*%
%ADD22C,0.600000*%
%ADD23C,0.250000*%
%ADD24C,0.203200*%
G04 APERTURE END LIST*
D10*
D11*
X144018000Y-92202000D03*
X145542000Y-92202000D03*
X140970000Y-106172000D03*
X139446000Y-106172000D03*
D12*
X130048000Y-93218000D03*
X130048000Y-94742000D03*
D11*
X140970000Y-107696000D03*
X139446000Y-107696000D03*
D12*
X135382000Y-93218000D03*
X135382000Y-94742000D03*
D11*
X140970000Y-109220000D03*
X139446000Y-109220000D03*
D12*
X138176000Y-100584000D03*
X138176000Y-99060000D03*
D13*
X150622000Y-89789000D03*
D14*
X148082000Y-89789000D03*
X145542000Y-89789000D03*
X143002000Y-89789000D03*
X140462000Y-89789000D03*
D15*
X139192000Y-120396000D03*
D16*
X144272000Y-120396000D03*
X149352000Y-120396000D03*
D14*
X129032000Y-122428000D03*
X131572000Y-122428000D03*
X134112000Y-122428000D03*
X134366000Y-114808000D03*
X131572000Y-114808000D03*
X129032000Y-114808000D03*
D11*
X149225000Y-92202000D03*
X150749000Y-92202000D03*
D12*
X129032000Y-108204000D03*
X129032000Y-106680000D03*
D11*
X134620000Y-107696000D03*
X136144000Y-107696000D03*
X136144000Y-109220000D03*
X134620000Y-109220000D03*
X136144000Y-106172000D03*
X134620000Y-106172000D03*
X143256000Y-109220000D03*
X144780000Y-109220000D03*
X143256000Y-107696000D03*
X144780000Y-107696000D03*
X143256000Y-106172000D03*
X144780000Y-106172000D03*
D12*
X131826000Y-94742000D03*
X131826000Y-93218000D03*
X133604000Y-94742000D03*
X133604000Y-93218000D03*
X144272000Y-114808000D03*
X144272000Y-113284000D03*
X149352000Y-113284000D03*
X149352000Y-114808000D03*
D17*
X130619500Y-107950000D03*
X132524500Y-107950000D03*
X130619500Y-105410000D03*
X131572000Y-107950000D03*
X132524500Y-105410000D03*
D18*
X151291000Y-95968000D03*
X150641000Y-95968000D03*
X149991000Y-95968000D03*
X149341000Y-95968000D03*
X148691000Y-95968000D03*
X148041000Y-95968000D03*
X147391000Y-95968000D03*
X146741000Y-95968000D03*
X146091000Y-95968000D03*
X145441000Y-95968000D03*
X144791000Y-95968000D03*
X144141000Y-95968000D03*
X143491000Y-95968000D03*
X142841000Y-95968000D03*
X142841000Y-103168000D03*
X143491000Y-103168000D03*
X144141000Y-103168000D03*
X144791000Y-103168000D03*
X145441000Y-103168000D03*
X146091000Y-103168000D03*
X146741000Y-103168000D03*
X147391000Y-103168000D03*
X148041000Y-103168000D03*
X148691000Y-103168000D03*
X149341000Y-103168000D03*
X149991000Y-103168000D03*
X150641000Y-103168000D03*
X151291000Y-103168000D03*
D19*
X130048000Y-101536500D03*
X135128000Y-101536500D03*
X130048000Y-100901500D03*
X135128000Y-100901500D03*
X130048000Y-100266500D03*
X135128000Y-100266500D03*
X130048000Y-99631500D03*
X135128000Y-99631500D03*
X130048000Y-98996500D03*
X135128000Y-98996500D03*
X130048000Y-98361500D03*
X135128000Y-98361500D03*
X130048000Y-97726500D03*
X135128000Y-97726500D03*
X130048000Y-97091500D03*
X135128000Y-97091500D03*
D20*
X130850000Y-90764000D03*
X135850000Y-90764000D03*
D21*
X129850000Y-87864000D03*
X136850000Y-87864000D03*
D11*
X129413000Y-103505000D03*
X130937000Y-103505000D03*
X151638000Y-105791000D03*
X150114000Y-105791000D03*
D12*
X138049000Y-89916000D03*
X138049000Y-91440000D03*
D22*
X131318000Y-89281000D03*
X146558000Y-91694000D03*
X138684000Y-92075000D03*
X131699000Y-104267000D03*
X150114000Y-107442000D03*
X137668000Y-98044000D03*
X130937000Y-95631000D03*
X136652000Y-95250000D03*
X131826000Y-99568000D03*
X139954000Y-105029000D03*
X131572000Y-109220000D03*
X146939000Y-97409000D03*
X137287000Y-107696000D03*
X145796000Y-97790000D03*
X142240000Y-106172000D03*
X132715000Y-92329000D03*
X144780000Y-97790000D03*
X142240000Y-107696000D03*
X133604000Y-92329000D03*
X143764000Y-97790000D03*
X142240000Y-109220000D03*
X142240000Y-101854000D03*
X141732000Y-98171000D03*
X147447000Y-93980000D03*
X130556000Y-108966000D03*
X140208000Y-114046000D03*
X141732000Y-114046000D03*
X137414000Y-103124000D03*
X148717000Y-94107000D03*
X139573000Y-98933000D03*
X136779000Y-101727000D03*
X131953000Y-100838000D03*
X137287000Y-93345000D03*
X140970000Y-93345000D03*
X143764000Y-93345000D03*
X143256000Y-101727000D03*
X143129000Y-99822000D03*
X149098000Y-98298000D03*
X151130000Y-99187000D03*
X137160000Y-110363000D03*
D23*
X138049000Y-89916000D02*
X138049000Y-88900000D01*
X130048000Y-98996500D02*
X128333500Y-98996500D01*
X128333500Y-98996500D02*
X128270000Y-99060000D01*
X143491000Y-95968000D02*
X143491000Y-94850000D01*
X142875000Y-93345000D02*
X144018000Y-92202000D01*
X142875000Y-94234000D02*
X142875000Y-93345000D01*
X143491000Y-94850000D02*
X142875000Y-94234000D01*
X144018000Y-92202000D02*
X144018000Y-90805000D01*
X144018000Y-90805000D02*
X144272000Y-90551000D01*
X144272000Y-90551000D02*
X144272000Y-88519000D01*
X143510000Y-95949000D02*
X143491000Y-95968000D01*
X144018000Y-92202000D02*
X144272000Y-91948000D01*
X130619500Y-105410000D02*
X129667000Y-105410000D01*
X129667000Y-105410000D02*
X129159000Y-104902000D01*
X150749000Y-92202000D02*
X151511000Y-91440000D01*
X151511000Y-91440000D02*
X151511000Y-90678000D01*
X151511000Y-90678000D02*
X150622000Y-89789000D01*
X130619500Y-105410000D02*
X130619500Y-105346500D01*
X145542000Y-92202000D02*
X146050000Y-91694000D01*
X146050000Y-91694000D02*
X146558000Y-91694000D01*
X145542000Y-92202000D02*
X145161000Y-91821000D01*
X145161000Y-91821000D02*
X144907000Y-91567000D01*
X144907000Y-91567000D02*
X144780000Y-91440000D01*
X144780000Y-91440000D02*
X144780000Y-90551000D01*
X144780000Y-90551000D02*
X145542000Y-89789000D01*
X138049000Y-91440000D02*
X138557000Y-91948000D01*
X138557000Y-91948000D02*
X138684000Y-92075000D01*
X130937000Y-103505000D02*
X131445000Y-104013000D01*
X131445000Y-104013000D02*
X131699000Y-104267000D01*
X150114000Y-105791000D02*
X150495000Y-106172000D01*
X150495000Y-106172000D02*
X150495000Y-106553000D01*
X150114000Y-106934000D02*
X150114000Y-107442000D01*
X150495000Y-106553000D02*
X150114000Y-106934000D01*
X150641000Y-103168000D02*
X150641000Y-105264000D01*
X150641000Y-105264000D02*
X150114000Y-105791000D01*
X138176000Y-99060000D02*
X137668000Y-98552000D01*
X137668000Y-98552000D02*
X137668000Y-98044000D01*
X130048000Y-94742000D02*
X130810000Y-95504000D01*
X130810000Y-95504000D02*
X130937000Y-95631000D01*
X135382000Y-94742000D02*
X135890000Y-95250000D01*
X135890000Y-95250000D02*
X136652000Y-95250000D01*
X130048000Y-99631500D02*
X131762500Y-99631500D01*
X131762500Y-99631500D02*
X131826000Y-99568000D01*
X139446000Y-106172000D02*
X139954000Y-105664000D01*
X139954000Y-105664000D02*
X139954000Y-105029000D01*
X131572000Y-107950000D02*
X131572000Y-109220000D01*
X146741000Y-95968000D02*
X146741000Y-97211000D01*
X146741000Y-97211000D02*
X146939000Y-97409000D01*
X135128000Y-98996500D02*
X138112500Y-98996500D01*
X138112500Y-98996500D02*
X138176000Y-99060000D01*
X139446000Y-107696000D02*
X139954000Y-107188000D01*
X139954000Y-106680000D02*
X139446000Y-106172000D01*
X139954000Y-107188000D02*
X139954000Y-106680000D01*
X139446000Y-109220000D02*
X139954000Y-108712000D01*
X139954000Y-108204000D02*
X139446000Y-107696000D01*
X139954000Y-108712000D02*
X139954000Y-108204000D01*
X137287000Y-107696000D02*
X136144000Y-107696000D01*
X140970000Y-106172000D02*
X141478000Y-105664000D01*
X141732000Y-105664000D02*
X142240000Y-106172000D01*
X141478000Y-105664000D02*
X141732000Y-105664000D01*
X145441000Y-95968000D02*
X145441000Y-97435000D01*
X145796000Y-97790000D02*
X145441000Y-97435000D01*
X142240000Y-106172000D02*
X143256000Y-106172000D01*
X130048000Y-93218000D02*
X130556000Y-93726000D01*
X131318000Y-93726000D02*
X131826000Y-93218000D01*
X130556000Y-93726000D02*
X131318000Y-93726000D01*
X131826000Y-93218000D02*
X132715000Y-92329000D01*
X140970000Y-107696000D02*
X141478000Y-107188000D01*
X141732000Y-107188000D02*
X142240000Y-107696000D01*
X141478000Y-107188000D02*
X141732000Y-107188000D01*
X143256000Y-107696000D02*
X142240000Y-107696000D01*
X144791000Y-97779000D02*
X144791000Y-95968000D01*
X144780000Y-97790000D02*
X144791000Y-97779000D01*
X133604000Y-93218000D02*
X134112000Y-93726000D01*
X134874000Y-93726000D02*
X135382000Y-93218000D01*
X134112000Y-93726000D02*
X134874000Y-93726000D01*
X133604000Y-93218000D02*
X133604000Y-92329000D01*
X139192000Y-120396000D02*
X137541000Y-118745000D01*
X132715000Y-118745000D02*
X129032000Y-122428000D01*
X137541000Y-118745000D02*
X132715000Y-118745000D01*
X140970000Y-109220000D02*
X140970000Y-118618000D01*
X140970000Y-118618000D02*
X139192000Y-120396000D01*
X140970000Y-109220000D02*
X141478000Y-108712000D01*
X141732000Y-108712000D02*
X142240000Y-109220000D01*
X141478000Y-108712000D02*
X141732000Y-108712000D01*
X143256000Y-109220000D02*
X142240000Y-109220000D01*
X144141000Y-97413000D02*
X144141000Y-95968000D01*
X143764000Y-97790000D02*
X144141000Y-97413000D01*
X135128000Y-100266500D02*
X133667500Y-100266500D01*
X131762500Y-98361500D02*
X130048000Y-98361500D01*
X133667500Y-100266500D02*
X131762500Y-98361500D01*
X130048000Y-98361500D02*
X130048000Y-97726500D01*
X138176000Y-100584000D02*
X137414000Y-100584000D01*
X137160000Y-100330000D02*
X135191500Y-100330000D01*
X137414000Y-100584000D02*
X137160000Y-100330000D01*
X135191500Y-100330000D02*
X135128000Y-100266500D01*
X149225000Y-92202000D02*
X148209000Y-91186000D01*
X148082000Y-91059000D02*
X148082000Y-89789000D01*
X148209000Y-91186000D02*
X148082000Y-91059000D01*
X151291000Y-95968000D02*
X151291000Y-94268000D01*
X151291000Y-94268000D02*
X149225000Y-92202000D01*
X142841000Y-95968000D02*
X142841000Y-95343000D01*
X142841000Y-95343000D02*
X142240000Y-94742000D01*
X142240000Y-94742000D02*
X142240000Y-90551000D01*
X142240000Y-90551000D02*
X143002000Y-89789000D01*
X142841000Y-89950000D02*
X143002000Y-89789000D01*
X141732000Y-98171000D02*
X141732000Y-91059000D01*
X142841000Y-102455000D02*
X142240000Y-101854000D01*
X141732000Y-91059000D02*
X140462000Y-89789000D01*
X142841000Y-103168000D02*
X142841000Y-102455000D01*
X130619500Y-107950000D02*
X130619500Y-108902500D01*
X147391000Y-94036000D02*
X147391000Y-95968000D01*
X147447000Y-93980000D02*
X147391000Y-94036000D01*
X130619500Y-108902500D02*
X130556000Y-108966000D01*
X129032000Y-108204000D02*
X129159000Y-108204000D01*
X129159000Y-108204000D02*
X129413000Y-107950000D01*
X129413000Y-107950000D02*
X130619500Y-107950000D01*
X129032000Y-106680000D02*
X131254500Y-106680000D01*
X131254500Y-106680000D02*
X132524500Y-105410000D01*
X134620000Y-106172000D02*
X134112000Y-106680000D01*
X133794500Y-106680000D02*
X132524500Y-105410000D01*
X134112000Y-106680000D02*
X133794500Y-106680000D01*
X134620000Y-107696000D02*
X135128000Y-108204000D01*
X135128000Y-108712000D02*
X134620000Y-109220000D01*
X135128000Y-108204000D02*
X135128000Y-108712000D01*
X132524500Y-107950000D02*
X134366000Y-107950000D01*
X134366000Y-107950000D02*
X134620000Y-107696000D01*
X148041000Y-103168000D02*
X148041000Y-104353000D01*
X148844000Y-108712000D02*
X144272000Y-113284000D01*
X148844000Y-105156000D02*
X148844000Y-108712000D01*
X148041000Y-104353000D02*
X148844000Y-105156000D01*
X147391000Y-103168000D02*
X147391000Y-106609000D01*
X147391000Y-106609000D02*
X144780000Y-109220000D01*
X146741000Y-103168000D02*
X146741000Y-105735000D01*
X146741000Y-105735000D02*
X144780000Y-107696000D01*
X146091000Y-103168000D02*
X146091000Y-104861000D01*
X146091000Y-104861000D02*
X144780000Y-106172000D01*
X131826000Y-94742000D02*
X132334000Y-95250000D01*
X131508500Y-97091500D02*
X130048000Y-97091500D01*
X132334000Y-96266000D02*
X131508500Y-97091500D01*
X132334000Y-95250000D02*
X132334000Y-96266000D01*
X133604000Y-94742000D02*
X133223000Y-95123000D01*
X133223000Y-95123000D02*
X133223000Y-96266000D01*
X133223000Y-96266000D02*
X134048500Y-97091500D01*
X134048500Y-97091500D02*
X135128000Y-97091500D01*
X149352000Y-113284000D02*
X148844000Y-113792000D01*
X136652000Y-105664000D02*
X136144000Y-106172000D01*
X136779000Y-105664000D02*
X136652000Y-105664000D01*
X137160000Y-105664000D02*
X136779000Y-105664000D01*
X138430000Y-106934000D02*
X137160000Y-105664000D01*
X138430000Y-112268000D02*
X138430000Y-106934000D01*
X140208000Y-114046000D02*
X138430000Y-112268000D01*
X142621000Y-114046000D02*
X141732000Y-114046000D01*
X148590000Y-114046000D02*
X142621000Y-114046000D01*
X148717000Y-113919000D02*
X148590000Y-114046000D01*
X148844000Y-113792000D02*
X148717000Y-113919000D01*
X149341000Y-103168000D02*
X149341000Y-113273000D01*
X149341000Y-113273000D02*
X149352000Y-113284000D01*
X148691000Y-95968000D02*
X148691000Y-94133000D01*
X131762500Y-101536500D02*
X130048000Y-101536500D01*
X133350000Y-103124000D02*
X131762500Y-101536500D01*
X137414000Y-103124000D02*
X133350000Y-103124000D01*
X148691000Y-94133000D02*
X148717000Y-94107000D01*
X135128000Y-101536500D02*
X136588500Y-101536500D01*
X148041000Y-97323000D02*
X148041000Y-95968000D01*
X146431000Y-98933000D02*
X148041000Y-97323000D01*
X145923000Y-98933000D02*
X146431000Y-98933000D01*
X139573000Y-98933000D02*
X145923000Y-98933000D01*
X136588500Y-101536500D02*
X136779000Y-101727000D01*
X146050000Y-93599000D02*
X145796000Y-93345000D01*
X131889500Y-100901500D02*
X131953000Y-100838000D01*
X146050000Y-93599000D02*
X146091000Y-93640000D01*
X146091000Y-95968000D02*
X146091000Y-93640000D01*
X131889500Y-100901500D02*
X130048000Y-100901500D01*
X137922000Y-93345000D02*
X137287000Y-93345000D01*
X140970000Y-93345000D02*
X137922000Y-93345000D01*
X145796000Y-93345000D02*
X143764000Y-93345000D01*
X135128000Y-99631500D02*
X137350500Y-99631500D01*
X143491000Y-101962000D02*
X143491000Y-103168000D01*
X143256000Y-101727000D02*
X143491000Y-101962000D01*
X137541000Y-99822000D02*
X143129000Y-99822000D01*
X137350500Y-99631500D02*
X137541000Y-99822000D01*
X149341000Y-98055000D02*
X149341000Y-95968000D01*
X149098000Y-98298000D02*
X149341000Y-98055000D01*
X144272000Y-120396000D02*
X142494000Y-122174000D01*
X133604000Y-120396000D02*
X131572000Y-122428000D01*
X136144000Y-120396000D02*
X133604000Y-120396000D01*
X137922000Y-122174000D02*
X136144000Y-120396000D01*
X142494000Y-122174000D02*
X137922000Y-122174000D01*
X144272000Y-114808000D02*
X145669000Y-116205000D01*
X145669000Y-118999000D02*
X144272000Y-120396000D01*
X145669000Y-116205000D02*
X145669000Y-118999000D01*
X149991000Y-95968000D02*
X149991000Y-98048000D01*
X151130000Y-99187000D02*
X149991000Y-98048000D01*
X137160000Y-110363000D02*
X136144000Y-109347000D01*
X136144000Y-109347000D02*
X136144000Y-109220000D01*
X149352000Y-120396000D02*
X147066000Y-122682000D01*
X135128000Y-123444000D02*
X134112000Y-122428000D01*
X146304000Y-123444000D02*
X135128000Y-123444000D01*
X147066000Y-122682000D02*
X146304000Y-123444000D01*
X151130000Y-118618000D02*
X149352000Y-120396000D01*
X151130000Y-116586000D02*
X151130000Y-118618000D01*
X149352000Y-114808000D02*
X151130000Y-116586000D01*
D24*
G36*
X153568400Y-88434084D02*
X153568400Y-106891916D01*
X153119916Y-107340400D01*
X151231600Y-107340400D01*
X151231600Y-106578400D01*
X151396700Y-106578400D01*
X151485600Y-106489500D01*
X151485600Y-105943400D01*
X151790400Y-105943400D01*
X151790400Y-106489500D01*
X151879300Y-106578400D01*
X152102433Y-106578400D01*
X152233131Y-106524263D01*
X152333163Y-106424231D01*
X152387300Y-106293533D01*
X152387300Y-106032300D01*
X152298400Y-105943400D01*
X151790400Y-105943400D01*
X151485600Y-105943400D01*
X151465600Y-105943400D01*
X151465600Y-105638600D01*
X151485600Y-105638600D01*
X151485600Y-105092500D01*
X151790400Y-105092500D01*
X151790400Y-105638600D01*
X152298400Y-105638600D01*
X152387300Y-105549700D01*
X152387300Y-105288467D01*
X152333163Y-105157769D01*
X152233131Y-105057737D01*
X152102433Y-105003600D01*
X151879300Y-105003600D01*
X151790400Y-105092500D01*
X151485600Y-105092500D01*
X151396700Y-105003600D01*
X151231600Y-105003600D01*
X151231600Y-103320400D01*
X151391000Y-103320400D01*
X151391000Y-104309700D01*
X151479900Y-104398600D01*
X151561733Y-104398600D01*
X151692431Y-104344463D01*
X151792463Y-104244431D01*
X151846600Y-104113733D01*
X151846600Y-103409300D01*
X151757700Y-103320400D01*
X151391000Y-103320400D01*
X151231600Y-103320400D01*
X151231600Y-102026300D01*
X151391000Y-102026300D01*
X151391000Y-103015600D01*
X151757700Y-103015600D01*
X151846600Y-102926700D01*
X151846600Y-102222267D01*
X151792463Y-102091569D01*
X151692431Y-101991537D01*
X151561733Y-101937400D01*
X151479900Y-101937400D01*
X151391000Y-102026300D01*
X151231600Y-102026300D01*
X151231600Y-99842689D01*
X151259835Y-99842714D01*
X151500882Y-99743115D01*
X151685467Y-99558852D01*
X151785486Y-99317979D01*
X151785714Y-99057165D01*
X151686115Y-98816118D01*
X151501852Y-98631533D01*
X151260979Y-98531514D01*
X151231600Y-98531488D01*
X151231600Y-97205566D01*
X151491000Y-97205566D01*
X151622777Y-97180770D01*
X151743807Y-97102890D01*
X151825001Y-96984058D01*
X151853566Y-96843000D01*
X151853566Y-95093000D01*
X151828770Y-94961223D01*
X151771600Y-94872378D01*
X151771600Y-94268005D01*
X151771601Y-94268000D01*
X151735017Y-94084082D01*
X151707578Y-94043017D01*
X151630836Y-93928164D01*
X151630833Y-93928162D01*
X150596600Y-92893928D01*
X150596600Y-92354400D01*
X150901400Y-92354400D01*
X150901400Y-92900500D01*
X150990300Y-92989400D01*
X151213433Y-92989400D01*
X151344131Y-92935263D01*
X151444163Y-92835231D01*
X151498300Y-92704533D01*
X151498300Y-92443300D01*
X151409400Y-92354400D01*
X150901400Y-92354400D01*
X150596600Y-92354400D01*
X150088600Y-92354400D01*
X150072836Y-92370164D01*
X149981266Y-92278594D01*
X149981266Y-91770200D01*
X149967957Y-91699467D01*
X149999700Y-91699467D01*
X149999700Y-91960700D01*
X150088600Y-92049600D01*
X150596600Y-92049600D01*
X150596600Y-91503500D01*
X150901400Y-91503500D01*
X150901400Y-92049600D01*
X151409400Y-92049600D01*
X151498300Y-91960700D01*
X151498300Y-91699467D01*
X151444163Y-91568769D01*
X151344131Y-91468737D01*
X151213433Y-91414600D01*
X150990300Y-91414600D01*
X150901400Y-91503500D01*
X150596600Y-91503500D01*
X150507700Y-91414600D01*
X150284567Y-91414600D01*
X150153869Y-91468737D01*
X150053837Y-91568769D01*
X149999700Y-91699467D01*
X149967957Y-91699467D01*
X149956470Y-91638423D01*
X149878590Y-91517393D01*
X149759758Y-91436199D01*
X149618700Y-91407634D01*
X149110306Y-91407634D01*
X148617194Y-90914522D01*
X148786088Y-90844736D01*
X149136505Y-90494930D01*
X149326383Y-90037652D01*
X149326389Y-90030300D01*
X149377400Y-90030300D01*
X149377400Y-90748733D01*
X149431537Y-90879431D01*
X149531569Y-90979463D01*
X149662267Y-91033600D01*
X150380700Y-91033600D01*
X150469600Y-90944700D01*
X150469600Y-89941400D01*
X150774400Y-89941400D01*
X150774400Y-90944700D01*
X150863300Y-91033600D01*
X151581733Y-91033600D01*
X151712431Y-90979463D01*
X151812463Y-90879431D01*
X151866600Y-90748733D01*
X151866600Y-90030300D01*
X151777700Y-89941400D01*
X150774400Y-89941400D01*
X150469600Y-89941400D01*
X149466300Y-89941400D01*
X149377400Y-90030300D01*
X149326389Y-90030300D01*
X149326815Y-89542520D01*
X149137736Y-89084912D01*
X148882537Y-88829267D01*
X149377400Y-88829267D01*
X149377400Y-89547700D01*
X149466300Y-89636600D01*
X150469600Y-89636600D01*
X150469600Y-88633300D01*
X150774400Y-88633300D01*
X150774400Y-89636600D01*
X151777700Y-89636600D01*
X151866600Y-89547700D01*
X151866600Y-88829267D01*
X151812463Y-88698569D01*
X151712431Y-88598537D01*
X151581733Y-88544400D01*
X150863300Y-88544400D01*
X150774400Y-88633300D01*
X150469600Y-88633300D01*
X150380700Y-88544400D01*
X149662267Y-88544400D01*
X149531569Y-88598537D01*
X149431537Y-88698569D01*
X149377400Y-88829267D01*
X148882537Y-88829267D01*
X148787930Y-88734495D01*
X148330652Y-88544617D01*
X147835520Y-88544185D01*
X147377912Y-88733264D01*
X147027495Y-89083070D01*
X146873827Y-89453143D01*
X146662614Y-89241930D01*
X146597736Y-89084912D01*
X146247930Y-88734495D01*
X145790652Y-88544617D01*
X145295520Y-88544185D01*
X144987635Y-88671400D01*
X143555980Y-88671400D01*
X143250652Y-88544617D01*
X142755520Y-88544185D01*
X142447635Y-88671400D01*
X141015980Y-88671400D01*
X140710652Y-88544617D01*
X140215520Y-88544185D01*
X139907635Y-88671400D01*
X139700000Y-88671400D01*
X139660472Y-88679405D01*
X139628158Y-88701158D01*
X138836400Y-89492916D01*
X138836400Y-89451567D01*
X138782263Y-89320869D01*
X138682231Y-89220837D01*
X138551533Y-89166700D01*
X138290300Y-89166700D01*
X138201400Y-89255600D01*
X138201400Y-89763600D01*
X138221400Y-89763600D01*
X138221400Y-89814400D01*
X137876600Y-89814400D01*
X137876600Y-89763600D01*
X137896600Y-89763600D01*
X137896600Y-89255600D01*
X137807700Y-89166700D01*
X137546467Y-89166700D01*
X137415769Y-89220837D01*
X137315737Y-89320869D01*
X137261600Y-89451567D01*
X137261600Y-89674700D01*
X137350498Y-89763598D01*
X137261600Y-89763598D01*
X137261600Y-89814400D01*
X129921000Y-89814400D01*
X129881472Y-89822405D01*
X129848172Y-89845157D01*
X129826348Y-89879073D01*
X129819400Y-89916000D01*
X129819400Y-90534352D01*
X129773720Y-90764000D01*
X129819400Y-90993648D01*
X129819400Y-92286916D01*
X129644582Y-92461734D01*
X129616200Y-92461734D01*
X129484423Y-92486530D01*
X129363393Y-92564410D01*
X129282199Y-92683242D01*
X129253634Y-92824300D01*
X129253634Y-92852682D01*
X129087158Y-93019158D01*
X129064868Y-93052769D01*
X129057400Y-93091000D01*
X129057400Y-96601934D01*
X128948000Y-96601934D01*
X128816223Y-96626730D01*
X128695193Y-96704610D01*
X128613999Y-96823442D01*
X128585434Y-96964500D01*
X128585434Y-97218500D01*
X128610230Y-97350277D01*
X128647903Y-97408822D01*
X128613999Y-97458442D01*
X128585434Y-97599500D01*
X128585434Y-97853500D01*
X128610230Y-97985277D01*
X128647903Y-98043822D01*
X128613999Y-98093442D01*
X128585434Y-98234500D01*
X128585434Y-98488500D01*
X128610230Y-98620277D01*
X128644362Y-98673320D01*
X128592400Y-98798767D01*
X128592400Y-98844100D01*
X128681300Y-98933000D01*
X129057400Y-98933000D01*
X129057400Y-99060000D01*
X128681300Y-99060000D01*
X128592400Y-99148900D01*
X128592400Y-99194233D01*
X128644188Y-99319259D01*
X128613999Y-99363442D01*
X128585434Y-99504500D01*
X128585434Y-99758500D01*
X128610230Y-99890277D01*
X128647903Y-99948822D01*
X128613999Y-99998442D01*
X128585434Y-100139500D01*
X128585434Y-100393500D01*
X128610230Y-100525277D01*
X128647903Y-100583822D01*
X128613999Y-100633442D01*
X128585434Y-100774500D01*
X128585434Y-101028500D01*
X128610230Y-101160277D01*
X128647903Y-101218822D01*
X128613999Y-101268442D01*
X128585434Y-101409500D01*
X128585434Y-101663500D01*
X128610230Y-101795277D01*
X128688110Y-101916307D01*
X128806942Y-101997501D01*
X128948000Y-102026066D01*
X129057400Y-102026066D01*
X129057400Y-102235000D01*
X129065405Y-102274528D01*
X129087158Y-102306842D01*
X129565400Y-102785084D01*
X129565400Y-105308400D01*
X127863600Y-105308400D01*
X127863600Y-103746300D01*
X128663700Y-103746300D01*
X128663700Y-104007533D01*
X128717837Y-104138231D01*
X128817869Y-104238263D01*
X128948567Y-104292400D01*
X129171700Y-104292400D01*
X129260600Y-104203500D01*
X129260600Y-103657400D01*
X128752600Y-103657400D01*
X128663700Y-103746300D01*
X127863600Y-103746300D01*
X127863600Y-103002467D01*
X128663700Y-103002467D01*
X128663700Y-103263700D01*
X128752600Y-103352600D01*
X129260600Y-103352600D01*
X129260600Y-102806500D01*
X129171700Y-102717600D01*
X128948567Y-102717600D01*
X128817869Y-102771737D01*
X128717837Y-102871769D01*
X128663700Y-103002467D01*
X127863600Y-103002467D01*
X127863600Y-89958084D01*
X128947084Y-88874600D01*
X129249188Y-88874600D01*
X129460390Y-89015721D01*
X129850000Y-89093219D01*
X130239610Y-89015721D01*
X130450812Y-88874600D01*
X136249188Y-88874600D01*
X136460390Y-89015721D01*
X136850000Y-89093219D01*
X137239610Y-89015721D01*
X137569905Y-88795024D01*
X137638864Y-88691820D01*
X139234084Y-87096600D01*
X152230916Y-87096600D01*
X153568400Y-88434084D01*
X153568400Y-88434084D01*
G37*
X153568400Y-88434084D02*
X153568400Y-106891916D01*
X153119916Y-107340400D01*
X151231600Y-107340400D01*
X151231600Y-106578400D01*
X151396700Y-106578400D01*
X151485600Y-106489500D01*
X151485600Y-105943400D01*
X151790400Y-105943400D01*
X151790400Y-106489500D01*
X151879300Y-106578400D01*
X152102433Y-106578400D01*
X152233131Y-106524263D01*
X152333163Y-106424231D01*
X152387300Y-106293533D01*
X152387300Y-106032300D01*
X152298400Y-105943400D01*
X151790400Y-105943400D01*
X151485600Y-105943400D01*
X151465600Y-105943400D01*
X151465600Y-105638600D01*
X151485600Y-105638600D01*
X151485600Y-105092500D01*
X151790400Y-105092500D01*
X151790400Y-105638600D01*
X152298400Y-105638600D01*
X152387300Y-105549700D01*
X152387300Y-105288467D01*
X152333163Y-105157769D01*
X152233131Y-105057737D01*
X152102433Y-105003600D01*
X151879300Y-105003600D01*
X151790400Y-105092500D01*
X151485600Y-105092500D01*
X151396700Y-105003600D01*
X151231600Y-105003600D01*
X151231600Y-103320400D01*
X151391000Y-103320400D01*
X151391000Y-104309700D01*
X151479900Y-104398600D01*
X151561733Y-104398600D01*
X151692431Y-104344463D01*
X151792463Y-104244431D01*
X151846600Y-104113733D01*
X151846600Y-103409300D01*
X151757700Y-103320400D01*
X151391000Y-103320400D01*
X151231600Y-103320400D01*
X151231600Y-102026300D01*
X151391000Y-102026300D01*
X151391000Y-103015600D01*
X151757700Y-103015600D01*
X151846600Y-102926700D01*
X151846600Y-102222267D01*
X151792463Y-102091569D01*
X151692431Y-101991537D01*
X151561733Y-101937400D01*
X151479900Y-101937400D01*
X151391000Y-102026300D01*
X151231600Y-102026300D01*
X151231600Y-99842689D01*
X151259835Y-99842714D01*
X151500882Y-99743115D01*
X151685467Y-99558852D01*
X151785486Y-99317979D01*
X151785714Y-99057165D01*
X151686115Y-98816118D01*
X151501852Y-98631533D01*
X151260979Y-98531514D01*
X151231600Y-98531488D01*
X151231600Y-97205566D01*
X151491000Y-97205566D01*
X151622777Y-97180770D01*
X151743807Y-97102890D01*
X151825001Y-96984058D01*
X151853566Y-96843000D01*
X151853566Y-95093000D01*
X151828770Y-94961223D01*
X151771600Y-94872378D01*
X151771600Y-94268005D01*
X151771601Y-94268000D01*
X151735017Y-94084082D01*
X151707578Y-94043017D01*
X151630836Y-93928164D01*
X151630833Y-93928162D01*
X150596600Y-92893928D01*
X150596600Y-92354400D01*
X150901400Y-92354400D01*
X150901400Y-92900500D01*
X150990300Y-92989400D01*
X151213433Y-92989400D01*
X151344131Y-92935263D01*
X151444163Y-92835231D01*
X151498300Y-92704533D01*
X151498300Y-92443300D01*
X151409400Y-92354400D01*
X150901400Y-92354400D01*
X150596600Y-92354400D01*
X150088600Y-92354400D01*
X150072836Y-92370164D01*
X149981266Y-92278594D01*
X149981266Y-91770200D01*
X149967957Y-91699467D01*
X149999700Y-91699467D01*
X149999700Y-91960700D01*
X150088600Y-92049600D01*
X150596600Y-92049600D01*
X150596600Y-91503500D01*
X150901400Y-91503500D01*
X150901400Y-92049600D01*
X151409400Y-92049600D01*
X151498300Y-91960700D01*
X151498300Y-91699467D01*
X151444163Y-91568769D01*
X151344131Y-91468737D01*
X151213433Y-91414600D01*
X150990300Y-91414600D01*
X150901400Y-91503500D01*
X150596600Y-91503500D01*
X150507700Y-91414600D01*
X150284567Y-91414600D01*
X150153869Y-91468737D01*
X150053837Y-91568769D01*
X149999700Y-91699467D01*
X149967957Y-91699467D01*
X149956470Y-91638423D01*
X149878590Y-91517393D01*
X149759758Y-91436199D01*
X149618700Y-91407634D01*
X149110306Y-91407634D01*
X148617194Y-90914522D01*
X148786088Y-90844736D01*
X149136505Y-90494930D01*
X149326383Y-90037652D01*
X149326389Y-90030300D01*
X149377400Y-90030300D01*
X149377400Y-90748733D01*
X149431537Y-90879431D01*
X149531569Y-90979463D01*
X149662267Y-91033600D01*
X150380700Y-91033600D01*
X150469600Y-90944700D01*
X150469600Y-89941400D01*
X150774400Y-89941400D01*
X150774400Y-90944700D01*
X150863300Y-91033600D01*
X151581733Y-91033600D01*
X151712431Y-90979463D01*
X151812463Y-90879431D01*
X151866600Y-90748733D01*
X151866600Y-90030300D01*
X151777700Y-89941400D01*
X150774400Y-89941400D01*
X150469600Y-89941400D01*
X149466300Y-89941400D01*
X149377400Y-90030300D01*
X149326389Y-90030300D01*
X149326815Y-89542520D01*
X149137736Y-89084912D01*
X148882537Y-88829267D01*
X149377400Y-88829267D01*
X149377400Y-89547700D01*
X149466300Y-89636600D01*
X150469600Y-89636600D01*
X150469600Y-88633300D01*
X150774400Y-88633300D01*
X150774400Y-89636600D01*
X151777700Y-89636600D01*
X151866600Y-89547700D01*
X151866600Y-88829267D01*
X151812463Y-88698569D01*
X151712431Y-88598537D01*
X151581733Y-88544400D01*
X150863300Y-88544400D01*
X150774400Y-88633300D01*
X150469600Y-88633300D01*
X150380700Y-88544400D01*
X149662267Y-88544400D01*
X149531569Y-88598537D01*
X149431537Y-88698569D01*
X149377400Y-88829267D01*
X148882537Y-88829267D01*
X148787930Y-88734495D01*
X148330652Y-88544617D01*
X147835520Y-88544185D01*
X147377912Y-88733264D01*
X147027495Y-89083070D01*
X146873827Y-89453143D01*
X146662614Y-89241930D01*
X146597736Y-89084912D01*
X146247930Y-88734495D01*
X145790652Y-88544617D01*
X145295520Y-88544185D01*
X144987635Y-88671400D01*
X143555980Y-88671400D01*
X143250652Y-88544617D01*
X142755520Y-88544185D01*
X142447635Y-88671400D01*
X141015980Y-88671400D01*
X140710652Y-88544617D01*
X140215520Y-88544185D01*
X139907635Y-88671400D01*
X139700000Y-88671400D01*
X139660472Y-88679405D01*
X139628158Y-88701158D01*
X138836400Y-89492916D01*
X138836400Y-89451567D01*
X138782263Y-89320869D01*
X138682231Y-89220837D01*
X138551533Y-89166700D01*
X138290300Y-89166700D01*
X138201400Y-89255600D01*
X138201400Y-89763600D01*
X138221400Y-89763600D01*
X138221400Y-89814400D01*
X137876600Y-89814400D01*
X137876600Y-89763600D01*
X137896600Y-89763600D01*
X137896600Y-89255600D01*
X137807700Y-89166700D01*
X137546467Y-89166700D01*
X137415769Y-89220837D01*
X137315737Y-89320869D01*
X137261600Y-89451567D01*
X137261600Y-89674700D01*
X137350498Y-89763598D01*
X137261600Y-89763598D01*
X137261600Y-89814400D01*
X129921000Y-89814400D01*
X129881472Y-89822405D01*
X129848172Y-89845157D01*
X129826348Y-89879073D01*
X129819400Y-89916000D01*
X129819400Y-90534352D01*
X129773720Y-90764000D01*
X129819400Y-90993648D01*
X129819400Y-92286916D01*
X129644582Y-92461734D01*
X129616200Y-92461734D01*
X129484423Y-92486530D01*
X129363393Y-92564410D01*
X129282199Y-92683242D01*
X129253634Y-92824300D01*
X129253634Y-92852682D01*
X129087158Y-93019158D01*
X129064868Y-93052769D01*
X129057400Y-93091000D01*
X129057400Y-96601934D01*
X128948000Y-96601934D01*
X128816223Y-96626730D01*
X128695193Y-96704610D01*
X128613999Y-96823442D01*
X128585434Y-96964500D01*
X128585434Y-97218500D01*
X128610230Y-97350277D01*
X128647903Y-97408822D01*
X128613999Y-97458442D01*
X128585434Y-97599500D01*
X128585434Y-97853500D01*
X128610230Y-97985277D01*
X128647903Y-98043822D01*
X128613999Y-98093442D01*
X128585434Y-98234500D01*
X128585434Y-98488500D01*
X128610230Y-98620277D01*
X128644362Y-98673320D01*
X128592400Y-98798767D01*
X128592400Y-98844100D01*
X128681300Y-98933000D01*
X129057400Y-98933000D01*
X129057400Y-99060000D01*
X128681300Y-99060000D01*
X128592400Y-99148900D01*
X128592400Y-99194233D01*
X128644188Y-99319259D01*
X128613999Y-99363442D01*
X128585434Y-99504500D01*
X128585434Y-99758500D01*
X128610230Y-99890277D01*
X128647903Y-99948822D01*
X128613999Y-99998442D01*
X128585434Y-100139500D01*
X128585434Y-100393500D01*
X128610230Y-100525277D01*
X128647903Y-100583822D01*
X128613999Y-100633442D01*
X128585434Y-100774500D01*
X128585434Y-101028500D01*
X128610230Y-101160277D01*
X128647903Y-101218822D01*
X128613999Y-101268442D01*
X128585434Y-101409500D01*
X128585434Y-101663500D01*
X128610230Y-101795277D01*
X128688110Y-101916307D01*
X128806942Y-101997501D01*
X128948000Y-102026066D01*
X129057400Y-102026066D01*
X129057400Y-102235000D01*
X129065405Y-102274528D01*
X129087158Y-102306842D01*
X129565400Y-102785084D01*
X129565400Y-105308400D01*
X127863600Y-105308400D01*
X127863600Y-103746300D01*
X128663700Y-103746300D01*
X128663700Y-104007533D01*
X128717837Y-104138231D01*
X128817869Y-104238263D01*
X128948567Y-104292400D01*
X129171700Y-104292400D01*
X129260600Y-104203500D01*
X129260600Y-103657400D01*
X128752600Y-103657400D01*
X128663700Y-103746300D01*
X127863600Y-103746300D01*
X127863600Y-103002467D01*
X128663700Y-103002467D01*
X128663700Y-103263700D01*
X128752600Y-103352600D01*
X129260600Y-103352600D01*
X129260600Y-102806500D01*
X129171700Y-102717600D01*
X128948567Y-102717600D01*
X128817869Y-102771737D01*
X128717837Y-102871769D01*
X128663700Y-103002467D01*
X127863600Y-103002467D01*
X127863600Y-89958084D01*
X128947084Y-88874600D01*
X129249188Y-88874600D01*
X129460390Y-89015721D01*
X129850000Y-89093219D01*
X130239610Y-89015721D01*
X130450812Y-88874600D01*
X136249188Y-88874600D01*
X136460390Y-89015721D01*
X136850000Y-89093219D01*
X137239610Y-89015721D01*
X137569905Y-88795024D01*
X137638864Y-88691820D01*
X139234084Y-87096600D01*
X152230916Y-87096600D01*
X153568400Y-88434084D01*
M02*
